<?xml version="1.0" standalone="no"?>
<!DOCTYPE svg PUBLIC "-//W3C//DTD SVG 1.1//EN" "http://www.w3.org/Graphics/SVG/1.1/DTD/svg11.dtd" >
<svg xmlns="http://www.w3.org/2000/svg">
<metadata>
This is a custom SVG webfont generated by Font Squirrel.
Copyright   : Copyright c 2006 A Gurskas O Aleknaviien L Grumadien P Skirmantas M Strockis V Tumasonis
Foundry     : A Gurskas O Aleknaviien L Grumadien P Skirmantas M Strockis V Tumasonis
</metadata>
<defs>
<font id="PalemonasBold" horiz-adv-x="0" >
<font-face units-per-em="2048" ascent="1638" descent="-410" />
<missing-glyph horiz-adv-x="576" />
<glyph unicode="A&#x300;" horiz-adv-x="1487" d="M-56 0v48l195 32l540 1194h192l500 -1194l141 -32v-48h-650v49l188 31l-160 387h-473l-155 -387l227 -32v-48h-545zM448 542h411l-207 505zM371 1714q0 10 11 17.5t35 7.5h184q26 0 39.5 -4t25.5 -20l200 -272q8 -10 5 -21t-27 -11q-18 0 -37 12l-412 261q-14 8 -19 16.5 t-5 13.5z" />
<glyph unicode="A&#x301;" horiz-adv-x="1487" d="M-56 0v48l195 32l540 1194h192l500 -1194l141 -32v-48h-650v49l188 31l-160 387h-473l-155 -387l227 -32v-48h-545zM448 542h411l-207 505zM678 1422q-3 11 5 21l200 272q12 16 25.5 20t39.5 4h184q24 0 35 -7.5t11 -17.5q0 -5 -5 -13.5t-19 -16.5l-412 -261 q-20 -12 -37 -12q-24 0 -27 11z" />
<glyph unicode="A&#x303;" horiz-adv-x="1487" d="M-56 0v48l195 32l540 1194h192l500 -1194l141 -32v-48h-650v49l188 31l-160 387h-473l-155 -387l227 -32v-48h-545zM448 542h411l-207 505zM495 1383q4 55 17.5 102t35.5 81t52.5 53t69.5 19t72.5 -16.5t63 -36t56.5 -36t53 -16.5q42 0 66 22.5t28 82.5h36 q-2 -54 -13.5 -100.5t-32.5 -80t-51.5 -53t-69.5 -19.5q-40 0 -71 16.5t-59 36t-56 36t-61 16.5q-38 0 -66.5 -24t-33.5 -83h-36z" />
<glyph unicode="E&#x300;" horiz-adv-x="1382" d="M62 0v48l195 32v1114l-195 32v48h1202v-299l-56 -5l-78 214h-568v-498h325l59 153h46v-388h-46l-59 153h-325v-393q0 -42 4.5 -66.5t16 -37.5t31 -16.5t50.5 -3.5h483l101 242h60l-29 -329h-1217zM400 1714q0 10 11 17.5t35 7.5h184q26 0 39.5 -4t25.5 -20l200 -272 q8 -10 5 -21t-27 -11q-18 0 -37 12l-412 261q-14 8 -19 16.5t-5 13.5z" />
<glyph unicode="E&#x301;" horiz-adv-x="1382" d="M62 0v48l195 32v1114l-195 32v48h1202v-299l-56 -5l-78 214h-568v-498h325l59 153h46v-388h-46l-59 153h-325v-393q0 -42 4.5 -66.5t16 -37.5t31 -16.5t50.5 -3.5h483l101 242h60l-29 -329h-1217zM567 1422q-3 11 5 21l200 272q12 16 25.5 20t39.5 4h184q24 0 35 -7.5 t11 -17.5q0 -5 -5 -13.5t-19 -16.5l-412 -261q-20 -12 -37 -12q-24 0 -27 11z" />
<glyph unicode="I&#x300;" horiz-adv-x="791" d="M45 1226v48h698v-48l-194 -32v-1095l194 -51v-48h-696v48l195 51v1095zM40 1714q0 10 11 17.5t35 7.5h184q26 0 39.5 -4t25.5 -20l200 -272q8 -10 5 -21t-27 -11q-18 0 -37 12l-412 261q-14 8 -19 16.5t-5 13.5z" />
<glyph unicode="I&#x301;" horiz-adv-x="791" d="M45 1226v48h698v-48l-194 -32v-1095l194 -51v-48h-696v48l195 51v1095zM246 1422q-3 11 5 21l200 272q12 16 25.5 20t39.5 4h184q24 0 35 -7.5t11 -17.5q0 -5 -5 -13.5t-19 -16.5l-412 -261q-20 -12 -37 -12q-24 0 -27 11z" />
<glyph unicode="N&#x303;" horiz-adv-x="1693" d="M64 0v48l188 32l35 1114l-192 32v50h394l802 -893l-15 811l-207 32v48h489v-48l-150 -32l-54 -1200h-69l-935 1010l36 -924l167 -32v-48h-489zM567 1383q4 55 17.5 102t35.5 81t52.5 53t69.5 19t72.5 -16.5t63 -36t56.5 -36t53 -16.5q42 0 66 22.5t28 82.5h36 q-2 -54 -13.5 -100.5t-32.5 -80t-51.5 -53t-69.5 -19.5q-40 0 -71 16.5t-59 36t-56 36t-61 16.5q-38 0 -66.5 -24t-33.5 -83h-36z" />
<glyph unicode="O&#x300;" horiz-adv-x="1757" d="M76 611q0 94 26 181.5t74 163.5t115.5 139.5t150 108.5t178.5 70t200 25q158 0 290.5 -50.5t228 -137.5t149 -204.5t53.5 -251.5q0 -105 -29.5 -197t-81 -168.5t-122 -136.5t-153 -101.5t-173.5 -63t-183 -21.5q-160 0 -293 50.5t-228.5 138t-148.5 204.5t-53 251z M407 687q0 -141 28 -259t81.5 -203t131 -132.5t176.5 -47.5q97 0 169 38t120 109t72 172.5t24 229.5q0 135 -29 248.5t-83.5 196t-132 128.5t-174.5 46q-92 0 -163.5 -37.5t-120.5 -106t-74 -165.5t-25 -217zM459 1714q0 10 11 17.5t35 7.5h184q26 0 39.5 -4t25.5 -20 l200 -272q8 -10 5 -21t-27 -11q-18 0 -37 12l-412 261q-14 8 -19 16.5t-5 13.5z" />
<glyph unicode="O&#x301;" horiz-adv-x="1757" d="M76 611q0 94 26 181.5t74 163.5t115.5 139.5t150 108.5t178.5 70t200 25q158 0 290.5 -50.5t228 -137.5t149 -204.5t53.5 -251.5q0 -105 -29.5 -197t-81 -168.5t-122 -136.5t-153 -101.5t-173.5 -63t-183 -21.5q-160 0 -293 50.5t-228.5 138t-148.5 204.5t-53 251z M407 687q0 -141 28 -259t81.5 -203t131 -132.5t176.5 -47.5q97 0 169 38t120 109t72 172.5t24 229.5q0 135 -29 248.5t-83.5 196t-132 128.5t-174.5 46q-92 0 -163.5 -37.5t-120.5 -106t-74 -165.5t-25 -217zM697 1422q-3 11 5 21l200 272q12 16 25.5 20t39.5 4h184 q24 0 35 -7.5t11 -17.5q0 -5 -5 -13.5t-19 -16.5l-412 -261q-20 -12 -37 -12q-24 0 -27 11z" />
<glyph unicode="O&#x303;" horiz-adv-x="1757" d="M76 611q0 94 26 181.5t74 163.5t115.5 139.5t150 108.5t178.5 70t200 25q158 0 290.5 -50.5t228 -137.5t149 -204.5t53.5 -251.5q0 -105 -29.5 -197t-81 -168.5t-122 -136.5t-153 -101.5t-173.5 -63t-183 -21.5q-160 0 -293 50.5t-228.5 138t-148.5 204.5t-53 251z M407 687q0 -141 28 -259t81.5 -203t131 -132.5t176.5 -47.5q97 0 169 38t120 109t72 172.5t24 229.5q0 135 -29 248.5t-83.5 196t-132 128.5t-174.5 46q-92 0 -163.5 -37.5t-120.5 -106t-74 -165.5t-25 -217zM538 1383q4 55 17.5 102t35.5 81t52.5 53t69.5 19t72.5 -16.5 t63 -36t56.5 -36t53 -16.5q42 0 66 22.5t28 82.5h36q-2 -54 -13.5 -100.5t-32.5 -80t-51.5 -53t-69.5 -19.5q-40 0 -71 16.5t-59 36t-56 36t-61 16.5q-38 0 -66.5 -24t-33.5 -83h-36z" />
<glyph unicode="U&#x300;" horiz-adv-x="1662" d="M57 1226v48h690v-48l-195 -32v-687q0 -95 11.5 -173t47.5 -133.5t104.5 -85.5t182.5 -30q208 -1 306 119q89 108 89 330q0 22 -1 46l-25 614l-176 32v48h507v-48l-199 -32l-23 -664q-5 -146 -33.5 -251t-92 -173t-169.5 -100.5t-265 -32.5q-155 0 -262.5 31.5t-174.5 95 t-97.5 159t-30.5 224.5v711zM488 1714q0 10 11 17.5t35 7.5h184q26 0 39.5 -4t25.5 -20l200 -272q8 -10 5 -21t-27 -11q-18 0 -37 12l-412 261q-14 8 -19 16.5t-5 13.5z" />
<glyph unicode="U&#x301;" horiz-adv-x="1662" d="M57 1226v48h690v-48l-195 -32v-687q0 -95 11.5 -173t47.5 -133.5t104.5 -85.5t182.5 -30q208 -1 306 119q89 108 89 330q0 22 -1 46l-25 614l-176 32v48h507v-48l-199 -32l-23 -664q-5 -146 -33.5 -251t-92 -173t-169.5 -100.5t-265 -32.5q-155 0 -262.5 31.5t-174.5 95 t-97.5 159t-30.5 224.5v711zM756 1422q-3 11 5 21l200 272q12 16 25.5 20t39.5 4h184q24 0 35 -7.5t11 -17.5q0 -5 -5 -13.5t-19 -16.5l-412 -261q-20 -12 -37 -12q-24 0 -27 11z" />
<glyph unicode="Y&#x301;" horiz-adv-x="1520" d="M107 1226v48h676v-48l-178 -32l285 -541l282 541l-192 32v48h474v-48l-143 -32l-372 -610v-504l197 -32v-48h-698v48l194 31v478l-387 637zM742 1422q-3 11 5 21l200 272q12 16 25.5 20t39.5 4h184q24 0 35 -7.5t11 -17.5q0 -5 -5 -13.5t-19 -16.5l-412 -261 q-20 -12 -37 -12q-24 0 -27 11z" />
<glyph unicode="a&#x300;" horiz-adv-x="1049" d="M88 197q0 60 25 102.5t66.5 71.5t95.5 48t111.5 34t114 28t103.5 30v78q0 46 -13.5 79.5t-34 54.5t-43.5 31t-42 10q-47 0 -81.5 -19t-58.5 -51.5t-38.5 -76t-21.5 -93.5h-127v166q31 38 74 65.5t91.5 45t100 25.5t99.5 8q74 0 140.5 -12t117 -42t80.5 -81.5t30 -129.5 v-489l107 -32v-48h-295q-44 0 -64.5 22.5t-21.5 49.5q-58 -55 -121 -76t-138 -21q-121 0 -188.5 58.5t-67.5 163.5zM336 214q0 -24 8.5 -46t26 -38t42.5 -25.5t58 -9.5q34 0 67 24t66 63v247q-69 -8 -119.5 -30.5t-83.5 -52.5t-49 -64.5t-16 -67.5zM159 1304q0 10 11 17.5 t35 7.5h184q26 0 39.5 -4t25.5 -20l200 -272q8 -10 5 -21t-27 -11q-18 0 -37 12l-412 261q-14 8 -19 16.5t-5 13.5z" />
<glyph unicode="a&#x301;" horiz-adv-x="1049" d="M88 197q0 60 25 102.5t66.5 71.5t95.5 48t111.5 34t114 28t103.5 30v78q0 46 -13.5 79.5t-34 54.5t-43.5 31t-42 10q-47 0 -81.5 -19t-58.5 -51.5t-38.5 -76t-21.5 -93.5h-127v166q31 38 74 65.5t91.5 45t100 25.5t99.5 8q74 0 140.5 -12t117 -42t80.5 -81.5t30 -129.5 v-489l107 -32v-48h-295q-44 0 -64.5 22.5t-21.5 49.5q-58 -55 -121 -76t-138 -21q-121 0 -188.5 58.5t-67.5 163.5zM336 214q0 -24 8.5 -46t26 -38t42.5 -25.5t58 -9.5q34 0 67 24t66 63v247q-69 -8 -119.5 -30.5t-83.5 -52.5t-49 -64.5t-16 -67.5zM340 1012q-3 11 5 21 l200 272q12 16 25.5 20t39.5 4h184q24 0 35 -7.5t11 -17.5q0 -5 -5 -13.5t-19 -16.5l-412 -261q-20 -12 -37 -12q-24 0 -27 11z" />
<glyph unicode="a&#x303;" horiz-adv-x="1049" d="M88 197q0 60 25 102.5t66.5 71.5t95.5 48t111.5 34t114 28t103.5 30v78q0 46 -13.5 79.5t-34 54.5t-43.5 31t-42 10q-47 0 -81.5 -19t-58.5 -51.5t-38.5 -76t-21.5 -93.5h-127v166q31 38 74 65.5t91.5 45t100 25.5t99.5 8q74 0 140.5 -12t117 -42t80.5 -81.5t30 -129.5 v-489l107 -32v-48h-295q-44 0 -64.5 22.5t-21.5 49.5q-58 -55 -121 -76t-138 -21q-121 0 -188.5 58.5t-67.5 163.5zM336 214q0 -24 8.5 -46t26 -38t42.5 -25.5t58 -9.5q34 0 67 24t66 63v247q-69 -8 -119.5 -30.5t-83.5 -52.5t-49 -64.5t-16 -67.5zM241 1005q4 55 17.5 102 t35.5 81t52.5 53t69.5 19t72.5 -16.5t63 -36t56.5 -36t53 -16.5q42 0 66 22.5t28 82.5h36q-2 -54 -13.5 -100.5t-32.5 -80t-51.5 -53t-69.5 -19.5q-40 0 -71 16.5t-59 36t-56 36t-61 16.5q-38 0 -66.5 -24t-33.5 -83h-36z" />
<glyph unicode="e&#x300;" horiz-adv-x="1044" d="M78 391q0 103 37 185.5t101.5 139.5t152 87.5t189.5 30.5q99 0 171 -32.5t119 -89.5t70 -134t25 -167h-577q8 -150 82 -225.5t201 -75.5q36 0 68 7.5t62 22.5t60 39t63 57l43 -38q-98 -113 -200 -168t-223 -55q-96 0 -177.5 31t-141 86.5t-92.5 132t-33 166.5zM366 485 h327q-1 125 -45.5 188.5t-122.5 63.5q-81 0 -120 -67t-39 -185zM206 1304q0 10 11 17.5t35 7.5h184q26 0 39.5 -4t25.5 -20l200 -272q8 -10 5 -21t-27 -11q-18 0 -37 12l-412 261q-14 8 -19 16.5t-5 13.5z" />
<glyph unicode="e&#x301;" horiz-adv-x="1044" d="M78 391q0 103 37 185.5t101.5 139.5t152 87.5t189.5 30.5q99 0 171 -32.5t119 -89.5t70 -134t25 -167h-577q8 -150 82 -225.5t201 -75.5q36 0 68 7.5t62 22.5t60 39t63 57l43 -38q-98 -113 -200 -168t-223 -55q-96 0 -177.5 31t-141 86.5t-92.5 132t-33 166.5zM366 485 h327q-1 125 -45.5 188.5t-122.5 63.5q-81 0 -120 -67t-39 -185zM394 1012q-3 11 5 21l200 272q12 16 25.5 20t39.5 4h184q24 0 35 -7.5t11 -17.5q0 -5 -5 -13.5t-19 -16.5l-412 -261q-20 -12 -37 -12q-24 0 -27 11z" />
<glyph unicode="n&#x303;" horiz-adv-x="1249" d="M52 0v48l129 32v650h-129v48l338 56h65v-112q48 26 91.5 47t89 35.5t94.5 22t107 7.5t104.5 -17t78.5 -49t49.5 -78t17.5 -103v-507l127 -32v-48h-530v48l129 32v399q0 67 -10.5 112.5t-28.5 73.5t-43 40t-54 12q-48 0 -104.5 -27t-117.5 -63v-547l127 -32v-48h-530z M359 1005q4 55 17.5 102t35.5 81t52.5 53t69.5 19t72.5 -16.5t63 -36t56.5 -36t53 -16.5q42 0 66 22.5t28 82.5h36q-2 -54 -13.5 -100.5t-32.5 -80t-51.5 -53t-69.5 -19.5q-40 0 -71 16.5t-59 36t-56 36t-61 16.5q-38 0 -66.5 -24t-33.5 -83h-36z" />
<glyph unicode="o&#x300;" horiz-adv-x="1130" d="M74 401q0 100 38 180.5t105 136.5t159 86.5t200 30.5q107 0 195.5 -29t151.5 -83.5t97.5 -132t34.5 -174.5q0 -99 -37 -180t-104 -138.5t-159 -89.5t-202 -32q-107 0 -195 29.5t-151 85t-98 134t-35 176.5zM341 545q0 -117 18 -209.5t52 -156.5t81.5 -98t107.5 -34 q93 0 137.5 63.5t44.5 184.5q0 109 -18.5 197t-52 149.5t-81.5 94.5t-106 33q-88 0 -135.5 -61t-47.5 -163zM218 1304q0 10 11 17.5t35 7.5h184q26 0 39.5 -4t25.5 -20l200 -272q8 -10 5 -21t-27 -11q-18 0 -37 12l-412 261q-14 8 -19 16.5t-5 13.5z" />
<glyph unicode="o&#x301;" horiz-adv-x="1130" d="M74 401q0 100 38 180.5t105 136.5t159 86.5t200 30.5q107 0 195.5 -29t151.5 -83.5t97.5 -132t34.5 -174.5q0 -99 -37 -180t-104 -138.5t-159 -89.5t-202 -32q-107 0 -195 29.5t-151 85t-98 134t-35 176.5zM341 545q0 -117 18 -209.5t52 -156.5t81.5 -98t107.5 -34 q93 0 137.5 63.5t44.5 184.5q0 109 -18.5 197t-52 149.5t-81.5 94.5t-106 33q-88 0 -135.5 -61t-47.5 -163zM407 1012q-3 11 5 21l200 272q12 16 25.5 20t39.5 4h184q24 0 35 -7.5t11 -17.5q0 -5 -5 -13.5t-19 -16.5l-412 -261q-20 -12 -37 -12q-24 0 -27 11z" />
<glyph unicode="o&#x303;" horiz-adv-x="1130" d="M74 401q0 100 38 180.5t105 136.5t159 86.5t200 30.5q107 0 195.5 -29t151.5 -83.5t97.5 -132t34.5 -174.5q0 -99 -37 -180t-104 -138.5t-159 -89.5t-202 -32q-107 0 -195 29.5t-151 85t-98 134t-35 176.5zM341 545q0 -117 18 -209.5t52 -156.5t81.5 -98t107.5 -34 q93 0 137.5 63.5t44.5 184.5q0 109 -18.5 197t-52 149.5t-81.5 94.5t-106 33q-88 0 -135.5 -61t-47.5 -163zM290 1005q4 55 17.5 102t35.5 81t52.5 53t69.5 19t72.5 -16.5t63 -36t56.5 -36t53 -16.5q42 0 66 22.5t28 82.5h36q-2 -54 -13.5 -100.5t-32.5 -80t-51.5 -53 t-69.5 -19.5q-40 0 -71 16.5t-59 36t-56 36t-61 16.5q-38 0 -66.5 -24t-33.5 -83h-36z" />
<glyph unicode="u&#x300;" horiz-adv-x="1237" d="M37 730v48l338 66h65v-477q0 -72 9 -120t27 -76.5t44.5 -40t60.5 -11.5q49 0 102 28t101 70v513h-129v49l338 65h65v-764l132 -32v-48h-406v123q-60 -40 -109.5 -68t-93.5 -46t-86.5 -26t-90.5 -8q-66 0 -111.5 23.5t-73.5 68.5t-40.5 110t-12.5 147v406h-129zM265 1304 q0 10 11 17.5t35 7.5h184q26 0 39.5 -4t25.5 -20l200 -272q8 -10 5 -21t-27 -11q-18 0 -37 12l-412 261q-14 8 -19 16.5t-5 13.5z" />
<glyph unicode="u&#x301;" horiz-adv-x="1237" d="M37 730v48l338 66h65v-477q0 -72 9 -120t27 -76.5t44.5 -40t60.5 -11.5q49 0 102 28t101 70v513h-129v49l338 65h65v-764l132 -32v-48h-406v123q-60 -40 -109.5 -68t-93.5 -46t-86.5 -26t-90.5 -8q-66 0 -111.5 23.5t-73.5 68.5t-40.5 110t-12.5 147v406h-129zM494 1012 q-3 11 5 21l200 272q12 16 25.5 20t39.5 4h184q24 0 35 -7.5t11 -17.5q0 -5 -5 -13.5t-19 -16.5l-412 -261q-20 -12 -37 -12q-24 0 -27 11z" />
<glyph unicode="y&#x301;" horiz-adv-x="1016" d="M-52 762v49h560v-49l-141 -32l231 -436l229 436l-176 32v49h424v-49l-141 -32l-480 -927q-22 -42 -57 -89.5t-77 -88.5t-88.5 -69.5t-91.5 -32.5l-111 180q19 -6 45 -6q39 0 85.5 14.5t91 41t83 64.5t61.5 85l51 103l-363 725zM433 1012q-3 11 5 21l200 272 q12 16 25.5 20t39.5 4h184q24 0 35 -7.5t11 -17.5q0 -5 -5 -13.5t-19 -16.5l-412 -261q-20 -12 -37 -12q-24 0 -27 11z" />
<glyph unicode="I&#x303;" horiz-adv-x="791" d="M45 1226v48h698v-48l-194 -32v-1095l194 -51v-48h-696v48l195 51v1095zM120 1383q4 55 17.5 102t35.5 81t52.5 53t69.5 19t72.5 -16.5t63 -36t56.5 -36t53 -16.5q42 0 66 22.5t28 82.5h36q-2 -54 -13.5 -100.5t-32.5 -80t-51.5 -53t-69.5 -19.5q-40 0 -71 16.5t-59 36 t-56 36t-61 16.5q-38 0 -66.5 -24t-33.5 -83h-36z" />
<glyph unicode="U&#x303;" horiz-adv-x="1662" d="M57 1226v48h690v-48l-195 -32v-687q0 -95 11.5 -173t47.5 -133.5t104.5 -85.5t182.5 -30q208 -1 306 119q89 108 89 330q0 22 -1 46l-25 614l-176 32v48h507v-48l-199 -32l-23 -664q-5 -146 -33.5 -251t-92 -173t-169.5 -100.5t-265 -32.5q-155 0 -262.5 31.5t-174.5 95 t-97.5 159t-30.5 224.5v711zM646 1383q4 55 17.5 102t35.5 81t52.5 53t69.5 19t72.5 -16.5t63 -36t56.5 -36t53 -16.5q42 0 66 22.5t28 82.5h36q-2 -54 -13.5 -100.5t-32.5 -80t-51.5 -53t-69.5 -19.5q-40 0 -71 16.5t-59 36t-56 36t-61 16.5q-38 0 -66.5 -24t-33.5 -83h-36 z" />
<glyph unicode="u&#x303;" horiz-adv-x="1237" d="M37 730v48l338 66h65v-477q0 -72 9 -120t27 -76.5t44.5 -40t60.5 -11.5q49 0 102 28t101 70v513h-129v49l338 65h65v-764l132 -32v-48h-406v123q-60 -40 -109.5 -68t-93.5 -46t-86.5 -26t-90.5 -8q-66 0 -111.5 23.5t-73.5 68.5t-40.5 110t-12.5 147v406h-129zM332 1005 q4 55 17.5 102t35.5 81t52.5 53t69.5 19t72.5 -16.5t63 -36t56.5 -36t53 -16.5q42 0 66 22.5t28 82.5h36q-2 -54 -13.5 -100.5t-32.5 -80t-51.5 -53t-69.5 -19.5q-40 0 -71 16.5t-59 36t-56 36t-61 16.5q-38 0 -66.5 -24t-33.5 -83h-36z" />
<glyph unicode="E&#x303;" horiz-adv-x="1382" d="M62 0v48l195 32v1114l-195 32v48h1202v-299l-56 -5l-78 214h-568v-498h325l59 153h46v-388h-46l-59 153h-325v-393q0 -42 4.5 -66.5t16 -37.5t31 -16.5t50.5 -3.5h483l101 242h60l-29 -329h-1217zM534 1383q4 55 17.5 102t35.5 81t52.5 53t69.5 19t72.5 -16.5t63 -36 t56.5 -36t53 -16.5q42 0 66 22.5t28 82.5h36q-2 -54 -13.5 -100.5t-32.5 -80t-51.5 -53t-69.5 -19.5q-40 0 -71 16.5t-59 36t-56 36t-61 16.5q-38 0 -66.5 -24t-33.5 -83h-36z" />
<glyph unicode="e&#x303;" horiz-adv-x="1044" d="M78 391q0 103 37 185.5t101.5 139.5t152 87.5t189.5 30.5q99 0 171 -32.5t119 -89.5t70 -134t25 -167h-577q8 -150 82 -225.5t201 -75.5q36 0 68 7.5t62 22.5t60 39t63 57l43 -38q-98 -113 -200 -168t-223 -55q-96 0 -177.5 31t-141 86.5t-92.5 132t-33 166.5zM366 485 h327q-1 125 -45.5 188.5t-122.5 63.5q-81 0 -120 -67t-39 -185zM262 1005q4 55 17.5 102t35.5 81t52.5 53t69.5 19t72.5 -16.5t63 -36t56.5 -36t53 -16.5q42 0 66 22.5t28 82.5h36q-2 -54 -13.5 -100.5t-32.5 -80t-51.5 -53t-69.5 -19.5q-40 0 -71 16.5t-59 36t-56 36 t-61 16.5q-38 0 -66.5 -24t-33.5 -83h-36z" />
<glyph unicode="Y&#x303;" horiz-adv-x="1520" d="M107 1226v48h676v-48l-178 -32l285 -541l282 541l-192 32v48h474v-48l-143 -32l-372 -610v-504l197 -32v-48h-698v48l194 31v478l-387 637zM610 1383q4 55 17.5 102t35.5 81t52.5 53t69.5 19t72.5 -16.5t63 -36t56.5 -36t53 -16.5q42 0 66 22.5t28 82.5h36 q-2 -54 -13.5 -100.5t-32.5 -80t-51.5 -53t-69.5 -19.5q-40 0 -71 16.5t-59 36t-56 36t-61 16.5q-38 0 -66.5 -24t-33.5 -83h-36z" />
<glyph unicode="y&#x303;" horiz-adv-x="1016" d="M-52 762v49h560v-49l-141 -32l231 -436l229 436l-176 32v49h424v-49l-141 -32l-480 -927q-22 -42 -57 -89.5t-77 -88.5t-88.5 -69.5t-91.5 -32.5l-111 180q19 -6 45 -6q39 0 85.5 14.5t91 41t83 64.5t61.5 85l51 103l-363 725zM304 1005q4 55 17.5 102t35.5 81t52.5 53 t69.5 19t72.5 -16.5t63 -36t56.5 -36t53 -16.5q42 0 66 22.5t28 82.5h36q-2 -54 -13.5 -100.5t-32.5 -80t-51.5 -53t-69.5 -19.5q-40 0 -71 16.5t-59 36t-56 36t-61 16.5q-38 0 -66.5 -24t-33.5 -83h-36z" />
<glyph unicode="&#x104;&#x301;" horiz-adv-x="810" d="M0 810h810v-810h-810v810z" />
<glyph unicode="&#x105;&#x301;" horiz-adv-x="1126" d="M88 197q0 60 25 102.5t66.5 71.5t95.5 48t111.5 34t114 28t103.5 30v78q0 46 -13.5 79.5t-34 54.5t-43.5 31t-42 10q-47 0 -81.5 -19t-58.5 -51.5t-38.5 -76.5t-21.5 -93h-127v166q31 38 74 65.5t91.5 45t100 25.5t99.5 8q73 0 140 -12t117.5 -42t80.5 -81.5t30 -129.5 v-489l107 -32v-48h-78q-49 0 -85 -22t-59 -57t-34.5 -77.5t-11.5 -83.5q0 -38 12 -64t31.5 -42t45.5 -23t55 -7q25 0 50 4t48 12l15 -44q-33 -12 -69 -20t-71 -12.5t-67 -6.5t-56 -2q-53 0 -92.5 14t-66.5 38t-40.5 56t-13.5 68q0 48 16 88t44 73t66.5 60t84.5 48 q-21 0 -40 7t-33.5 17.5t-23 23t-8.5 24.5q-58 -55 -121 -76t-138 -21q-121 0 -188.5 58t-67.5 164zM336 214q0 -24 8.5 -46t26 -38t42.5 -25.5t58 -9.5q34 0 67 24t66 63v247q-69 -8 -119.5 -30.5t-83.5 -52.5t-49 -64.5t-16 -67.5zM340 1012q-3 11 5 21l200 272 q12 16 25.5 20t39.5 4h184q24 0 35 -7.5t11 -17.5q0 -5 -5 -13.5t-19 -16.5l-412 -261q-20 -12 -37 -12q-24 0 -27 11z" />
<glyph unicode="&#x104;&#x303;" horiz-adv-x="1428" d="M-57 0v48l213 32l482 1194h232l500 -1194l141 -32v-48h-127q-80 0 -127 -22t-72 -57t-32 -77.5t-7 -83.5q0 -38 12 -64t31.5 -42t45.5 -23t55 -7q25 0 50 4t48 12l15 -44q-33 -12 -69 -20t-71 -12.5t-67 -6.5t-56 -2q-53 0 -92.5 14t-66.5 38t-40.5 56t-13.5 68 q0 35 10 60t24.5 44t32 35.5t32 35t24.5 41t10 54.5q0 24 -6.5 54.5t-22.5 69.5l-142 342h-473l-155 -387l227 -32v-48h-545zM447 542h411l-207 505zM476 1383q4 55 17.5 102t35.5 81t52.5 53t69.5 19t72.5 -16.5t63 -36t56.5 -36t53 -16.5q42 0 66 22.5t28 82.5h36 q-2 -54 -13.5 -100.5t-32.5 -80t-51.5 -53t-69.5 -19.5q-40 0 -71 16.5t-59 36t-56 36t-61 16.5q-38 0 -66.5 -24t-33.5 -83h-36z" />
<glyph unicode="&#x105;&#x303;" horiz-adv-x="842" d="M88 197q0 60 25 102.5t66.5 71.5t95.5 48t111.5 34t114 28t103.5 30v78q0 46 -13.5 79.5t-34 54.5t-43.5 31t-42 10q-47 0 -81.5 -19t-58.5 -51.5t-38.5 -76.5t-21.5 -93h-127v166q31 38 74 65.5t91.5 45t100 25.5t99.5 8q73 0 140 -12t117.5 -42t80.5 -81.5t30 -129.5 v-489l107 -32v-48h-78q-49 0 -85 -22t-59 -57t-34.5 -77.5t-11.5 -83.5q0 -38 12 -64t31.5 -42t45.5 -23t55 -7q25 0 50 4t48 12l15 -44q-33 -12 -69 -20t-71 -12.5t-67 -6.5t-56 -2q-53 0 -92.5 14t-66.5 38t-40.5 56t-13.5 68q0 48 16 88t44 73t66.5 60t84.5 48 q-21 0 -40 7t-33.5 17.5t-23 23t-8.5 24.5q-58 -55 -121 -76t-138 -21q-121 0 -188.5 58t-67.5 164zM336 214q0 -24 8.5 -46t26 -38t42.5 -25.5t58 -9.5q34 0 67 24t66 63v247q-69 -8 -119.5 -30.5t-83.5 -52.5t-49 -64.5t-16 -67.5zM241 1005q4 55 17.5 102t35.5 81 t52.5 53t69.5 19t72.5 -16.5t63 -36t56.5 -36t53 -16.5q42 0 66 22.5t28 82.5h36q-2 -54 -13.5 -100.5t-32.5 -80t-51.5 -53t-69.5 -19.5q-40 0 -71 16.5t-59 36t-56 36t-61 16.5q-38 0 -66.5 -24t-33.5 -83h-36z" />
<glyph unicode="&#x118;&#x301;" horiz-adv-x="1294" d="M62 0v48l195 32v1114l-195 32v48h1202v-299l-56 -5l-78 214h-568v-498h325l59 153h46v-388h-46l-59 153h-325v-393q0 -42 4.5 -66.5t16 -37.5t31 -16.5t50.5 -3.5h483l101 242h60l-29 -329h-369q-42 0 -74 -20.5t-53 -54.5t-32 -77t-11 -88q0 -38 12 -64t31.5 -42 t45.5 -23t55 -7q25 0 50 4t48 12l15 -44q-33 -12 -69 -20t-71 -12.5t-67 -6.5t-56 -2q-53 0 -92.5 14t-66.5 38t-40.5 56t-13.5 68q0 48 16.5 88t47.5 73t74.5 60t96.5 48h-694zM540 1422q-3 11 5 21l200 272q12 16 25.5 20t39.5 4h184q24 0 35 -7.5t11 -17.5q0 -5 -5 -13.5 t-19 -16.5l-412 -261q-20 -12 -37 -12q-24 0 -27 11z" />
<glyph unicode="&#x119;&#x301;" horiz-adv-x="916" d="M78 391q0 103 37 185.5t101.5 139.5t152 87.5t189.5 30.5q99 0 171 -32.5t119 -89.5t70 -134t25 -167h-577q8 -150 82 -225.5t201 -75.5q36 0 68 7.5t62 22.5t60 39t63 57l43 -38q-47 -62 -96.5 -99t-96.5 -62t-89 -45t-73 -48t-49.5 -70.5t-18.5 -113.5q0 -38 12 -64 t31.5 -42t45.5 -23t55 -7q25 0 50 4t48 12l15 -44q-33 -12 -69 -20t-71 -12.5t-67 -6.5t-56 -2q-53 0 -92.5 14t-66.5 38t-40.5 56t-13.5 68q0 84 47 144t131 102q-89 7 -163 40.5t-127.5 88t-83 127t-29.5 158.5zM366 485h327q-1 127 -45.5 189.5t-122.5 62.5 q-81 0 -120 -67t-39 -185zM394 1012q-3 11 5 21l200 272q12 16 25.5 20t39.5 4h184q24 0 35 -7.5t11 -17.5q0 -5 -5 -13.5t-19 -16.5l-412 -261q-20 -12 -37 -12q-24 0 -27 11z" />
<glyph unicode="&#x118;&#x303;" horiz-adv-x="1294" d="M534 1383q4 55 17.5 102t35.5 81t52.5 53t69.5 19t72.5 -16.5t63 -36t56.5 -36t53 -16.5q42 0 66 22.5t28 82.5h36q-2 -54 -13.5 -100.5t-32.5 -80t-51.5 -53t-69.5 -19.5q-40 0 -71 16.5t-59 36t-56 36t-61 16.5q-38 0 -66.5 -24t-33.5 -83h-36zM62 0v48l195 32v1114 l-195 32v48h1202v-299l-56 -5l-78 214h-568v-498h325l59 153h46v-388h-46l-59 153h-325v-393q0 -42 4.5 -66.5t16 -37.5t31 -16.5t50.5 -3.5h483l101 242h60l-29 -329h-369q-42 0 -74 -20.5t-53 -54.5t-32 -77t-11 -88q0 -38 12 -64t31.5 -42t45.5 -23t55 -7q25 0 50 4 t48 12l15 -44q-33 -12 -69 -20t-71 -12.5t-67 -6.5t-56 -2q-53 0 -92.5 14t-66.5 38t-40.5 56t-13.5 68q0 48 16.5 88t47.5 73t74.5 60t96.5 48h-694z" />
<glyph unicode="&#x119;&#x303;" horiz-adv-x="916" d="M78 391q0 103 37 185.5t101.5 139.5t152 87.5t189.5 30.5q99 0 171 -32.5t119 -89.5t70 -134t25 -167h-577q8 -150 82 -225.5t201 -75.5q36 0 68 7.5t62 22.5t60 39t63 57l43 -38q-47 -62 -96.5 -99t-96.5 -62t-89 -45t-73 -48t-49.5 -70.5t-18.5 -113.5q0 -38 12 -64 t31.5 -42t45.5 -23t55 -7q25 0 50 4t48 12l15 -44q-33 -12 -69 -20t-71 -12.5t-67 -6.5t-56 -2q-53 0 -92.5 14t-66.5 38t-40.5 56t-13.5 68q0 84 47 144t131 102q-89 7 -163 40.5t-127.5 88t-83 127t-29.5 158.5zM366 485h327q-1 127 -45.5 189.5t-122.5 62.5 q-81 0 -120 -67t-39 -185zM262 1005q4 55 17.5 102t35.5 81t52.5 53t69.5 19t72.5 -16.5t63 -36t56.5 -36t53 -16.5q42 0 66 22.5t28 82.5h36q-2 -54 -13.5 -100.5t-32.5 -80t-51.5 -53t-69.5 -19.5q-40 0 -71 16.5t-59 36t-56 36t-61 16.5q-38 0 -66.5 -24t-33.5 -83h-36z " />
<glyph unicode="&#x12e;&#x301;" horiz-adv-x="678" d="M45 1226v48h698v-48l-194 -32v-1095l194 -51v-48h-159q-55 0 -94 -22t-63.5 -57t-36 -77.5t-11.5 -83.5q0 -38 12 -64t31.5 -42t45.5 -23t55 -7q25 0 50 4t48 12l15 -44q-33 -12 -69 -20t-71 -12.5t-67 -6.5t-56 -2q-53 0 -92.5 14t-66.5 38t-40.5 56t-13.5 68 q0 52 18 95.5t51 77t78.5 58t101.5 38.5h-362v48l195 51v1095zM246 1422q-3 11 5 21l200 272q12 16 25.5 20t39.5 4h184q24 0 35 -7.5t11 -17.5q0 -5 -5 -13.5t-19 -16.5l-412 -261q-20 -12 -37 -12q-24 0 -27 11z" />
<glyph unicode="&#x12e;&#x303;" horiz-adv-x="678" d="M45 1226v48h698v-48l-194 -32v-1095l194 -51v-48h-159q-55 0 -94 -22t-63.5 -57t-36 -77.5t-11.5 -83.5q0 -38 12 -64t31.5 -42t45.5 -23t55 -7q25 0 50 4t48 12l15 -44q-33 -12 -69 -20t-71 -12.5t-67 -6.5t-56 -2q-53 0 -92.5 14t-66.5 38t-40.5 56t-13.5 68 q0 52 18 95.5t51 77t78.5 58t101.5 38.5h-362v48l195 51v1095zM120 1383q4 55 17.5 102t35.5 81t52.5 53t69.5 19t72.5 -16.5t63 -36t56.5 -36t53 -16.5q42 0 66 22.5t28 82.5h36q-2 -54 -13.5 -100.5t-32.5 -80t-51.5 -53t-69.5 -19.5q-40 0 -71 16.5t-59 36t-56 36 t-61 16.5q-38 0 -66.5 -24t-33.5 -83h-36z" />
<glyph unicode="J&#x303;" horiz-adv-x="780" d="M45 1226v48h698v-48l-194 -31v-1175l-376 -497l-33 80q38 46 58.5 99.5t29.5 109t10.5 111.5t1.5 107v1164zM118 1383q4 55 17.5 102t35.5 81t52.5 53t69.5 19t72.5 -16.5t63 -36t56.5 -36t53 -16.5q42 0 66 22.5t28 82.5h36q-2 -54 -13.5 -100.5t-32.5 -80t-51.5 -53 t-69.5 -19.5q-40 0 -71 16.5t-59 36t-56 36t-61 16.5q-38 0 -66.5 -24t-33.5 -83h-36z" />
<glyph unicode="L&#x303;" horiz-adv-x="1317" d="M101 0v48l195 32v1114l-195 32v48h696v-48l-194 -32v-1107h444l159 271h70l-70 -358h-1105zM172 1383q4 55 17.5 102t35.5 81t52.5 53t69.5 19t72.5 -16.5t63 -36t56.5 -36t53 -16.5q42 0 66 22.5t28 82.5h36q-2 -54 -13.5 -100.5t-32.5 -80t-51.5 -53t-69.5 -19.5 q-40 0 -71 16.5t-59 36t-56 36t-61 16.5q-38 0 -66.5 -24t-33.5 -83h-36z" />
<glyph unicode="l&#x303;" horiz-adv-x="638" d="M58 0v48l129 32v1146h-129v48l338 88h65v-1282l127 -32v-48h-530zM46 1471q4 55 17.5 102t35.5 81t52.5 53t69.5 19t72.5 -16.5t63 -36t56.5 -36t53 -16.5q42 0 66 22.5t28 82.5h36q-2 -54 -13.5 -100.5t-32.5 -80t-51.5 -53t-69.5 -19.5q-40 0 -71 16.5t-59 36t-56 36 t-61 16.5q-38 0 -66.5 -24t-33.5 -83h-36z" />
<glyph unicode="M&#x303;" horiz-adv-x="1984" d="M79 0v48l167 32l103 1114l-192 32v48h451l413 -922l419 922h416v-48l-155 -32l60 -1114l171 -32v-48h-680v48l206 32l-44 937l-470 -1017h-59l-477 1029l-41 -949l171 -32v-48h-459zM743 1383q4 55 17.5 102t35.5 81t52.5 53t69.5 19t72.5 -16.5t63 -36t56.5 -36 t53 -16.5q42 0 66 22.5t28 82.5h36q-2 -54 -13.5 -100.5t-32.5 -80t-51.5 -53t-69.5 -19.5q-40 0 -71 16.5t-59 36t-56 36t-61 16.5q-38 0 -66.5 -24t-33.5 -83h-36z" />
<glyph unicode="m&#x303;" horiz-adv-x="1927" d="M58 0v48l129 32v650h-129v48l338 56h65v-112q48 26 91.5 47t89 35.5t94.5 22t107 7.5q81 0 138.5 -32.5t86.5 -92.5q52 29 99 52t95 39.5t99.5 25t113.5 8.5q58 0 104.5 -17t78.5 -49t49.5 -78t17.5 -103v-507l127 -32v-48h-530v48l129 32v399q0 67 -10.5 112.5 t-28.5 73.5t-43 40t-54 12q-48 0 -104.5 -27t-117.5 -63v-547l127 -32v-48h-530v48l129 32v399q0 67 -10.5 112.5t-28.5 73.5t-43 40t-54 12q-48 0 -104.5 -27t-117.5 -63v-547l127 -32v-48h-530zM673 1005q4 55 17.5 102t35.5 81t52.5 53t69.5 19t72.5 -16.5t63 -36 t56.5 -36t53 -16.5q42 0 66 22.5t28 82.5h36q-2 -54 -13.5 -100.5t-32.5 -80t-51.5 -53t-69.5 -19.5q-40 0 -71 16.5t-59 36t-56 36t-61 16.5q-38 0 -66.5 -24t-33.5 -83h-36z" />
<glyph unicode="R&#x303;" horiz-adv-x="1520" d="M47 -1v49l195 32v1114l-195 32v48q260 12 425 16.5t241 4.5q238 0 365 -78.5t127 -246.5q0 -56 -19 -104t-55 -88t-87 -72.5t-115 -59.5q50 -6 88 -33.5t68.5 -68.5t55.5 -92.5t51 -104.5t54 -104t64.5 -92.5t83.5 -69t109 -33.5v-48h-431q-31 57 -60.5 125.5 t-62.5 138.5t-70.5 136t-83.5 117t-102 82t-125 31h-17v-553l192 -29v-49h-696zM551 700q21 -3 41.5 -4t39.5 -1q64 0 115 15.5t87 47.5t55 82.5t19 119.5q0 66 -17.5 116t-49.5 83.5t-77 50.5t-100 17q-53 0 -113 -15v-512zM435 1383q4 55 17.5 102t35.5 81t52.5 53 t69.5 19t72.5 -16.5t63 -36t56.5 -36t53 -16.5q42 0 66 22.5t28 82.5h36q-2 -54 -13.5 -100.5t-32.5 -80t-51.5 -53t-69.5 -19.5q-40 0 -71 16.5t-59 36t-56 36t-61 16.5q-38 0 -66.5 -24t-33.5 -83h-36z" />
<glyph unicode="r&#x303;" horiz-adv-x="905" d="M53 0v48l129 32v650h-129v48l338 66h65v-252q43 80 74.5 127.5t56 73t43.5 33.5t37 8q26 0 53 -6t63 -20l93 -39l-108 -216q-73 31 -110 41.5t-57 10.5q-26 0 -64.5 -30.5t-80.5 -93.5v-401l127 -32v-48h-530zM182 1005q4 55 17.5 102t35.5 81t52.5 53t69.5 19 t72.5 -16.5t63 -36t56.5 -36t53 -16.5q42 0 66 22.5t28 82.5h36q-2 -54 -13.5 -100.5t-32.5 -80t-51.5 -53t-69.5 -19.5q-40 0 -71 16.5t-59 36t-56 36t-61 16.5q-38 0 -66.5 -24t-33.5 -83h-36z" />
<glyph unicode="&#x172;&#x301;" horiz-adv-x="1585" d="M57 1226v48h690v-48l-195 -32v-687q0 -95 11.5 -173t47.5 -133.5t104.5 -85.5t182.5 -30q207 0 305.5 119.5t88.5 375.5l-25 614l-176 32v48h507v-48l-199 -32l-23 -664q-3 -95 -16.5 -175.5t-44.5 -146.5t-83 -115.5t-132 -80.5q-45 -18 -86 -36.5t-71.5 -46.5t-49 -68 t-18.5 -101q0 -38 12 -64t31.5 -42t45.5 -23t55 -7q25 0 50 4t48 12l15 -44q-33 -12 -69 -20t-71 -12.5t-67 -6.5t-56 -2q-53 0 -92.5 14t-66.5 38t-40.5 56t-13.5 68q0 43 16.5 79.5t45.5 66.5t68.5 54t84.5 44q-14 -1 -27.5 -1.5t-27.5 -0.5q-155 0 -262.5 31.5t-174.5 95 t-97.5 159t-30.5 224.5v711zM756 1422q-3 11 5 21l200 272q12 16 25.5 20t39.5 4h184q24 0 35 -7.5t11 -17.5q0 -5 -5 -13.5t-19 -16.5l-412 -261q-20 -12 -37 -12q-24 0 -27 11z" />
<glyph unicode="&#x173;&#x301;" horiz-adv-x="1086" d="M37 730v48l338 66h65v-477q0 -72 9 -120t27 -76.5t44 -40t61 -11.5q49 0 102 28t101 70v513h-129v49l338 65h65v-764l132 -32v-48h-79q-53 0 -92 -18.5t-65 -50.5t-39 -76t-13 -95q0 -38 12 -64t31.5 -42t45.5 -23t55 -7q25 0 50 4t48 12l15 -44q-33 -12 -69 -20 t-71 -12.5t-67 -6.5t-56 -2q-53 0 -92.5 14t-66.5 38t-40.5 56t-13.5 68q0 94 58 160.5t161 108.5q-43 0 -77.5 31.5t-40.5 91.5q-60 -40 -109.5 -68t-93.5 -46t-86.5 -26t-90.5 -8q-66 0 -111.5 23.5t-73.5 68.5t-40.5 109.5t-12.5 147.5v406h-129zM494 1012q-3 11 5 21 l200 272q12 16 25.5 20t39.5 4h184q24 0 35 -7.5t11 -17.5q0 -5 -5 -13.5t-19 -16.5l-412 -261q-20 -12 -37 -12q-24 0 -27 11z" />
<glyph unicode="&#x172;&#x303;" horiz-adv-x="1585" d="M57 1226v48h690v-48l-195 -32v-687q0 -95 11.5 -173t47.5 -133.5t104.5 -85.5t182.5 -30q207 0 305.5 119.5t88.5 375.5l-25 614l-176 32v48h507v-48l-199 -32l-23 -664q-3 -95 -16.5 -175.5t-44.5 -146.5t-83 -115.5t-132 -80.5q-45 -18 -86 -36.5t-71.5 -46.5t-49 -68 t-18.5 -101q0 -38 12 -64t31.5 -42t45.5 -23t55 -7q25 0 50 4t48 12l15 -44q-33 -12 -69 -20t-71 -12.5t-67 -6.5t-56 -2q-53 0 -92.5 14t-66.5 38t-40.5 56t-13.5 68q0 43 16.5 79.5t45.5 66.5t68.5 54t84.5 44q-14 -1 -27.5 -1.5t-27.5 -0.5q-155 0 -262.5 31.5t-174.5 95 t-97.5 159t-30.5 224.5v711zM646 1383q4 55 17.5 102t35.5 81t52.5 53t69.5 19t72.5 -16.5t63 -36t56.5 -36t53 -16.5q42 0 66 22.5t28 82.5h36q-2 -54 -13.5 -100.5t-32.5 -80t-51.5 -53t-69.5 -19.5q-40 0 -71 16.5t-59 36t-56 36t-61 16.5q-38 0 -66.5 -24t-33.5 -83h-36 z" />
<glyph unicode="&#x173;&#x303;" horiz-adv-x="1086" d="M37 730v48l338 66h65v-477q0 -72 9 -120t27 -76.5t44 -40t61 -11.5q49 0 102 28t101 70v513h-129v49l338 65h65v-764l132 -32v-48h-79q-53 0 -92 -18.5t-65 -50.5t-39 -76t-13 -95q0 -38 12 -64t31.5 -42t45.5 -23t55 -7q25 0 50 4t48 12l15 -44q-33 -12 -69 -20 t-71 -12.5t-67 -6.5t-56 -2q-53 0 -92.5 14t-66.5 38t-40.5 56t-13.5 68q0 94 58 160.5t161 108.5q-43 0 -77.5 31.5t-40.5 91.5q-60 -40 -109.5 -68t-93.5 -46t-86.5 -26t-90.5 -8q-66 0 -111.5 23.5t-73.5 68.5t-40.5 109.5t-12.5 147.5v406h-129zM332 1005q4 55 17.5 102 t35.5 81t52.5 53t69.5 19t72.5 -16.5t63 -36t56.5 -36t53 -16.5q42 0 66 22.5t28 82.5h36q-2 -54 -13.5 -100.5t-32.5 -80t-51.5 -53t-69.5 -19.5q-40 0 -71 16.5t-59 36t-56 36t-61 16.5q-38 0 -66.5 -24t-33.5 -83h-36z" />
<glyph unicode="&#x16a;&#x301;" horiz-adv-x="1662" d="M57 1226v48h690v-48l-195 -32v-687q0 -95 11.5 -173t47.5 -133.5t104.5 -85.5t182.5 -30q208 -1 306 119q89 108 89 330q0 22 -1 46l-25 614l-176 32v48h507v-48l-199 -32l-23 -664q-5 -146 -33.5 -251t-92 -173t-169.5 -100.5t-265 -32.5q-155 0 -262.5 31.5t-174.5 95 t-97.5 159t-30.5 224.5v711zM629 1371v112h594v-112h-594zM813 1632q-3 11 5 21l200 272q12 16 25.5 20t39.5 4h184q24 0 35 -7.5t11 -17.5q0 -5 -5 -13.5t-19 -16.5l-412 -261q-20 -12 -37 -12q-24 0 -27 11z" />
<glyph unicode="&#x16b;&#x301;" horiz-adv-x="1237" d="M37 730v48l338 66h65v-477q0 -72 9 -120t27 -76.5t44.5 -40t60.5 -11.5q49 0 102 28t101 70v513h-129v49l338 65h65v-764l132 -32v-48h-406v123q-60 -40 -109.5 -68t-93.5 -46t-86.5 -26t-90.5 -8q-66 0 -111.5 23.5t-73.5 68.5t-40.5 110t-12.5 147v406h-129zM319 981 v112h594v-112h-594zM496 1249q-3 11 5 21l200 272q12 16 25.5 20t39.5 4h184q24 0 35 -7.5t11 -17.5q0 -5 -5 -13.5t-19 -16.5l-412 -261q-20 -12 -37 -12q-24 0 -27 11z" />
<glyph unicode="&#x16a;&#x303;" horiz-adv-x="1662" d="M57 1226v48h690v-48l-195 -32v-687q0 -95 11.5 -173t47.5 -133.5t104.5 -85.5t182.5 -30q208 -1 306 119q89 108 89 330q0 22 -1 46l-25 614l-176 32v48h507v-48l-199 -32l-23 -664q-5 -146 -33.5 -251t-92 -173t-169.5 -100.5t-265 -32.5q-155 0 -262.5 31.5t-174.5 95 t-97.5 159t-30.5 224.5v711zM629 1371v112h594v-112h-594zM654 1582q4 55 17.5 102t35.5 81t52.5 53t69.5 19t72.5 -16.5t63 -36t56.5 -36t53 -16.5q42 0 66 22.5t28 82.5h36q-2 -54 -13.5 -100.5t-32.5 -80t-51.5 -53t-69.5 -19.5q-40 0 -71 16.5t-59 36t-56 36t-61 16.5 q-38 0 -66.5 -24t-33.5 -83h-36z" />
<glyph unicode="&#x16b;&#x303;" horiz-adv-x="1237" d="M37 730v48l338 66h65v-477q0 -72 9 -120t27 -76.5t44.5 -40t60.5 -11.5q49 0 102 28t101 70v513h-129v49l338 65h65v-764l132 -32v-48h-406v123q-60 -40 -109.5 -68t-93.5 -46t-86.5 -26t-90.5 -8q-66 0 -111.5 23.5t-73.5 68.5t-40.5 110t-12.5 147v406h-129zM319 981 v112h594v-112h-594zM341 1222q4 55 17.5 102t35.5 81t52.5 53t69.5 19t72.5 -16.5t63 -36t56.5 -36t53 -16.5q42 0 66 22.5t28 82.5h36q-2 -54 -13.5 -100.5t-32.5 -80t-51.5 -53t-69.5 -19.5q-40 0 -71 16.5t-59 36t-56 36t-61 16.5q-38 0 -66.5 -24t-33.5 -83h-36z" />
<glyph horiz-adv-x="576" d="M63 0v1274h450v-1274h-450zM134 71h308v1132h-308v-1132z" />
<glyph horiz-adv-x="576" d="M63 0v1274h450v-1274h-450zM134 71h308v1132h-308v-1132z" />
<glyph unicode=" "  horiz-adv-x="576" />
<glyph unicode="&#x09;" horiz-adv-x="576" />
<glyph unicode="&#xa0;" horiz-adv-x="576" />
<glyph unicode="!" horiz-adv-x="647" d="M165 1254q-3 25 0 45.5t15.5 34t35.5 21t59 7.5h96q37 0 60 -7.5t35 -21t15 -34t0 -45.5l-101 -879h-114zM184 94q0 28 9.5 51.5t27 41t41 27.5t51.5 10t51.5 -10t41 -27.5t27.5 -41t10 -51.5t-10 -51.5t-27.5 -41t-41 -27t-51.5 -9.5t-51.5 9.5t-41 27t-27 41t-9.5 51.5 z" />
<glyph unicode="&#x22;" horiz-adv-x="886" d="M481 1291q0 39 30 55t88 16h53q58 0 87.5 -16t29.5 -55q0 -5 -0.5 -11t-1.5 -12l-90 -473h-102l-91 473q-3 12 -3 23zM93 1291q0 39 30 55t88 16h53q58 0 87.5 -16t29.5 -55q0 -5 -0.5 -11t-1.5 -12l-90 -473h-102l-91 473q-3 12 -3 23z" />
<glyph unicode="#" horiz-adv-x="1142" d="M35 361l41 178h236l68 293h-236l41 178h236l81 353h105l-81 -353h226l81 353h105l-81 -353h236l-41 -178h-236l-68 -293h236l-41 -178h-236l-90 -388h-105l90 388h-226l-90 -388h-105l90 388h-236zM417 539h226l68 293h-226z" />
<glyph unicode="$" horiz-adv-x="1188" d="M119 129q0 20 15 45l70 119q20 34 45 34q13 0 25.5 -11t21.5 -37q18 -49 40.5 -90.5t53 -72t70.5 -48.5t91 -21v485q-49 25 -99 51t-96.5 54.5t-87.5 61t-71.5 71t-48 83.5t-17.5 99q0 161 108 248.5t312 94.5v111h59v-111q62 -2 112 -10t92 -20.5t78.5 -27.5t71.5 -30 q14 -6 30.5 -16t16.5 -32q0 -12 -7 -27l-70 -143q-13 -25 -32 -25q-15 0 -30 13.5t-23 33.5q-38 92 -94.5 148t-144.5 62v-395q52 -25 107 -52t106.5 -58t98 -67t81 -80.5t54.5 -98.5t20 -119q0 -83 -32 -151t-92.5 -117.5t-147 -77t-195.5 -29.5v-113h-59v113 q-68 0 -122.5 7t-100.5 20t-84.5 30t-72.5 38q-8 4 -17 9t-16.5 11.5t-13 16t-5.5 21.5zM355 1056q0 -31 15 -58t41 -51.5t62 -47t78 -44.5v365q-36 -3 -71 -13.5t-63 -30t-45 -49t-17 -71.5zM610 48q50 4 90.5 24t69 50t44 67.5t15.5 76.5q0 38 -17 70.5t-46.5 61t-69.5 54 t-86 50.5v-454z" />
<glyph unicode="%" horiz-adv-x="1836" d="M58 938q0 92 32 161t84 114.5t118 68.5t133 23t133.5 -23t119 -68.5t85 -114.5t32.5 -161q0 -91 -32.5 -159.5t-85 -114.5t-119 -69t-133.5 -23q-68 0 -134 23t-117.5 69t-83.5 114.5t-32 159.5zM277 938q0 -168 34 -246.5t115 -78.5q82 0 117.5 78.5t35.5 246.5 t-35.5 247t-117.5 79q-81 0 -115 -79t-34 -247zM539 -33l643 1338h98l-643 -1338h-98zM1036 341q0 92 32 161t84 114.5t118 68.5t133 23t133.5 -23t119 -68.5t85 -114.5t32.5 -161q0 -91 -32.5 -159.5t-85 -114.5t-119 -69t-133.5 -23q-68 0 -134 23t-117.5 69t-83.5 114.5 t-32 159.5zM1255 341q0 -168 34 -246.5t115 -78.5q82 0 117.5 78.5t35.5 246.5t-35.5 247t-117.5 79q-81 0 -115 -79t-34 -247z" />
<glyph unicode="&#x26;" horiz-adv-x="1422" d="M109 297q0 62 21.5 126t63 123t102 109t137.5 84q-41 73 -61.5 134.5t-20.5 125.5q0 62 20 113t62 87t106.5 56t153.5 20q60 0 109.5 -13t85.5 -39t56 -66.5t20 -94.5q0 -49 -22.5 -89.5t-60 -75.5t-87 -65t-103.5 -58q22 -47 44.5 -97t45 -99.5t47 -98t51.5 -91.5 q6 34 12 73t15 78t24 75.5t39 64.5t59.5 44.5t86.5 16.5q29 0 53 -6l46 -131q-19 0 -40.5 3t-37.5 3q-49 0 -80 -15t-51.5 -50.5t-35 -93.5t-30.5 -144q21 -39 46.5 -77t51.5 -67.5t51.5 -47.5t46.5 -18q27 0 53 25.5t51 84.5l68 -50q-14 -45 -39.5 -78.5t-59 -56t-73.5 -34 t-82 -11.5q-48 0 -83 9.5t-63.5 27t-52 41t-47.5 50.5q-41 -66 -106 -102t-159 -36q-127 0 -210.5 26t-133 70.5t-69.5 105t-20 129.5zM386 361q0 -56 14.5 -110t42.5 -96.5t67.5 -68.5t89.5 -26q31 0 55 9.5t42.5 25t32 35.5t23.5 40q-53 72 -91 127.5t-69 106.5t-59 105 t-61 124q-18 -19 -34 -50t-28 -68t-18.5 -77t-6.5 -77zM621 1039q0 -26 2.5 -53t7.5 -52.5t12 -48t16 -37.5q47 40 72 96.5t25 125.5q0 43 -4 70t-11.5 41t-18.5 19t-24 5q-38 0 -57.5 -45.5t-19.5 -120.5z" />
<glyph unicode="'" horiz-adv-x="423" d="M67 1291q0 39 30 55t88 16h53q58 0 87.5 -16t29.5 -55q0 -5 -0.5 -11t-1.5 -12l-90 -473h-102l-91 473q-3 12 -3 23z" />
<glyph unicode="(" horiz-adv-x="920" d="M220 498q0 286 146 542q124 218 454 417l33 -64q-166 -138 -262 -374q-81 -198 -81 -527t81 -527q96 -237 258 -375l-26 -67q-331 200 -457 421q-75 131 -110.5 268.5t-35.5 285.5z" />
<glyph unicode=")" horiz-adv-x="920" d="M700.027 498q0 286 -145.982 542q-123.985 218 -453.945 417l-32.9951 -64q165.979 -138 261.968 -374q80.9902 -198 80.9902 -527t-80.9902 -527q-95.9883 -237 -257.969 -375l25.9971 -67q330.96 200 456.944 421q74.9902 131 110.486 268.5t35.4961 285.5z" />
<glyph unicode="*" horiz-adv-x="1024" d="M123 806q-12 21 2.5 43.5t42.5 28.5l331 83l-330 84q-26 6 -43 27t-3 44l60 103q14 23 39 20t45 -23l238 -244l-92 329q-8 27 2 51t36 24h120q26 0 36.5 -24t2.5 -51l-91 -329l237 245q20 20 45.5 23.5t39.5 -19.5l60 -104q13 -23 -3 -43t-43 -27l-330 -86l330 -85 q27 -7 43 -27.5t3 -43.5l-60 -104q-14 -23 -39 -19t-45 24l-238 244l91 -328q8 -27 -2.5 -51t-36.5 -24h-120q-26 0 -36 24t-2 51l92 328l-238 -243q-20 -20 -45.5 -23.5t-38.5 19.5z" />
<glyph unicode="+" horiz-adv-x="1364" d="M101 422v105h511v513h104v-513h515v-105h-515v-513h-104v513h-511z" />
<glyph unicode="," horiz-adv-x="540" d="M128 -286q45 12 83.5 30t70.5 44q62 50 62 123q0 29 -20 46t-46 17q-29 0 -53 10.5t-42 28.5t-28 42.5t-10 53.5q0 28 10.5 52.5t29.5 42.5t44 28t54 10q36 0 65.5 -16.5t50 -47t32 -74t11.5 -97.5q0 -66 -21 -121.5t-65 -100.5q-86 -92 -210 -128z" />
<glyph unicode="-" horiz-adv-x="808" d="M80 407v106h648v-106h-648z" />
<glyph unicode="." horiz-adv-x="564" d="M152 94q0 28 9.5 51.5t27 41t41 27.5t51.5 10t51.5 -10t41 -27.5t27.5 -41t10 -51.5t-10 -51.5t-27.5 -41t-41 -27t-51.5 -9.5t-51.5 9.5t-41 27t-27 41t-9.5 51.5z" />
<glyph unicode="/" horiz-adv-x="960" d="M91 -59l682 1421h128l-682 -1421h-128z" />
<glyph unicode="0" horiz-adv-x="1024" d="M67 637q0 328 110 498t335 170q224 0 334 -170t110 -498t-110 -499t-334 -171q-225 0 -335 171t-110 499zM328 637q0 -58 1.5 -126.5t7 -137t17 -132.5t32 -113.5t51.5 -79t75 -29.5q47 0 79 29.5t52.5 79t31 113.5t15 132.5t5 137t0.5 126.5q0 59 -0.5 127.5t-5 137 t-15 132t-31 112.5t-52.5 78t-79 29q-45 0 -75.5 -29t-51 -78t-32 -112.5t-17 -132t-7 -137t-1.5 -127.5z" />
<glyph unicode="1" horiz-adv-x="1024" d="M172 1124v46l293 104h172v-1175l218 -51v-48h-682v48l218 51v1025h-219z" />
<glyph unicode="2" horiz-adv-x="1024" d="M100 979q33 87 80.5 148t106 99.5t125.5 55.5t140 17q69 0 136 -18t119.5 -59t84.5 -107t32 -161q0 -63 -27 -125.5t-71.5 -125.5t-103 -125t-121 -123t-124.5 -120.5t-115 -116.5h457l70 159h50l-45 -377h-784l1 53q62 76 126 145t124.5 135t113.5 133t92.5 139 t62.5 153t23 175q0 61 -14.5 105.5t-39 73.5t-58 43t-72.5 14q-38 0 -78.5 -13t-80.5 -40.5t-78.5 -70t-71.5 -101.5z" />
<glyph unicode="3" horiz-adv-x="1024" d="M81 109l152 193q33 -67 66 -111t65.5 -69.5t63.5 -35.5t60 -10q44 0 81 25t63.5 66.5t41.5 96t15 113.5q0 54 -13.5 105t-42.5 90.5t-76 63.5t-113 24q-34 0 -71.5 -8t-79.5 -25l-18 77q84 18 143 52t96.5 79t54.5 97t17 105q0 70 -32.5 100.5t-80.5 30.5 q-33 0 -69.5 -12.5t-72.5 -35.5t-68 -55t-56 -71l-61 55q42 69 90.5 116.5t101 77.5t106.5 43t107 13q60 0 113 -15t93 -43.5t63 -69t23 -91.5q0 -44 -15 -86t-48 -84t-85.5 -85t-127.5 -88q98 -2 167.5 -24t113.5 -59t64.5 -86t20.5 -103q0 -56 -19 -114.5t-54 -113.5 t-83.5 -104.5t-107.5 -86.5t-126 -58.5t-139 -21.5q-85 0 -167.5 34t-155.5 109z" />
<glyph unicode="4" horiz-adv-x="1024" d="M58 353v30l556 940h170v-868h181v-102h-181v-353h-247v353h-479zM200 455h337v576z" />
<glyph unicode="5" horiz-adv-x="1024" d="M87 109l152 193q33 -67 66 -111t65.5 -69.5t63.5 -35.5t60 -10q49 0 86.5 23t62.5 62.5t37.5 92t12.5 111.5q0 63 -14.5 125t-43.5 111.5t-72.5 80.5t-102.5 31q-48 0 -105.5 -22.5t-126.5 -74.5l-53 27l45 631h627l-19 -208h-543l-24 -315q64 45 131 65t133 20 q80 0 152 -27.5t127 -75t87 -112.5t32 -140q0 -60 -17 -121.5t-49 -119t-77.5 -107.5t-102.5 -87t-124.5 -58.5t-142.5 -21.5q-85 0 -167.5 34t-155.5 109z" />
<glyph unicode="6" horiz-adv-x="1024" d="M78 504q0 124 30.5 231t84 195t127.5 157t161.5 116t185 71.5t197.5 24.5l-9 -53q-50 0 -104.5 -20.5t-108 -55.5t-102.5 -82t-88 -98.5t-64 -105.5t-30 -104q38 20 90 33t112 13q84 0 154.5 -32t122 -88t80.5 -131t29 -160q0 -96 -32 -178t-88 -142t-133.5 -94 t-168.5 -34q-116 0 -200.5 40.5t-139 112t-80.5 170t-26 214.5zM339 463q0 -221 48 -332.5t141 -111.5q72 0 114.5 94.5t42.5 283.5q0 32 -3.5 71.5t-11 80t-19.5 79t-29 68.5t-40 48.5t-52 18.5q-38 0 -72.5 -25.5t-60.5 -67.5t-42 -96t-16 -111z" />
<glyph unicode="7" horiz-adv-x="1024" d="M102 863l31 411h789v-54l-363 -1220h-236l457 1044h-537l-52 -181h-89z" />
<glyph unicode="8" horiz-adv-x="1024" d="M88 307q0 66 25.5 119t68 95.5t97.5 76t114 59.5h-2q-71 35 -120.5 65.5t-76.5 58.5q-87 91 -87 192q0 76 36 137.5t93.5 104.5t128.5 66.5t141 23.5q68 0 138 -18t126.5 -54.5t92 -92t35.5 -130.5q0 -94 -69.5 -163t-205.5 -127h1q63 -29 119.5 -64t99 -80t67.5 -101 t25 -127q0 -88 -36 -158.5t-95.5 -120t-135.5 -76t-157 -26.5q-105 0 -184 33t-132.5 83t-80 110t-26.5 114zM330 311q0 -54 11 -106.5t33.5 -94t57 -66.5t81.5 -25q43 0 77 23t57.5 61t35.5 87t12 101q0 72 -18 121.5t-49 85.5t-72.5 63.5t-87.5 55.5q-68 -48 -103 -124 t-35 -182zM338 1036q0 -62 20.5 -106t52.5 -75.5t71 -54t77 -42.5q52 42 79 105.5t27 148.5q0 48 -10.5 91.5t-31 77t-50.5 53t-69 19.5q-38 0 -68.5 -16t-52 -45t-33.5 -68.5t-12 -87.5z" />
<glyph unicode="9" horiz-adv-x="1024" d="M78 851q0 96 32 178t88 142t133.5 94t168.5 34q116 0 200.5 -40.5t139 -112t80.5 -170t26 -214.5q0 -124 -30.5 -231t-84 -195t-127.5 -157t-161.5 -116t-185 -71.5t-197.5 -24.5l9 53q49 0 104 20.5t108.5 55.5t102.5 82t88 98.5t64 105.5t30 104q-38 -20 -90 -33 t-112 -13q-84 0 -154.5 32t-122 88t-80.5 130.5t-29 160.5zM339 869q0 -32 3.5 -71.5t11 -80t19.5 -79t29 -68.5t40 -48.5t52 -18.5q37 0 72 25.5t61 67.5t42 96t16 111q0 221 -48 332.5t-141 111.5q-72 0 -114.5 -94.5t-42.5 -283.5z" />
<glyph unicode=":" horiz-adv-x="564" d="M152 94q0 28 9.5 51.5t27 41t41 27.5t51.5 10t51.5 -10t41 -27.5t27.5 -41t10 -51.5t-10 -51.5t-27.5 -41t-41 -27t-51.5 -9.5t-51.5 9.5t-41 27t-27 41t-9.5 51.5zM152 714q0 28 9.5 51.5t27 41t41 27.5t51.5 10t51.5 -10t41 -27.5t27.5 -41t10 -51.5t-10 -51.5 t-27.5 -41t-41 -27t-51.5 -9.5t-51.5 9.5t-41 27t-27 41t-9.5 51.5z" />
<glyph unicode=";" horiz-adv-x="540" d="M128 -286q45 12 83.5 30t70.5 44q62 50 62 123q0 29 -20 46t-46 17q-29 0 -53 10.5t-42 28.5t-28 42.5t-10 53.5q0 28 10.5 52.5t29.5 42.5t44 28t54 10q36 0 65.5 -16.5t50 -47t32 -74t11.5 -97.5q0 -66 -21 -121.5t-65 -100.5q-86 -92 -210 -128zM152 714 q0 28 9.5 51.5t27 41t41 27.5t51.5 10t51.5 -10t41 -27.5t27.5 -41t10 -51.5t-10 -51.5t-27.5 -41t-41 -27t-51.5 -9.5t-51.5 9.5t-41 27t-27 41t-9.5 51.5z" />
<glyph unicode="&#x3c;" horiz-adv-x="1274" d="M168 446v58l937 506v-120l-767 -415l767 -415v-120z" />
<glyph unicode="=" horiz-adv-x="1471" d="M186 243v105h1063v-105h-1063zM186 567v105h1063v-105h-1063z" />
<glyph unicode="&#x3e;" horiz-adv-x="1274" d="M1105.01 446v58l-936.942 506v-120l766.953 -415l-766.953 -415v-120z" />
<glyph unicode="?" horiz-adv-x="970" d="M67 1065q20 62 54 107.5t85 75t120.5 43.5t159.5 14q80 0 155.5 -13t134.5 -45.5t95 -89t36 -143.5q0 -60 -20.5 -104t-53.5 -77t-75.5 -58t-87 -48t-87 -46t-75.5 -51.5t-53.5 -66.5t-20.5 -90q0 -37 15 -68.5t29 -68.5h-92q-37 48 -53 90.5t-16 81.5q0 53 25 100 t62.5 90.5t81 85t81 85t62.5 89.5t25 98q0 94 -39.5 138.5t-115.5 44.5q-80 0 -127 -56t-47 -175zM299 94q0 28 9.5 51.5t27 41t41 27.5t51.5 10t51.5 -10t41 -27.5t27.5 -41t10 -51.5t-10 -51.5t-27.5 -41t-41 -27t-51.5 -9.5t-51.5 9.5t-41 27t-27 41t-9.5 51.5z" />
<glyph unicode="@" horiz-adv-x="1877" d="M154 313q0 111 27 217.5t78 200.5t125 173t168.5 136t207.5 89t243 32q135 0 251 -36.5t200.5 -107t133 -174.5t48.5 -240q0 -76 -17.5 -152.5t-50.5 -147t-80.5 -131.5t-106.5 -106t-129.5 -71t-148.5 -26q-39 0 -71 8.5t-55 26t-36 43t-13 60.5q-27 -20 -61 -42 t-73.5 -41t-83.5 -31.5t-91 -12.5q-48 0 -81 21t-53 54t-28.5 74t-8.5 81q0 85 25.5 164.5t71 149.5t108 128t137 99.5t157.5 64.5t169 23q16 0 41 -1.5t54 -5.5t61.5 -9.5t64.5 -12.5l-158 -593q-5 -16 -6.5 -28.5t-1.5 -23.5q0 -30 13 -44t34 -14q24 0 56.5 17t67 48 t68 75.5t60 100.5t42.5 122t16 139q0 99 -38.5 182t-109 142.5t-168.5 92.5t-216 33q-111 0 -206 -29.5t-173.5 -81.5t-139.5 -123t-102.5 -153.5t-63 -173t-21.5 -182.5q0 -82 16.5 -160t50 -147.5t84.5 -127.5t120 -100.5t156.5 -66t193.5 -23.5q88 0 182.5 25t183.5 74 t165.5 121.5t128.5 168.5l80 -37q-47 -102 -125.5 -183.5t-177 -139t-211.5 -88.5t-228 -31q-192 0 -333.5 59.5t-235.5 158.5t-140 227.5t-46 266.5zM671 245q0 -54 21 -76.5t53 -22.5q31 0 67 14.5t69.5 41t60 63.5t39.5 83l106 382q-87 -5 -163 -46t-132.5 -107 t-88.5 -151.5t-32 -180.5z" />
<glyph unicode="A" horiz-adv-x="1487" d="M-56 0v48l195 32l540 1194h192l500 -1194l141 -32v-48h-650v49l188 31l-160 387h-473l-155 -387l227 -32v-48h-545zM448 542h411l-207 505z" />
<glyph unicode="B" horiz-adv-x="1479" d="M47 0v48l195 32v1114l-195 32v48q51 0 122 2t152 3t167.5 2.5t168.5 1.5q141 0 257 -16.5t199 -52t128.5 -90.5t45.5 -132q0 -56 -13 -95.5t-40.5 -69.5t-71.5 -53t-105 -47q79 -21 138.5 -56t98.5 -79.5t58.5 -97.5t19.5 -111q0 -87 -33 -149.5t-90 -105t-131.5 -68 t-157.5 -39t-169.5 -17.5t-165.5 -4h-578zM551 292q0 -72 12.5 -116t36.5 -68t57.5 -32t75.5 -8q72 0 130 26.5t99.5 70t63.5 99t22 113.5q0 57 -23.5 112t-73 97.5t-127 68.5t-185.5 26h-88v-389zM551 742h111q161 0 240.5 52.5t79.5 174.5q0 68 -22 115t-65.5 76.5 t-108 43t-149.5 13.5h-86v-475z" />
<glyph unicode="C" horiz-adv-x="1610" d="M87 623q0 104 31 195.5t86.5 167.5t131 136t165.5 101.5t190.5 63.5t204.5 22q69 0 123.5 -4t104 -11.5t98 -18t105.5 -22.5l48 -298l-76 4q-33 81 -68.5 129t-81.5 73t-105 32.5t-138 7.5q-107 0 -196.5 -38.5t-153.5 -110.5t-99.5 -176t-35.5 -234q0 -129 44 -232.5 t116.5 -176t166 -111t191.5 -38.5q52 0 109 17.5t111.5 47.5t103.5 70.5t85 87.5l86 -54q-58 -82 -124.5 -136t-140 -85.5t-153 -44t-163.5 -12.5q-101 0 -196.5 19t-180.5 56t-156.5 92t-123 127t-80.5 161t-29 193z" />
<glyph unicode="D" horiz-adv-x="1713" d="M59 0v48l195 32v1114l-195 32v48q34 0 83 2t107 4q57 2 121 4l128 6q64 2 122.5 3.5t108.5 1.5q99 0 201.5 -9.5t198.5 -35t180.5 -70t147.5 -113.5t99.5 -166.5t36.5 -229.5q0 -122 -33.5 -219t-91.5 -171.5t-136.5 -127.5t-169 -87t-188.5 -50t-196 -16h-719zM561 225 q0 -44 12 -74t38.5 -49t69 -27.5t103.5 -8.5q122 0 215.5 43t157 121t96 186.5t32.5 238.5q0 129 -39.5 234.5t-114 180t-182.5 115.5t-245 41h-143v-1001z" />
<glyph unicode="E" horiz-adv-x="1382" d="M62 0v48l195 32v1114l-195 32v48h1202v-299l-56 -5l-78 214h-568v-498h325l59 153h46v-388h-46l-59 153h-325v-393q0 -42 4.5 -66.5t16 -37.5t31 -16.5t50.5 -3.5h483l101 242h60l-29 -329h-1217z" />
<glyph unicode="F" horiz-adv-x="1207" d="M45 0v48l195 32v1114l-195 32v48h1072v-299l-56 -5l-79 214h-437v-498h262l72 153h46v-388h-46l-72 153h-262v-524l240 -32v-48h-740z" />
<glyph unicode="G" horiz-adv-x="1672" d="M78 627q0 172 66.5 298.5t180.5 209.5t266 123.5t322 40.5q80 0 142 -4t116 -11.5t105 -18t108 -22.5l48 -298l-76 4q-27 70 -75.5 122t-109 86.5t-127.5 51.5t-130 17q-115 0 -207.5 -43.5t-158 -119t-101 -177.5t-35.5 -219q0 -136 37 -248.5t105 -193.5t164 -125.5 t214 -44.5q30 0 62.5 3t64 9t61 14.5t53.5 19.5v326l-193 44v49h618v-48l-116 -45v-333q-145 -60 -305.5 -90.5t-312.5 -30.5q-162 0 -305.5 42t-250 124.5t-168.5 204.5t-62 283z" />
<glyph unicode="H" horiz-adv-x="1735" d="M47 0v47l195 33v1115l-195 31v48h696v-48l-194 -32v-508h608v508l-194 32v48h696v-48l-195 -32l2 -1114l195 -33v-47h-698v47l194 33v524h-608v-524l194 -33v-47h-696z" />
<glyph unicode="I" horiz-adv-x="791" d="M45 1226v48h698v-48l-194 -32v-1095l194 -51v-48h-696v48l195 51v1095z" />
<glyph unicode="J" horiz-adv-x="780" d="M45 1226v48h698v-48l-194 -31v-1175l-376 -497l-33 80q38 46 58.5 99.5t29.5 109t10.5 111.5t1.5 107v1164z" />
<glyph unicode="K" horiz-adv-x="1613" d="M47 0v48l195 32v1114l-195 32v48h696v-48l-194 -32v-503l598 503l-164 32v48h507v-48l-187 -32l-537 -416l662 -698l138 -32v-48h-409l-608 656v-576l194 -32v-48h-696z" />
<glyph unicode="L" horiz-adv-x="1317" d="M101 0v48l195 32v1114l-195 32v48h696v-48l-194 -32v-1107h444l159 271h70l-70 -358h-1105z" />
<glyph unicode="M" horiz-adv-x="1984" d="M79 0v48l167 32l103 1114l-192 32v48h451l413 -922l419 922h416v-48l-155 -32l60 -1114l171 -32v-48h-680v48l206 32l-44 937l-470 -1017h-59l-477 1029l-41 -949l171 -32v-48h-459z" />
<glyph unicode="N" horiz-adv-x="1633" d="M64 0v48l188 32l35 1114l-192 32v50h394l802 -893l-15 811l-207 32v48h489v-48l-150 -32l-54 -1200h-69l-935 1010l36 -924l167 -32v-48h-489z" />
<glyph unicode="O" horiz-adv-x="1612" d="M73 611q0 94 26 181.5t74 163.5t115.5 139.5t150 108.5t178.5 70t200 25q158 0 290.5 -50.5t228 -137.5t149 -204.5t53.5 -251.5q0 -105 -29.5 -197t-81 -168.5t-122 -136.5t-153 -101.5t-173.5 -63t-183 -21.5q-160 0 -293 50.5t-228.5 138t-148.5 204.5t-53 251z M404 687q0 -141 28 -259t81.5 -203t131 -132.5t176.5 -47.5q97 0 169 38t120 109t72 172.5t24 229.5q0 135 -29 248.5t-83.5 196t-132 128.5t-174.5 46q-92 0 -163.5 -37.5t-120.5 -106t-74 -165.5t-25 -217z" />
<glyph unicode="P" horiz-adv-x="1338" d="M68 0v48l195 32v1114l-195 32v48q7 0 36.5 1t73.5 2t98.5 3t111 3.5t110.5 3.5t97.5 3t72.5 2t35 1q151 0 259.5 -23.5t178.5 -66.5t103.5 -102t33.5 -131q0 -85 -28.5 -147t-77 -105t-112.5 -70t-134 -42t-142.5 -20t-138.5 -5h-37q-18 0 -36 1v-502l192 -32v-48h-696z M572 652q22 -4 42.5 -5.5t40.5 -1.5q85 0 151.5 23.5t112.5 65t69.5 98t23.5 122.5q0 51 -20 99t-62 84.5t-106 59t-152 22.5q-23 0 -48 -1.5t-52 -5.5v-560z" />
<glyph unicode="Q" horiz-adv-x="1612" d="M73 611q0 94 26 181.5t74 163.5t115.5 139.5t150 108.5t178.5 70t200 25q158 0 290.5 -50.5t228 -137.5t149 -204.5t53.5 -251.5q0 -105 -29.5 -197t-81 -168.5t-122 -136.5t-153 -101.5t-173.5 -63t-183 -21.5q-160 0 -293 50.5t-228.5 138t-148.5 204.5t-53 251z M372 -280q52 68 105 113.5t106 73t106 39t105 11.5q57 0 113.5 -11t111.5 -27.5t109 -36t105.5 -36t101 -27.5t96.5 -11q63 0 121 26t109 94l50 -37l-257 -343q-82 24 -171 68t-182 87.5t-187.5 75.5t-187.5 32q-81 0 -155.5 -30t-146.5 -103zM404 687q0 -141 28 -259 t81.5 -203t131 -132.5t176.5 -47.5q97 0 169 38t120 109t72 172.5t24 229.5q0 135 -29 248.5t-83.5 196t-132 128.5t-174.5 46q-92 0 -163.5 -37.5t-120.5 -106t-74 -165.5t-25 -217z" />
<glyph unicode="R" horiz-adv-x="1520" d="M47 -1v49l195 32v1114l-195 32v48q260 12 425 16.5t241 4.5q238 0 365 -78.5t127 -246.5q0 -56 -19 -104t-55 -88t-87 -72.5t-115 -59.5q50 -6 88 -33.5t68.5 -68.5t55.5 -92.5t51 -104.5t54 -104t64.5 -92.5t83.5 -69t109 -33.5v-48h-431q-31 57 -60.5 125.5 t-62.5 138.5t-70.5 136t-83.5 117t-102 82t-125 31h-17v-553l192 -29v-49h-696zM551 700q21 -3 41.5 -4t39.5 -1q64 0 115 15.5t87 47.5t55 82.5t19 119.5q0 66 -17.5 116t-49.5 83.5t-77 50.5t-100 17q-53 0 -113 -15v-512z" />
<glyph unicode="S" horiz-adv-x="1188" d="M104 89v289h51q48 -152 155.5 -231.5t264.5 -79.5q52 0 95 14.5t74 40.5t48 63t17 81q0 136 -310 295q-78 39 -147 76t-120 81t-81 100t-30 134q0 76 31.5 139.5t88 109t134.5 70.5t172 25q93 0 167 -10.5t131 -27t99 -38.5t70 -44v-245l-44 -2q-20 67 -59 118t-90 85.5 t-112.5 52t-126.5 17.5q-47 0 -85 -10.5t-65 -29.5t-42 -46t-15 -60q0 -35 13.5 -63.5t45.5 -56t85 -58t131 -69.5q96 -48 176.5 -92t138.5 -95t90 -116t32 -155q0 -80 -35.5 -148.5t-97 -119t-146 -79.5t-181.5 -29t-172 7.5t-136 22t-112.5 35.5t-102.5 49z" />
<glyph unicode="T" horiz-adv-x="1491" d="M80 920l36 354h1258l36 -354l-50 -2l-118 265h-343v-1103l194 -32v-48h-696v48l195 32v1103h-345l-117 -265z" />
<glyph unicode="U" horiz-adv-x="1662" d="M57 1226v48h690v-48l-195 -32v-687q0 -95 11.5 -173t47.5 -133.5t104.5 -85.5t182.5 -30q208 -1 306 119q89 108 89 330q0 22 -1 46l-25 614l-176 32v48h507v-48l-199 -32l-23 -664q-5 -146 -33.5 -251t-92 -173t-169.5 -100.5t-265 -32.5q-155 0 -262.5 31.5t-174.5 95 t-97.5 159t-30.5 224.5v711z" />
<glyph unicode="V" horiz-adv-x="1549" d="M-21 1226v48h692v-48l-206 -32l424 -887l369 887l-208 32v48h524v-48l-165 -32l-591 -1219h-106l-586 1219z" />
<glyph unicode="W" horiz-adv-x="2019" d="M-33 1226v48h702v-48l-208 -32l278 -880l319 960h65l392 -958l236 878l-209 32v48h524v-48l-187 -32l-413 -1219h-122l-351 803l-301 -803h-122l-451 1219z" />
<glyph unicode="X" horiz-adv-x="1644" d="M-32 0v48l166 32l550 509l-482 605l-195 32v48h836v-48l-252 -32l307 -390l358 390l-211 32v48h559v-48l-175 -32l-486 -448l526 -666l191 -32v-48h-779v48l210 32l-363 454l-419 -454l177 -32v-48h-518z" />
<glyph unicode="Y" horiz-adv-x="1444" d="M42 1226v48h676v-48l-178 -32l285 -541l282 541l-192 32v48h474v-48l-143 -32l-372 -610v-504l197 -32v-48h-698v48l194 31v478l-387 637z" />
<glyph unicode="Z" horiz-adv-x="1416" d="M80 0v127l802 1049h-612l-97 -253h-47v351h1113v-118l-801 -1058h683l110 311l46 -2v-407h-1197z" />
<glyph unicode="[" horiz-adv-x="877" d="M202 -477v1852h531v-71h-258v-1710h258v-71h-531z" />
<glyph unicode="\" horiz-adv-x="942" d="M851.011 -59l-681.916 1421h-127.984l681.916 -1421h127.984z" />
<glyph unicode="]" horiz-adv-x="877" d="M733.024 -477v1852h-530.935v-71h257.968v-1710h-257.968v-71h530.935z" />
<glyph unicode="^" horiz-adv-x="956" d="M68 624l384 712h51l384 -712h-101l-308 570l-309 -570h-101z" />
<glyph unicode="_" horiz-adv-x="1024" d="M-15 -198h1054v-96h-1054v96z" />
<glyph unicode="`" horiz-adv-x="641" d="M66 1304q0 10 11 17.5t35 7.5h184q26 0 39.5 -4t25.5 -20l200 -272q8 -10 5 -21t-27 -11q-18 0 -37 12l-412 261q-14 8 -19 16.5t-5 13.5z" />
<glyph unicode="a" horiz-adv-x="1049" d="M88 197q0 60 25 102.5t66.5 71.5t95.5 48t111.5 34t114 28t103.5 30v78q0 46 -13.5 79.5t-34 54.5t-43.5 31t-42 10q-47 0 -81.5 -19t-58.5 -51.5t-38.5 -76t-21.5 -93.5h-127v166q31 38 74 65.5t91.5 45t100 25.5t99.5 8q74 0 140.5 -12t117 -42t80.5 -81.5t30 -129.5 v-489l107 -32v-48h-295q-44 0 -64.5 22.5t-21.5 49.5q-58 -55 -121 -76t-138 -21q-121 0 -188.5 58.5t-67.5 163.5zM336 214q0 -24 8.5 -46t26 -38t42.5 -25.5t58 -9.5q34 0 67 24t66 63v247q-69 -8 -119.5 -30.5t-83.5 -52.5t-49 -64.5t-16 -67.5z" />
<glyph unicode="b" horiz-adv-x="1143" d="M17 1226v48l338 88h65v-644q34 30 73.5 51.5t79.5 36t79 21.5t74 7q77 0 142 -24.5t112 -73.5t73.5 -122t26.5 -169q0 -102 -38.5 -188t-108.5 -149t-168 -98t-217 -35q-84 0 -186.5 8.5t-215.5 32.5v1210h-129zM420 263q0 -204 169 -204q109 0 165 76t56 224 q0 173 -54 250.5t-159 77.5q-48 0 -95 -23t-82 -74v-327z" />
<glyph unicode="c" horiz-adv-x="1057" d="M88 378q0 96 39.5 179t110.5 144.5t168.5 97t214.5 35.5q65 0 120 -13t97.5 -33.5t70.5 -44t40 -44.5l-113 -150q-18 28 -42.5 63.5t-57 67t-73.5 53.5t-93 22q-49 0 -84.5 -23.5t-59 -65.5t-34.5 -98.5t-11 -122.5q0 -77 18 -141t52 -111t82.5 -73t110.5 -26t116.5 32 t119.5 100l67 -38q-42 -54 -86 -94t-94 -66.5t-107.5 -39.5t-126.5 -13q-100 0 -182 31t-140.5 85t-90.5 127.5t-32 159.5z" />
<glyph unicode="d" horiz-adv-x="1206" d="M77 361q0 112 38 200t104.5 148.5t156 92.5t193.5 32q31 0 68 -4t97 -17v413h-129v48l338 88h65v-1282l132 -32v-48h-406v75q-76 -50 -150 -75t-152 -25q-80 0 -145.5 26.5t-112 76t-72 121.5t-25.5 162zM346 448q0 -86 15 -147.5t43.5 -100.5t69.5 -57.5t93 -18.5 q39 0 79 10.5t88 35.5v520q-43 29 -86.5 43.5t-78.5 14.5q-51 0 -92 -18.5t-70 -56t-45 -93.5t-16 -132z" />
<glyph unicode="e" horiz-adv-x="1044" d="M77 391q0 103 37 185.5t101.5 139.5t152 87.5t189.5 30.5q99 0 171 -32.5t119 -89.5t70 -134t25 -167h-577q8 -150 82 -225.5t201 -75.5q36 0 68 7.5t62 22.5t60 39t63 57l43 -38q-98 -113 -200 -168t-223 -55q-96 0 -177.5 31t-141 86.5t-92.5 132t-33 166.5zM365 485 h327q-1 125 -45.5 188.5t-122.5 63.5q-81 0 -120 -67t-39 -185z" />
<glyph unicode="f" horiz-adv-x="750" d="M43 708v103h154q1 58 8.5 99t31.5 72l239 304q19 25 47.5 40t61.5 23t70 10.5t73 2.5q42 0 77 -15l-9 -3v-150q-85 32 -148 32q-87 0 -132 -60.5t-45 -186.5v-168h221v-103h-221v-628l177 -32v-48h-580v48l129 32v628h-154z" />
<glyph unicode="g" horiz-adv-x="1121" d="M41 -277q0 24 8 45t30 43.5t61.5 49.5t101.5 63q-179 73 -179 180q0 30 12.5 54.5t42.5 45t79.5 39t124.5 37.5q-120 42 -183 110t-63 156q0 61 34 113.5t93.5 91.5t139.5 61t173 22q46 0 94 -5t93.5 -16.5t87 -29.5t74.5 -45l215 95v-199l-164 24q34 -58 34 -110 q0 -138 -133 -214t-401 -76q-31 -14 -50 -24.5t-29.5 -19.5t-14 -18t-3.5 -21q0 -31 66.5 -48.5t197.5 -17.5q127 0 222 -13t157.5 -41.5t93.5 -74t31 -111.5q0 -79 -43.5 -143t-123 -109t-193 -69.5t-252.5 -24.5q-94 0 -173.5 15t-137.5 42t-90.5 63.5t-32.5 79.5z M272 -213q0 -38 22.5 -69t63.5 -53t98 -34.5t126 -12.5q72 0 129.5 12t98.5 33t63 50.5t22 64.5q0 33 -14.5 53.5t-43.5 32.5t-72 16.5t-99 4.5q-96 0 -174 5t-140 12q-42 -26 -61 -54t-19 -61zM348 573q0 -113 41.5 -170.5t122.5 -57.5q79 0 121.5 48.5t42.5 139.5 q0 110 -43.5 167t-128.5 57q-75 0 -115.5 -47.5t-40.5 -136.5z" />
<glyph unicode="h" horiz-adv-x="1252" d="M55 0v48l129 32v1146h-129v48l338 88h65v-640q48 26 91.5 47t89 35.5t94.5 22t107 7.5t104.5 -17t78.5 -49t49.5 -78t17.5 -103v-507l127 -32v-48h-530v48l129 32v399q0 67 -10.5 112.5t-28.5 73.5t-43 40t-54 12q-48 0 -104.5 -27t-117.5 -63v-547l127 -32v-48h-530z " />
<glyph unicode="i" horiz-adv-x="647" d="M66 0v48l129 32v650h-129v48l338 66h65v-764l127 -32v-48h-530zM181 1129q0 31 11.5 58.5t32 47.5t47.5 31.5t58 11.5q32 0 59.5 -12t48 -32t32.5 -47.5t12 -57.5q0 -31 -12 -58.5t-32.5 -48.5t-48 -33t-59.5 -12q-31 0 -58 11.5t-47.5 32t-32 48.5t-11.5 60z" />
<glyph unicode="j" horiz-adv-x="610" d="M51 730v48l338 56h65v-834l-275 -483l-82 35q28 46 45 84t25 78.5t10.5 88t2.5 112.5v815h-129zM170 1129q0 31 11.5 58.5t32 47.5t47.5 31.5t58 11.5q32 0 59.5 -12t48 -32t32.5 -47.5t12 -57.5q0 -31 -12 -58.5t-32.5 -48.5t-48 -33t-59.5 -12q-31 0 -58 11.5t-47.5 32 t-32 48.5t-11.5 60z" />
<glyph unicode="k" horiz-adv-x="1206" d="M55 0v48l129 32v1146h-129v48h7l331 88h65v-884l348 252l-140 33v48h456v-48l-170 -33l-262 -195q23 -10 40 -26.5t32 -34.5l317 -394l132 -32v-48h-394l-299 391q-12 15 -25.5 29t-34.5 23v-363l127 -32v-48h-530z" />
<glyph unicode="l" horiz-adv-x="638" d="M58 0v48l129 32v1146h-129v48l338 88h65v-1282l127 -32v-48h-530z" />
<glyph unicode="m" horiz-adv-x="1927" d="M58 0v48l129 32v650h-129v48l338 56h65v-112q48 26 91.5 47t89 35.5t94.5 22t107 7.5q81 0 138.5 -32.5t86.5 -92.5q52 29 99 52t95 39.5t99.5 25t113.5 8.5q58 0 104.5 -17t78.5 -49t49.5 -78t17.5 -103v-507l127 -32v-48h-530v48l129 32v399q0 67 -10.5 112.5 t-28.5 73.5t-43 40t-54 12q-48 0 -104.5 -27t-117.5 -63v-547l127 -32v-48h-530v48l129 32v399q0 67 -10.5 112.5t-28.5 73.5t-43 40t-54 12q-48 0 -104.5 -27t-117.5 -63v-547l127 -32v-48h-530z" />
<glyph unicode="n" horiz-adv-x="1249" d="M52 0v48l129 32v650h-129v48l338 56h65v-112q48 26 91.5 47t89 35.5t94.5 22t107 7.5t104.5 -17t78.5 -49t49.5 -78t17.5 -103v-507l127 -32v-48h-530v48l129 32v399q0 67 -10.5 112.5t-28.5 73.5t-43 40t-54 12q-48 0 -104.5 -27t-117.5 -63v-547l127 -32v-48h-530z" />
<glyph unicode="o" horiz-adv-x="1121" d="M74 401q0 100 38 180.5t105 136.5t159 86.5t200 30.5q107 0 195.5 -29t151.5 -83.5t97.5 -132t34.5 -174.5q0 -99 -37 -180t-104 -138.5t-159 -89.5t-202 -32q-107 0 -195 29.5t-151 85t-98 134t-35 176.5zM341 545q0 -117 18 -209.5t52 -156.5t81.5 -98t107.5 -34 q93 0 137.5 63.5t44.5 184.5q0 109 -18.5 197t-52 149.5t-81.5 94.5t-106 33q-88 0 -135.5 -61t-47.5 -163z" />
<glyph unicode="p" horiz-adv-x="1223" d="M37 -429l129 32v1127h-129v48l338 56h65v-127q34 30 76.5 53.5t87 39.5t87 24.5t75.5 9.5q77 -1 142 -30.5t112.5 -82t74 -124.5t26.5 -158q0 -95 -39.5 -179t-106 -147.5t-153 -100.5t-180.5 -37q-44 0 -95.5 7t-106.5 21v-400l127 -32v-48h-530v48zM440 132 q108 -76 189 -76q51 0 92 20t70.5 58t45 92.5t15.5 122.5q0 78 -15 139.5t-43.5 104.5t-69.5 65.5t-93 22.5q-46 0 -93.5 -14.5t-97.5 -55.5v-479z" />
<glyph unicode="q" horiz-adv-x="1174" d="M81 362q0 115 40 203.5t109 148t162.5 90t200.5 30.5q47 0 84 -5.5t72 -15.5t72 -23.5t84 -28.5l77 73h54v-1231l127 -32v-48h-530v48l129 32v484q-48 -32 -88.5 -53t-79 -34.5t-76.5 -19t-82 -5.5q-77 0 -142.5 28.5t-112.5 80t-73.5 122.5t-26.5 156zM352 456 q0 -77 15 -138.5t43.5 -104t70 -65.5t94.5 -23q56 0 101 14.5t86 59.5v341q0 41 -7.5 80t-27.5 69t-54.5 48.5t-89.5 18.5q-109 0 -170 -79t-61 -221z" />
<glyph unicode="r" horiz-adv-x="896" d="M53 0v48l129 32v650h-129v48l338 66h65v-252q43 80 74.5 127.5t56 73t43.5 33.5t37 8q26 0 53 -6t63 -20l93 -39l-108 -216q-73 31 -110 41.5t-57 10.5q-26 0 -64.5 -30.5t-80.5 -93.5v-401l127 -32v-48h-530z" />
<glyph unicode="s" horiz-adv-x="809" d="M88 224l54 -4q16 -39 41 -68t55.5 -48t66 -28.5t73.5 -9.5q54 0 86.5 22.5t32.5 62.5q0 54 -138 135q-72 41 -122.5 76t-82 68.5t-46 69.5t-14.5 80q0 58 24 105t68 80t107 51t140 18q108 0 243 -43l6 -209l-54 2q-12 37 -36 67.5t-53.5 52t-63 33t-64.5 11.5 q-45 0 -73 -23.5t-28 -59.5q0 -60 157 -147q69 -36 119 -68t82 -65t47.5 -70.5t15.5 -84.5q0 -59 -22 -106t-62.5 -80t-98 -51t-129.5 -18q-47 0 -89 2t-80 7.5t-74.5 13.5t-72.5 20z" />
<glyph unicode="t" horiz-adv-x="783" d="M51 707v127h117v214l274 107v-321h265v-127h-265v-372q0 -51 8 -94t24 -74.5t39.5 -49.5t54.5 -18q21 0 46 9.5t54 31.5l42 -55q-66 -54 -130.5 -82t-142.5 -28q-62 0 -111.5 17t-84.5 48.5t-54 77t-19 102.5v487h-117z" />
<glyph unicode="u" horiz-adv-x="1237" d="M37 730v48l338 66h65v-477q0 -72 9 -120t27 -76.5t44.5 -40t60.5 -11.5q49 0 102 28t101 70v513h-129v49l338 65h65v-764l132 -32v-48h-406v123q-60 -40 -109.5 -68t-93.5 -46t-86.5 -26t-90.5 -8q-66 0 -111.5 23.5t-73.5 68.5t-40.5 110t-12.5 147v406h-129z" />
<glyph unicode="v" horiz-adv-x="1042" d="M-29 763v48h543v-49l-130 -32l224 -478l227 478l-152 32v49h392v-49l-132 -32l-349 -755h-145l-354 755z" />
<glyph unicode="w" horiz-adv-x="1572" d="M1 763v48h543v-49l-127 -32l185 -493l237 585h71l235 -570l196 478l-181 32v49h422v-49l-146 -32l-315 -755h-135l-203 494l-199 -494h-145l-307 755z" />
<glyph unicode="x" horiz-adv-x="1112" d="M-12 762v49h536v-49l-98 -32l179 -205l190 205l-130 32v49h402l-2 -49l-124 -32l-298 -247l349 -403l121 -32v-48h-571v48l117 32l-192 231l-202 -231l124 -32v-48h-390v48l109 32l316 279l-322 371z" />
<glyph unicode="y" horiz-adv-x="1016" d="M-52 762v49h560v-49l-141 -32l231 -436l229 436l-176 32v49h424v-49l-141 -32l-480 -927q-22 -42 -57 -89.5t-77 -88.5t-88.5 -69.5t-91.5 -32.5l-111 180q19 -6 45 -6q39 0 85.5 14.5t91 41t83 64.5t61.5 85l51 103l-363 725z" />
<glyph unicode="z" horiz-adv-x="1001" d="M106 0v74l511 657h-359l-82 -192h-64l24 272h778v-63l-529 -650h359l121 184l63 -2l-58 -280h-764z" />
<glyph unicode="{" horiz-adv-x="1039" d="M96 427v45q61 10 106 16.5t76 16t50.5 26t30 46t14.5 75t4 113.5v263q0 120 32 188.5t97 103t163.5 43.5t232.5 12v-41q-87 -6 -136.5 -16.5t-74 -38t-30 -79t-5.5 -141.5v-193q0 -102 -17 -173t-58 -119.5t-109 -77.5t-169 -47q100 -18 167.5 -47.5t109 -77.5t59 -119 t17.5 -173v-193q0 -90 5.5 -141.5t29.5 -79t73.5 -38t137.5 -16.5v-41q-134 3 -232.5 12t-163.5 43.5t-97 103t-32 188.5v263q0 68 -4 113.5t-15 75t-30 46t-50.5 26.5t-76 16.5t-105.5 16.5z" />
<glyph unicode="|" horiz-adv-x="1030" d="M444 -476v1791h118v-1791h-118z" />
<glyph unicode="}" horiz-adv-x="1039" d="M902.012 427v45q-60.9922 10 -105.987 16.5q-44.9941 6.5 -75.9902 16t-50.4941 26q-19.4971 16.5 -29.9961 46t-14.498 75q-4 45.5 -4 113.5v263q0 120 -31.9961 188.5t-96.9883 103t-163.479 43.5q-98.4883 9 -232.472 12v-41q86.9893 -6 136.483 -16.5t73.9902 -38 q24.4971 -27.5 29.9971 -79q5.49902 -51.5 5.49902 -141.5v-193q0 -102 16.998 -173t57.9932 -119.5t108.986 -77.5t168.979 -47q-99.9883 -18 -167.479 -47.5q-67.4922 -29.5 -108.987 -77.5q-41.4941 -48 -58.9922 -119t-17.498 -173v-193q0 -90 -5.49902 -141.5 q-5.5 -51.5 -29.4971 -79t-73.4902 -38q-49.4941 -10.5 -137.483 -16.5v-41q133.983 3 232.472 12q98.4873 9 163.479 43.5t96.9883 103t31.9961 188.5v263q0 68 4 113.5q3.99902 45.5 14.998 75q10.998 29.5 29.9961 46t50.4941 26.5t75.9902 16.5 q44.4951 6.5 105.487 16.5z" />
<glyph unicode="~" horiz-adv-x="1227" d="M64 330q7 75 34 134.5t69.5 101t98 63.5t120.5 22q129 0 264 -93q63 -45 116 -65.5t106 -20.5q78 0 123.5 47t60.5 132h78q-9 -79 -34.5 -139t-63 -100.5t-85 -61t-101.5 -20.5q-128 0 -270 92q-69 44 -128 66t-113 22q-39 0 -73 -14.5t-59.5 -39t-42 -57.5t-20.5 -69 h-80z" />
<glyph unicode="&#xa1;" horiz-adv-x="583" d="M165 -444.847q-3 -24.9971 0 -45.4951q3 -20.4971 15.5 -33.9951q12.5 -13.499 35.5 -20.998t59 -7.49902h96q37 0 60 7.49902t35 20.998q12 13.498 15 33.9951q3 20.498 0 45.4951l-101 878.893h-114zM184 715.012q0 -27.9971 9.5 -51.4941t27 -40.9951 q17.5 -17.4971 41 -27.4961t51.5 -9.99902t51.5 9.99902t41 27.4961q17.5 17.498 27.5 40.9951t10 51.4941q0 27.9961 -10 51.4932t-27.5 40.9951t-41 26.9971t-51.5 9.49902t-51.5 -9.49902t-41 -26.9971t-27 -40.9951t-9.5 -51.4932z" />
<glyph unicode="&#xa2;" horiz-adv-x="1057" d="M88 378q0 91 36 171t101 140.5t155.5 98.5t199.5 44v114h40v-112h1q82 0 149.5 -19.5t112.5 -47.5q36 -22 55 -45l-121 -149q-17 11 -34 32q-20 25 -37 48.5t-35.5 42.5t-40 33t-50.5 21v-655q6 -1 12 -1h12q31 0 59.5 8t57 24.5t57.5 41t62 58.5l67 -38 q-70 -90 -147.5 -141.5t-179.5 -65.5v-118h-40v114q-11 -1 -23 -1.5t-24 -0.5q-100 0 -182 31t-140.5 85t-90.5 127.5t-32 159.5zM381 445q0 -66 13.5 -123t39 -102t62.5 -75.5t84 -42.5v653h-10q-49 0 -84.5 -23.5t-59 -65.5t-34.5 -98.5t-11 -122.5z" />
<glyph unicode="&#xa3;" horiz-adv-x="1024" d="M57 598v72h197q1 70 8.5 145t25 146.5t45.5 132.5t68.5 106t94 70t122.5 25q35 0 75.5 -7.5t81 -21.5t78.5 -36t68 -50l-169 -156q-9 33 -23.5 72.5t-35 73.5t-46.5 57t-58 23q-20 0 -34.5 -24.5t-26 -67.5t-20 -100.5t-15 -124.5t-11.5 -134.5t-9 -128.5h227v-72h-233 q-9 -111 -21 -183.5t-34 -114.5q11 4 22 4.5t22 0.5q30 0 59 -15t57 -38t55 -49.5t53 -49.5t50.5 -38t47.5 -15t36 16.5t13 45.5q0 30 -12.5 57t-29 50.5t-33 42.5t-23.5 34l196 64q39 -23 39 -93q0 -28 -10.5 -64.5t-29 -74.5t-44 -74.5t-55 -65t-62 -46t-65.5 -17.5 q-59 0 -101.5 28.5t-78 69t-67.5 84.5t-69 76q-11 -35 -29 -79.5t-41.5 -84.5t-51.5 -67t-58 -27q-63 0 -99 30.5t-36 76.5q0 38 26 69.5t64.5 57t83.5 45t83 33.5q-14 36 -25.5 72t-20 74.5t-14.5 79t-9 85.5h-198z" />
<glyph unicode="&#xa4;" horiz-adv-x="1338" d="M187 952l110 110l78 -122q60 48 128.5 73t149.5 25q160 0 277 -96q19 29 40.5 60.5t38.5 57.5l125 -97l-137 -90q48 -60 73 -129t25 -148q0 -81 -25 -149.5t-73 -128.5q29 -18 62.5 -40t59.5 -39l-109 -109l-79 122q-120 -99 -278 -99t-278 99q-10 -16 -22 -34t-24 -36.5 t-23.5 -36t-20.5 -30.5l-96 125l119 78q-97 118 -97 278q0 78 24.5 148t72.5 130q-29 19 -62 40t-59 38zM367 596q0 -65 20.5 -118t58 -90.5t90 -58t117.5 -20.5q66 0 119 20.5t90.5 58.5t57.5 90.5t20 117.5q0 64 -20.5 117t-58 90.5t-90.5 58t-118 20.5t-117.5 -20 t-90 -57.5t-58 -90.5t-20.5 -118z" />
<glyph unicode="&#xa5;" horiz-adv-x="1024" d="M-15 1226v48h452v-48q-66 0 -96 -8t-30 -33q0 -26 29 -76l221 -406l196 387q35 66 35 94q0 26 -28 34t-94 8v48h346v-48q-82 0 -113.5 -39.5t-65.5 -110.5l-204 -395h335v-50h-361l-8 -16v-143h369v-49h-369v-208q0 -115 36 -141t168 -26v-48h-578v48q132 0 168 26 t36 141v208h-365v49h365v129l-17 30h-348v50h321l-218 402q-42 81 -75.5 112t-106.5 31z" />
<glyph unicode="&#xa6;" horiz-adv-x="949" d="M413 348h122v-803h-122v803zM413 534v802h122v-802h-122z" />
<glyph unicode="&#xa7;" horiz-adv-x="1195" d="M135 636q0 49 14 88.5t40 71t62.5 56.5t81.5 45q-49 42 -78.5 98t-29.5 137t31 139t82.5 94.5t118.5 53.5t138 17q61 0 122.5 -11.5t115.5 -33t98 -52t71 -68.5l-222 -111q-6 42 -24.5 81t-49 70t-73 49.5t-95.5 18.5q-35 0 -67 -10.5t-56.5 -32.5t-39.5 -55.5t-15 -79.5 q0 -53 30 -92t79.5 -69.5t112 -57t128.5 -54t128.5 -59.5t112 -75.5t79.5 -101t30 -135.5q0 -49 -14 -88.5t-40.5 -71.5t-63 -57t-81.5 -44q49 -42 79 -98t30 -137t-31 -139t-82.5 -94.5t-118.5 -53.5t-138 -17q-62 0 -123 11.5t-115 33t-98 52t-71 68.5l203 109 q6 -42 31 -81t61 -69t80 -48.5t89 -18.5q34 0 66.5 10.5t57 32.5t39.5 55.5t15 79.5q0 53 -30 92t-79.5 69.5t-112 57t-128.5 54t-128.5 59.5t-112 75.5t-79.5 101t-30 135.5zM269 718q0 -58 25.5 -100t68 -74t98 -57t115 -48t119.5 -47.5t112 -56.5q51 23 85 60t34 80 q0 58 -25.5 100t-68 73.5t-98 56t-115 47.5t-119.5 48t-112 58q-52 -23 -85.5 -60t-33.5 -80z" />
<glyph unicode="&#xa8;" horiz-adv-x="928" d="M96 1129q0 31 11.5 58.5t32 47.5t47.5 31.5t58 11.5q32 0 59.5 -12t48 -32t32.5 -47.5t12 -57.5q0 -31 -12 -58.5t-32.5 -48.5t-48 -33t-59.5 -12q-31 0 -58 11.5t-47.5 32t-32 48.5t-11.5 60zM531 1129q0 31 11.5 58.5t32 47.5t47.5 31.5t58 11.5q32 0 59.5 -12t48 -32 t32.5 -47.5t12 -57.5q0 -31 -12 -58.5t-32.5 -48.5t-48 -33t-59.5 -12q-31 0 -58 11.5t-47.5 32t-32 48.5t-11.5 60z" />
<glyph unicode="&#xa9;" horiz-adv-x="1556" d="M66 622q0 97 25 186.5t71 167.5t110 142t142 109.5t167.5 70.5t186.5 25t186.5 -25t167.5 -70.5t142.5 -109.5t110.5 -142t71 -167.5t25 -186.5q0 -145 -55.5 -272.5t-151 -222.5t-223.5 -150t-273 -55q-97 0 -186.5 25t-167.5 70.5t-142 109.5t-110 141.5t-71 167 t-25 186.5zM164 622q0 -125 47 -234.5t129 -191.5t191.5 -129t234.5 -47t235 47t191.5 129t129 191.5t47.5 234.5q0 83 -21.5 160t-61 144t-94.5 122t-122 94.5t-144 61t-160 21.5q-125 0 -234.5 -47.5t-191.5 -129t-129 -191.5t-47 -235zM282 609q0 103 45 187t119.5 143.5 t171 92t199.5 32.5q40 0 73 -2.5t63 -7t58 -10t57 -11.5q8 -2 19 -3t18 -3l34 -213l-67 4q-22 52 -45 83.5t-51.5 47.5t-65.5 21t-87 5q-67 0 -123 -24.5t-96 -70t-62.5 -111.5t-22.5 -148t27.5 -147t73.5 -110.5t105 -70t121 -24.5q31 0 67.5 11t72 31t67.5 47t55 59 l71 -46q-39 -58 -84 -95t-94.5 -58.5t-102.5 -30t-108 -8.5q-99 0 -191 28t-162.5 83t-112.5 135t-42 184z" />
<glyph unicode="&#xaa;" horiz-adv-x="820" d="M141 963q0 36 15 61.5t39.5 43t57 29t67 20.5t68.5 16.5t62 17.5v47q0 28 -8 48t-20.5 32.5t-26 18.5t-25.5 6q-28 0 -48.5 -11.5t-35 -31t-23 -45.5t-13.5 -56h-76v100q19 22 44.5 38.5t55 27t60 15.5t59.5 5q44 0 84 -7t70.5 -25t48.5 -49t18 -78v-293l64 -19v-29h-177 q-26 0 -38.5 13.5t-13.5 29.5q-34 -33 -72 -45.5t-83 -12.5q-72 0 -112.5 35t-40.5 98zM142 642v72h525v-72h-525zM289 973q0 -14 5.5 -27t16 -23t25.5 -15.5t34 -5.5q21 0 40.5 14.5t39.5 37.5v148q-41 -5 -71.5 -18.5t-50 -31.5t-29.5 -38.5t-10 -40.5z" />
<glyph unicode="&#xab;" horiz-adv-x="851" d="M77 415l394 378h36l-216 -378l216 -379h-36zM405 415l333 344h36l-155 -344l155 -345h-36z" />
<glyph unicode="&#xac;" horiz-adv-x="1366" d="M135 687v124h1064v-455h-127v331h-937z" />
<glyph unicode="&#xad;" horiz-adv-x="808" d="M80 407v106h648v-106h-648z" />
<glyph unicode="&#xae;" horiz-adv-x="1556" d="M66 953q0 97 25 186.5t71 167.5t110 142t142 109.5t167.5 70.5t186.5 25t186.5 -25t167.5 -70.5t142.5 -109.5t110.5 -142t71 -167.5t25 -186.5q0 -145 -55.5 -272.5t-151 -222.5t-223.5 -150t-273 -55q-97 0 -186.5 25t-167.5 70.5t-142 109.5t-110 141.5t-71 167 t-25 186.5zM164 953q0 -125 47 -234.5t129 -191.5t191.5 -129t234.5 -47t235 47t191.5 129t129 191.5t47.5 234.5q0 83 -21.5 160t-61 144t-94.5 122t-122 94.5t-144 61t-160 21.5q-125 0 -234.5 -47.5t-191.5 -129t-129 -191.5t-47 -235zM363 590v33l101 17v675l-101 17v32 q140 8 240.5 11t146.5 3q145 0 222.5 -48t77.5 -150q0 -35 -12.5 -63.5t-34 -53t-52.5 -44t-70 -36.5q31 -3 54 -20t41.5 -42t33.5 -56t31 -63.5t32.5 -63t39 -57.5t46.5 -41.5t46 -19.5v-29h-236q-19 35 -37.5 76t-38.5 83.5t-42.5 83t-50.5 71.5t-62 49.5t-76 18.5h-10 v-335l116 -18v-30h-405zM652 1016q12 -1 25 -2t24 -1q39 0 69.5 9.5t52.5 29t34 50t12 72.5q0 40 -11 70.5t-30.5 50.5t-47 30.5t-60.5 10.5q-32 0 -68 -9v-311z" />
<glyph unicode="&#xaf;" horiz-adv-x="1086" d="M246 1047v112h594v-112h-594z" />
<glyph unicode="&#xb0;" horiz-adv-x="811" d="M84 979q0 63 25.5 119t68.5 97.5t99.5 66t118.5 24.5q66 0 123 -25t99 -68.5t66 -101t24 -123.5q0 -63 -25 -118.5t-68 -97.5t-99.5 -66.5t-119.5 -24.5q-66 0 -123 25t-99 68.5t-66 101.5t-24 123zM213 965q0 -36 13.5 -68t37 -56t55.5 -37.5t69 -13.5q42 0 77 13 t60.5 36.5t39.5 57t14 75.5q0 41 -13.5 75t-38 58.5t-58.5 38t-74 13.5q-42 0 -75.5 -14.5t-57 -40t-36.5 -60.5t-13 -77z" />
<glyph unicode="&#xb1;" horiz-adv-x="1140" d="M71 88v112h972v-112h-972zM71 664v115h423v370h124v-370h425v-115h-425v-370h-124v370h-423z" />
<glyph unicode="&#xb2;" horiz-adv-x="820" d="M147 1123q21 55 50.5 93.5t65 62.5t76.5 35t85 11q42 0 83 -11t73 -36t51.5 -65.5t19.5 -98.5q0 -55 -32 -109.5t-80 -107t-103 -104t-101 -100.5h239l41 93h46l-29 -240h-477l1 44q54 67 110.5 124.5t102.5 116.5t75 124.5t29 146.5q0 67 -28.5 97.5t-69.5 30.5 q-42 0 -89 -32t-88 -104z" />
<glyph unicode="&#xb3;" horiz-adv-x="820" d="M143 632l103 132q21 -41 40.5 -68t38 -43t35.5 -22t33 -6q24 0 44 13.5t34 36.5t22 53t8 63q0 30 -7 58t-23 50t-41.5 35t-62.5 13q-18 0 -42 -5.5t-53 -18.5l-15 67q49 10 84 30t57.5 45t32.5 54t10 58q0 36 -16.5 51.5t-39.5 15.5q-18 0 -39 -8t-42 -22t-40 -34 t-34 -44l-49 46q26 44 56 74t62.5 49t65.5 27t65 8q37 0 70 -9.5t57.5 -27.5t39 -43.5t14.5 -57.5q0 -50 -32.5 -96.5t-107.5 -96.5q50 -5 86.5 -20t60 -37.5t35 -50.5t11.5 -59q0 -50 -25.5 -103t-69.5 -97t-102 -72.5t-123 -28.5q-51 0 -102.5 21.5t-98.5 69.5z" />
<glyph unicode="&#xb4;" horiz-adv-x="641" d="M71 1012q-3 11 5 21l200 272q12 16 25.5 20t39.5 4h184q24 0 35 -7.5t11 -17.5q0 -5 -5 -13.5t-19 -16.5l-412 -261q-20 -12 -37 -12q-24 0 -27 11z" />
<glyph unicode="&#xb5;" horiz-adv-x="1245" d="M37 731v47l338 66h65v-477q0 -69 11 -116.5t30 -76.5t44.5 -42t55.5 -13q49 0 102 28t101 70v514h-129v47l338 66h65v-764l132 -32v-48h-406v123q-60 -40 -106 -68t-86.5 -46t-80 -26t-87.5 -8q-24 0 -46 6t-40.5 15.5t-33 20.5t-23.5 21v-93q0 -52 17.5 -98.5t43 -86 t53.5 -70.5t48 -51l-220 -116q-25 42 -41 115t-16 173v920h-129z" />
<glyph unicode="&#xb6;" horiz-adv-x="1079" d="M67 897q0 182 120 279.5t330 97.5h494v-55h-131v-1696h-74v1696h-186v-1696h-74v995q-239 0 -359 98.5t-120 280.5z" />
<glyph unicode="&#xb7;" horiz-adv-x="240" d="M15 739q0 45 30 75t75 30t75 -30t30 -75t-30 -75t-75 -30t-75 30t-30 75z" />
<glyph unicode="&#xb8;" horiz-adv-x="739" d="M143 -397q0 23 15 40.5t39 17.5q37 0 61.5 -11.5t45 -25.5t39.5 -25.5t44 -11.5q22 0 40.5 7.5t32 20t21 28.5t7.5 33q0 43 -59.5 72.5t-162.5 42.5l138 226h63l-62 -104q44 -9 79 -22t60 -36t38 -58t13 -87q0 -38 -15.5 -72t-49 -59.5t-86 -40.5t-125.5 -15q-37 0 -69 5 t-56 14.5t-37.5 24.5t-13.5 36z" />
<glyph unicode="&#xb9;" horiz-adv-x="820" d="M205 1213v48l176 62h103v-685l131 -30v-49h-409v49l131 30v575h-132z" />
<glyph unicode="&#xba;" horiz-adv-x="820" d="M115 1084q0 60 23 108.5t63.5 82t95.5 52t120 18.5q64 0 117 -17.5t91 -50.5t58.5 -79t20.5 -105t-22 -107.5t-62 -83t-95.5 -53.5t-121.5 -19q-64 0 -117 17.5t-91 51t-59 80.5t-21 105zM137 642v72h539v-72h-539zM276 1171q0 -70 10.5 -125.5t31 -94t49 -59t64.5 -20.5 q56 0 83 38t27 111q0 65 -11.5 118t-31.5 89.5t-49 56.5t-63 20q-53 0 -81.5 -36.5t-28.5 -97.5z" />
<glyph unicode="&#xbb;" horiz-adv-x="671" d="M583.01 415l-393.952 378h-35.9961l215.974 -378l-215.974 -379h35.9961zM255.05 415l-332.96 344h-35.9951l154.98 -344l-154.98 -345h35.9951z" />
<glyph unicode="&#xbc;" horiz-adv-x="1616" d="M174 1213v48l176 62h103v-685l131 -30v-49h-409v49l131 30v575h-132zM334 -59l932 1421h102l-932 -1421h-102zM911 195v31l329 557h115v-509h106v-79h-106v-206h-164v206h-280zM1020 274h171v291z" />
<glyph unicode="&#xbd;" horiz-adv-x="1616" d="M135 1213v48l176 62h103v-685l131 -30v-49h-409v49l131 30v575h-132zM265 -59l932 1421h102l-932 -1421h-102zM969 566q21 55 50.5 93.5t65 62.5t76.5 35t85 11q42 0 83 -11t73 -36t51.5 -65.5t19.5 -98.5q0 -55 -32 -109.5t-80 -107t-103 -104t-101 -100.5h239l41 93h46 l-29 -240h-477l1 44q54 67 110.5 124.5t102.5 116.5t75 124.5t29 146.5q0 67 -28.5 97.5t-69.5 30.5q-42 0 -89 -32t-88 -104z" />
<glyph unicode="&#xbe;" horiz-adv-x="1616" d="M137 632l103 132q21 -41 40.5 -68t38 -43t35.5 -22t33 -6q24 0 44 13.5t34 36.5t22 53t8 63q0 30 -7 58t-23 50t-41.5 35t-62.5 13q-18 0 -42 -5.5t-53 -18.5l-15 67q49 10 84 30t57.5 45t32.5 54t10 58q0 36 -16.5 51.5t-39.5 15.5q-18 0 -39 -8t-42 -22t-40 -34 t-34 -44l-49 46q26 44 56 74t62.5 49t65.5 27t65 8q37 0 70 -9.5t57.5 -27.5t39 -43.5t14.5 -57.5q0 -50 -32.5 -96.5t-107.5 -96.5q50 -5 86.5 -20t60 -37.5t35 -50.5t11.5 -59q0 -50 -25.5 -103t-69.5 -97t-102 -72.5t-123 -28.5q-51 0 -102.5 21.5t-98.5 69.5zM362 -59 l932 1421h102l-932 -1421h-102zM937 195v31l329 557h115v-509h106v-79h-106v-206h-164v206h-280zM1046 274h171v291z" />
<glyph unicode="&#xbf;" horiz-adv-x="970" d="M897.004 -288.935q-19.999 -61.9971 -53.9961 -107.494q-33.998 -45.4971 -84.9951 -74.9951t-120.493 -43.4971q-69.4951 -13.999 -159.49 -13.999q-79.9951 0 -155.49 12.999t-134.492 45.4971q-58.9961 32.498 -94.9941 88.9941q-35.9971 56.4971 -35.9971 143.491 q0 59.9971 20.498 103.994q20.499 43.9971 53.4971 76.9951t75.4951 57.9961q42.498 24.999 86.9951 47.9971q44.4971 22.999 86.9941 45.998q42.498 22.998 75.4961 51.4961q32.998 28.499 53.4961 66.4961q20.499 37.998 20.499 89.9951q0 36.9971 -14.999 68.4951 t-28.998 68.4961h91.9941q36.998 -47.9971 52.9971 -90.4941q15.999 -42.498 15.999 -81.4951q0 -52.9971 -24.999 -99.9941q-24.998 -46.9971 -62.4961 -90.4941q-37.4971 -43.498 -80.9951 -84.9951q-43.4971 -41.4971 -80.9951 -84.9951 q-37.4971 -43.4971 -62.4961 -89.4941q-24.998 -45.9971 -24.998 -97.9941q0 -93.9941 39.4971 -138.491q39.498 -44.498 115.493 -44.498q79.9951 0 126.992 55.9971q46.9971 55.9961 46.9971 174.989zM665.019 682.006q0 -27.998 -9.5 -51.4971 q-9.49902 -23.498 -26.998 -40.9971t-40.9971 -27.499q-23.499 -9.99902 -51.4971 -9.99902q-27.999 0 -51.4971 9.99902q-23.499 10 -40.9971 27.499q-17.499 17.499 -27.499 40.9971q-9.99902 23.499 -9.99902 51.4971t9.99902 51.4971q10 23.498 27.499 40.9971 q17.498 17.499 40.9971 26.998q23.498 9.5 51.4971 9.5q27.998 0 51.4971 -9.5q23.498 -9.49902 40.9971 -26.998t26.998 -40.9971q9.5 -23.499 9.5 -51.4971z" />
<glyph unicode="&#xc2;" horiz-adv-x="1487" d="M-56 0v48l195 32l540 1194h192l500 -1194l141 -32v-48h-650v49l188 31l-160 387h-473l-155 -387l227 -32v-48h-545zM448 542h411l-207 505zM448 1425l237 290q13 16 23.5 20t28.5 4h97q17 0 28.5 -3.5t23.5 -20.5l216 -290q5 -6 -2.5 -10t-14.5 -4q-9 0 -16 5l-284 176 l-303 -176q-10 -5 -16 -5q-7 0 -15 4.5t-3 9.5z" />
<glyph unicode="&#xc4;" horiz-adv-x="1487" d="M-56 0v48l195 32l540 1194h192l500 -1194l141 -32v-48h-650v49l188 31l-160 387h-473l-155 -387l227 -32v-48h-545zM448 542h411l-207 505zM411 1507q0 31 11.5 58.5t32 47.5t47.5 31.5t58 11.5q32 0 59.5 -12t48 -32t32.5 -47.5t12 -57.5q0 -31 -12 -58.5t-32.5 -48.5 t-48 -33t-59.5 -12q-31 0 -58 11.5t-47.5 32t-32 48.5t-11.5 60zM846 1507q0 31 11.5 58.5t32 47.5t47.5 31.5t58 11.5q32 0 59.5 -12t48 -32t32.5 -47.5t12 -57.5q0 -31 -12 -58.5t-32.5 -48.5t-48 -33t-59.5 -12q-31 0 -58 11.5t-47.5 32t-32 48.5t-11.5 60z" />
<glyph unicode="&#xc5;" horiz-adv-x="1487" d="M-56 0v48l195 32l540 1194h192l500 -1194l141 -32v-48h-650v49l188 31l-160 387h-473l-155 -387l227 -32v-48h-545zM448 542h411l-207 505zM596 1558q0 39 14 73t39 58.5t58 38.5t72 14q40 0 74 -14t58.5 -38.5t38 -58.5t13.5 -73t-13.5 -72.5t-38 -57.5t-58.5 -38 t-74 -14t-73.5 13.5t-58 37.5t-38 57.5t-13.5 73.5zM689 1558q0 -38 25.5 -63.5t64.5 -25.5q38 0 62.5 25.5t24.5 63.5t-24.5 63t-62.5 25q-39 0 -64.5 -25t-25.5 -63z" />
<glyph unicode="&#xc6;" horiz-adv-x="1987" d="M-45 0v48l223 32l531 1104l-137 42v48h1252v-299l-56 -5l-78 214h-518v-498h275l59 153h46v-388h-46l-59 153h-275v-393q0 -42 4.5 -66.5t16 -37.5t31 -16.5t50.5 -3.5h433l101 242h60l-29 -329h-1147v48l175 32v387h-407l-176 -387l246 -32v-48h-575zM496 542h371v599 l-76 22z" />
<glyph unicode="&#xc7;" horiz-adv-x="1610" d="M87 623q0 104 31 195.5t86.5 167.5t131 136t165.5 101.5t190.5 63.5t204.5 22q69 0 123.5 -4t104 -11.5t98 -18t105.5 -22.5l48 -298l-76 4q-33 81 -68.5 129t-81.5 73t-105 32.5t-138 7.5q-107 0 -196.5 -38.5t-153.5 -110.5t-99.5 -176t-35.5 -234q0 -129 44 -232.5 t116.5 -176t166 -111t191.5 -38.5q52 0 109 17.5t111.5 47.5t103.5 70.5t85 87.5l86 -54q-58 -82 -124.5 -136t-140 -85.5t-153 -44t-163.5 -12.5q-101 0 -196.5 19t-180.5 56t-156.5 92t-123 127t-80.5 161t-29 193zM563 -397q0 23 15 40.5t39 17.5q37 0 61.5 -11.5 t45 -25.5t39.5 -25.5t44 -11.5q22 0 40.5 7.5t32 20t21 28.5t7.5 33q0 43 -59.5 72.5t-162.5 42.5l138 226h63l-62 -104q44 -9 79 -22t60 -36t38 -58t13 -87q0 -38 -15.5 -72t-49 -59.5t-86 -40.5t-125.5 -15q-37 0 -69 5t-56 14.5t-37.5 24.5t-13.5 36z" />
<glyph unicode="&#xca;" horiz-adv-x="1382" d="M62 0v48l195 32v1114l-195 32v48h1202v-299l-56 -5l-78 214h-568v-498h325l59 153h46v-388h-46l-59 153h-325v-393q0 -42 4.5 -66.5t16 -37.5t31 -16.5t50.5 -3.5h483l101 242h60l-29 -329h-1217zM412 1426l237 290q13 16 23.5 20t28.5 4h97q17 0 28.5 -3.5t23.5 -20.5 l216 -290q5 -6 -2.5 -10t-14.5 -4q-9 0 -16 5l-284 176l-303 -176q-10 -5 -16 -5q-7 0 -15 4.5t-3 9.5z" />
<glyph unicode="&#xcb;" horiz-adv-x="1382" d="M62 0v48l195 32v1114l-195 32v48h1202v-299l-56 -5l-78 214h-568v-498h325l59 153h46v-388h-46l-59 153h-325v-393q0 -42 4.5 -66.5t16 -37.5t31 -16.5t50.5 -3.5h483l101 242h60l-29 -329h-1217zM429 1507q0 31 11.5 58.5t32 47.5t47.5 31.5t58 11.5q32 0 59.5 -12 t48 -32t32.5 -47.5t12 -57.5q0 -31 -12 -58.5t-32.5 -48.5t-48 -33t-59.5 -12q-31 0 -58 11.5t-47.5 32t-32 48.5t-11.5 60zM864 1507q0 31 11.5 58.5t32 47.5t47.5 31.5t58 11.5q32 0 59.5 -12t48 -32t32.5 -47.5t12 -57.5q0 -31 -12 -58.5t-32.5 -48.5t-48 -33t-59.5 -12 q-31 0 -58 11.5t-47.5 32t-32 48.5t-11.5 60z" />
<glyph unicode="&#xce;" horiz-adv-x="791" d="M45 1226v48h698v-48l-194 -32v-1095l194 -51v-48h-696v48l195 51v1095zM67 1426l237 290q13 16 23.5 20t28.5 4h97q17 0 28.5 -3.5t23.5 -20.5l216 -290q5 -6 -2.5 -10t-14.5 -4q-9 0 -16 5l-284 176l-303 -176q-10 -5 -16 -5q-7 0 -15 4.5t-3 9.5z" />
<glyph unicode="&#xcf;" horiz-adv-x="791" d="M45 1226v48h698v-48l-194 -32v-1095l194 -51v-48h-696v48l195 51v1095zM25 1507q0 31 11.5 58.5t32 47.5t47.5 31.5t58 11.5q32 0 59.5 -12t48 -32t32.5 -47.5t12 -57.5q0 -31 -12 -58.5t-32.5 -48.5t-48 -33t-59.5 -12q-31 0 -58 11.5t-47.5 32t-32 48.5t-11.5 60z M460 1507q0 31 11.5 58.5t32 47.5t47.5 31.5t58 11.5q32 0 59.5 -12t48 -32t32.5 -47.5t12 -57.5q0 -31 -12 -58.5t-32.5 -48.5t-48 -33t-59.5 -12q-31 0 -58 11.5t-47.5 32t-32 48.5t-11.5 60z" />
<glyph unicode="&#xd0;" horiz-adv-x="1713" d="M59 0v48l195 32v535l-184 -21l35 135l149 -18v483l-195 32v48q34 0 83 1.5t107 4t185 7.5t186 6.5t109 1.5q99 0 201.5 -9.5t198.5 -35t180.5 -70t147.5 -113.5t99.5 -166.5t36.5 -229.5q0 -122 -33.5 -219t-91.5 -171.5t-136.5 -127.5t-169 -87t-188.5 -50t-196 -16 h-719zM561 225q0 -44 12 -74t38.5 -49t69 -27.5t103.5 -8.5q122 0 215.5 43t157 121t96 186.5t32.5 238.5q0 129 -39.5 234.5t-114 180t-182.5 115.5t-245 41h-143v-517l175 19l-36 -134l-139 18v-387z" />
<glyph unicode="&#xd4;" horiz-adv-x="1757" d="M76 611q0 94 26 181.5t74 163.5t115.5 139.5t150 108.5t178.5 70t200 25q158 0 290.5 -50.5t228 -137.5t149 -204.5t53.5 -251.5q0 -105 -29.5 -197t-81 -168.5t-122 -136.5t-153 -101.5t-173.5 -63t-183 -21.5q-160 0 -293 50.5t-228.5 138t-148.5 204.5t-53 251z M407 687q0 -141 28 -259t81.5 -203t131 -132.5t176.5 -47.5q97 0 169 38t120 109t72 172.5t24 229.5q0 135 -29 248.5t-83.5 196t-132 128.5t-174.5 46q-92 0 -163.5 -37.5t-120.5 -106t-74 -165.5t-25 -217zM490 1426l237 290q13 16 23.5 20t28.5 4h97q17 0 28.5 -3.5 t23.5 -20.5l216 -290q5 -6 -2.5 -10t-14.5 -4q-9 0 -16 5l-284 176l-303 -176q-10 -5 -16 -5q-7 0 -15 4.5t-3 9.5z" />
<glyph unicode="&#xd6;" horiz-adv-x="1757" d="M76 611q0 94 26 181.5t74 163.5t115.5 139.5t150 108.5t178.5 70t200 25q158 0 290.5 -50.5t228 -137.5t149 -204.5t53.5 -251.5q0 -105 -29.5 -197t-81 -168.5t-122 -136.5t-153 -101.5t-173.5 -63t-183 -21.5q-160 0 -293 50.5t-228.5 138t-148.5 204.5t-53 251z M407 687q0 -141 28 -259t81.5 -203t131 -132.5t176.5 -47.5q97 0 169 38t120 109t72 172.5t24 229.5q0 135 -29 248.5t-83.5 196t-132 128.5t-174.5 46q-92 0 -163.5 -37.5t-120.5 -106t-74 -165.5t-25 -217zM447 1507q0 31 11.5 58.5t32 47.5t47.5 31.5t58 11.5 q32 0 59.5 -12t48 -32t32.5 -47.5t12 -57.5q0 -31 -12 -58.5t-32.5 -48.5t-48 -33t-59.5 -12q-31 0 -58 11.5t-47.5 32t-32 48.5t-11.5 60zM882 1507q0 31 11.5 58.5t32 47.5t47.5 31.5t58 11.5q32 0 59.5 -12t48 -32t32.5 -47.5t12 -57.5q0 -31 -12 -58.5t-32.5 -48.5 t-48 -33t-59.5 -12q-31 0 -58 11.5t-47.5 32t-32 48.5t-11.5 60z" />
<glyph unicode="&#xd7;" horiz-adv-x="1364" d="M218 87l390 389l-388 388l73 74l389 -388l389 390l74 -75l-390 -389l391 -391l-73 -74l-391 391l-390 -390z" />
<glyph unicode="&#xd8;" horiz-adv-x="1757" d="M76 611q0 94 28.5 181.5t81 163.5t126.5 139.5t164.5 108.5t195.5 70t219 25q118 0 222 -23.5t193 -66.5l101 137l60 -34l-100 -136q73 -44 131.5 -100.5t99 -123t62 -141.5t21.5 -156q0 -105 -32 -197t-88.5 -168.5t-133.5 -136.5t-167.5 -101.5t-190.5 -63t-201 -21.5 q-96 0 -182 15.5t-163 43.5l-107 -145l-59 38l99 135q-88 42 -158.5 100.5t-119.5 130.5t-75.5 154.5t-26.5 171.5zM408 687q0 -153 40.5 -277.5t114.5 -210.5l631 857q-65 75 -150 116t-186 41t-184 -37.5t-142 -106t-91.5 -165.5t-32.5 -217zM613 149q59 -51 129.5 -77.5 t152.5 -26.5q106 0 190 38t142.5 109t89.5 172.5t31 229.5q0 120 -29 222.5t-82 182.5z" />
<glyph unicode="&#xdb;" horiz-adv-x="1662" d="M57 1226v48h690v-48l-195 -32v-687q0 -95 11.5 -173t47.5 -133.5t104.5 -85.5t182.5 -30q208 -1 306 119q89 108 89 330q0 22 -1 46l-25 614l-176 32v48h507v-48l-199 -32l-23 -664q-5 -146 -33.5 -251t-92 -173t-169.5 -100.5t-265 -32.5q-155 0 -262.5 31.5t-174.5 95 t-97.5 159t-30.5 224.5v711zM552 1426l237 290q13 16 23.5 20t28.5 4h97q17 0 28.5 -3.5t23.5 -20.5l216 -290q5 -6 -2.5 -10t-14.5 -4q-9 0 -16 5l-284 176l-303 -176q-10 -5 -16 -5q-7 0 -15 4.5t-3 9.5z" />
<glyph unicode="&#xdc;" horiz-adv-x="1662" d="M57 1226v48h690v-48l-195 -32v-687q0 -95 11.5 -173t47.5 -133.5t104.5 -85.5t182.5 -30q208 -1 306 119q89 108 89 330q0 22 -1 46l-25 614l-176 32v48h507v-48l-199 -32l-23 -664q-5 -146 -33.5 -251t-92 -173t-169.5 -100.5t-265 -32.5q-155 0 -262.5 31.5t-174.5 95 t-97.5 159t-30.5 224.5v711zM555 1507q0 31 11.5 58.5t32 47.5t47.5 31.5t58 11.5q32 0 59.5 -12t48 -32t32.5 -47.5t12 -57.5q0 -31 -12 -58.5t-32.5 -48.5t-48 -33t-59.5 -12q-31 0 -58 11.5t-47.5 32t-32 48.5t-11.5 60zM990 1507q0 31 11.5 58.5t32 47.5t47.5 31.5 t58 11.5q32 0 59.5 -12t48 -32t32.5 -47.5t12 -57.5q0 -31 -12 -58.5t-32.5 -48.5t-48 -33t-59.5 -12q-31 0 -58 11.5t-47.5 32t-32 48.5t-11.5 60z" />
<glyph unicode="&#xde;" horiz-adv-x="1385" d="M54 1226v48h698v-48l-194 -32v-172q29 1 47.5 1.5t23.5 0.5q166 0 268 -18q93 -15 165 -49t122 -83.5t76 -112t26 -134.5q0 -84 -38 -154.5t-106 -121.5t-162 -79t-206 -28q-37 0 -94 3.5t-122 9.5v-158l194 -51v-48h-696v48l195 51v1095zM558 345q29 -3 49.5 -4.5 t37.5 -1.5q156 0 237 76t81 219q0 146 -81 223t-233 77q-19 0 -41.5 -1.5t-49.5 -3.5v-584z" />
<glyph unicode="&#xdf;" horiz-adv-x="1268" d="M53 0v48l129 31v732q0 108 20 192t55.5 146.5t84.5 106t106.5 70t121 38.5t129.5 12q73 0 140.5 -17.5t119 -52.5t82 -87.5t30.5 -122.5q0 -67 -22 -121t-60.5 -95.5t-90.5 -71.5t-113 -49h-14q87 -5 166.5 -31.5t139.5 -73.5t96 -115t36 -156q0 -80 -29 -139.5 t-78 -102.5t-114.5 -70t-138 -43t-148 -22t-145.5 -6v48q30 0 69 5.5t80 19t80.5 36t71 58t50.5 84t19 113.5q0 87 -20 153t-64 111t-114.5 68t-171.5 24v53q75 3 122 23.5t73.5 58t36.5 92t10 125.5q0 120 -34.5 175.5t-105.5 55.5q-44 0 -81 -21.5t-64 -63t-42 -102 t-15 -137.5v-979h-403z" />
<glyph unicode="&#xe2;" horiz-adv-x="1049" d="M88 197q0 60 25 102.5t66.5 71.5t95.5 48t111.5 34t114 28t103.5 30v78q0 46 -13.5 79.5t-34 54.5t-43.5 31t-42 10q-47 0 -81.5 -19t-58.5 -51.5t-38.5 -76t-21.5 -93.5h-127v166q31 38 74 65.5t91.5 45t100 25.5t99.5 8q74 0 140.5 -12t117 -42t80.5 -81.5t30 -129.5 v-489l107 -32v-48h-295q-44 0 -64.5 22.5t-21.5 49.5q-58 -55 -121 -76t-138 -21q-121 0 -188.5 58.5t-67.5 163.5zM336 214q0 -24 8.5 -46t26 -38t42.5 -25.5t58 -9.5q34 0 67 24t66 63v247q-69 -8 -119.5 -30.5t-83.5 -52.5t-49 -64.5t-16 -67.5zM164 1015l237 290 q13 16 23.5 20t28.5 4h97q17 0 28.5 -3.5t23.5 -20.5l216 -290q5 -6 -2.5 -10t-14.5 -4q-9 0 -16 5l-284 176l-303 -176q-10 -5 -16 -5q-7 0 -15 4.5t-3 9.5z" />
<glyph unicode="&#xe4;" horiz-adv-x="1049" d="M88 197q0 60 25 102.5t66.5 71.5t95.5 48t111.5 34t114 28t103.5 30v78q0 46 -13.5 79.5t-34 54.5t-43.5 31t-42 10q-47 0 -81.5 -19t-58.5 -51.5t-38.5 -76t-21.5 -93.5h-127v166q31 38 74 65.5t91.5 45t100 25.5t99.5 8q74 0 140.5 -12t117 -42t80.5 -81.5t30 -129.5 v-489l107 -32v-48h-295q-44 0 -64.5 22.5t-21.5 49.5q-58 -55 -121 -76t-138 -21q-121 0 -188.5 58.5t-67.5 163.5zM336 214q0 -24 8.5 -46t26 -38t42.5 -25.5t58 -9.5q34 0 67 24t66 63v247q-69 -8 -119.5 -30.5t-83.5 -52.5t-49 -64.5t-16 -67.5zM158 1129q0 31 11.5 58.5 t32 47.5t47.5 31.5t58 11.5q32 0 59.5 -12t48 -32t32.5 -47.5t12 -57.5q0 -31 -12 -58.5t-32.5 -48.5t-48 -33t-59.5 -12q-31 0 -58 11.5t-47.5 32t-32 48.5t-11.5 60zM593 1129q0 31 11.5 58.5t32 47.5t47.5 31.5t58 11.5q32 0 59.5 -12t48 -32t32.5 -47.5t12 -57.5 q0 -31 -12 -58.5t-32.5 -48.5t-48 -33t-59.5 -12q-31 0 -58 11.5t-47.5 32t-32 48.5t-11.5 60z" />
<glyph unicode="&#xe5;" horiz-adv-x="1049" d="M88 197q0 60 25 102.5t66.5 71.5t95.5 48t111.5 34t114 28t103.5 30v78q0 46 -13.5 79.5t-34 54.5t-43.5 31t-42 10q-47 0 -81.5 -19t-58.5 -51.5t-38.5 -76t-21.5 -93.5h-127v166q31 38 74 65.5t91.5 45t100 25.5t99.5 8q74 0 140.5 -12t117 -42t80.5 -81.5t30 -129.5 v-489l107 -32v-48h-295q-44 0 -64.5 22.5t-21.5 49.5q-58 -55 -121 -76t-138 -21q-121 0 -188.5 58.5t-67.5 163.5zM336 214q0 -24 8.5 -46t26 -38t42.5 -25.5t58 -9.5q34 0 67 24t66 63v247q-69 -8 -119.5 -30.5t-83.5 -52.5t-49 -64.5t-16 -67.5zM339 1131q0 39 14 73 t39 58.5t58 38.5t72 14q40 0 74 -14t58.5 -38.5t38 -58.5t13.5 -73t-13.5 -72.5t-38 -57.5t-58.5 -38t-74 -14t-73.5 13.5t-58 37.5t-38 57.5t-13.5 73.5zM432 1131q0 -38 25.5 -63.5t64.5 -25.5q38 0 62.5 25.5t24.5 63.5t-24.5 63t-62.5 25q-39 0 -64.5 -25t-25.5 -63z " />
<glyph unicode="&#xe6;" horiz-adv-x="1446" d="M77 197q0 58 23 99t61 70t88 48.5t104 35.5t108.5 30t101.5 31v132q0 25 -8 47t-23 38.5t-35.5 25.5t-45.5 9q-40 0 -59 -8.5t-25.5 -22.5t-5 -31.5t1.5 -34.5q0 -9 0.5 -18.5t0.5 -17.5q0 -20 -6 -36.5t-29 -23.5l-155 -47q-18 -5 -30 1t-19.5 19t-10.5 31t-3 38 q0 112 91.5 167t271.5 55q55 0 91.5 -5t63 -15.5t47.5 -26t44 -35.5q55 44 128 63t146 19q97 0 164.5 -31t110 -87t61.5 -133.5t19 -171.5h-527q4 -75 20.5 -131.5t48 -94t79.5 -56.5t115 -19q34 0 62 6.5t53.5 21t51 38.5t56.5 60l43 -38q-45 -62 -86.5 -104.5t-87 -69 t-98.5 -38t-121 -11.5q-60 0 -107.5 8.5t-87.5 27.5t-73.5 49.5t-64.5 75.5q-27 -31 -51.5 -60t-56 -51.5t-75.5 -36t-109 -13.5q-121 0 -188.5 59t-67.5 163zM339 225q0 -58 23.5 -94t77.5 -36q30 0 53 14t38.5 35.5t23.5 47.5t8 50v187q-73 -21 -117 -40.5t-68 -42.5 t-31.5 -52t-7.5 -69zM822 485h277q0 70 -7 118.5t-23 78t-42.5 42.5t-65.5 13q-40 0 -67 -17.5t-43 -50t-22.5 -79t-6.5 -105.5z" />
<glyph unicode="&#xe7;" horiz-adv-x="1057" d="M88 378q0 96 39.5 179t110.5 144.5t168.5 97t214.5 35.5q65 0 120 -13t97.5 -33.5t70.5 -44t40 -44.5l-113 -150q-18 28 -42.5 63.5t-57 67t-73.5 53.5t-93 22q-49 0 -84.5 -23.5t-59 -65.5t-34.5 -98.5t-11 -122.5q0 -77 18 -141t52 -111t82.5 -73t110.5 -26t116.5 32 t119.5 100l67 -38q-42 -54 -86 -94t-94 -66.5t-107.5 -39.5t-126.5 -13q-100 0 -182 31t-140.5 85t-90.5 127.5t-32 159.5zM278 -397q0 23 15 40.5t39 17.5q37 0 61.5 -11.5t45 -25.5t39.5 -25.5t44 -11.5q22 0 40.5 7.5t32 20t21 28.5t7.5 33q0 43 -59.5 72.5t-162.5 42.5 l138 226h63l-62 -104q44 -9 79 -22t60 -36t38 -58t13 -87q0 -38 -15.5 -72t-49 -59.5t-86 -40.5t-125.5 -15q-37 0 -69 5t-56 14.5t-37.5 24.5t-13.5 36z" />
<glyph unicode="&#xea;" horiz-adv-x="1044" d="M78 391q0 103 37 185.5t101.5 139.5t152 87.5t189.5 30.5q99 0 171 -32.5t119 -89.5t70 -134t25 -167h-577q8 -150 82 -225.5t201 -75.5q36 0 68 7.5t62 22.5t60 39t63 57l43 -38q-98 -113 -200 -168t-223 -55q-96 0 -177.5 31t-141 86.5t-92.5 132t-33 166.5zM366 485 h327q-1 125 -45.5 188.5t-122.5 63.5q-81 0 -120 -67t-39 -185zM182 1015l237 290q13 16 23.5 20t28.5 4h97q17 0 28.5 -3.5t23.5 -20.5l216 -290q5 -6 -2.5 -10t-14.5 -4q-9 0 -16 5l-284 176l-303 -176q-10 -5 -16 -5q-7 0 -15 4.5t-3 9.5z" />
<glyph unicode="&#xeb;" horiz-adv-x="1044" d="M78 391q0 103 37 185.5t101.5 139.5t152 87.5t189.5 30.5q99 0 171 -32.5t119 -89.5t70 -134t25 -167h-577q8 -150 82 -225.5t201 -75.5q36 0 68 7.5t62 22.5t60 39t63 57l43 -38q-98 -113 -200 -168t-223 -55q-96 0 -177.5 31t-141 86.5t-92.5 132t-33 166.5zM366 485 h327q-1 125 -45.5 188.5t-122.5 63.5q-81 0 -120 -67t-39 -185zM164 1129q0 31 11.5 58.5t32 47.5t47.5 31.5t58 11.5q32 0 59.5 -12t48 -32t32.5 -47.5t12 -57.5q0 -31 -12 -58.5t-32.5 -48.5t-48 -33t-59.5 -12q-31 0 -58 11.5t-47.5 32t-32 48.5t-11.5 60zM599 1129 q0 31 11.5 58.5t32 47.5t47.5 31.5t58 11.5q32 0 59.5 -12t48 -32t32.5 -47.5t12 -57.5q0 -31 -12 -58.5t-32.5 -48.5t-48 -33t-59.5 -12q-31 0 -58 11.5t-47.5 32t-32 48.5t-11.5 60z" />
<glyph unicode="&#xec;" horiz-adv-x="647" d="M66 0v48l129 32v650h-129v48l338 66h65v-764l127 -32v-48h-530zM-30 1304q0 10 11 17.5t35 7.5h184q26 0 39.5 -4t25.5 -20l200 -272q8 -10 5 -21t-27 -11q-18 0 -37 12l-412 261q-14 8 -19 16.5t-5 13.5z" />
<glyph unicode="&#xed;" horiz-adv-x="647" d="M66 0v48l129 32v650h-129v48l338 66h65v-764l127 -32v-48h-530zM194 1012q-3 11 5 21l200 272q12 16 25.5 20t39.5 4h184q24 0 35 -7.5t11 -17.5q0 -5 -5 -13.5t-19 -16.5l-412 -261q-20 -12 -37 -12q-24 0 -27 11z" />
<glyph unicode="&#xee;" horiz-adv-x="647" d="M66 0v48l129 32v650h-129v48l338 66h65v-764l127 -32v-48h-530zM-2 1015l237 290q13 16 23.5 20t28.5 4h97q17 0 28.5 -3.5t23.5 -20.5l216 -290q5 -6 -2.5 -10t-14.5 -4q-9 0 -16 5l-284 176l-303 -176q-10 -5 -16 -5q-7 0 -15 4.5t-3 9.5z" />
<glyph unicode="&#xef;" horiz-adv-x="647" d="M66 0v48l129 32v650h-129v48l338 66h65v-764l127 -32v-48h-530zM-37 1129q0 31 11.5 58.5t32 47.5t47.5 31.5t58 11.5q32 0 59.5 -12t48 -32t32.5 -47.5t12 -57.5q0 -31 -12 -58.5t-32.5 -48.5t-48 -33t-59.5 -12q-31 0 -58 11.5t-47.5 32t-32 48.5t-11.5 60zM398 1129 q0 31 11.5 58.5t32 47.5t47.5 31.5t58 11.5q32 0 59.5 -12t48 -32t32.5 -47.5t12 -57.5q0 -31 -12 -58.5t-32.5 -48.5t-48 -33t-59.5 -12q-31 0 -58 11.5t-47.5 32t-32 48.5t-11.5 60z" />
<glyph unicode="&#xf0;" horiz-adv-x="1162" d="M75 399q0 97 39 177.5t107.5 137.5t161 88.5t199.5 31.5q71 0 135 -14q-2 70 -42.5 141t-99.5 134q-120 -66 -229 -169q-7 -7 -13 -7t-9 7t-3 15l-1 90q0 14 9 21t33 16t65 24.5t104 47.5q-39 36 -79.5 66.5t-76.5 53t-66 35.5t-48 14l26 46q109 -15 204 -52t176 -92 q111 59 199 144q7 7 15 7t13 -5t5 -15v-81q0 -11 -7 -17t-26.5 -14t-53.5 -21.5t-89 -38.5q175 -140 269 -312.5t94 -388.5q0 -105 -36.5 -195t-102 -156.5t-157 -104.5t-202.5 -38q-117 0 -211.5 33.5t-161.5 91t-103.5 135t-36.5 164.5zM365 469q0 -87 17.5 -167.5 t50 -142t77.5 -98t100 -36.5q39 0 73 24t59 67.5t39.5 103.5t14.5 132q0 86 -18 164t-50.5 137.5t-77 95t-97.5 35.5q-39 0 -73.5 -25t-60 -67.5t-40 -100t-14.5 -122.5z" />
<glyph unicode="&#xf4;" horiz-adv-x="1130" d="M74 401q0 100 38 180.5t105 136.5t159 86.5t200 30.5q107 0 195.5 -29t151.5 -83.5t97.5 -132t34.5 -174.5q0 -99 -37 -180t-104 -138.5t-159 -89.5t-202 -32q-107 0 -195 29.5t-151 85t-98 134t-35 176.5zM341 545q0 -117 18 -209.5t52 -156.5t81.5 -98t107.5 -34 q93 0 137.5 63.5t44.5 184.5q0 109 -18.5 197t-52 149.5t-81.5 94.5t-106 33q-88 0 -135.5 -61t-47.5 -163zM235 1015l237 290q13 16 23.5 20t28.5 4h97q17 0 28.5 -3.5t23.5 -20.5l216 -290q5 -6 -2.5 -10t-14.5 -4q-9 0 -16 5l-284 176l-303 -176q-10 -5 -16 -5 q-7 0 -15 4.5t-3 9.5z" />
<glyph unicode="&#xf6;" horiz-adv-x="1130" d="M74 401q0 100 38 180.5t105 136.5t159 86.5t200 30.5q107 0 195.5 -29t151.5 -83.5t97.5 -132t34.5 -174.5q0 -99 -37 -180t-104 -138.5t-159 -89.5t-202 -32q-107 0 -195 29.5t-151 85t-98 134t-35 176.5zM341 545q0 -117 18 -209.5t52 -156.5t81.5 -98t107.5 -34 q93 0 137.5 63.5t44.5 184.5q0 109 -18.5 197t-52 149.5t-81.5 94.5t-106 33q-88 0 -135.5 -61t-47.5 -163zM200 1129q0 31 11.5 58.5t32 47.5t47.5 31.5t58 11.5q32 0 59.5 -12t48 -32t32.5 -47.5t12 -57.5q0 -31 -12 -58.5t-32.5 -48.5t-48 -33t-59.5 -12q-31 0 -58 11.5 t-47.5 32t-32 48.5t-11.5 60zM635 1129q0 31 11.5 58.5t32 47.5t47.5 31.5t58 11.5q32 0 59.5 -12t48 -32t32.5 -47.5t12 -57.5q0 -31 -12 -58.5t-32.5 -48.5t-48 -33t-59.5 -12q-31 0 -58 11.5t-47.5 32t-32 48.5t-11.5 60z" />
<glyph unicode="&#xf7;" horiz-adv-x="1364" d="M79 422v105h1206v-105h-1206zM562 137q0 25 9 47t25 38t37.5 25t47.5 9q25 0 47 -9t38 -25t25 -38t9 -47q0 -26 -9 -47.5t-25 -37.5t-38 -25t-47 -9q-26 0 -47.5 9t-37.5 25t-25 37.5t-9 47.5zM562 812q0 25 9 47t25 38t37.5 25t47.5 9q25 0 47 -9t38 -25t25 -38t9 -47 q0 -26 -9 -47.5t-25 -37.5t-38 -25t-47 -9q-26 0 -47.5 9t-37.5 25t-25 37.5t-9 47.5z" />
<glyph unicode="&#xf8;" horiz-adv-x="1130" d="M74 401q0 100 38 180.5t105 136.5t159 86.5t200 30.5q107 0 163 -18.5t78 -28.5l63 87l61 -33l-63 -86q24 -15 66 -51.5t76.5 -114t34.5 -174.5q0 -99 -37 -180t-104 -138.5t-159 -89.5t-202 -32q-107 0 -157 16.5t-61 20.5l-83 -113l-63 33l82 111q-35 20 -81 61 t-81 119.5t-35 176.5zM341 545q0 -117 15.5 -198t37.5 -134l316 430q-33 60 -80.5 93t-105.5 33q-88 0 -135.5 -61t-47.5 -163zM431 145q27 -40 68 -69t101 -29q93 0 137.5 63.5t44.5 184.5q0 109 -19 197q-9 42 -21 78z" />
<glyph unicode="&#xfb;" horiz-adv-x="1237" d="M37 730v48l338 66h65v-477q0 -72 9 -120t27 -76.5t44.5 -40t60.5 -11.5q49 0 102 28t101 70v513h-129v49l338 65h65v-764l132 -32v-48h-406v123q-60 -40 -109.5 -68t-93.5 -46t-86.5 -26t-90.5 -8q-66 0 -111.5 23.5t-73.5 68.5t-40.5 110t-12.5 147v406h-129zM279 1015 l237 290q13 16 23.5 20t28.5 4h97q17 0 28.5 -3.5t23.5 -20.5l216 -290q5 -6 -2.5 -10t-14.5 -4q-9 0 -16 5l-284 176l-303 -176q-10 -5 -16 -5q-7 0 -15 4.5t-3 9.5z" />
<glyph unicode="&#xfc;" horiz-adv-x="1237" d="M37 730v48l338 66h65v-477q0 -72 9 -120t27 -76.5t44.5 -40t60.5 -11.5q49 0 102 28t101 70v513h-129v49l338 65h65v-764l132 -32v-48h-406v123q-60 -40 -109.5 -68t-93.5 -46t-86.5 -26t-90.5 -8q-66 0 -111.5 23.5t-73.5 68.5t-40.5 110t-12.5 147v406h-129zM242 1129 q0 31 11.5 58.5t32 47.5t47.5 31.5t58 11.5q32 0 59.5 -12t48 -32t32.5 -47.5t12 -57.5q0 -31 -12 -58.5t-32.5 -48.5t-48 -33t-59.5 -12q-31 0 -58 11.5t-47.5 32t-32 48.5t-11.5 60zM677 1129q0 31 11.5 58.5t32 47.5t47.5 31.5t58 11.5q32 0 59.5 -12t48 -32t32.5 -47.5 t12 -57.5q0 -31 -12 -58.5t-32.5 -48.5t-48 -33t-59.5 -12q-31 0 -58 11.5t-47.5 32t-32 48.5t-11.5 60z" />
<glyph unicode="&#xfe;" horiz-adv-x="1223" d="M37 -429l129 32v1623h-129v48l338 88h65v-655q34 30 76.5 53.5t87 39.5t87 24.5t75.5 8.5q77 0 142 -29.5t112.5 -82t74 -124.5t26.5 -158q0 -95 -39.5 -179t-106 -147.5t-153 -100.5t-180.5 -37q-44 0 -95.5 7t-106.5 21v-400l127 -32v-48h-530v48zM440 132 q108 -76 189 -76q51 0 92 20t70.5 58t45 92.5t15.5 122.5q0 78 -15 139.5t-43.5 104.5t-69.5 65.5t-93 22.5q-46 0 -93.5 -14.5t-97.5 -55.5v-479z" />
<glyph unicode="&#xff;" horiz-adv-x="1016" d="M-52 762v49h560v-49l-141 -32l231 -436l229 436l-176 32v49h424v-49l-141 -32l-480 -927q-22 -42 -57 -89.5t-77 -88.5t-88.5 -69.5t-91.5 -32.5l-111 180q19 -6 45 -6q39 0 85.5 14.5t91 41t83 64.5t61.5 85l51 103l-363 725zM216 1129q0 31 11.5 58.5t32 47.5 t47.5 31.5t58 11.5q32 0 59.5 -12t48 -32t32.5 -47.5t12 -57.5q0 -31 -12 -58.5t-32.5 -48.5t-48 -33t-59.5 -12q-31 0 -58 11.5t-47.5 32t-32 48.5t-11.5 60zM651 1129q0 31 11.5 58.5t32 47.5t47.5 31.5t58 11.5q32 0 59.5 -12t48 -32t32.5 -47.5t12 -57.5 q0 -31 -12 -58.5t-32.5 -48.5t-48 -33t-59.5 -12q-31 0 -58 11.5t-47.5 32t-32 48.5t-11.5 60z" />
<glyph unicode="&#x100;" horiz-adv-x="1487" d="M-56 0v48l195 32l540 1194h192l500 -1194l141 -32v-48h-650v49l188 31l-160 387h-473l-155 -387l227 -32v-48h-545zM448 542h411l-207 505zM483 1371v112h594v-112h-594z" />
<glyph unicode="&#x101;" horiz-adv-x="1049" d="M88 197q0 60 25 102.5t66.5 71.5t95.5 48t111.5 34t114 28t103.5 30v78q0 46 -13.5 79.5t-34 54.5t-43.5 31t-42 10q-47 0 -81.5 -19t-58.5 -51.5t-38.5 -76t-21.5 -93.5h-127v166q31 38 74 65.5t91.5 45t100 25.5t99.5 8q74 0 140.5 -12t117 -42t80.5 -81.5t30 -129.5 v-489l107 -32v-48h-295q-44 0 -64.5 22.5t-21.5 49.5q-58 -55 -121 -76t-138 -21q-121 0 -188.5 58.5t-67.5 163.5zM336 214q0 -24 8.5 -46t26 -38t42.5 -25.5t58 -9.5q34 0 67 24t66 63v247q-69 -8 -119.5 -30.5t-83.5 -52.5t-49 -64.5t-16 -67.5zM230 1047v112h594v-112 h-594z" />
<glyph unicode="&#x102;" horiz-adv-x="1487" d="M-56 0v48l195 32l540 1194h192l500 -1194l141 -32v-48h-650v49l188 31l-160 387h-473l-155 -387l227 -32v-48h-545zM448 542h411l-207 505zM490 1666h31q70 -129 257 -129q207 0 251 129h33q-9 -119 -88.5 -199.5t-197.5 -80.5t-197 80.5t-89 199.5z" />
<glyph unicode="&#x103;" horiz-adv-x="1049" d="M88 197q0 60 25 102.5t66.5 71.5t95.5 48t111.5 34t114 28t103.5 30v78q0 46 -13.5 79.5t-34 54.5t-43.5 31t-42 10q-47 0 -81.5 -19t-58.5 -51.5t-38.5 -76t-21.5 -93.5h-127v166q31 38 74 65.5t91.5 45t100 25.5t99.5 8q74 0 140.5 -12t117 -42t80.5 -81.5t30 -129.5 v-489l107 -32v-48h-295q-44 0 -64.5 22.5t-21.5 49.5q-58 -55 -121 -76t-138 -21q-121 0 -188.5 58.5t-67.5 163.5zM336 214q0 -24 8.5 -46t26 -38t42.5 -25.5t58 -9.5q34 0 67 24t66 63v247q-69 -8 -119.5 -30.5t-83.5 -52.5t-49 -64.5t-16 -67.5zM245 1273h31 q70 -129 257 -129q207 0 251 129h33q-9 -119 -88.5 -199.5t-197.5 -80.5t-197 80.5t-89 199.5z" />
<glyph unicode="&#x104;" horiz-adv-x="1487" d="M-57 0v48l213 32l482 1194h232l500 -1194l141 -32v-48h-127q-80 0 -127 -22t-72 -57t-32 -77.5t-7 -83.5q0 -38 12 -64t31.5 -42t45.5 -23t55 -7q25 0 50 4t48 12l15 -44q-33 -12 -69 -20t-71 -12.5t-67 -6.5t-56 -2q-53 0 -92.5 14t-66.5 38t-40.5 56t-13.5 68 q0 35 10 60t24.5 44t32 35.5t32 35t24.5 41t10 54.5q0 24 -6.5 54.5t-22.5 69.5l-142 342h-473l-155 -387l227 -32v-48h-545zM447 542h411l-207 505z" />
<glyph unicode="&#x105;" horiz-adv-x="1049" d="M88 197q0 60 25 102.5t66.5 71.5t95.5 48t111.5 34t114 28t103.5 30v78q0 46 -13.5 79.5t-34 54.5t-43.5 31t-42 10q-47 0 -81.5 -19t-58.5 -51.5t-38.5 -76.5t-21.5 -93h-127v166q31 38 74 65.5t91.5 45t100 25.5t99.5 8q73 0 140 -12t117.5 -42t80.5 -81.5t30 -129.5 v-489l107 -32v-48h-78q-49 0 -85 -22t-59 -57t-34.5 -77.5t-11.5 -83.5q0 -38 12 -64t31.5 -42t45.5 -23t55 -7q25 0 50 4t48 12l15 -44q-33 -12 -69 -20t-71 -12.5t-67 -6.5t-56 -2q-53 0 -92.5 14t-66.5 38t-40.5 56t-13.5 68q0 48 16 88t44 73t66.5 60t84.5 48 q-21 0 -40 7t-33.5 17.5t-23 23t-8.5 24.5q-58 -55 -121 -76t-138 -21q-121 0 -188.5 58t-67.5 164zM336 214q0 -24 8.5 -46t26 -38t42.5 -25.5t58 -9.5q34 0 67 24t66 63v247q-69 -8 -119.5 -30.5t-83.5 -52.5t-49 -64.5t-16 -67.5z" />
<glyph unicode="&#x106;" horiz-adv-x="1610" d="M87 623q0 104 31 195.5t86.5 167.5t131 136t165.5 101.5t190.5 63.5t204.5 22q69 0 123.5 -4t104 -11.5t98 -18t105.5 -22.5l48 -298l-76 4q-33 81 -68.5 129t-81.5 73t-105 32.5t-138 7.5q-107 0 -196.5 -38.5t-153.5 -110.5t-99.5 -176t-35.5 -234q0 -129 44 -232.5 t116.5 -176t166 -111t191.5 -38.5q52 0 109 17.5t111.5 47.5t103.5 70.5t85 87.5l86 -54q-58 -82 -124.5 -136t-140 -85.5t-153 -44t-163.5 -12.5q-101 0 -196.5 19t-180.5 56t-156.5 92t-123 127t-80.5 161t-29 193zM680 1422q-3 11 5 21l200 272q12 16 25.5 20t39.5 4h184 q24 0 35 -7.5t11 -17.5q0 -5 -5 -13.5t-19 -16.5l-412 -261q-20 -12 -37 -12q-24 0 -27 11z" />
<glyph unicode="&#x107;" horiz-adv-x="1057" d="M88 378q0 96 39.5 179t110.5 144.5t168.5 97t214.5 35.5q65 0 120 -13t97.5 -33.5t70.5 -44t40 -44.5l-113 -150q-18 28 -42.5 63.5t-57 67t-73.5 53.5t-93 22q-49 0 -84.5 -23.5t-59 -65.5t-34.5 -98.5t-11 -122.5q0 -77 18 -141t52 -111t82.5 -73t110.5 -26t116.5 32 t119.5 100l67 -38q-42 -54 -86 -94t-94 -66.5t-107.5 -39.5t-126.5 -13q-100 0 -182 31t-140.5 85t-90.5 127.5t-32 159.5zM403 1012q-3 11 5 21l200 272q12 16 25.5 20t39.5 4h184q24 0 35 -7.5t11 -17.5q0 -5 -5 -13.5t-19 -16.5l-412 -261q-20 -12 -37 -12q-24 0 -27 11z " />
<glyph unicode="&#x10c;" horiz-adv-x="1610" d="M87 623q0 104 31 195.5t86.5 167.5t131 136t165.5 101.5t190.5 63.5t204.5 22q69 0 123.5 -4t104 -11.5t98 -18t105.5 -22.5l48 -298l-76 4q-33 81 -68.5 129t-81.5 73t-105 32.5t-138 7.5q-107 0 -196.5 -38.5t-153.5 -110.5t-99.5 -176t-35.5 -234q0 -129 44 -232.5 t116.5 -176t166 -111t191.5 -38.5q52 0 109 17.5t111.5 47.5t103.5 70.5t85 87.5l86 -54q-58 -82 -124.5 -136t-140 -85.5t-153 -44t-163.5 -12.5q-101 0 -196.5 19t-180.5 56t-156.5 92t-123 127t-80.5 161t-29 193zM555 1739h237l159 -204l143 204h109l-253 -328h-148z " />
<glyph unicode="&#x10d;" horiz-adv-x="1057" d="M88 378q0 96 39.5 179t110.5 144.5t168.5 97t214.5 35.5q65 0 120 -13t97.5 -33.5t70.5 -44t40 -44.5l-113 -150q-18 28 -42.5 63.5t-57 67t-73.5 53.5t-93 22q-49 0 -84.5 -23.5t-59 -65.5t-34.5 -98.5t-11 -122.5q0 -77 18 -141t52 -111t82.5 -73t110.5 -26t116.5 32 t119.5 100l67 -38q-42 -54 -86 -94t-94 -66.5t-107.5 -39.5t-126.5 -13q-100 0 -182 31t-140.5 85t-90.5 127.5t-32 159.5zM250 1329h237l159 -204l143 204h109l-253 -328h-148z" />
<glyph unicode="&#x10e;" horiz-adv-x="1713" d="M59 0v48l195 32v1114l-195 32v48q34 0 83 2t107 4q57 2 121 4l128 6q64 2 122.5 3.5t108.5 1.5q99 0 201.5 -9.5t198.5 -35t180.5 -70t147.5 -113.5t99.5 -166.5t36.5 -229.5q0 -122 -33.5 -219t-91.5 -171.5t-136.5 -127.5t-169 -87t-188.5 -50t-196 -16h-719zM561 225 q0 -44 12 -74t38.5 -49t69 -27.5t103.5 -8.5q122 0 215.5 43t157 121t96 186.5t32.5 238.5q0 129 -39.5 234.5t-114 180t-182.5 115.5t-245 41h-143v-1001zM499 1739h237l159 -204l143 204h109l-253 -328h-148z" />
<glyph unicode="&#x10f;" horiz-adv-x="1206" d="M77 361q0 112 38 200t104.5 148.5t156 92.5t193.5 32q31 0 68 -4t97 -17v413h-129v48l338 88h65v-1282l132 -32v-48h-406v75q-76 -50 -150 -75t-152 -25q-80 0 -145.5 26.5t-112 76t-72 121.5t-25.5 162zM346 448q0 -86 15 -147.5t43.5 -100.5t69.5 -57.5t93 -18.5 q39 0 79 10.5t88 35.5v520q-43 29 -86.5 43.5t-78.5 14.5q-51 0 -92 -18.5t-70 -56t-45 -93.5t-16 -132zM529 1830h237l159 -204l143 204h109l-253 -328h-148z" />
<glyph unicode="&#x110;" horiz-adv-x="1564" d="M59 0v48l195 32v535l-184 -21l35 135l149 -18v483l-195 32v48q34 0 83 1.5t107 4t185 7.5t186 6.5t109 1.5q99 0 201.5 -9.5t198.5 -35t180.5 -70t147.5 -113.5t99.5 -166.5t36.5 -229.5q0 -122 -33.5 -219t-91.5 -171.5t-136.5 -127.5t-169 -87t-188.5 -50t-196 -16 h-719zM561 225q0 -44 12 -74t38.5 -49t69 -27.5t103.5 -8.5q122 0 215.5 43t157 121t96 186.5t32.5 238.5q0 129 -39.5 234.5t-114 180t-182.5 115.5t-245 41h-143v-517l175 19l-36 -134l-139 18v-387z" />
<glyph unicode="&#x111;" horiz-adv-x="1206" d="M77 361q0 112 38 200t104.5 148.5t156 92.5t193.5 32q31 0 68 -4t97 -17v413h-129v48l338 88h65v-1282l132 -32v-48h-406v75q-76 -50 -150 -75t-152 -25q-80 0 -145.5 26.5t-112 76t-72 121.5t-25.5 162zM346 448q0 -86 15 -147.5t43.5 -100.5t69.5 -57.5t93 -18.5 q39 0 79 10.5t88 35.5v520q-43 29 -86.5 43.5t-78.5 14.5q-51 0 -92 -18.5t-70 -56t-45 -93.5t-16 -132zM436.203 962v112h712.807v-112h-712.807z" />
<glyph unicode="&#x112;" horiz-adv-x="1382" d="M62 0v48l195 32v1114l-195 32v48h1202v-299l-56 -5l-78 214h-568v-498h325l59 153h46v-388h-46l-59 153h-325v-393q0 -42 4.5 -66.5t16 -37.5t31 -16.5t50.5 -3.5h483l101 242h60l-29 -329h-1217zM446 1371v112h594v-112h-594z" />
<glyph unicode="&#x113;" horiz-adv-x="1044" d="M78 391q0 103 37 185.5t101.5 139.5t152 87.5t189.5 30.5q99 0 171 -32.5t119 -89.5t70 -134t25 -167h-577q8 -150 82 -225.5t201 -75.5q36 0 68 7.5t62 22.5t60 39t63 57l43 -38q-98 -113 -200 -168t-223 -55q-96 0 -177.5 31t-141 86.5t-92.5 132t-33 166.5zM366 485 h327q-1 125 -45.5 188.5t-122.5 63.5q-81 0 -120 -67t-39 -185zM223 1047v112h594v-112h-594z" />
<glyph unicode="&#x116;" horiz-adv-x="1382" d="M62 0v48l195 32v1114l-195 32v48h1202v-299l-56 -5l-78 214h-568v-498h325l59 153h46v-388h-46l-59 153h-325v-393q0 -42 4.5 -66.5t16 -37.5t31 -16.5t50.5 -3.5h483l101 242h60l-29 -329h-1217zM612 1507q0 31 11.5 58.5t32 47.5t47.5 31.5t58 11.5q32 0 59.5 -12 t48 -32t32.5 -47.5t12 -57.5q0 -31 -12 -58.5t-32.5 -48.5t-48 -33t-59.5 -12q-31 0 -58 11.5t-47.5 32t-32 48.5t-11.5 60z" />
<glyph unicode="&#x117;" horiz-adv-x="1044" d="M78 391q0 103 37 185.5t101.5 139.5t152 87.5t189.5 30.5q99 0 171 -32.5t119 -89.5t70 -134t25 -167h-577q8 -150 82 -225.5t201 -75.5q36 0 68 7.5t62 22.5t60 39t63 57l43 -38q-98 -113 -200 -168t-223 -55q-96 0 -177.5 31t-141 86.5t-92.5 132t-33 166.5zM366 485 h327q-1 125 -45.5 188.5t-122.5 63.5q-81 0 -120 -67t-39 -185zM388 1129q0 31 11.5 58.5t32 47.5t47.5 31.5t58 11.5q32 0 59.5 -12t48 -32t32.5 -47.5t12 -57.5q0 -31 -12 -58.5t-32.5 -48.5t-48 -33t-59.5 -12q-31 0 -58 11.5t-47.5 32t-32 48.5t-11.5 60z" />
<glyph unicode="&#x118;" horiz-adv-x="1382" d="M62 0v48l195 32v1114l-195 32v48h1202v-299l-56 -5l-78 214h-568v-498h325l59 153h46v-388h-46l-59 153h-325v-393q0 -42 4.5 -66.5t16 -37.5t31 -16.5t50.5 -3.5h483l101 242h60l-29 -329h-369q-42 0 -74 -20.5t-53 -54.5t-32 -77t-11 -88q0 -38 12 -64t31.5 -42 t45.5 -23t55 -7q25 0 50 4t48 12l15 -44q-33 -12 -69 -20t-71 -12.5t-67 -6.5t-56 -2q-53 0 -92.5 14t-66.5 38t-40.5 56t-13.5 68q0 48 16.5 88t47.5 73t74.5 60t96.5 48h-694z" />
<glyph unicode="&#x119;" horiz-adv-x="1044" d="M78 391q0 103 37 185.5t101.5 139.5t152 87.5t189.5 30.5q99 0 171 -32.5t119 -89.5t70 -134t25 -167h-577q8 -150 82 -225.5t201 -75.5q36 0 68 7.5t62 22.5t60 39t63 57l43 -38q-47 -62 -96.5 -99t-96.5 -62t-89 -45t-73 -48t-49.5 -70.5t-18.5 -113.5q0 -38 12 -64 t31.5 -42t45.5 -23t55 -7q25 0 50 4t48 12l15 -44q-33 -12 -69 -20t-71 -12.5t-67 -6.5t-56 -2q-53 0 -92.5 14t-66.5 38t-40.5 56t-13.5 68q0 84 47 144t131 102q-89 7 -163 40.5t-127.5 88t-83 127t-29.5 158.5zM366 485h327q-1 127 -45.5 189.5t-122.5 62.5 q-81 0 -120 -67t-39 -185z" />
<glyph unicode="&#x11a;" horiz-adv-x="1382" d="M62 0v48l195 32v1114l-195 32v48h1202v-299l-56 -5l-78 214h-568v-498h325l59 153h46v-388h-46l-59 153h-325v-393q0 -42 4.5 -66.5t16 -37.5t31 -16.5t50.5 -3.5h483l101 242h60l-29 -329h-1217zM428 1739h237l159 -204l143 204h109l-253 -328h-148z" />
<glyph unicode="&#x11b;" horiz-adv-x="1044" d="M78 391q0 103 37 185.5t101.5 139.5t152 87.5t189.5 30.5q99 0 171 -32.5t119 -89.5t70 -134t25 -167h-577q8 -150 82 -225.5t201 -75.5q36 0 68 7.5t62 22.5t60 39t63 57l43 -38q-98 -113 -200 -168t-223 -55q-96 0 -177.5 31t-141 86.5t-92.5 132t-33 166.5zM366 485 h327q-1 125 -45.5 188.5t-122.5 63.5q-81 0 -120 -67t-39 -185zM204 1329h237l159 -204l143 204h109l-253 -328h-148z" />
<glyph unicode="&#x11e;" horiz-adv-x="1692" d="M78 627q0 172 66.5 298.5t180.5 209.5t266 123.5t322 40.5q80 0 142 -4t116 -11.5t105 -18t108 -22.5l48 -298l-76 4q-27 70 -75.5 122t-109 86.5t-127.5 51.5t-130 17q-115 0 -207.5 -43.5t-158 -119t-101 -177.5t-35.5 -219q0 -136 37 -248.5t105 -193.5t164 -125.5 t214 -44.5q30 0 62.5 3t64 9t61 14.5t53.5 19.5v326l-193 44v49h618v-48l-116 -45v-333q-145 -60 -305.5 -90.5t-312.5 -30.5q-162 0 -305.5 42t-250 124.5t-168.5 204.5t-62 283zM571 1666h31q70 -129 257 -129q207 0 251 129h33q-9 -119 -88.5 -199.5t-197.5 -80.5 t-197 80.5t-89 199.5z" />
<glyph unicode="&#x11f;" horiz-adv-x="1121" d="M41 -277q0 24 8 45t30 43.5t61.5 49.5t101.5 63q-179 73 -179 180q0 30 12.5 54.5t42.5 45t79.5 39t124.5 37.5q-120 42 -183 110t-63 156q0 61 34 113.5t93.5 91.5t139.5 61t173 22q46 0 94 -5t93.5 -16.5t87 -29.5t74.5 -45l215 95v-199l-164 24q34 -58 34 -110 q0 -138 -133 -214t-401 -76q-31 -14 -50 -24.5t-29.5 -19.5t-14 -18t-3.5 -21q0 -31 66.5 -48.5t197.5 -17.5q127 0 222 -13t157.5 -41.5t93.5 -74t31 -111.5q0 -79 -43.5 -143t-123 -109t-193 -69.5t-252.5 -24.5q-94 0 -173.5 15t-137.5 42t-90.5 63.5t-32.5 79.5z M272 -213q0 -38 22.5 -69t63.5 -53t98 -34.5t126 -12.5q72 0 129.5 12t98.5 33t63 50.5t22 64.5q0 33 -14.5 53.5t-43.5 32.5t-72 16.5t-99 4.5q-96 0 -174 5t-140 12q-42 -26 -61 -54t-19 -61zM348 573q0 -113 41.5 -170.5t122.5 -57.5q79 0 121.5 48.5t42.5 139.5 q0 110 -43.5 167t-128.5 57q-75 0 -115.5 -47.5t-40.5 -136.5zM213 1273h31q70 -129 257 -129q207 0 251 129h33q-9 -119 -88.5 -199.5t-197.5 -80.5t-197 80.5t-89 199.5z" />
<glyph unicode="&#x122;" horiz-adv-x="1692" d="M78 627q0 172 66.5 298.5t180.5 209.5t266 123.5t322 40.5q80 0 142 -4t116 -11.5t105 -18t108 -22.5l48 -298l-76 4q-27 70 -75.5 122t-109 86.5t-127.5 51.5t-130 17q-115 0 -207.5 -43.5t-158 -119t-101 -177.5t-35.5 -219q0 -136 37 -248.5t105 -193.5t164 -125.5 t214 -44.5q30 0 62.5 3t64 9t61 14.5t53.5 19.5v326l-193 44v49h618v-48l-116 -45v-333q-145 -60 -305.5 -90.5t-312.5 -30.5q-162 0 -305.5 42t-250 124.5t-168.5 204.5t-62 283zM768 -177q0 35 28 57.5t88 22.5q72 0 119 -54t47 -137q0 -79 -46 -134t-123 -55 q-42 0 -62.5 14.5t-20.5 34.5q0 37 36 37q15 0 46 -13t49 -13q28 0 48 26.5t19 55.5q0 40 -24 70t-69 30q-8 0 -30 -2.5t-27 -2.5q-38 0 -58 17t-20 46z" />
<glyph unicode="&#x123;" horiz-adv-x="1121" d="M41 -277q0 24 8 45t30 43.5t61.5 49.5t101.5 63q-179 73 -179 180q0 30 12.5 54.5t42.5 45t79.5 39t124.5 37.5q-120 42 -183 110t-63 156q0 61 34 113.5t93.5 91.5t139.5 61t173 22q46 0 94 -5t93.5 -16.5t87 -29.5t74.5 -45l215 95v-199l-164 24q34 -58 34 -110 q0 -138 -133 -214t-401 -76q-31 -14 -50 -24.5t-29.5 -19.5t-14 -18t-3.5 -21q0 -31 66.5 -48.5t197.5 -17.5q127 0 222 -13t157.5 -41.5t93.5 -74t31 -111.5q0 -79 -43.5 -143t-123 -109t-193 -69.5t-252.5 -24.5q-94 0 -173.5 15t-137.5 42t-90.5 63.5t-32.5 79.5z M272 -213q0 -38 22.5 -69t63.5 -53t98 -34.5t126 -12.5q72 0 129.5 12t98.5 33t63 50.5t22 64.5q0 33 -14.5 53.5t-43.5 32.5t-72 16.5t-99 4.5q-96 0 -174 5t-140 12q-42 -26 -61 -54t-19 -61zM348 573q0 -113 41.5 -170.5t122.5 -57.5q79 0 121.5 48.5t42.5 139.5 q0 110 -43.5 167t-128.5 57q-75 0 -115.5 -47.5t-40.5 -136.5zM637.008 1061.99q0 -34.998 -27.998 -57.4961q-27.999 -22.499 -87.9951 -22.499q-71.9951 0 -118.992 53.9971q-46.9971 53.9961 -46.9971 136.991q0 78.9951 45.9971 133.992 q45.9971 54.9961 122.992 54.9961q41.9971 0 62.4961 -14.499t20.499 -34.498q0 -36.9971 -35.998 -36.9971q-14.999 0 -45.9971 12.999t-48.9971 12.999q-27.998 0 -47.9971 -26.498q-19.999 -26.499 -18.999 -55.4971q0 -39.9971 23.999 -69.9961 q23.998 -29.998 68.9951 -29.998q8 0 29.998 2.5q21.999 2.5 26.999 2.5q37.9971 0 57.9961 -16.999t19.999 -45.9971z" />
<glyph unicode="&#x129;" horiz-adv-x="647" d="M66 0v48l129 32v650h-129v48l338 66h65v-764l127 -32v-48h-530zM57 1005q4 55 17.5 102t35.5 81t52.5 53t69.5 19t72.5 -16.5t63 -36t56.5 -36t53 -16.5q42 0 66 22.5t28 82.5h36q-2 -54 -13.5 -100.5t-32.5 -80t-51.5 -53t-69.5 -19.5q-40 0 -71 16.5t-59 36t-56 36 t-61 16.5q-38 0 -66.5 -24t-33.5 -83h-36z" />
<glyph unicode="&#x12a;" horiz-adv-x="791" d="M45 1226v48h698v-48l-194 -32v-1095l194 -51v-48h-696v48l195 51v1095zM46 1371v112h594v-112h-594z" />
<glyph unicode="&#x12b;" horiz-adv-x="647" d="M66 0v48l129 32v650h-129v48l338 66h65v-764l127 -32v-48h-530zM6 1047v112h594v-112h-594z" />
<glyph unicode="&#x12e;" horiz-adv-x="791" d="M45 1226v48h698v-48l-194 -32v-1095l194 -51v-48h-159q-55 0 -94 -22t-63.5 -57t-36 -77.5t-11.5 -83.5q0 -38 12 -64t31.5 -42t45.5 -23t55 -7q25 0 50 4t48 12l15 -44q-33 -12 -69 -20t-71 -12.5t-67 -6.5t-56 -2q-53 0 -92.5 14t-66.5 38t-40.5 56t-13.5 68 q0 52 18 95.5t51 77t78.5 58t101.5 38.5h-362v48l195 51v1095z" />
<glyph unicode="&#x12f;" horiz-adv-x="647" d="M66 0v48l129 32v650h-129v48l338 66h65v-764l127 -32v-48h-92q-101 0 -146 -64t-45 -176q0 -38 12 -64t31.5 -42t45.5 -23t55 -7q25 0 50 4t48 12l15 -44q-33 -12 -69 -20t-71 -12.5t-67 -6.5t-56 -2q-53 0 -92.5 14t-66.5 38t-40.5 56t-13.5 68q0 95 61.5 160.5 t167.5 108.5h-257zM182 1129q0 31 11.5 58.5t32 47.5t47.5 31.5t58 11.5q32 0 59.5 -12t48 -32t32.5 -47.5t12 -57.5q0 -31 -12 -58.5t-32.5 -48.5t-48 -33t-59.5 -12q-31 0 -58 11.5t-47.5 32t-32 48.5t-11.5 60z" />
<glyph unicode="&#x130;" horiz-adv-x="791" d="M45 1226v48h698v-48l-194 -32v-1095l194 -51v-48h-696v48l195 51v1095zM243 1507q0 31 11.5 58.5t32 47.5t47.5 31.5t58 11.5q32 0 59.5 -12t48 -32t32.5 -47.5t12 -57.5q0 -31 -12 -58.5t-32.5 -48.5t-48 -33t-59.5 -12q-31 0 -58 11.5t-47.5 32t-32 48.5t-11.5 60z" />
<glyph unicode="&#x131;" horiz-adv-x="647" d="M66 0v48l129 32v650h-129v48l338 66h65v-764l127 -32v-48h-530z" />
<glyph unicode="&#x136;" horiz-adv-x="1635" d="M47 0v48l195 32v1114l-195 32v48h696v-48l-194 -32v-503l598 503l-164 32v48h507v-48l-187 -32l-537 -416l662 -698l138 -32v-48h-409l-608 656v-576l194 -32v-48h-696zM751 -177q0 35 28 57.5t88 22.5q72 0 119 -54t47 -137q0 -79 -46 -134t-123 -55q-42 0 -62.5 14.5 t-20.5 34.5q0 37 36 37q15 0 46 -13t49 -13q28 0 48 26.5t19 55.5q0 40 -24 70t-69 30q-8 0 -30 -2.5t-27 -2.5q-38 0 -58 17t-20 46z" />
<glyph unicode="&#x137;" horiz-adv-x="1206" d="M55 0v48l129 32v1146h-129v48h7l331 88h65v-884l348 252l-140 33v48h456v-48l-170 -33l-262 -195q23 -10 40 -26.5t32 -34.5l317 -394l132 -32v-48h-394l-299 391q-12 15 -25.5 29t-34.5 23v-363l127 -32v-48h-530zM575 -177q0 35 28 57.5t88 22.5q72 0 119 -54t47 -137 q0 -79 -46 -134t-123 -55q-42 0 -62.5 14.5t-20.5 34.5q0 37 36 37q15 0 46 -13t49 -13q28 0 48 26.5t19 55.5q0 40 -24 70t-69 30q-8 0 -30 -2.5t-27 -2.5q-38 0 -58 17t-20 46z" />
<glyph unicode="&#x139;" horiz-adv-x="1317" d="M101 0v48l195 32v1114l-195 32v48h696v-48l-194 -32v-1107h444l159 271h70l-70 -358h-1105zM323 1422q-3 11 5 21l200 272q12 16 25.5 20t39.5 4h184q24 0 35 -7.5t11 -17.5q0 -5 -5 -13.5t-19 -16.5l-412 -261q-20 -12 -37 -12q-24 0 -27 11z" />
<glyph unicode="&#x13a;" horiz-adv-x="638" d="M58 0v48l129 32v1146h-129v48l338 88h65v-1282l127 -32v-48h-530zM163 1510q-3 11 5 21l200 272q12 16 25.5 20t39.5 4h184q24 0 35 -7.5t11 -17.5q0 -5 -5 -13.5t-19 -16.5l-412 -261q-20 -12 -37 -12q-24 0 -27 11z" />
<glyph unicode="&#x13b;" horiz-adv-x="1199" d="M509 -177q0 35 28 57.5t88 22.5q72 0 119 -54t47 -137q0 -79 -46 -134t-123 -55q-42 0 -62.5 14.5t-20.5 34.5q0 37 36 37q15 0 46 -13t49 -13q28 0 48 26.5t19 55.5q0 40 -24 70t-69 30q-8 0 -30 -2.5t-27 -2.5q-38 0 -58 17t-20 46zM49 0v48l195 32v1114l-195 32v48 h696v-48l-194 -32v-1107h444l159 271h70l-70 -358h-1105z" />
<glyph unicode="&#x13c;" horiz-adv-x="638" d="M58 0v48l129 32v1146h-129v48l338 88h65v-1282l127 -32v-48h-530zM185 -177q0 35 28 57.5t88 22.5q72 0 119 -54t47 -137q0 -79 -46 -134t-123 -55q-42 0 -62.5 14.5t-20.5 34.5q0 37 36 37q15 0 46 -13t49 -13q28 0 48 26.5t19 55.5q0 40 -24 70t-69 30q-8 0 -30 -2.5 t-27 -2.5q-38 0 -58 17t-20 46z" />
<glyph unicode="&#x13d;" horiz-adv-x="1317" d="M101 0v48l195 32v1114l-195 32v48h696v-48l-194 -32v-1107h444l159 271h70l-70 -358h-1105zM129 1739h237l159 -204l143 204h109l-253 -328h-148z" />
<glyph unicode="&#x13e;" horiz-adv-x="638" d="M58 0v48l129 32v1146h-129v48l338 88h65v-1282l127 -32v-48h-530zM-1 1735.32h237l159 -183.48l143 183.48h109l-253 -295.008h-148z" />
<glyph unicode="&#x141;" horiz-adv-x="1382" d="M47 0v87q54 0 91 8.5t60.5 26t33.5 45.5t10 67v143q-27 -33 -51.5 -67.5t-47.5 -66.5q-7 -11 -17 -11q-16 0 -16 22v115q0 16 13.5 33t33.5 33t43 32t41 31l1 1v541q0 39 -10 67t-33.5 45.5t-60.5 26t-91 8.5v87h696v-87q-54 0 -91 -8.5t-60 -26t-33 -45.5t-10 -67v-255 q41 50 76 104q7 13 21 13q8 0 14.5 -7t6.5 -21v-103q0 -14 -11.5 -28.5t-29 -29t-38 -28.5t-39.5 -27v-403q0 -48 3.5 -74.5t16.5 -39.5t38 -16t69 -3h205q52 0 89 4t65.5 14.5t53 29.5t53.5 49q20 20 49.5 54.5t70.5 84.5h90l-160 -358h-1145z" />
<glyph unicode="&#x142;" horiz-adv-x="638" d="M49 254v115q0 17 15 34.5t36 34.5t45 33.5t42 32.5v584q0 30 -6 55.5t-20.5 43.5t-39.5 28.5t-63 10.5v48q57 0 103.5 5t87 16.5t76.5 28t71 38.5h65v-609q28 32 54 65.5t49 70.5q7 13 21 13q8 0 14.5 -7t6.5 -21v-103q0 -17 -16 -34t-38.5 -34.5t-47.5 -33.5t-43 -31 v-461q0 -38 6 -63t20.5 -39t39 -20t61.5 -7v-48h-530v48q37 1 62 7t40 20.5t21 39t6 62.5v207q-29 -35 -55 -70.5t-50 -70.5q-7 -11 -17 -11q-16 0 -16 22z" />
<glyph unicode="&#x143;" horiz-adv-x="1693" d="M64 0v48l188 32l35 1114l-192 32v50h394l802 -893l-15 811l-207 32v48h489v-48l-150 -32l-54 -1200h-69l-935 1010l36 -924l167 -32v-48h-489zM746 1422q-3 11 5 21l200 272q12 16 25.5 20t39.5 4h184q24 0 35 -7.5t11 -17.5q0 -5 -5 -13.5t-19 -16.5l-412 -261 q-20 -12 -37 -12q-24 0 -27 11z" />
<glyph unicode="&#x144;" horiz-adv-x="1249" d="M52 0v48l129 32v650h-129v48l338 56h65v-112q48 26 91.5 47t89 35.5t94.5 22t107 7.5t104.5 -17t78.5 -49t49.5 -78t17.5 -103v-507l127 -32v-48h-530v48l129 32v399q0 67 -10.5 112.5t-28.5 73.5t-43 40t-54 12q-48 0 -104.5 -27t-117.5 -63v-547l127 -32v-48h-530z M491 1012q-3 11 5 21l200 272q12 16 25.5 20t39.5 4h184q24 0 35 -7.5t11 -17.5q0 -5 -5 -13.5t-19 -16.5l-412 -261q-20 -12 -37 -12q-24 0 -27 11z" />
<glyph unicode="&#x145;" horiz-adv-x="1693" d="M64 0v48l188 32l35 1114l-192 32v50h394l802 -893l-15 811l-207 32v48h489v-48l-150 -32l-54 -1200h-69l-935 1010l36 -924l167 -32v-48h-489zM743 -177q0 35 28 57.5t88 22.5q72 0 119 -54t47 -137q0 -79 -46 -134t-123 -55q-42 0 -62.5 14.5t-20.5 34.5q0 37 36 37 q15 0 46 -13t49 -13q28 0 48 26.5t19 55.5q0 40 -24 70t-69 30q-8 0 -30 -2.5t-27 -2.5q-38 0 -58 17t-20 46z" />
<glyph unicode="&#x146;" horiz-adv-x="1249" d="M52 0v48l129 32v650h-129v48l338 56h65v-112q48 26 91.5 47t89 35.5t94.5 22t107 7.5t104.5 -17t78.5 -49t49.5 -78t17.5 -103v-507l127 -32v-48h-530v48l129 32v399q0 67 -10.5 112.5t-28.5 73.5t-43 40t-54 12q-48 0 -104.5 -27t-117.5 -63v-547l127 -32v-48h-530z M529 -177q0 35 28 57.5t88 22.5q72 0 119 -54t47 -137q0 -79 -46 -134t-123 -55q-42 0 -62.5 14.5t-20.5 34.5q0 37 36 37q15 0 46 -13t49 -13q28 0 48 26.5t19 55.5q0 40 -24 70t-69 30q-8 0 -30 -2.5t-27 -2.5q-38 0 -58 17t-20 46z" />
<glyph unicode="&#x147;" horiz-adv-x="1693" d="M64 0v48l188 32l35 1114l-192 32v50h394l802 -893l-15 811l-207 32v48h489v-48l-150 -32l-54 -1200h-69l-935 1010l36 -924l167 -32v-48h-489zM540 1739h237l159 -204l143 204h109l-253 -328h-148z" />
<glyph unicode="&#x148;" horiz-adv-x="1249" d="M52 0v48l129 32v650h-129v48l338 56h65v-112q48 26 91.5 47t89 35.5t94.5 22t107 7.5t104.5 -17t78.5 -49t49.5 -78t17.5 -103v-507l127 -32v-48h-530v48l129 32v399q0 67 -10.5 112.5t-28.5 73.5t-43 40t-54 12q-48 0 -104.5 -27t-117.5 -63v-547l127 -32v-48h-530z M316 1329h237l159 -204l143 204h109l-253 -328h-148z" />
<glyph unicode="&#x14c;" horiz-adv-x="1757" d="M76 611q0 94 26 181.5t74 163.5t115.5 139.5t150 108.5t178.5 70t200 25q158 0 290.5 -50.5t228 -137.5t149 -204.5t53.5 -251.5q0 -105 -29.5 -197t-81 -168.5t-122 -136.5t-153 -101.5t-173.5 -63t-183 -21.5q-160 0 -293 50.5t-228.5 138t-148.5 204.5t-53 251z M407 687q0 -141 28 -259t81.5 -203t131 -132.5t176.5 -47.5q97 0 169 38t120 109t72 172.5t24 229.5q0 135 -29 248.5t-83.5 196t-132 128.5t-174.5 46q-92 0 -163.5 -37.5t-120.5 -106t-74 -165.5t-25 -217zM517 1371v112h594v-112h-594z" />
<glyph unicode="&#x14d;" horiz-adv-x="1130" d="M74 401q0 100 38 180.5t105 136.5t159 86.5t200 30.5q107 0 195.5 -29t151.5 -83.5t97.5 -132t34.5 -174.5q0 -99 -37 -180t-104 -138.5t-159 -89.5t-202 -32q-107 0 -195 29.5t-151 85t-98 134t-35 176.5zM341 545q0 -117 18 -209.5t52 -156.5t81.5 -98t107.5 -34 q93 0 137.5 63.5t44.5 184.5q0 109 -18.5 197t-52 149.5t-81.5 94.5t-106 33q-88 0 -135.5 -61t-47.5 -163zM260 1047v112h594v-112h-594z" />
<glyph unicode="&#x150;" horiz-adv-x="1757" d="M76 611q0 94 26 181.5t74 163.5t115.5 139.5t150 108.5t178.5 70t200 25q158 0 290.5 -50.5t228 -137.5t149 -204.5t53.5 -251.5q0 -105 -29.5 -197t-81 -168.5t-122 -136.5t-153 -101.5t-173.5 -63t-183 -21.5q-160 0 -293 50.5t-228.5 138t-148.5 204.5t-53 251z M407 687q0 -141 28 -259t81.5 -203t131 -132.5t176.5 -47.5q97 0 169 38t120 109t72 172.5t24 229.5q0 135 -29 248.5t-83.5 196t-132 128.5t-174.5 46q-92 0 -163.5 -37.5t-120.5 -106t-74 -165.5t-25 -217zM549 1378q-3 11 5 21l200 272q12 16 25.5 20t39.5 4h184 q24 0 35 -7.5t11 -17.5q0 -5 -5 -13.5t-19 -16.5l-412 -261q-19 -12 -37 -12q-24 0 -27 11zM955 1378q-3 11 5 21l200 272q12 16 25.5 20t39.5 4h184q24 0 35 -7.5t11 -17.5q0 -5 -5 -13.5t-19 -16.5l-412 -261q-19 -12 -37 -12q-24 0 -27 11z" />
<glyph unicode="&#x151;" horiz-adv-x="1130" d="M74 401q0 100 38 180.5t105 136.5t159 86.5t200 30.5q107 0 195.5 -29t151.5 -83.5t97.5 -132t34.5 -174.5q0 -99 -37 -180t-104 -138.5t-159 -89.5t-202 -32q-107 0 -195 29.5t-151 85t-98 134t-35 176.5zM341 545q0 -117 18 -209.5t52 -156.5t81.5 -98t107.5 -34 q93 0 137.5 63.5t44.5 184.5q0 109 -18.5 197t-52 149.5t-81.5 94.5t-106 33q-88 0 -135.5 -61t-47.5 -163zM287 1014q-3 11 5 21l200 272q12 16 25.5 20t39.5 4h184q24 0 35 -7.5t11 -17.5q0 -5 -5 -13.5t-19 -16.5l-412 -261q-19 -12 -37 -12q-24 0 -27 11zM693 1014 q-3 11 5 21l200 272q12 16 25.5 20t39.5 4h184q24 0 35 -7.5t11 -17.5q0 -5 -5 -13.5t-19 -16.5l-412 -261q-19 -12 -37 -12q-24 0 -27 11z" />
<glyph unicode="&#x152;" horiz-adv-x="2237" d="M88 611q0 94 28.5 181t81 163t126.5 138.5t164.5 107.5t195.5 69.5t219 24.5q30 0 70 -3.5t81 -7t79.5 -7t65.5 -3.5h922v-299l-56 -5l-78 214h-568v-498h325l59 153h46v-388h-46l-59 153h-325v-393q0 -42 4.5 -66.5t16 -37.5t31 -16.5t50.5 -3.5h483l101 242h60 l-29 -329h-948q-30 0 -65 -4t-74 -8.5t-81.5 -8.5t-87.5 -4q-175 0 -320.5 49.5t-250.5 135t-163 201.5t-58 250zM420 687q0 -141 35.5 -258.5t100 -202t154 -131.5t197.5 -47q58 0 97.5 7.5t64 24.5t35 45t10.5 70v884q0 45 -20.5 73.5t-55 45t-78.5 22.5t-90 6 q-101 0 -184 -39.5t-142 -110.5t-91.5 -170t-32.5 -219z" />
<glyph unicode="&#x153;" horiz-adv-x="1754" d="M95 400q0 100 36.5 180.5t103.5 136.5t161 86.5t208 30.5q106 0 188.5 -33t140.5 -87q51 54 131 87t174 33q99 0 172 -31.5t120 -87.5t70 -133.5t23 -170.5h-557q8 -151 76.5 -226t186.5 -75q36 0 66.5 6t59 20.5t57 39t60.5 60.5l43 -38q-47 -56 -89 -98t-87 -70 t-97.5 -41.5t-119.5 -13.5q-54 0 -98 9.5t-79.5 26t-64 38.5t-50.5 48q-33 -29 -68.5 -51.5t-77 -38.5t-91.5 -24t-114 -8q-113 0 -202.5 29.5t-152 85t-96 134t-33.5 176.5zM376 544q0 -240 61.5 -369t191.5 -129q48 0 81 16.5t53.5 48t29 77.5t8.5 106q0 109 -16.5 197 t-48 149.5t-79 94.5t-108.5 33q-46 0 -79 -16t-54 -45t-30.5 -70.5t-9.5 -92.5zM1066 485h307q-1 130 -45.5 191t-122.5 61q-40 0 -67 -17.5t-43 -50t-22.5 -79t-6.5 -105.5z" />
<glyph unicode="&#x154;" horiz-adv-x="1520" d="M47 -1v49l195 32v1114l-195 32v48q260 12 425 16.5t241 4.5q238 0 365 -78.5t127 -246.5q0 -56 -19 -104t-55 -88t-87 -72.5t-115 -59.5q50 -6 88 -33.5t68.5 -68.5t55.5 -92.5t51 -104.5t54 -104t64.5 -92.5t83.5 -69t109 -33.5v-48h-431q-31 57 -60.5 125.5 t-62.5 138.5t-70.5 136t-83.5 117t-102 82t-125 31h-17v-553l192 -29v-49h-696zM551 700q21 -3 41.5 -4t39.5 -1q64 0 115 15.5t87 47.5t55 82.5t19 119.5q0 66 -17.5 116t-49.5 83.5t-77 50.5t-100 17q-53 0 -113 -15v-512zM577 1422q-3 11 5 21l200 272q12 16 25.5 20 t39.5 4h184q24 0 35 -7.5t11 -17.5q0 -5 -5 -13.5t-19 -16.5l-412 -261q-20 -12 -37 -12q-24 0 -27 11z" />
<glyph unicode="&#x155;" horiz-adv-x="905" d="M53 0v48l129 32v650h-129v48l338 66h65v-252q43 80 74.5 127.5t56 73t43.5 33.5t37 8q26 0 53 -6t63 -20l93 -39l-108 -216q-73 31 -110 41.5t-57 10.5q-26 0 -64.5 -30.5t-80.5 -93.5v-401l127 -32v-48h-530zM257 1012q-3 11 5 21l200 272q12 16 25.5 20t39.5 4h184 q24 0 35 -7.5t11 -17.5q0 -5 -5 -13.5t-19 -16.5l-412 -261q-20 -12 -37 -12q-24 0 -27 11z" />
<glyph unicode="&#x156;" horiz-adv-x="1520" d="M47 -1v49l195 32v1114l-195 32v48q260 12 425 16.5t241 4.5q238 0 365 -78.5t127 -246.5q0 -56 -19 -104t-55 -88t-87 -72.5t-115 -59.5q50 -6 88 -33.5t68.5 -68.5t55.5 -92.5t51 -104.5t54 -104t64.5 -92.5t83.5 -69t109 -33.5v-48h-431q-31 57 -60.5 125.5 t-62.5 138.5t-70.5 136t-83.5 117t-102 82t-125 31h-17v-553l192 -29v-49h-696zM551 700q21 -3 41.5 -4t39.5 -1q64 0 115 15.5t87 47.5t55 82.5t19 119.5q0 66 -17.5 116t-49.5 83.5t-77 50.5t-100 17q-53 0 -113 -15v-512zM728 -177q0 35 28 57.5t88 22.5q72 0 119 -54 t47 -137q0 -79 -46 -134t-123 -55q-42 0 -62.5 14.5t-20.5 34.5q0 37 36 37q15 0 46 -13t49 -13q28 0 48 26.5t19 55.5q0 40 -24 70t-69 30q-8 0 -30 -2.5t-27 -2.5q-38 0 -58 17t-20 46z" />
<glyph unicode="&#x157;" horiz-adv-x="905" d="M53 0v48l129 32v650h-129v48l338 66h65v-252q43 80 74.5 127.5t56 73t43.5 33.5t37 8q26 0 53 -6t63 -20l93 -39l-108 -216q-73 31 -110 41.5t-57 10.5q-26 0 -64.5 -30.5t-80.5 -93.5v-401l127 -32v-48h-530zM180 -177q0 35 28 57.5t88 22.5q72 0 119 -54t47 -137 q0 -79 -46 -134t-123 -55q-42 0 -62.5 14.5t-20.5 34.5q0 37 36 37q15 0 46 -13t49 -13q28 0 48 26.5t19 55.5q0 40 -24 70t-69 30q-8 0 -30 -2.5t-27 -2.5q-38 0 -58 17t-20 46z" />
<glyph unicode="&#x158;" horiz-adv-x="1520" d="M47 -1v49l195 32v1114l-195 32v48q260 12 425 16.5t241 4.5q238 0 365 -78.5t127 -246.5q0 -56 -19 -104t-55 -88t-87 -72.5t-115 -59.5q50 -6 88 -33.5t68.5 -68.5t55.5 -92.5t51 -104.5t54 -104t64.5 -92.5t83.5 -69t109 -33.5v-48h-431q-31 57 -60.5 125.5 t-62.5 138.5t-70.5 136t-83.5 117t-102 82t-125 31h-17v-553l192 -29v-49h-696zM551 700q21 -3 41.5 -4t39.5 -1q64 0 115 15.5t87 47.5t55 82.5t19 119.5q0 66 -17.5 116t-49.5 83.5t-77 50.5t-100 17q-53 0 -113 -15v-512zM350 1739h237l159 -204l143 204h109l-253 -328 h-148z" />
<glyph unicode="&#x159;" horiz-adv-x="905" d="M53 0v48l129 32v650h-129v48l338 66h65v-252q43 80 74.5 127.5t56 73t43.5 33.5t37 8q26 0 53 -6t63 -20l93 -39l-108 -216q-73 31 -110 41.5t-57 10.5q-26 0 -64.5 -30.5t-80.5 -93.5v-401l127 -32v-48h-530zM162 1329h237l159 -204l143 204h109l-253 -328h-148z" />
<glyph unicode="&#x15a;" horiz-adv-x="1188" d="M104 89v289h51q48 -152 155.5 -231.5t264.5 -79.5q52 0 95 14.5t74 40.5t48 63t17 81q0 136 -310 295q-78 39 -147 76t-120 81t-81 100t-30 134q0 76 31.5 139.5t88 109t134.5 70.5t172 25q93 0 167 -10.5t131 -27t99 -38.5t70 -44v-245l-44 -2q-20 67 -59 118t-90 85.5 t-112.5 52t-126.5 17.5q-47 0 -85 -10.5t-65 -29.5t-42 -46t-15 -60q0 -35 13.5 -63.5t45.5 -56t85 -58t131 -69.5q96 -48 176.5 -92t138.5 -95t90 -116t32 -155q0 -80 -35.5 -148.5t-97 -119t-146 -79.5t-181.5 -29t-172 7.5t-136 22t-112.5 35.5t-102.5 49zM418 1422 q-3 11 5 21l200 272q12 16 25.5 20t39.5 4h184q24 0 35 -7.5t11 -17.5q0 -5 -5 -13.5t-19 -16.5l-412 -261q-20 -12 -37 -12q-24 0 -27 11z" />
<glyph unicode="&#x15b;" horiz-adv-x="809" d="M88 224l54 -4q16 -39 41 -68t55.5 -48t66 -28.5t73.5 -9.5q54 0 86.5 22.5t32.5 62.5q0 54 -138 135q-72 41 -122.5 76t-82 68.5t-46 69.5t-14.5 80q0 58 24 105t68 80t107 51t140 18q108 0 243 -43l6 -209l-54 2q-12 37 -36 67.5t-53.5 52t-63 33t-64.5 11.5 q-45 0 -73 -23.5t-28 -59.5q0 -60 157 -147q69 -36 119 -68t82 -65t47.5 -70.5t15.5 -84.5q0 -59 -22 -106t-62.5 -80t-98 -51t-129.5 -18q-47 0 -89 2t-80 7.5t-74.5 13.5t-72.5 20zM275 1012q-3 11 5 21l200 272q12 16 25.5 20t39.5 4h184q24 0 35 -7.5t11 -17.5 q0 -5 -5 -13.5t-19 -16.5l-412 -261q-20 -12 -37 -12q-24 0 -27 11z" />
<glyph unicode="&#x15e;" horiz-adv-x="1188" d="M104 89v289h51q48 -152 155.5 -231.5t264.5 -79.5q52 0 95 14.5t74 40.5t48 63t17 81q0 136 -310 295q-78 39 -147 76t-120 81t-81 100t-30 134q0 76 31.5 139.5t88 109t134.5 70.5t172 25q93 0 167 -10.5t131 -27t99 -38.5t70 -44v-245l-44 -2q-20 67 -59 118t-90 85.5 t-112.5 52t-126.5 17.5q-47 0 -85 -10.5t-65 -29.5t-42 -46t-15 -60q0 -35 13.5 -63.5t45.5 -56t85 -58t131 -69.5q96 -48 176.5 -92t138.5 -95t90 -116t32 -155q0 -80 -35.5 -148.5t-97 -119t-146 -79.5t-181.5 -29t-172 7.5t-136 22t-112.5 35.5t-102.5 49zM346 -397 q0 23 15 40.5t39 17.5q37 0 61.5 -11.5t45 -25.5t39.5 -25.5t44 -11.5q22 0 40.5 7.5t32 20t21 28.5t7.5 33q0 43 -59.5 72.5t-162.5 42.5l138 226h63l-62 -104q44 -9 79 -22t60 -36t38 -58t13 -87q0 -38 -15.5 -72t-49 -59.5t-86 -40.5t-125.5 -15q-37 0 -69 5t-56 14.5 t-37.5 24.5t-13.5 36z" />
<glyph unicode="&#x15f;" horiz-adv-x="809" d="M88 224l54 -4q16 -39 41 -68t55.5 -48t66 -28.5t73.5 -9.5q54 0 86.5 22.5t32.5 62.5q0 54 -138 135q-72 41 -122.5 76t-82 68.5t-46 69.5t-14.5 80q0 58 24 105t68 80t107 51t140 18q108 0 243 -43l6 -209l-54 2q-12 37 -36 67.5t-53.5 52t-63 33t-64.5 11.5 q-45 0 -73 -23.5t-28 -59.5q0 -60 157 -147q69 -36 119 -68t82 -65t47.5 -70.5t15.5 -84.5q0 -59 -22 -106t-62.5 -80t-98 -51t-129.5 -18q-47 0 -89 2t-80 7.5t-74.5 13.5t-72.5 20zM165 -397q0 23 15 40.5t39 17.5q37 0 61.5 -11.5t45 -25.5t39.5 -25.5t44 -11.5 q22 0 40.5 7.5t32 20t21 28.5t7.5 33q0 43 -59.5 72.5t-162.5 42.5l138 226h63l-62 -104q44 -9 79 -22t60 -36t38 -58t13 -87q0 -38 -15.5 -72t-49 -59.5t-86 -40.5t-125.5 -15q-37 0 -69 5t-56 14.5t-37.5 24.5t-13.5 36z" />
<glyph unicode="&#x160;" horiz-adv-x="1188" d="M104 89v289h51q48 -152 155.5 -231.5t264.5 -79.5q52 0 95 14.5t74 40.5t48 63t17 81q0 136 -310 295q-78 39 -147 76t-120 81t-81 100t-30 134q0 76 31.5 139.5t88 109t134.5 70.5t172 25q93 0 167 -10.5t131 -27t99 -38.5t70 -44v-245l-44 -2q-20 67 -59 118t-90 85.5 t-112.5 52t-126.5 17.5q-47 0 -85 -10.5t-65 -29.5t-42 -46t-15 -60q0 -35 13.5 -63.5t45.5 -56t85 -58t131 -69.5q96 -48 176.5 -92t138.5 -95t90 -116t32 -155q0 -80 -35.5 -148.5t-97 -119t-146 -79.5t-181.5 -29t-172 7.5t-136 22t-112.5 35.5t-102.5 49zM262 1739h237 l159 -204l143 204h109l-253 -328h-148z" />
<glyph unicode="&#x161;" horiz-adv-x="809" d="M88 224l54 -4q16 -39 41 -68t55.5 -48t66 -28.5t73.5 -9.5q54 0 86.5 22.5t32.5 62.5q0 54 -138 135q-72 41 -122.5 76t-82 68.5t-46 69.5t-14.5 80q0 58 24 105t68 80t107 51t140 18q108 0 243 -43l6 -209l-54 2q-12 37 -36 67.5t-53.5 52t-63 33t-64.5 11.5 q-45 0 -73 -23.5t-28 -59.5q0 -60 157 -147q69 -36 119 -68t82 -65t47.5 -70.5t15.5 -84.5q0 -59 -22 -106t-62.5 -80t-98 -51t-129.5 -18q-47 0 -89 2t-80 7.5t-74.5 13.5t-72.5 20zM80 1329h237l159 -204l143 204h109l-253 -328h-148z" />
<glyph unicode="&#x162;" horiz-adv-x="1491" d="M80 920l36 354h1258l36 -354l-50 -2l-118 265h-343v-1103l194 -32v-48h-696v48l195 32v1103h-345l-117 -265zM471 -397q0 23 15 40.5t39 17.5q37 0 61.5 -11.5t45 -25.5t39.5 -25.5t44 -11.5q22 0 40.5 7.5t32 20t21 28.5t7.5 33q0 43 -59.5 72.5t-162.5 42.5l138 226h63 l-62 -104q44 -9 79 -22t60 -36t38 -58t13 -87q0 -38 -15.5 -72t-49 -59.5t-86 -40.5t-125.5 -15q-37 0 -69 5t-56 14.5t-37.5 24.5t-13.5 36z" />
<glyph unicode="&#x163;" horiz-adv-x="762" d="M32 707v127h117v214l274 107v-321h265v-127h-265v-372q0 -51 8 -94t24 -74.5t39.5 -49.5t54.5 -18q21 0 46 9.5t54 31.5l42 -55q-66 -54 -130.5 -82t-142.5 -28q-62 0 -111.5 17t-84.5 48.5t-54 77t-19 102.5v487h-117zM133 -397q0 23 15 40.5t39 17.5q37 0 61.5 -11.5 t45 -25.5t39.5 -25.5t44 -11.5q22 0 40.5 7.5t32 20t21 28.5t7.5 33q0 43 -59.5 72.5t-162.5 42.5l138 226h63l-62 -104q44 -9 79 -22t60 -36t38 -58t13 -87q0 -38 -15.5 -72t-49 -59.5t-86 -40.5t-125.5 -15q-37 0 -69 5t-56 14.5t-37.5 24.5t-13.5 36z" />
<glyph unicode="&#x164;" horiz-adv-x="1491" d="M80 920l36 354h1258l36 -354l-50 -2l-118 265h-343v-1103l194 -32v-48h-696v48l195 32v1103h-345l-117 -265zM400 1739h237l159 -204l143 204h109l-253 -328h-148z" />
<glyph unicode="&#x165;" horiz-adv-x="762" d="M32 707v127h117v214l274 107v-321h265v-127h-265v-372q0 -51 8 -94t24 -74.5t39.5 -49.5t54.5 -18q21 0 46 9.5t54 31.5l42 -55q-66 -54 -130.5 -82t-142.5 -28q-62 0 -111.5 17t-84.5 48.5t-54 77t-19 102.5v487h-117zM-39 1553h237l159 -204l143 204h109l-253 -328 h-148z" />
<glyph unicode="&#x16a;" horiz-adv-x="1662" d="M57 1226v48h690v-48l-195 -32v-687q0 -95 11.5 -173t47.5 -133.5t104.5 -85.5t182.5 -30q208 -1 306 119q89 108 89 330q0 22 -1 46l-25 614l-176 32v48h507v-48l-199 -32l-23 -664q-5 -146 -33.5 -251t-92 -173t-169.5 -100.5t-265 -32.5q-155 0 -262.5 31.5t-174.5 95 t-97.5 159t-30.5 224.5v711zM629 1371v112h594v-112h-594z" />
<glyph unicode="&#x16b;" horiz-adv-x="1237" d="M37 730v48l338 66h65v-477q0 -72 9 -120t27 -76.5t44.5 -40t60.5 -11.5q49 0 102 28t101 70v513h-129v49l338 65h65v-764l132 -32v-48h-406v123q-60 -40 -109.5 -68t-93.5 -46t-86.5 -26t-90.5 -8q-66 0 -111.5 23.5t-73.5 68.5t-40.5 110t-12.5 147v406h-129zM319 1047 v112h594v-112h-594z" />
<glyph unicode="&#x16e;" horiz-adv-x="1662" d="M57 1226v48h690v-48l-195 -32v-687q0 -95 11.5 -173t47.5 -133.5t104.5 -85.5t182.5 -30q207 0 305.5 119.5t88.5 375.5l-25 614l-176 32v48h507v-48l-199 -32l-23 -664q-5 -146 -33.5 -251t-92 -173t-169.5 -100.5t-265 -32.5q-155 0 -262.5 31.5t-174.5 95t-97.5 159 t-30.5 224.5v711zM735 1558q0 39 14 73t39 58.5t58 38.5t72 14q40 0 74 -14t58.5 -38.5t38 -58.5t13.5 -73t-13.5 -72.5t-38 -57.5t-58.5 -38t-74 -14t-73.5 13.5t-58 37.5t-38 57.5t-13.5 73.5zM828 1558q0 -38 25.5 -63.5t64.5 -25.5q38 0 62.5 25.5t24.5 63.5t-24.5 63 t-62.5 25q-39 0 -64.5 -25t-25.5 -63z" />
<glyph unicode="&#x16f;" horiz-adv-x="1237" d="M37 730v48l338 66h65v-477q0 -72 9 -120t27 -76.5t44.5 -40t60.5 -11.5q49 0 102 28t101 70v513h-129v49l338 65h65v-764l132 -32v-48h-406v123q-60 -40 -109.5 -68t-93.5 -46t-86.5 -26t-90.5 -8q-66 0 -111.5 23.5t-73.5 68.5t-40.5 110t-12.5 147v406h-129zM428 1131 q0 39 14 73t39 58.5t58 38.5t72 14q40 0 74 -14t58.5 -38.5t38 -58.5t13.5 -73t-13.5 -72.5t-38 -57.5t-58.5 -38t-74 -14t-73.5 13.5t-58 37.5t-38 57.5t-13.5 73.5zM521 1131q0 -38 25.5 -63.5t64.5 -25.5q38 0 62.5 25.5t24.5 63.5t-24.5 63t-62.5 25q-39 0 -64.5 -25 t-25.5 -63z" />
<glyph unicode="&#x170;" horiz-adv-x="1662" d="M57 1226v48h690v-48l-195 -32v-687q0 -95 11.5 -173t47.5 -133.5t104.5 -85.5t182.5 -30q208 -1 306 119q89 108 89 330q0 22 -1 46l-25 614l-176 32v48h507v-48l-199 -32l-23 -664q-5 -146 -33.5 -251t-92 -173t-169.5 -100.5t-265 -32.5q-155 0 -262.5 31.5t-174.5 95 t-97.5 159t-30.5 224.5v711zM619 1403q-3 11 5 21l200 272q12 16 25.5 20t39.5 4h184q24 0 35 -7.5t11 -17.5q0 -5 -5 -13.5t-19 -16.5l-412 -261q-19 -12 -37 -12q-24 0 -27 11zM1025 1403q-3 11 5 21l200 272q12 16 25.5 20t39.5 4h184q24 0 35 -7.5t11 -17.5 q0 -5 -5 -13.5t-19 -16.5l-412 -261q-19 -12 -37 -12q-24 0 -27 11z" />
<glyph unicode="&#x171;" horiz-adv-x="1237" d="M37 730v48l338 66h65v-477q0 -72 9 -120t27 -76.5t44.5 -40t60.5 -11.5q49 0 102 28t101 70v513h-129v49l338 65h65v-764l132 -32v-48h-406v123q-60 -40 -109.5 -68t-93.5 -46t-86.5 -26t-90.5 -8q-66 0 -111.5 23.5t-73.5 68.5t-40.5 110t-12.5 147v406h-129zM331 1014 q-3 11 5 21l200 272q12 16 25.5 20t39.5 4h184q24 0 35 -7.5t11 -17.5q0 -5 -5 -13.5t-19 -16.5l-412 -261q-19 -12 -37 -12q-24 0 -27 11zM737 1014q-3 11 5 21l200 272q12 16 25.5 20t39.5 4h184q24 0 35 -7.5t11 -17.5q0 -5 -5 -13.5t-19 -16.5l-412 -261 q-19 -12 -37 -12q-24 0 -27 11z" />
<glyph unicode="&#x172;" horiz-adv-x="1662" d="M57 1226v48h690v-48l-195 -32v-687q0 -95 11.5 -173t47.5 -133.5t104.5 -85.5t182.5 -30q207 0 305.5 119.5t88.5 375.5l-25 614l-176 32v48h507v-48l-199 -32l-23 -664q-3 -95 -16.5 -175.5t-44.5 -146.5t-83 -115.5t-132 -80.5q-45 -18 -86 -36.5t-71.5 -46.5t-49 -68 t-18.5 -101q0 -38 12 -64t31.5 -42t45.5 -23t55 -7q25 0 50 4t48 12l15 -44q-33 -12 -69 -20t-71 -12.5t-67 -6.5t-56 -2q-53 0 -92.5 14t-66.5 38t-40.5 56t-13.5 68q0 43 16.5 79.5t45.5 66.5t68.5 54t84.5 44q-14 -1 -27.5 -1.5t-27.5 -0.5q-155 0 -262.5 31.5t-174.5 95 t-97.5 159t-30.5 224.5v711z" />
<glyph unicode="&#x173;" horiz-adv-x="1237" d="M37 730v48l338 66h65v-477q0 -72 9 -120t27 -76.5t44 -40t61 -11.5q49 0 102 28t101 70v513h-129v49l338 65h65v-764l132 -32v-48h-79q-53 0 -92 -18.5t-65 -50.5t-39 -76t-13 -95q0 -38 12 -64t31.5 -42t45.5 -23t55 -7q25 0 50 4t48 12l15 -44q-33 -12 -69 -20 t-71 -12.5t-67 -6.5t-56 -2q-53 0 -92.5 14t-66.5 38t-40.5 56t-13.5 68q0 94 58 160.5t161 108.5q-43 0 -77.5 31.5t-40.5 91.5q-60 -40 -109.5 -68t-93.5 -46t-86.5 -26t-90.5 -8q-66 0 -111.5 23.5t-73.5 68.5t-40.5 109.5t-12.5 147.5v406h-129z" />
<glyph unicode="&#x178;" horiz-adv-x="1520" d="M107 1226v48h676v-48l-178 -32l285 -541l282 541l-192 32v48h474v-48l-143 -32l-372 -610v-504l197 -32v-48h-698v48l194 31v478l-387 637zM488 1565q0 31 11.5 58.5t32 47.5t47.5 31.5t58 11.5q32 0 59.5 -12t48 -32t32.5 -47.5t12 -57.5q0 -31 -12 -58.5t-32.5 -48.5 t-48 -33t-59.5 -12q-31 0 -58 11.5t-47.5 32t-32 48.5t-11.5 60zM923 1565q0 31 11.5 58.5t32 47.5t47.5 31.5t58 11.5q32 0 59.5 -12t48 -32t32.5 -47.5t12 -57.5q0 -31 -12 -58.5t-32.5 -48.5t-48 -33t-59.5 -12q-31 0 -58 11.5t-47.5 32t-32 48.5t-11.5 60z" />
<glyph unicode="&#x179;" horiz-adv-x="1416" d="M80 0v127l802 1049h-612l-97 -253h-47v351h1113v-118l-801 -1058h683l110 311l46 -2v-407h-1197zM579 1422q-3 11 5 21l200 272q12 16 25.5 20t39.5 4h184q24 0 35 -7.5t11 -17.5q0 -5 -5 -13.5t-19 -16.5l-412 -261q-20 -12 -37 -12q-24 0 -27 11z" />
<glyph unicode="&#x17a;" horiz-adv-x="1001" d="M106 0v74l511 657h-359l-82 -192h-64l24 272h778v-63l-529 -650h359l121 184l63 -2l-58 -280h-764zM389 1012q-3 11 5 21l200 272q12 16 25.5 20t39.5 4h184q24 0 35 -7.5t11 -17.5q0 -5 -5 -13.5t-19 -16.5l-412 -261q-20 -12 -37 -12q-24 0 -27 11z" />
<glyph unicode="&#x17b;" horiz-adv-x="1416" d="M80 0v127l802 1049h-612l-97 -253h-47v351h1113v-118l-801 -1058h683l110 311l46 -2v-407h-1197zM526 1507q0 31 11.5 58.5t32 47.5t47.5 31.5t58 11.5q32 0 59.5 -12t48 -32t32.5 -47.5t12 -57.5q0 -31 -12 -58.5t-32.5 -48.5t-48 -33t-59.5 -12q-31 0 -58 11.5 t-47.5 32t-32 48.5t-11.5 60z" />
<glyph unicode="&#x17c;" horiz-adv-x="1001" d="M106 0v74l511 657h-359l-82 -192h-64l24 272h778v-63l-529 -650h359l121 184l63 -2l-58 -280h-764zM366 1129q0 31 11.5 58.5t32 47.5t47.5 31.5t58 11.5q32 0 59.5 -12t48 -32t32.5 -47.5t12 -57.5q0 -31 -12 -58.5t-32.5 -48.5t-48 -33t-59.5 -12q-31 0 -58 11.5 t-47.5 32t-32 48.5t-11.5 60z" />
<glyph unicode="&#x17d;" horiz-adv-x="1416" d="M80 0v127l802 1049h-612l-97 -253h-47v351h1113v-118l-801 -1058h683l110 311l46 -2v-407h-1197zM353 1739h237l159 -204l143 204h109l-253 -328h-148z" />
<glyph unicode="&#x17e;" horiz-adv-x="1001" d="M106 0v74l511 657h-359l-82 -192h-64l24 272h778v-63l-529 -650h359l121 184l63 -2l-58 -280h-764zM191 1329h237l159 -204l143 204h109l-253 -328h-148z" />
<glyph unicode="&#x17f;" horiz-adv-x="722" d="M68 0v48l129 32v731q0 58 8 99t32 72l239 304q19 25 47.5 40t61.5 23t70 10.5t73 2.5q42 0 77 -15l-9 -3v-150q-85 32 -148 32q-87 0 -132 -60.5t-45 -186.5v-899l177 -32v-48h-580z" />
<glyph unicode="&#x192;" horiz-adv-x="1234" d="M-66 -453l98 160q69 -57 120 -83t89 -26q48 0 78 39.5t52 112t39 174t40 226.5l100 558h-247v103h266q27 120 68 223.5t106.5 179.5t159.5 119t226 43q96 0 137 -10l-51 -153q-51 31 -95 49t-82 18q-57 0 -96 -46t-59 -155l-49 -268h269v-103h-289l-103 -563 q-29 -156 -81.5 -272.5t-126 -194t-166 -116t-200.5 -38.5q-79 0 -127.5 7t-75.5 16z" />
<glyph unicode="&#x2c6;" horiz-adv-x="809" d="M78 1015l237 290q13 16 23.5 20t28.5 4h97q17 0 28.5 -3.5t23.5 -20.5l216 -290q5 -6 -2.5 -10t-14.5 -4q-9 0 -16 5l-284 176l-303 -176q-10 -5 -16 -5q-7 0 -15 4.5t-3 9.5z" />
<glyph unicode="&#x2c7;" horiz-adv-x="809" d="M84 1329h237l159 -204l143 204h109l-253 -328h-148z" />
<glyph unicode="&#x2d8;" horiz-adv-x="859" d="M143 1273h31q70 -129 257 -129q207 0 251 129h33q-9 -119 -88.5 -199.5t-197.5 -80.5t-197 80.5t-89 199.5z" />
<glyph unicode="&#x2d9;" horiz-adv-x="647" d="M170 1129q0 31 11.5 58.5t32 47.5t47.5 31.5t58 11.5q32 0 59.5 -12t48 -32t32.5 -47.5t12 -57.5q0 -31 -12 -58.5t-32.5 -48.5t-48 -33t-59.5 -12q-31 0 -58 11.5t-47.5 32t-32 48.5t-11.5 60z" />
<glyph unicode="&#x2db;" horiz-adv-x="1382" d="M456 -269q0 63 27.5 112.5t77.5 88t120 67t154 49.5l10 -30q-94 -41 -132 -104t-38 -154q0 -38 12 -64t31.5 -42t45.5 -23t55 -7q25 0 50 4t48 12l15 -44q-33 -12 -69 -20t-71 -12.5t-67 -6.5t-56 -2q-53 0 -92.5 14t-66.5 38t-40.5 56t-13.5 68z" />
<glyph unicode="&#x2dc;" horiz-adv-x="682" d="M66 1005q4 55 17.5 102t35.5 81t52.5 53t69.5 19t72.5 -16.5t63 -36t56.5 -36t53 -16.5q42 0 66 22.5t28 82.5h36q-2 -54 -13.5 -100.5t-32.5 -80t-51.5 -53t-69.5 -19.5q-40 0 -71 16.5t-59 36t-56 36t-61 16.5q-38 0 -66.5 -24t-33.5 -83h-36z" />
<glyph unicode="&#x2dd;" horiz-adv-x="800" d="M50 1378q0 2 1 3l193 290q11 15 19.5 19.5t22.5 4.5h112q11 0 16.5 -7.5t5.5 -17.5q0 -17 -15 -30l-327 -268q-7 -5 -13 -5t-10.5 3.5t-4.5 7.5zM390 1378q0 2 1 3l193 290q11 15 19.5 19.5t22.5 4.5h112q11 0 16.5 -7.5t5.5 -17.5q0 -17 -15 -30l-327 -268q-7 -5 -13 -5 t-10.5 3.5t-4.5 7.5z" />
<glyph unicode="&#x300;" d="M-717 1670q0 10 11 17.5t35 7.5h184q26 0 39.5 -4t25.5 -20l200 -272q8 -10 5 -21t-27 -11q-18 0 -37 12l-412 261q-14 8 -19 16.5t-5 13.5z" />
<glyph unicode="&#x301;" d="M-440 1378q-3 11 5 21l200 272q12 16 25.5 20t39.5 4h184q24 0 35 -7.5t11 -17.5q0 -5 -5 -13.5t-19 -16.5l-412 -261q-20 -12 -37 -12q-24 0 -27 11z" />
<glyph unicode="&#x302;" d="M-772 1393l237 290q13 16 23.5 20t28.5 4h97q17 0 28.5 -3.5t23.5 -20.5l216 -290q5 -6 -2.5 -10t-14.5 -4q-9 0 -16 5l-284 176l-303 -176q-10 -5 -16 -5q-7 0 -15 4.5t-3 9.5z" />
<glyph unicode="&#x303;" d="M-661 1371q4 55 17.5 102t35.5 81t52.5 53t69.5 19t72.5 -16.5t63 -36t56.5 -36t53 -16.5q42 0 66 22.5t28 82.5h36q-2 -54 -13.5 -100.5t-32.5 -80t-51.5 -53t-69.5 -19.5q-40 0 -71 16.5t-59 36t-56 36t-61 16.5q-38 0 -66.5 -24t-33.5 -83h-36z" />
<glyph unicode="&#x304;" d="M-873 1371v112h594v-112h-594z" />
<glyph unicode="&#x305;" d="M-1045 1097v128h1066v-128h-1066z" />
<glyph unicode="&#x306;" d="M-760 1651h31q70 -129 257 -129q207 0 251 129h33q-9 -119 -88.5 -199.5t-197.5 -80.5t-197 80.5t-89 199.5z" />
<glyph unicode="&#x307;" d="M-556 1507q0 31 11.5 58.5t32 47.5t47.5 31.5t58 11.5q32 0 59.5 -12t48 -32t32.5 -47.5t12 -57.5q0 -31 -12 -58.5t-32.5 -48.5t-48 -33t-59.5 -12q-31 0 -58 11.5t-47.5 32t-32 48.5t-11.5 60z" />
<glyph unicode="&#x308;" d="M-744 1507q0 31 11.5 58.5t32 47.5t47.5 31.5t58 11.5q32 0 59.5 -12t48 -32t32.5 -47.5t12 -57.5q0 -31 -12 -58.5t-32.5 -48.5t-48 -33t-59.5 -12q-31 0 -58 11.5t-47.5 32t-32 48.5t-11.5 60zM-309 1507q0 31 11.5 58.5t32 47.5t47.5 31.5t58 11.5q32 0 59.5 -12 t48 -32t32.5 -47.5t12 -57.5q0 -31 -12 -58.5t-32.5 -48.5t-48 -33t-59.5 -12q-31 0 -58 11.5t-47.5 32t-32 48.5t-11.5 60z" />
<glyph unicode="&#x309;" d="M-703 1328q0 64 65 103q56 33 125 33q81 0 136.5 -51t55.5 -131q0 -70 -65 -152q-82 -105 -95 -136.5t-25 -93.5h-22q0 70 51.5 199t51.5 199q0 51 -34.5 90.5t-84.5 39.5q-33 0 -62 -17q-34 -20 -34 -52q0 -5 19.5 -32t19.5 -47q0 -49 -47 -49q-55 0 -55 97z" />
<glyph unicode="&#x30a;" d="M-676 1509q0 39 14 73t39 58.5t58 38.5t72 14q40 0 74 -14t58.5 -38.5t38 -58.5t13.5 -73t-13.5 -72.5t-38 -57.5t-58.5 -38t-74 -14t-73.5 13.5t-58 37.5t-38 57.5t-13.5 73.5zM-583 1509q0 -38 25.5 -63.5t64.5 -25.5q38 0 62.5 25.5t24.5 63.5t-24.5 63t-62.5 25 q-39 0 -64.5 -25t-25.5 -63z" />
<glyph unicode="&#x30b;" d="M-937 1378q-3 11 5 21l200 272q12 16 25.5 20t39.5 4h184q24 0 35 -7.5t11 -17.5q0 -5 -5 -13.5t-19 -16.5l-412 -261q-19 -12 -37 -12q-24 0 -27 11zM-531 1378q-3 11 5 21l200 272q12 16 25.5 20t39.5 4h184q24 0 35 -7.5t11 -17.5q0 -5 -5 -13.5t-19 -16.5l-412 -261 q-19 -12 -37 -12q-24 0 -27 11z" />
<glyph unicode="&#x30c;" d="M-653 1707h237l159 -204l143 204h109l-253 -328h-148z" />
<glyph unicode="&#x30d;" d="M-485 1367v328h110v-328h-110z" />
<glyph unicode="&#x30e;" d="M-627 1040v383h58v-383h-58zM-455 1040v383h58v-383h-58z" />
<glyph unicode="&#x30f;" d="M-1075 1670q0 10 11 17.5t35 7.5h184q26 0 39.5 -4t25.5 -20l200 -272q8 -10 5 -21t-27 -11q-18 0 -37 12l-412 261q-14 8 -19 16.5t-5 13.5zM-669 1670q0 10 11 17.5t35 7.5h184q26 0 39.5 -4t25.5 -20l200 -272q8 -10 5 -21t-27 -11q-18 0 -37 12l-412 261 q-14 8 -19 16.5t-5 13.5z" />
<glyph unicode="&#x310;" d="M-798 1358h31q70 -129 257 -129q207 0 251 129h33q-9 -119 -87 -198q-81 -82 -199 -82t-198 82q-78 79 -88 198zM-612 1531q0 42 29.5 71t71.5 29q41 0 70 -31.5t29 -73.5q0 -38 -30.5 -67t-68.5 -29q-41 0 -71 30.5t-30 70.5z" />
<glyph unicode="&#x311;" d="M-816 1459q19 114 91 181t175 67t175 -67t91 -181h-42q-36 77 -87 110t-137 33t-136 -33t-88 -110h-42z" />
<glyph unicode="&#x312;" d="M-628 1517q0 79 46 134t123 55q42 0 62.5 -14.5t20.5 -34.5q0 -37 -36 -37q-15 0 -46 13t-49 13q-28 0 -48 -26.5t-19 -55.5q0 -40 24 -70t69 -30q8 0 30 2.5t27 2.5q38 0 58 -17t20 -46q0 -35 -28 -57.5t-88 -22.5q-72 0 -119 54t-47 137z" />
<glyph unicode="&#x313;" d="M-595 1627q0 35 28 57.5t88 22.5q72 0 119 -54t47 -137q0 -79 -46 -134t-123 -55q-42 0 -62.5 14.5t-20.5 34.5q0 37 36 37q15 0 46 -13t49 -13q28 0 48 26.5t19 55.5q0 40 -24 70t-69 30q-8 0 -30 -2.5t-27 -2.5q-38 0 -58 17t-20 46z" />
<glyph unicode="&#x314;" d="M-584 1515q0 83 47 137t119 54q60 0 88 -22.5t28 -57.5q0 -29 -20 -46t-58 -17q-5 0 -27 2.5t-30 2.5q-45 0 -69 -30t-24 -70q-1 -29 19 -55.5t48 -26.5q18 0 49 13t46 13q36 0 36 -37q0 -20 -20.5 -34.5t-62.5 -14.5q-77 0 -123 55t-46 134z" />
<glyph unicode="&#x315;" d="M-369 1341q0 57 42 90q38 31 96 31q80 0 134 -65q50 -61 50 -142q0 -236 -274 -339v49q84 50 119 86q56 57 56 130q0 65 -39 65q-13 0 -38 -8.5t-38 -8.5q-46 0 -77 33t-31 79z" />
<glyph unicode="&#x316;" d="M-692 -58h248l112 -346h-67z" />
<glyph unicode="&#x317;" d="M-692 -404l112 346h248l-293 -346h-67z" />
<glyph unicode="&#x318;" d="M-703 -229h325v159h57v-383h-57v167h-325v57z" />
<glyph unicode="&#x319;" d="M-703 -70h57v-159h325v-57h-325v-167h-57v383z" />
<glyph unicode="&#x31a;" d="M-761 1366v57h498v-383h-58v326h-440z" />
<glyph unicode="&#x31b;" d="M-251 1133q0 84 96 84q56 0 92 -43.5t36 -100.5q0 -163 -191 -235v34q122 72 122 150q0 45 -27 45q-9 0 -26.5 -6t-26.5 -6q-31 0 -53 23t-22 55z" />
<glyph unicode="&#x31c;" d="M-413.068 -475v29q-76.9902 27 -109.986 63t-32.9961 96q0 62 32.9961 97.5t109.986 63.5v29q-113.986 -13 -180.979 -64.5q-66.9912 -51.5 -66.9912 -125.5q0 -72 66.9912 -123.5q66.9922 -51.5 180.979 -64.5z" />
<glyph unicode="&#x31d;" d="M-703 -395h163v325h57v-325h162v-58h-382v58z" />
<glyph unicode="&#x31e;" d="M-703 -70h382v-57h-162v-326h-57v326h-163v57z" />
<glyph unicode="&#x31f;" d="M-703 -229h163v159h57v-159h162v-57h-162v-167h-57v167h-163v57z" />
<glyph unicode="&#x320;" d="M-831 -135h638v-128h-638v128z" />
<glyph unicode="&#x321;" d="M-567 -434q0 8 4 15l34 79q9 20 26 20q11 0 25 -9.5t30.5 -21.5t36 -21.5t42.5 -9.5q22 0 39.5 3.5t30 15.5t21 35t14 62.5t7.5 98t2 141.5v108h48v-114q0 -125 -4.5 -210t-28.5 -137t-74 -74t-140 -22q-57 0 -85 11.5t-28 29.5z" />
<glyph unicode="&#x322;" d="M-246 -32v114h48v-108q0 -83 2 -141.5t7.5 -98t14 -62.5t21 -35t29.5 -15.5t40 -3.5q22 0 42 9.5t36.5 21.5t30.5 21.5t25 9.5q17 0 26 -20l34 -79q4 -7 4 -15q0 -18 -28 -29.5t-85 -11.5q-90 0 -140 22t-74 74t-28.5 137t-4.5 210z" />
<glyph unicode="&#x323;" d="M-570 -379q0 31 11.5 58.5t32 47.5t47.5 31.5t58 11.5q32 0 59.5 -12t48 -32t32.5 -47.5t12 -57.5q0 -31 -12 -58.5t-32.5 -48.5t-48 -33t-59.5 -12q-31 0 -58 11.5t-47.5 32t-32 48.5t-11.5 60z" />
<glyph unicode="&#x324;" d="M-710 -379q0 31 11.5 58.5t32 47.5t47.5 31.5t58 11.5q32 0 59.5 -12t48 -32t32.5 -47.5t12 -57.5q0 -31 -12 -58.5t-32.5 -48.5t-48 -33t-59.5 -12q-31 0 -58 11.5t-47.5 32t-32 48.5t-11.5 60zM-275 -379q0 31 11.5 58.5t32 47.5t47.5 31.5t58 11.5q32 0 59.5 -12 t48 -32t32.5 -47.5t12 -57.5q0 -31 -12 -58.5t-32.5 -48.5t-48 -33t-59.5 -12q-31 0 -58 11.5t-47.5 32t-32 48.5t-11.5 60z" />
<glyph unicode="&#x325;" d="M-685 -320q0 39 14 73t39 58.5t58 38.5t72 14q40 0 74 -14t58.5 -38.5t38 -58.5t13.5 -73t-13.5 -72.5t-38 -57.5t-58.5 -38t-74 -14t-73.5 13.5t-58 37.5t-38 57.5t-13.5 73.5zM-592 -320q0 -38 25.5 -63.5t64.5 -25.5q38 0 62.5 25.5t24.5 63.5t-24.5 63t-62.5 25 q-39 0 -64.5 -25t-25.5 -63z" />
<glyph unicode="&#x326;" d="M-536 -177q0 35 28 57.5t88 22.5q72 0 119 -54t47 -137q0 -79 -46 -134t-123 -55q-42 0 -62.5 14.5t-20.5 34.5q0 37 36 37q15 0 46 -13t49 -13q28 0 48 26.5t19 55.5q0 40 -24 70t-69 30q-8 0 -30 -2.5t-27 -2.5q-38 0 -58 17t-20 46z" />
<glyph unicode="&#x327;" d="M-623 -397q0 23 15 40.5t39 17.5q37 0 61.5 -11.5t45 -25.5t39.5 -25.5t44 -11.5q22 0 40.5 7.5t32 20t21 28.5t7.5 33q0 43 -59.5 72.5t-162.5 42.5l138 226h63l-62 -104q44 -9 79 -22t60 -36t38 -58t13 -87q0 -38 -15.5 -72t-49 -59.5t-86 -40.5t-125.5 -15 q-37 0 -69 5t-56 14.5t-37.5 24.5t-13.5 36z" />
<glyph unicode="&#x328;" d="M-146 -269q0 63 27.5 112.5t77.5 88t120 67t154 49.5l10 -30q-94 -41 -132 -104t-38 -154q0 -38 12 -64t31.5 -42t45.5 -23t55 -7q25 0 50 4t48 12l15 -44q-33 -12 -69 -20t-71 -12.5t-67 -6.5t-56 -2q-53 0 -92.5 14t-66.5 38t-40.5 56t-13.5 68z" />
<glyph unicode="&#x329;" d="M-541 -70h58v-383h-58v383z" />
<glyph unicode="&#x32a;" d="M-895 -70h766v-268h-57v211h-652v-211h-57v268z" />
<glyph unicode="&#x32b;" d="M-859 -229h27q24 -77 57 -110t88 -33q56 0 89 33t57 110h26q25 -77 57.5 -110t88.5 -33q55 0 88.5 33t56.5 110h27q-12 -114 -59 -181t-113 -67q-68 0 -113 67q-30 42 -46 103q-15 -61 -46 -103q-46 -67 -113 -67t-113.5 67t-58.5 181z" />
<glyph unicode="&#x32c;" d="M-788 -147h237l159 -204l143 204h109l-253 -328h-148z" />
<glyph unicode="&#x32d;" d="M-720 -461l237 290q13 16 23.5 20t28.5 4h97q17 0 28.5 -3.5t23.5 -20.5l216 -290q5 -6 -2.5 -10t-14.5 -4q-9 0 -16 5l-284 176l-303 -176q-10 -5 -16 -5q-7 0 -15 4.5t-3 9.5z" />
<glyph unicode="&#x32e;" d="M-746 -194h31q70 -129 257 -129q207 0 251 129h33q-9 -119 -88.5 -199.5t-197.5 -80.5t-197 80.5t-89 199.5z" />
<glyph unicode="&#x32f;" d="M-803 -475q19 114 91 181t175 67t175 -67t91 -181h-42q-36 77 -87 110t-137 33t-136 -33t-88 -110h-42z" />
<glyph unicode="&#x330;" d="M-661 -357q4 55 17.5 102t35.5 81t52.5 53t69.5 19t72.5 -16.5t63 -36t56.5 -36t53 -16.5q42 0 66 22.5t28 82.5h36q-2 -54 -13.5 -100.5t-32.5 -80t-51.5 -53t-69.5 -19.5q-40 0 -71 16.5t-59 36t-56 36t-61 16.5q-38 0 -66.5 -24t-33.5 -83h-36z" />
<glyph unicode="&#x331;" d="M-753 -515v112h594v-112h-594z" />
<glyph unicode="&#x332;" d="M-979 -131h934v-128h-934v128z" />
<glyph unicode="&#x333;" d="M-979 -131h934v-128h-934v128zM-979 -387h934v-128h-934v128z" />
<glyph unicode="&#x334;" d="M-573 388q4 55 17.5 102t35.5 81t52.5 53t69.5 19t72.5 -16.5t63 -36t56.5 -36t53 -16.5q42 0 66 22.5t28 82.5h36q-2 -54 -13.5 -100.5t-32.5 -80t-51.5 -53t-69.5 -19.5q-40 0 -71 16.5t-59 36t-56 36t-61 16.5q-38 0 -66.5 -24t-33.5 -83h-36z" />
<glyph unicode="&#x335;" d="M-668 382v112h594v-112h-594z" />
<glyph unicode="&#x336;" d="M-1101 380v70h1146v-70h-1146z" />
<glyph unicode="&#x337;" d="M-514 325v71q0 24 21 40q45 32 89.5 69.5t161.5 138.5q95 83 164 189q8 11 18 11q7 0 12.5 -6t5.5 -17v-62q0 -10 -6 -20.5t-20 -20.5q-43 -29 -85.5 -61t-149.5 -124q-54 -46 -99 -104t-84 -113q-6 -9 -15 -9q-13 0 -13 18z" />
<glyph unicode="&#x338;" d="M-874 -67l691 942l31 -21l-689 -942z" />
<glyph unicode="&#x339;" d="M-561 -475v29q77 27 110 63t33 96q0 62 -33 97.5t-110 63.5v29q114 -13 181 -64.5t67 -125.5q0 -72 -67 -123.5t-181 -64.5z" />
<glyph unicode="&#x33a;" d="M-895 -70h57v-211h652v211h57v-268h-766v268z" />
<glyph unicode="&#x33b;" d="M-647 -126h270v-271h-270v271zM-599 -175v-173h173v173h-173z" />
<glyph unicode="&#x33c;" d="M-860 -357q0 80 56 135.5t135 55.5q99 0 157 -81q57 81 156 81q79 0 135.5 -56t56.5 -135h-70q0 51 -36 86.5t-86 35.5q-47 0 -82 -31.5t-39 -78.5v-12h-1h-69q0 51 -36 86.5t-86 35.5q-51 0 -86.5 -35.5t-35.5 -86.5h-69z" />
<glyph unicode="&#x33d;" d="M-669 1118l115 115l-112 113l40 40l113 -113l115 116l40 -41l-115 -115l118 -118l-41 -40l-117 118l-115 -116z" />
<glyph unicode="&#x33e;" d="M-566 1329v25q60 3 82.5 19t22.5 45q0 24 -52.5 76t-52.5 93q0 54 47.5 84.5t158.5 36.5v-25q-59 -4 -83 -23.5t-24 -45.5q0 -34 52.5 -82t52.5 -88q4 -54 -46 -83t-158 -32z" />
<glyph unicode="&#x33f;" d="M-831 1097v128h638v-128h-638zM-831 1353v128h638v-128h-638z" />
<glyph unicode="&#x340;" d="M-960 1423h248l113 -346h-67z" />
<glyph unicode="&#x341;" d="M-425 1077l113 346h248l-294 -346h-67z" />
<glyph unicode="&#x342;" d="M-849 1123q74 203 223 203q31 0 147 -35q110 -33 144 -49q57 0 110 84h50q-61 -203 -212 -203q-54 0 -153 41t-145 41q-62 0 -103 -82h-61z" />
<glyph unicode="&#x343;" d="M-673 1341q0 57 42 90q38 31 96 31q80 0 134 -65q50 -61 50 -142q0 -236 -274 -339v49q84 50 119 86q56 57 56 130q0 65 -39 65q-13 0 -38 -8.5t-38 -8.5q-46 0 -77 33t-31 79z" />
<glyph unicode="&#x344;" d="M-904 1257q0 37 31 66t68 29q43 0 72.5 -28.5t29.5 -71.5q0 -42 -29.5 -70.5t-72.5 -28.5q-41 0 -68 29t-27 70zM-666 1077l112 346h248l-289 -346h-71zM-317 1257q0 39 30 67t70 28q43 0 70 -29t27 -72q0 -39 -29 -68.5t-68 -29.5q-41 0 -70.5 31t-29.5 73z" />
<glyph unicode="&#x345;" d="M-647 -127h130q0 -23 -1.5 -69t-1.5 -68q0 -68 44 -68l5 -3q52 0 56 97h38v-14q0 -166 -132 -166q-138 0 -138 183v108z" />
<glyph unicode="&#x346;" d="M-895 1155v268h766v-268h-57v211h-652v-211h-57z" />
<glyph unicode="&#x347;" d="M-813 -515v112h594v-112h-594zM-813 -341v112h594v-112h-594z" />
<glyph unicode="&#x348;" d="M-627 -70h58v-383h-58v383zM-455 -70h58v-383h-58v383z" />
<glyph unicode="&#x349;" d="M-703 -70h382v-383h-57v326h-325v57z" />
<glyph unicode="&#x34a;" d="M-867 1194q68 132 192 132q63 0 176 -52.5t151 -52.5q65 0 136 111l55 -77q-95 -132 -192 -132q-60 0 -161.5 52t-171.5 52q-80 0 -130 -110z" />
<glyph unicode="&#x34b;" d="M-867 1194q68 132 192 132q63 0 176 -52.5t151 -52.5q65 0 136 111l55 -77q-95 -132 -192 -132q-60 0 -161.5 52t-171.5 52q-80 0 -130 -110zM-587 1049q0 31 22 52.5t54 21.5q31 0 52.5 -23.5t21.5 -54.5q0 -29 -23 -51t-51 -22q-31 0 -53.5 23t-22.5 54zM-587 1402 q0 31 22 52.5t54 21.5q31 0 52.5 -23.5t21.5 -54.5q0 -28 -23 -50t-51 -22q-31 0 -53.5 22.5t-22.5 53.5z" />
<glyph unicode="&#x34c;" d="M-867 1194q68 132 192 132q63 0 176 -52.5t151 -52.5q65 0 136 111l55 -77q-95 -132 -192 -132q-60 0 -161.5 52t-171.5 52q-80 0 -130 -110zM-867 1390q68 132 192 132q63 0 176 -52t151 -52q65 0 136 111l55 -77q-95 -132 -192 -132q-60 0 -161.5 52t-171.5 52 q-80 0 -130 -111z" />
<glyph unicode="&#x34d;" d="M-925 -194l283 138v-75h260v75l283 -138l-283 -142v77h-260v-77z" />
<glyph unicode="&#x34e;" d="M-652 -309l143 284l137 -284h-75v-155h-128v155h-77z" />
<glyph unicode="&#x34f;" />
<glyph unicode="&#x350;" d="M-679 1339q0 4 5 8l236 171l-236 171q-5 5 -5 9t4 7t8 3q2 0 3 -1l317 -134q16 -7 21 -13t5 -16v-52q0 -10 -5 -15.5t-21 -13.5l-317 -134q-1 -1 -3 -1q-4 0 -8 3.5t-4 7.5z" />
<glyph unicode="&#x351;" d="M-403.068 1329v29q-76.9902 27 -109.986 63t-32.9961 96q0 62 32.9961 97.5t109.986 63.5v29q-113.986 -13 -180.979 -64.5q-66.9912 -51.5 -66.9912 -125.5q0 -72 66.9912 -123.5q66.9922 -51.5 180.979 -64.5z" />
<glyph unicode="&#x352;" d="M-798 1351q10 119 89 199.5t197 80.5t199 -82q78 -79 87 -198h-33q-44 129 -251 129q-187 0 -257 -129h-31zM-612 1177q0 41 30 71.5t71 30.5q38 0 68.5 -29t30.5 -67q0 -42 -29 -73.5t-70 -31.5q-42 0 -71.5 29t-29.5 70z" />
<glyph unicode="&#x353;" d="M-669 -374l115 115l-112 113l40 41l113 -113l115 115l40 -41l-115 -115l118 -117l-41 -41l-117 118l-115 -115z" />
<glyph unicode="&#x354;" d="M-770 -276q0 51 51 73l366 159q7 2 13 2q37 0 30 -41l-252 -130q-33 -17 -41 -23q-23 -17 -23 -40q0 -31 64 -64l308 -156q6 -40 -32 -40q-5 0 -11 1l-422 185q-51 22 -51 74z" />
<glyph unicode="&#x355;" d="M-770 -496l308 156q64 33 64 64q0 30 -64 63l-252 130q-7 41 30 41q6 0 13 -2l366 -159q51 -22 51 -73q0 -52 -51 -74l-422 -185q-6 -1 -11 -1q-38 0 -32 40z" />
<glyph unicode="&#x356;" d="M-999 -496l308 156q64 33 64 62q0 32 -64 65l-251 130q-8 41 29 41q7 0 14 -2l365 -159q52 -22 52 -73q0 -52 -52 -74l-422 -185q-6 -1 -11 -1q-38 0 -32 40zM-519 -503q0 5 1 11l185 423q22 51 74 51q51 0 73 -51l159 -366q2 -7 2 -14q0 -36 -41 -29l-130 251 q-17 32 -23 41q-18 22 -40 23q-31 1 -64 -64l-156 -308q-40 -6 -40 32z" />
<glyph unicode="&#x357;" d="M-561 1329v29q77 27 110 63t33 96q0 62 -33 97.5t-110 63.5v29q114 -13 181 -64.5t67 -125.5q0 -72 -67 -123.5t-181 -64.5z" />
<glyph unicode="&#x358;" d="M-103 906q0 31 11.5 58.5t32 47.5t47.5 31.5t58 11.5q32 0 59.5 -12t48 -32t32.5 -47.5t12 -57.5q0 -31 -12 -58.5t-32.5 -48.5t-48 -33t-59.5 -12q-31 0 -58 11.5t-47.5 32t-32 48.5t-11.5 60z" />
<glyph unicode="&#x359;" d="M-575 -221l3 4q0 42 45 42q29 0 59 -32q24 -25 48 -51q9 -8 55 -37q0 65 -19 120q-5 15 -12 47l-3 4q0 54 49 54q46 0 46 -54q0 -26 -16 -82.5t-16 -88.5q57 35 93 74q43 48 71 48q41 0 41 -48q0 -33 -30 -46q-10 -5 -58 -14q-44 -8 -100 -39q45 -29 101 -41 q45 -10 59 -18q28 -16 28 -51q0 -37 -43 -37q-28 0 -56 30q-22 25 -43 51q-9 8 -61 42q0 -5 -1 -16t-1 -16q0 -26 16 -75t16 -75q0 -45 -46 -45t-46 48l-3 6q0 12 13 50q21 66 21 121q-51 -27 -97 -81q-34 -39 -63 -39q-47 0 -47 44l-3 2q0 47 87 59q43 6 108 41 q-30 18 -53 25q-43 11 -86 21q-56 18 -56 53z" />
<glyph unicode="&#x35a;" d="M-861 -261q0 80 55.5 135.5t135.5 55.5q100 0 157 -81q57 81 157 81q80 0 136 -55.5t56 -135.5t-55.5 -136t-136.5 -56q-99 0 -156 82q-57 -82 -158 -82q-79 0 -135 56.5t-56 135.5zM-792 -261q0 -50 36 -86t86 -36q51 0 86.5 36t35.5 86q0 51 -35.5 86.5t-86.5 35.5 t-86.5 -35.5t-35.5 -86.5zM-478 -261q0 -50 36 -86t86 -36q51 0 86.5 36t35.5 86q0 51 -35.5 86.5t-86.5 35.5t-86.5 -35.5t-35.5 -86.5z" />
<glyph unicode="&#x35b;" d="M-674 1483q0 23 20 37l245 175q16 12 28 12t12 -10q0 -8 -12 -24l-146 -179l215 -19q18 -2 27 -12t9 -24q0 -23 -21 -38l-253 -181q-6 -4 -13 -4q-5 0 -9.5 2.5t-4.5 9.5q0 9 14 27l142 174l-217 20q-19 2 -27.5 12t-8.5 22z" />
<glyph unicode="&#x35c;" d="M-782 -71h31q70 -129 752 -129q275 0 472 26q252 34 276 103h33q-8 -111 -274 -198q-249 -82 -509 -82q-259 0 -507 82q-265 88 -274 198z" />
<glyph unicode="&#x35d;" d="M-782 1358h31q70 -129 752 -129q275 0 472 26q252 34 276 103h33q-8 -111 -274 -198q-249 -82 -509 -82q-259 0 -507 82q-265 88 -274 198z" />
<glyph unicode="&#x35e;" d="M-865 1097v128h1730v-128h-1730z" />
<glyph unicode="&#x35f;" d="M-865 -131h1730v-128h-1730v128z" />
<glyph unicode="&#x360;" d="M-834 1123q182 203 551 203q121 0 582 -55q10 -1 109 -17q76 -12 104 -12q140 0 273 84h49q-150 -203 -524 -203q-139 0 -414 41t-413 41q-154 0 -257 -82h-60z" />
<glyph unicode="&#x361;" d="M-782 1078q9 110 274 198q248 82 507 82q260 0 509 -82q266 -87 274 -198h-33q-44 129 -748 129q-683 0 -752 -129h-31z" />
<glyph unicode="&#x362;" d="M-885 -131h1486v75l284 -138l-284 -142v77h-1486v128z" />
<glyph unicode="&#x363;" d="M-720 1102q0 30 10 52.5t29.5 40t48 31t64.5 24.5q37 11 64 21.5t45 19.5v75q0 65 -22 91t-66 26q-34 0 -56.5 -16t-22.5 -41q0 -11 6.5 -19.5t6.5 -15.5q0 -8 -7 -12l-62 -31q-2 -1 -8 -1q-7 0 -12 8t-5 19q0 26 18 51.5t45 45.5t57.5 32.5t56.5 12.5q75 0 114 -38.5 t39 -111.5v-241q0 -42 8 -52t24 -10q22 0 54 23l12 -17q-86 -68 -122 -68q-52 0 -56 75q-45 -36 -79 -55.5t-70 -19.5q-54 0 -84 27.5t-30 73.5zM-641 1117q0 -32 21 -51.5t51 -19.5q22 0 49.5 15.5t60.5 38.5v167q-27 -12 -58.5 -23t-59 -27t-46 -39.5t-18.5 -60.5z" />
<glyph unicode="&#x364;" d="M-718 1253q0 52 18 99.5t50 84t75.5 58t94.5 21.5q48 0 85 -17.5t62.5 -47t38.5 -69t13 -82.5h-360v-24q0 -44 15.5 -82.5t41 -67.5t59.5 -46t71 -17q45 0 82 21t71 61l16 -17q-20 -26 -44.5 -49.5t-52.5 -40.5t-59 -27t-62 -10q-45 0 -84.5 20t-68.5 54.5t-45.5 80.5 t-16.5 97zM-637 1332h267q0 24 -9 52t-26 52t-41.5 40.5t-55.5 16.5q-48 0 -83.5 -38t-51.5 -123z" />
<glyph unicode="&#x365;" d="M-625 1016v29q25 0 41.5 2t26 10.5t13 25.5t3.5 46v254q0 19 -1.5 30.5t-5.5 18.5t-12 10t-21 5l-44 7v20q17 0 36.5 3.5t38 9.5t35 15t28.5 20h29v-393q0 -29 3.5 -46t13 -25.5t25.5 -10.5t42 -2v-29h-251zM-560 1693q0 26 16.5 42.5t41.5 16.5q26 0 42 -16.5t16 -42.5 q0 -25 -16 -41t-42 -16q-25 0 -41.5 16t-16.5 41z" />
<glyph unicode="&#x366;" d="M-756 1255q0 58 20.5 106.5t55.5 82.5t81.5 53t99.5 19q55 0 102 -20.5t81.5 -55.5t53.5 -82.5t19 -102.5q0 -53 -19.5 -99t-53.5 -80.5t-80 -54.5t-99 -20q-57 0 -105 20t-82.5 54.5t-54 80.5t-19.5 99zM-664 1297q0 -52 13.5 -100t38 -85t58 -59t72.5 -22 q29 0 55.5 14.5t46.5 40.5t32 62t12 79q0 52 -14 99t-38.5 82.5t-57.5 56.5t-70 21q-29 0 -55.5 -15t-47 -40.5t-33 -60t-12.5 -73.5z" />
<glyph unicode="&#x367;" d="M-790 1454v20q17 0 36.5 3.5t38 9.5t35 15t28.5 20h28v-345q0 -69 28 -97.5t83 -28.5q23 0 59.5 19t78.5 51v262q0 19 -1.5 30.5t-5.5 18.5t-12 10t-21 5l-44 7v20q17 0 36.5 3.5t38 9.5t35 15t28.5 20h29v-417q0 -20 6 -28t21 -8q6 0 13.5 1.5t15.5 2.5l26 5v-27 q-42 -7 -84 -20t-81 -30v91q-63 -48 -114 -69.5t-87 -21.5q-27 0 -51 11t-41.5 29.5t-27.5 42t-10 48.5v251q0 19 -1.5 30.5t-5.5 18.5t-12 10t-21 5z" />
<glyph unicode="&#x368;" d="M-690 1253q0 56 21.5 104.5t58 84t85.5 56t105 20.5q28 0 55 -5.5t48 -14.5t34 -20t13 -21q0 -7 -7 -13l-37 -35q-6 -7 -13 -7t-19 13t-29 28.5t-38.5 28.5t-46.5 13q-33 0 -60 -17t-46.5 -46t-30 -66.5t-10.5 -77.5q0 -44 15 -84.5t40 -72t58 -50.5t70 -19q45 0 79.5 24 t64.5 69l21 -15q-74 -128 -211 -128q-47 0 -87.5 21.5t-70 56.5t-46 80t-16.5 93z" />
<glyph unicode="&#x369;" d="M-792 1239q0 115 77 196.5t189 81.5q29 0 59.5 -6.5t55.5 -17.5v204q0 32 -10.5 43.5t-40.5 11.5h-33v29q56 0 89.5 12t48.5 41h29v-708q0 -45 36 -45q15 0 54 13v-31q-44 -11 -83 -26.5t-75 -35.5h-15v83q-33 -27 -85.5 -55t-99.5 -28q-83 0 -139.5 73.5t-56.5 164.5z M-710 1280q0 -88 44 -157t116 -69q35 0 74.5 20.5t64.5 41.5v275q-24 42 -57 67t-84 25q-67 0 -112.5 -57.5t-45.5 -145.5z" />
<glyph unicode="&#x36a;" d="M-777 1016v29q51 0 67.5 13t16.5 71v568q0 32 -10.5 43.5t-40.5 11.5h-33v29q57 0 90 12t49 41h28v-393q53 34 106.5 55t105.5 21q58 0 89 -43t31 -124v-221q0 -58 17 -71t67 -13v-29h-251v29q51 0 67.5 13t16.5 71v211q0 60 -23.5 94t-67.5 34q-33 0 -71 -12t-87 -45 v-282q0 -58 17 -71t67 -13v-29h-251z" />
<glyph unicode="&#x36b;" d="M-956 1016v29q25 0 41.5 2t26 10.5t13 25.5t3.5 46v254q0 19 -1.5 30.5t-5.5 18.5t-12 10t-21 5l-44 7v20q17 0 36.5 3.5t38 9.5t35 15t28.5 20h29v-95q57 39 110 64t101 25q25 0 44.5 -8.5t33.5 -22t22.5 -30.5t11.5 -33q66 45 118.5 69.5t100.5 24.5q58 0 89 -42.5 t31 -123.5v-221q0 -29 3.5 -46t13 -25.5t25.5 -10.5t42 -2v-29h-251v29q25 0 41.5 2t26 10.5t13 25.5t3.5 46v211q0 60 -23 93.5t-68 33.5q-29 0 -66 -17.5t-94 -54.5q3 -21 3 -45v-221q0 -29 3.5 -46t13 -25.5t25.5 -10.5t42 -2v-29h-251v29q25 0 41.5 2t26 10.5t13 25.5 t3.5 46v211q0 60 -23 93.5t-68 33.5q-26 0 -66 -17.5t-91 -52.5v-268q0 -29 3.5 -46t13 -25.5t25.5 -10.5t42 -2v-29h-251z" />
<glyph unicode="&#x36c;" d="M-558 1016v29q51 0 67.5 13t16.5 71v254q0 38 -6 49t-33 16l-45 7v19q36 0 75 13.5t63 35.5h29v-144q25 42 54 86t65 44q12 0 23 -4l67 -25q11 -4 7 -16l-22 -59q-5 -12 -17 -8l-77 29q-15 5 -22 5q-19 0 -40 -27.5t-38 -58.5v-216q0 -50 17 -67t83 -17v-29h-267z" />
<glyph unicode="&#x36d;" d="M-673 1449v20q46 12 80.5 57.5t51.5 113.5h21v-137h163l-14 -54h-149v-275q0 -60 21 -88t62 -28q18 0 33.5 6.5t33.5 18.5l12 -14q-35 -31 -69.5 -49.5t-65.5 -18.5q-42 0 -76 44t-34 112v292h-70z" />
<glyph unicode="&#x36e;" d="M-808 1474v29h252v-29q-42 0 -61 -5t-19 -22q0 -12 11 -36l131 -307l125 285q10 24 10 40q0 23 -21 34t-68 11v29h214v-29q-41 0 -63 -26.5t-34 -56.5l-170 -386h-36l-178 409q-11 27 -27.5 43.5t-65.5 16.5z" />
<glyph unicode="&#x36f;" d="M-777 1016v29q61 0 85.5 20.5t40.5 38.5l132 148l-119 156q-11 16 -39.5 41t-90.5 25v29h249v-29q-28 0 -41 -3.5t-13 -13.5q0 -9 13 -27l92 -122l81 91q24 26 24 45q0 30 -65 30v29h237v-29q-70 0 -102 -22t-54 -47l-104 -116l147 -185q18 -24 40 -41.5t73 -17.5v-29 h-245v29q30 0 44.5 3.5t14.5 13.5t-16 30l-109 140l-108 -121q-17 -19 -17 -33q0 -16 20 -24.5t59 -8.5v-29h-229z" />
<glyph unicode="&#x37e;" horiz-adv-x="540" d="M128 -286q45 12 83.5 30t70.5 44q62 50 62 123q0 29 -20 46t-46 17q-29 0 -53 10.5t-42 28.5t-28 42.5t-10 53.5q0 28 10.5 52.5t29.5 42.5t44 28t54 10q36 0 65.5 -16.5t50 -47t32 -74t11.5 -97.5q0 -66 -21 -121.5t-65 -100.5q-86 -92 -210 -128zM152 714 q0 28 9.5 51.5t27 41t41 27.5t51.5 10t51.5 -10t41 -27.5t27.5 -41t10 -51.5t-10 -51.5t-27.5 -41t-41 -27t-51.5 -9.5t-51.5 9.5t-41 27t-27 41t-9.5 51.5z" />
<glyph unicode="&#x384;" horiz-adv-x="540" d="M71 1012q-3 11 5 21l200 272q12 16 25.5 20t39.5 4h184q24 0 35 -7.5t11 -17.5q0 -5 -5 -13.5t-19 -16.5l-412 -261q-20 -12 -37 -12q-24 0 -27 11z" />
<glyph unicode="&#x385;" horiz-adv-x="928" d="M96 1129q0 31 11.5 58.5t32 47.5t47.5 31.5t58 11.5q32 0 59.5 -12t48 -32t32.5 -47.5t12 -57.5q0 -31 -12 -58.5t-32.5 -48.5t-48 -33t-59.5 -12q-31 0 -58 11.5t-47.5 32t-32 48.5t-11.5 60zM531 1129q0 31 11.5 58.5t32 47.5t47.5 31.5t58 11.5q32 0 59.5 -12t48 -32 t32.5 -47.5t12 -57.5q0 -31 -12 -58.5t-32.5 -48.5t-48 -33t-59.5 -12q-31 0 -58 11.5t-47.5 32t-32 48.5t-11.5 60zM421 1319q-3 11 5 21l200 272q12 16 25.5 20t39.5 4h184q24 0 35 -7.5t11 -17.5q0 -5 -5 -13.5t-19 -16.5l-412 -261q-20 -12 -37 -12q-24 0 -27 11z" />
<glyph unicode="&#x386;" horiz-adv-x="1487" d="M-56 0v48l195 32l540 1194h192l500 -1194l141 -32v-48h-650v49l188 31l-160 387h-473l-155 -387l227 -32v-48h-545zM448 542h411l-207 505zM20 1012q-3 11 5 21l200 272q12 16 25.5 20t39.5 4h184q24 0 35 -7.5t11 -17.5q0 -5 -5 -13.5t-19 -16.5l-412 -261 q-20 -12 -37 -12q-24 0 -27 11z" />
<glyph unicode="&#x387;" horiz-adv-x="540" d="M15 739q0 45 30 75t75 30t75 -30t30 -75t-30 -75t-75 -30t-75 30t-30 75z" />
<glyph unicode="&#x388;" horiz-adv-x="1904" d="M584 0v48l195 32v1114l-195 32v48h1202v-299l-56 -5l-78 214h-568v-498h325l59 153h46v-388h-46l-59 153h-325v-393q0 -42 4.5 -66.5t16 -37.5t31 -16.5t50.5 -3.5h483l101 242h60l-29 -329h-1217zM19 1012q-3 11 5 21l200 272q12 16 25.5 20t39.5 4h184q24 0 35 -7.5 t11 -17.5q0 -5 -5 -13.5t-19 -16.5l-412 -261q-20 -12 -37 -12q-24 0 -27 11z" />
<glyph unicode="&#x389;" horiz-adv-x="2288" d="M600 0v47l195 33v1115l-195 31v48h696v-48l-194 -32v-508h608v508l-194 32v48h696v-48l-195 -32l2 -1114l195 -33v-47h-698v47l194 33v524h-608v-524l194 -33v-47h-696zM30 1012q-3 11 5 21l200 272q12 16 25.5 20t39.5 4h184q24 0 35 -7.5t11 -17.5q0 -5 -5 -13.5 t-19 -16.5l-412 -261q-20 -12 -37 -12q-24 0 -27 11z" />
<glyph unicode="&#x38a;" horiz-adv-x="1323" d="M577 1226v48h698v-48l-194 -32v-1095l194 -51v-48h-696v48l195 51v1095zM21 1012q-3 11 5 21l200 272q12 16 25.5 20t39.5 4h184q24 0 35 -7.5t11 -17.5q0 -5 -5 -13.5t-19 -16.5l-412 -261q-20 -12 -37 -12q-24 0 -27 11z" />
<glyph unicode="&#x38c;" horiz-adv-x="1851" d="M312 611q0 94 26 181.5t74 163.5t115.5 139.5t150 108.5t178.5 70t200 25q158 0 290.5 -50.5t228 -137.5t149 -204.5t53.5 -251.5q0 -105 -29.5 -197t-81 -168.5t-122 -136.5t-153 -101.5t-173.5 -63t-183 -21.5q-160 0 -293 50.5t-228.5 138t-148.5 204.5t-53 251z M643 687q0 -141 28 -259t81.5 -203t131 -132.5t176.5 -47.5q97 0 169 38t120 109t72 172.5t24 229.5q0 135 -29 248.5t-83.5 196t-132 128.5t-174.5 46q-92 0 -163.5 -37.5t-120.5 -106t-74 -165.5t-25 -217zM42 1012q-3 11 5 21l200 272q12 16 25.5 20t39.5 4h184 q24 0 35 -7.5t11 -17.5q0 -5 -5 -13.5t-19 -16.5l-412 -261q-20 -12 -37 -12q-24 0 -27 11z" />
<glyph unicode="&#x38e;" horiz-adv-x="1991" d="M589 1226v48h676v-48l-178 -32l285 -541l282 541l-192 32v48h474v-48l-143 -32l-372 -610v-504l197 -32v-48h-698v48l194 31v478l-387 637zM27 1012q-3 11 5 21l200 272q12 16 25.5 20t39.5 4h184q24 0 35 -7.5t11 -17.5q0 -5 -5 -13.5t-19 -16.5l-412 -261 q-20 -12 -37 -12q-24 0 -27 11z" />
<glyph unicode="&#x38f;" horiz-adv-x="1967" d="M330 391h48l62 -154h407l-71 61q-151 146 -226.5 293.5t-75.5 278.5q0 105 38.5 186t119.5 136.5t206.5 84t299.5 28.5q159 0 282.5 -26t208.5 -79.5t129 -135.5t44 -194q0 -131 -75.5 -278.5t-226.5 -293.5l-71 -61h407l62 154h48l-57 -391h-640l-16 44l144 246 q23 39 42 90.5t33 111.5t21.5 126t7.5 132q0 59 -7 119t-22.5 116t-41.5 105t-64.5 85t-89.5 57t-118 21q-96 0 -161.5 -43.5t-106 -114t-58 -161t-17.5 -184.5q0 -66 7.5 -132t21.5 -126t33 -111.5t42 -90.5l144 -246l-16 -44h-640zM35 1012q-3 11 5 21l200 272 q12 16 25.5 20t39.5 4h184q24 0 35 -7.5t11 -17.5q0 -5 -5 -13.5t-19 -16.5l-412 -261q-20 -12 -37 -12q-24 0 -27 11z" />
<glyph unicode="&#x390;" horiz-adv-x="703" d="M121 220v591h274v-476q0 -91 27.5 -144.5t74.5 -53.5q26 0 56 18t63 56l42 -55q-53 -94 -121.5 -137.5t-146.5 -43.5q-62 0 -111.5 17t-84.5 48.5t-54 77t-19 102.5zM-88 1129q0 31 11.5 58.5t32 47.5t47.5 31.5t58 11.5q32 0 59.5 -12t48 -32t32.5 -47.5t12 -57.5 q0 -31 -12 -58.5t-32.5 -48.5t-48 -33t-59.5 -12q-31 0 -58 11.5t-47.5 32t-32 48.5t-11.5 60zM347 1129q0 31 11.5 58.5t32 47.5t47.5 31.5t58 11.5q32 0 59.5 -12t48 -32t32.5 -47.5t12 -57.5q0 -31 -12 -58.5t-32.5 -48.5t-48 -33t-59.5 -12q-31 0 -58 11.5t-47.5 32 t-32 48.5t-11.5 60zM235 1319q-3 11 5 21l200 272q12 16 25.5 20t39.5 4h184q24 0 35 -7.5t11 -17.5q0 -5 -5 -13.5t-19 -16.5l-412 -261q-20 -12 -37 -12q-24 0 -27 11z" />
<glyph unicode="&#x391;" horiz-adv-x="1487" d="M-56 0v48l195 32l540 1194h192l500 -1194l141 -32v-48h-650v49l188 31l-160 387h-473l-155 -387l227 -32v-48h-545zM448 542h411l-207 505z" />
<glyph unicode="&#x392;" horiz-adv-x="1479" d="M47 0v48l195 32v1114l-195 32v48q51 0 122 2t152 3t167.5 2.5t168.5 1.5q141 0 257 -16.5t199 -52t128.5 -90.5t45.5 -132q0 -56 -13 -95.5t-40.5 -69.5t-71.5 -53t-105 -47q79 -21 138.5 -56t98.5 -79.5t58.5 -97.5t19.5 -111q0 -87 -33 -149.5t-90 -105t-131.5 -68 t-157.5 -39t-169.5 -17.5t-165.5 -4h-578zM551 292q0 -72 12.5 -116t36.5 -68t57.5 -32t75.5 -8q72 0 130 26.5t99.5 70t63.5 99t22 113.5q0 57 -23.5 112t-73 97.5t-127 68.5t-185.5 26h-88v-389zM551 742h111q161 0 240.5 52.5t79.5 174.5q0 68 -22 115t-65.5 76.5 t-108 43t-149.5 13.5h-86v-475z" />
<glyph unicode="&#x393;" horiz-adv-x="1207" d="M45 0v48l195 32v1114l-195 32v48h1072v-299l-56 -5l-79 214h-437v-1104l240 -32v-48h-740z" />
<glyph unicode="&#x394;" horiz-adv-x="1411" d="M58 0l576 1274h192l533 -1274h-1301zM217 80h788l-398 967z" />
<glyph unicode="&#x395;" horiz-adv-x="1382" d="M62 0v48l195 32v1114l-195 32v48h1202v-299l-56 -5l-78 214h-568v-498h325l59 153h46v-388h-46l-59 153h-325v-393q0 -42 4.5 -66.5t16 -37.5t31 -16.5t50.5 -3.5h483l101 242h60l-29 -329h-1217z" />
<glyph unicode="&#x396;" horiz-adv-x="1416" d="M80 0v127l802 1049h-612l-97 -253h-47v351h1113v-118l-801 -1058h683l110 311l46 -2v-407h-1197z" />
<glyph unicode="&#x397;" horiz-adv-x="1796" d="M47 0v47l195 33v1115l-195 31v48h696v-48l-194 -32v-508h608v508l-194 32v48h696v-48l-195 -32l2 -1114l195 -33v-47h-698v47l194 33v524h-608v-524l194 -33v-47h-696z" />
<glyph unicode="&#x398;" horiz-adv-x="1612" d="M73 611q0 94 26 181.5t74 163.5t115.5 139.5t150 108.5t178.5 70t200 25q158 0 290.5 -50.5t228 -137.5t149 -204.5t53.5 -251.5q0 -105 -29.5 -197t-81 -168.5t-122 -136.5t-153 -101.5t-173.5 -63t-183 -21.5q-160 0 -293 50.5t-228.5 138t-148.5 204.5t-53 251z M404 687q0 -141 28 -259t81.5 -203t131 -132.5t176.5 -47.5q97 0 169 38t120 109t72 172.5t24 229.5q0 135 -29 248.5t-83.5 196t-132 128.5t-174.5 46q-92 0 -163.5 -37.5t-120.5 -106t-74 -165.5t-25 -217zM571 371v536h48l51 -155h270l51 155h48v-536h-48l-51 154h-270 l-51 -154h-48z" />
<glyph unicode="&#x399;" horiz-adv-x="791" d="M45 1226v48h698v-48l-194 -32v-1095l194 -51v-48h-696v48l195 51v1095z" />
<glyph unicode="&#x39a;" horiz-adv-x="1635" d="M47 0v48l195 32v1114l-195 32v48h696v-48l-194 -32v-503l598 503l-164 32v48h507v-48l-187 -32l-537 -416l662 -698l138 -32v-48h-409l-608 656v-576l194 -32v-48h-696z" />
<glyph unicode="&#x39b;" horiz-adv-x="1487" d="M-56 0v48l195 32l540 1194h192l500 -1194l141 -32v-48h-650v49l188 31l-398 967l-390 -967l227 -32v-48h-545z" />
<glyph unicode="&#x39c;" horiz-adv-x="1984" d="M79 0v48l167 32l103 1114l-192 32v48h451l413 -922l419 922h416v-48l-155 -32l60 -1114l171 -32v-48h-680v48l206 32l-44 937l-470 -1017h-59l-477 1029l-41 -949l171 -32v-48h-459z" />
<glyph unicode="&#x39d;" horiz-adv-x="1693" d="M64 0v48l188 32l35 1114l-192 32v50h394l802 -893l-15 811l-207 32v48h489v-48l-150 -32l-54 -1200h-69l-935 1010l36 -924l167 -32v-48h-489z" />
<glyph unicode="&#x39e;" horiz-adv-x="1148" d="M83 0v391h48l51 -154h784l51 154h48v-391h-982zM83 883v391h982v-391h-48l-51 154h-784l-51 -154h-48zM323 401v476h48l51 -125h304l51 125h48v-476h-48l-51 124h-304l-51 -124h-48z" />
<glyph unicode="&#x39f;" horiz-adv-x="1757" d="M76 611q0 94 26 181.5t74 163.5t115.5 139.5t150 108.5t178.5 70t200 25q158 0 290.5 -50.5t228 -137.5t149 -204.5t53.5 -251.5q0 -105 -29.5 -197t-81 -168.5t-122 -136.5t-153 -101.5t-173.5 -63t-183 -21.5q-160 0 -293 50.5t-228.5 138t-148.5 204.5t-53 251z M407 687q0 -141 28 -259t81.5 -203t131 -132.5t176.5 -47.5q97 0 169 38t120 109t72 172.5t24 229.5q0 135 -29 248.5t-83.5 196t-132 128.5t-174.5 46q-92 0 -163.5 -37.5t-120.5 -106t-74 -165.5t-25 -217z" />
<glyph unicode="&#x3a0;" horiz-adv-x="1735" d="M47 0v47l195 33v1115l-195 31v48h1612v-48l-195 -32l2 -1114l195 -33v-47h-698v47l194 33v1114h-608v-1114l194 -33v-47h-696z" />
<glyph unicode="&#x3a1;" horiz-adv-x="1384" d="M49 0v48l195 32v1114l-195 32v48q7 0 36.5 1t73.5 2t98.5 3t111 3.5t110.5 3.5t97.5 3t72.5 2t35 1q151 0 259.5 -23.5t178.5 -66.5t103.5 -102t33.5 -131q0 -85 -28.5 -147t-77 -105t-112.5 -70t-134 -42t-142.5 -20t-138.5 -5h-37q-18 0 -36 1v-502l192 -32v-48h-696z M553 652q22 -4 42.5 -5.5t40.5 -1.5q85 0 151.5 23.5t112.5 65t69.5 98t23.5 122.5q0 51 -20 99t-62 84.5t-106 59t-152 22.5q-23 0 -48 -1.5t-52 -5.5v-560z" />
<glyph unicode="&#x3a3;" horiz-adv-x="1175" d="M45 0v156l497 474l-470 526v118h1043v-351h-47l-97 253h-542l368 -427l-498 -512h702l51 154h48v-391h-1055z" />
<glyph unicode="&#x3a4;" horiz-adv-x="1491" d="M80 920l36 354h1258l36 -354l-50 -2l-118 265h-343v-1103l194 -32v-48h-696v48l195 32v1103h-345l-117 -265z" />
<glyph unicode="&#x3a5;" horiz-adv-x="1520" d="M107 1226v48h676v-48l-178 -32l285 -541l282 541l-192 32v48h474v-48l-143 -32l-372 -610v-504l197 -32v-48h-698v48l194 31v478l-387 637z" />
<glyph unicode="&#x3a6;" horiz-adv-x="1877" d="M74 643q0 91 34 157.5t90.5 114t130.5 77.5t153 46.5t157.5 23t145.5 6.5v126l-197 32v48h698v-48l-194 -32v-126q67 0 145.5 -6.5t157.5 -23t153 -46.5t130.5 -77.5t90.5 -114t34 -157.5t-34 -157.5t-90.5 -113t-130.5 -75.5t-153 -45t-157.5 -21.5t-145.5 -5.5v-126 l194 -51v-48h-696v48l195 51v126q-67 0 -145.5 5.5t-157.5 21.5t-153 45t-130.5 75.5t-90.5 113t-34 157.5zM385 643q0 -89 29.5 -151.5t82.5 -103t126.5 -61t161.5 -24.5v687q-88 -5 -161.5 -26.5t-126.5 -63t-82.5 -105.5t-29.5 -152zM1092 303q88 4 161.5 24.5t126.5 61 t82.5 103t29.5 151.5q0 88 -29.5 152t-82.5 105.5t-126.5 63t-161.5 26.5v-687z" />
<glyph unicode="&#x3a7;" horiz-adv-x="1644" d="M-32 0v48l166 32l550 509l-482 605l-195 32v48h836v-48l-252 -32l307 -390l358 390l-211 32v48h559v-48l-175 -32l-486 -448l526 -666l191 -32v-48h-779v48l210 32l-363 454l-419 -454l177 -32v-48h-518z" />
<glyph unicode="&#x3a8;" horiz-adv-x="1828" d="M-17 1226v48q29 4 54 6t48 2q78 0 145.5 -18.5t117.5 -53.5t78.5 -85t28.5 -112v-210q0 -67 10 -124.5t42 -101t92.5 -70t161.5 -30.5v717l-197 32v48h701v-48l-197 -32v-717q101 4 161.5 30.5t92.5 70t42 101t10 124.5v210q0 62 28.5 112t78.5 85t117.5 53.5t145.5 18.5 q23 0 48 -2t54 -6v-48q-54 0 -86.5 -12t-50.5 -37.5t-24 -64.5t-6 -94v-185q0 -81 -32 -156t-104.5 -133.5t-189 -95t-285.5 -40.5v-309l195 -51v-48h-697v48l195 51v309q-169 4 -285.5 40.5t-189 95t-104.5 133.5t-32 156v185q0 55 -6 94t-24 64.5t-50.5 37.5t-86.5 12z " />
<glyph unicode="&#x3a9;" horiz-adv-x="1659" d="M22 391h48l62 -154h407l-71 61q-151 146 -226.5 293.5t-75.5 278.5q0 105 38.5 186t119.5 136.5t206.5 84t299.5 28.5q159 0 282.5 -26t208.5 -79.5t129 -135.5t44 -194q0 -131 -75.5 -278.5t-226.5 -293.5l-71 -61h407l62 154h48l-57 -391h-640l-16 44l144 246 q23 39 42 90.5t33 111.5t21.5 126t7.5 132q0 59 -7 119t-22.5 116t-41.5 105t-64.5 85t-89.5 57t-118 21q-96 0 -161.5 -43.5t-106 -114t-58 -161t-17.5 -184.5q0 -66 7.5 -132t21.5 -126t33 -111.5t42 -90.5l144 -246l-16 -44h-640z" />
<glyph unicode="&#x3aa;" horiz-adv-x="746" d="M1 1226v48h698v-48l-194 -32v-1095l194 -51v-48h-696v48l195 51v1095zM-16 1507q0 31 11.5 58.5t32 47.5t47.5 31.5t58 11.5q32 0 59.5 -12t48 -32t32.5 -47.5t12 -57.5q0 -31 -12 -58.5t-32.5 -48.5t-48 -33t-59.5 -12q-31 0 -58 11.5t-47.5 32t-32 48.5t-11.5 60z M419 1507q0 31 11.5 58.5t32 47.5t47.5 31.5t58 11.5q32 0 59.5 -12t48 -32t32.5 -47.5t12 -57.5q0 -31 -12 -58.5t-32.5 -48.5t-48 -33t-59.5 -12q-31 0 -58 11.5t-47.5 32t-32 48.5t-11.5 60z" />
<glyph unicode="&#x3ab;" horiz-adv-x="1520" d="M107 1226v48h676v-48l-178 -32l285 -541l282 541l-192 32v48h474v-48l-143 -32l-372 -610v-504l197 -32v-48h-698v48l194 31v478l-387 637zM464 1565q0 31 11.5 58.5t32 47.5t47.5 31.5t58 11.5q32 0 59.5 -12t48 -32t32.5 -47.5t12 -57.5q0 -31 -12 -58.5t-32.5 -48.5 t-48 -33t-59.5 -12q-31 0 -58 11.5t-47.5 32t-32 48.5t-11.5 60zM899 1565q0 31 11.5 58.5t32 47.5t47.5 31.5t58 11.5q32 0 59.5 -12t48 -32t32.5 -47.5t12 -57.5q0 -31 -12 -58.5t-32.5 -48.5t-48 -33t-59.5 -12q-31 0 -58 11.5t-47.5 32t-32 48.5t-11.5 60z" />
<glyph unicode="&#x3ac;" horiz-adv-x="1128" d="M55 391q0 42 9.5 91t30 98t53 94t78.5 79.5t106.5 55.5t137.5 21q43 0 80.5 -12t68.5 -33.5t56 -51t43 -63.5l37 141h257l-172 -566q16 -60 40.5 -89.5t50.5 -29.5q23 0 43 23.5t31 71.5l66 -17v-50q0 -22 -6 -51.5t-21.5 -56.5t-42 -46t-67.5 -19q-39 0 -65.5 15 t-44.5 39.5t-30 55t-21 61.5q-21 -37 -47.5 -69t-63 -56t-85.5 -37.5t-115 -13.5q-96 0 -171.5 38.5t-128 99t-80 134t-27.5 143.5zM305 403q0 -52 9 -114.5t29.5 -116.5t54 -90t83.5 -36q24 0 47 24.5t44 63.5t39 88t32 98t23.5 94t14.5 75q-14 55 -33 106t-43.5 89t-55 61 t-66.5 23q-31 0 -56 -17t-45 -45.5t-34.5 -65.5t-24 -77.5t-14 -82t-4.5 -77.5zM383 1012q-3 11 5 21l200 272q12 16 25.5 20t39.5 4h184q24 0 35 -7.5t11 -17.5q0 -5 -5 -13.5t-19 -16.5l-412 -261q-20 -12 -37 -12q-24 0 -27 11z" />
<glyph unicode="&#x3ad;" horiz-adv-x="865" d="M83 207q0 89 74 139.5t217 73.5q-66 16 -116.5 34.5t-84 42.5t-51 55t-17.5 73q0 52 28 91t78 65.5t119 39.5t151 13q88 0 152 -18.5t110 -50.5l-82 -163q-13 31 -36 58t-51 46.5t-59 30.5t-60 11q-23 0 -43.5 -8t-36 -25.5t-24.5 -45.5t-9 -67q0 -27 8 -51.5t25 -42.5 t43 -29.5t63 -12.5q22 14 41.5 19.5t35.5 5.5q41 0 60 -19.5t19 -42.5t-18 -41.5t-55 -18.5q-21 0 -43 5.5t-48 13.5q-29 0 -52 -15t-39 -39.5t-25 -57t-9 -67.5q0 -39 10 -66.5t27.5 -45t41 -25.5t49.5 -8q32 0 65.5 11t64 31.5t54.5 48.5t36 62l91 -69 q-48 -88 -132 -130.5t-187 -42.5q-85 0 -155.5 13t-121.5 41t-79.5 72t-28.5 106zM295 1012q-3 11 5 21l200 272q12 16 25.5 20t39.5 4h184q24 0 35 -7.5t11 -17.5q0 -5 -5 -13.5t-19 -16.5l-412 -261q-20 -12 -37 -12q-24 0 -27 11z" />
<glyph unicode="&#x3ae;" horiz-adv-x="1209" d="M9 586q0 64 16.5 110.5t47.5 77t75.5 45.5t99.5 15q63 0 120 -26t94 -76q44 23 85.5 42t84.5 32.5t89.5 20.5t102.5 7q58 0 104.5 -17t78.5 -49t49.5 -78t17.5 -103v-1064h-274v956q0 67 -10.5 112.5t-28.5 73.5t-43 40t-54 12q-44 0 -92.5 -21.5t-102.5 -53.5v-642h-274 v574q0 18 -2.5 38.5t-8.5 37.5t-17 28t-28 11q-12 0 -23.5 -4.5t-22 -15.5t-19 -31.5t-13.5 -51.5h-52zM471 1012q-3 11 5 21l200 272q12 16 25.5 20t39.5 4h184q24 0 35 -7.5t11 -17.5q0 -5 -5 -13.5t-19 -16.5l-412 -261q-20 -12 -37 -12q-24 0 -27 11z" />
<glyph unicode="&#x3af;" horiz-adv-x="629" d="M113 220v591h274v-476q0 -91 27.5 -144.5t74.5 -53.5q26 0 56 18t63 56l42 -55q-53 -94 -121.5 -137.5t-146.5 -43.5q-62 0 -111.5 17t-84.5 48.5t-54 77t-19 102.5zM149 1012q-3 11 5 21l200 272q12 16 25.5 20t39.5 4h184q24 0 35 -7.5t11 -17.5q0 -5 -5 -13.5 t-19 -16.5l-412 -261q-20 -12 -37 -12q-24 0 -27 11z" />
<glyph unicode="&#x3b0;" horiz-adv-x="1038" d="M37 586q0 64 16.5 110.5t47.5 77.5t75.5 46t99.5 15q48 0 81.5 -11t56 -29t35 -40.5t18.5 -45t7.5 -42.5t1.5 -34v-339q0 -61 4 -107.5t16 -77.5t35.5 -47t62.5 -16q63 0 106 31t69.5 76t38.5 94t12 85q0 61 -13.5 102t-33.5 70t-43.5 50t-43.5 44t-33.5 51t-13.5 70 q0 19 5.5 39.5t21 37.5t43.5 28t72 11q55 0 88.5 -29t51.5 -73t23.5 -95t5.5 -96q0 -127 -19.5 -231.5t-63.5 -178.5t-115.5 -115t-175.5 -41q-107 0 -175.5 25.5t-108 69.5t-54.5 104.5t-15 131.5v267q0 18 -2.5 38.5t-8.5 37.5t-17 28t-28 11q-12 0 -23.5 -4.5t-22 -15.5 t-19 -31.5t-13.5 -51.5h-52zM148 1129q0 31 11.5 58.5t32 47.5t47.5 31.5t58 11.5q32 0 59.5 -12t48 -32t32.5 -47.5t12 -57.5q0 -31 -12 -58.5t-32.5 -48.5t-48 -33t-59.5 -12q-31 0 -58 11.5t-47.5 32t-32 48.5t-11.5 60zM583 1129q0 31 11.5 58.5t32 47.5t47.5 31.5 t58 11.5q32 0 59.5 -12t48 -32t32.5 -47.5t12 -57.5q0 -31 -12 -58.5t-32.5 -48.5t-48 -33t-59.5 -12q-31 0 -58 11.5t-47.5 32t-32 48.5t-11.5 60zM473 1319q-3 11 5 21l200 272q12 16 25.5 20t39.5 4h184q24 0 35 -7.5t11 -17.5q0 -5 -5 -13.5t-19 -16.5l-412 -261 q-20 -12 -37 -12q-24 0 -27 11z" />
<glyph unicode="&#x3b1;" horiz-adv-x="1149" d="M59 391q0 42 9.5 91t30 98t53 94t78.5 79.5t106.5 55.5t137.5 21q43 0 80.5 -12t68.5 -33.5t56 -51t43 -63.5l37 141h257l-172 -566q16 -60 40.5 -89.5t50.5 -29.5q23 0 43 23.5t31 71.5l66 -17v-50q0 -22 -6 -51.5t-21.5 -56.5t-42 -46t-67.5 -19q-39 0 -65.5 15 t-44.5 39.5t-30 55t-21 61.5q-21 -37 -47.5 -69t-63 -56t-85.5 -37.5t-115 -13.5q-96 0 -171.5 38.5t-128 99t-80 134t-27.5 143.5zM309 403q0 -52 9 -114.5t29.5 -116.5t54 -90t83.5 -36q24 0 47 24.5t44 63.5t39 88t32 98t23.5 94t14.5 75q-14 55 -33 106t-43.5 89t-55 61 t-66.5 23q-31 0 -56 -17t-45 -45.5t-34.5 -65.5t-24 -77.5t-14 -82t-4.5 -77.5z" />
<glyph unicode="&#x3b2;" horiz-adv-x="1096" d="M106 -455v1337q0 133 29 227t82.5 153t130 86.5t172.5 27.5q102 0 180 -25t130 -66t78.5 -94.5t26.5 -110.5q0 -44 -15.5 -87t-46.5 -82.5t-78.5 -73t-110.5 -57.5q84 -21 147 -63.5t105 -97.5t63 -119.5t21 -129.5q0 -75 -27 -145.5t-81 -125.5t-134 -88.5t-186 -33.5 q-46 0 -82.5 10.5t-65 27.5t-49.5 39t-36 46v-555h-253zM352 283q0 -55 21.5 -95.5t53.5 -67t70.5 -39.5t71.5 -13q47 0 85.5 32.5t65.5 84.5t41.5 117t14.5 130q0 41 -6.5 80.5t-19.5 73.5t-33 60.5t-47 43.5q-38 -17 -68.5 -23.5t-55.5 -6.5q-54 0 -79 26t-25 59 q0 18 7.5 35.5t21.5 31.5t35 22.5t48 8.5q40 0 86 -20q24 41 38 102t14 127q0 50 -9.5 98t-30.5 85.5t-54 60t-80 22.5t-78 -32t-49 -88t-25 -131t-7 -161z" />
<glyph unicode="&#x3b3;" horiz-adv-x="1048" d="M30 473q2 35 6.5 75t15 79.5t27 75.5t42 63t61 43.5t83.5 16.5t85.5 -27t67.5 -75t53 -115.5t42 -148.5t34.5 -173t30.5 -189q57 102 87 195.5t45.5 174t23 146t21 112t39.5 71.5t77 25q42 0 70 -7t44.5 -19.5t23.5 -29.5t7 -36q0 -50 -21 -102.5t-55.5 -109t-78.5 -116 t-91 -123t-93 -131.5t-84 -140q9 -51 20 -90t20 -71.5t15.5 -61.5t6.5 -59q0 -51 -14 -89t-36 -63.5t-49 -38t-54 -12.5q-23 0 -44.5 9.5t-38 28t-26.5 47t-10 66.5q0 49 11 89.5t30.5 78.5t45.5 77t55 84q-13 76 -33.5 149t-46 138t-54 119.5t-59 94t-60.5 61.5t-57 22 q-31 0 -59 -27t-51 -89z" />
<glyph unicode="&#x3b4;" horiz-adv-x="1069" d="M78 423q0 82 31.5 156t88.5 130.5t136 89.5t174 33q-85 40 -144 87t-95.5 94t-52.5 90t-16 76q0 49 19.5 84.5t52.5 58t77 33.5t94 11q54 0 111 -12.5t109 -35.5t95 -55.5t70 -73.5l-110 -136q-29 42 -64.5 83t-73 73t-74 52t-65.5 20q-28 0 -45 -9t-26.5 -22.5 t-12.5 -28t-3 -24.5q0 -33 27 -66t72 -67.5t102 -72t116 -80t116 -90.5t102 -104.5t72 -122t27 -141.5q0 -108 -39 -196.5t-104 -151t-149.5 -96.5t-175.5 -34q-84 0 -163.5 29t-141.5 86t-99.5 140.5t-37.5 192.5zM357 388q0 -68 11 -129.5t32 -109t53 -75.5t74 -28 q48 0 82.5 26.5t57.5 71t34 103.5t11 125q0 64 -10.5 127.5t-30 117.5t-49 94t-66.5 57q-51 -3 -88 -36t-62 -86.5t-37 -120.5t-12 -137z" />
<glyph unicode="&#x3b5;" horiz-adv-x="872" d="M88 207q0 89 74 139.5t217 73.5q-66 16 -116.5 34.5t-84 42.5t-51 55t-17.5 73q0 52 28 91t78 65.5t119 39.5t151 13q88 0 152 -18.5t110 -50.5l-82 -163q-13 31 -36 58t-51 46.5t-59 30.5t-60 11q-23 0 -43.5 -8t-36 -25.5t-24.5 -45.5t-9 -67q0 -27 8 -51.5t25 -42.5 t43 -29.5t63 -12.5q22 14 41.5 19.5t35.5 5.5q41 0 60 -19.5t19 -42.5t-18 -41.5t-55 -18.5q-21 0 -43 5.5t-48 13.5q-29 0 -52 -15t-39 -39.5t-25 -57t-9 -67.5q0 -39 10 -66.5t27.5 -45t41 -25.5t49.5 -8q32 0 65.5 11t64 31.5t54.5 48.5t36 62l91 -69 q-48 -88 -132 -130.5t-187 -42.5q-85 0 -155.5 13t-121.5 41t-79.5 72t-28.5 106z" />
<glyph unicode="&#x3b6;" horiz-adv-x="951" d="M80 407q0 78 27 160.5t73 162.5t106 153.5t126 133.5q-53 9 -108.5 21.5t-100.5 31t-74 44.5t-29 63q0 40 31.5 71t85.5 52.5t124.5 34.5t148.5 17l19 -61q-27 -5 -52.5 -12.5t-45 -19.5t-31.5 -29.5t-12 -42.5q0 -18 10 -32t24.5 -25t30 -19.5t27.5 -14.5q18 19 46 47 t62 53t70.5 43t72.5 18q37 0 63 -7.5t42 -20.5t23 -29t7 -34q0 -26 -19.5 -54t-56.5 -51t-91 -38t-124 -15q-6 0 -15.5 -1t-20.5 -2t-21 -1.5t-16 -0.5q-43 -36 -78.5 -83.5t-63.5 -99t-48.5 -105t-34 -102.5t-20 -89.5t-6.5 -67.5q0 -61 28 -96.5t73.5 -55.5t103.5 -30 t119 -19.5t119 -23.5t103.5 -43t73.5 -77.5t28 -126.5q0 -90 -37.5 -156.5t-98.5 -111t-138 -66t-156 -21.5q-86 0 -164.5 24.5t-134.5 72.5l164 200q20 -30 54 -60.5t74 -55t83 -40t82 -15.5q27 0 54.5 9.5t50 27.5t36.5 43.5t14 56.5q0 28 -26.5 46.5t-64 30.5t-79 18.5 t-70.5 9.5q-48 5 -99.5 14.5t-100.5 26.5t-93 45.5t-77 72t-52.5 105.5t-19.5 146z" />
<glyph unicode="&#x3b7;" horiz-adv-x="1240" d="M42 586q0 64 16.5 110.5t47.5 77t75.5 45.5t99.5 15q63 0 120 -26t94 -76q44 23 85.5 42t84.5 32.5t89.5 20.5t102.5 7q58 0 104.5 -17t78.5 -49t49.5 -78t17.5 -103v-1064h-274v956q0 67 -10.5 112.5t-28.5 73.5t-43 40t-54 12q-44 0 -92.5 -21.5t-102.5 -53.5v-642 h-274v574q0 18 -2.5 38.5t-8.5 37.5t-17 28t-28 11q-12 0 -23.5 -4.5t-22 -15.5t-19 -31.5t-13.5 -51.5h-52z" />
<glyph unicode="&#x3b8;" horiz-adv-x="1104" d="M114 680q0 153 26.5 263.5t68.5 186.5t92.5 122t99 70.5t88 32.5t59.5 8q19 0 58.5 -8t87.5 -32.5t99 -69.5t92.5 -120t68 -183.5t26.5 -259.5q0 -169 -26.5 -288t-68 -198.5t-92.5 -125t-99 -68.5t-87.5 -29t-58.5 -6q-20 0 -59.5 6t-88 28.5t-99 67.5t-92.5 123 t-68.5 195.5t-26.5 284.5zM387 740h323q-3 122 -10 225.5t-24 178.5t-47 117.5t-81 42.5q-49 0 -79.5 -44t-48 -120.5t-25 -179.5t-8.5 -220zM389 650q1 -129 5.5 -242t20 -196t45.5 -131t84 -48q62 0 94.5 48t47 131.5t17.5 196t6 241.5h-320z" />
<glyph unicode="&#x3b9;" horiz-adv-x="703" d="M121 220v591h274v-476q0 -91 27.5 -144.5t74.5 -53.5q26 0 56 18t63 56l42 -55q-53 -94 -121.5 -137.5t-146.5 -43.5q-62 0 -111.5 17t-84.5 48.5t-54 77t-19 102.5z" />
<glyph unicode="&#x3ba;" horiz-adv-x="992" d="M5 496q0 28 1.5 64t7.5 73.5t18 73.5t32.5 64t51.5 45.5t75 17.5q55 0 92 -16.5t59.5 -51t31.5 -87.5t9 -125v-102l206 159q10 64 28 107t39.5 69t46 37.5t47.5 11.5q21 0 39.5 -9.5t33 -26t22.5 -40t8 -51.5q0 -29 -9.5 -63t-31.5 -70.5t-56.5 -74t-85.5 -73.5v-99 q0 -29 8 -57t23 -49.5t36 -34.5t48 -13q33 0 55 12t35 30.5t19 42t7 47.5h48q0 -57 -6.5 -116t-26 -107t-55.5 -78.5t-96 -30.5q-58 0 -93 33t-54 83.5t-25.5 111t-6.5 116.5v52l-203 -156q-20 -57 -37 -101.5t-40 -75t-56.5 -47t-85.5 -16.5q-26 0 -44.5 9.5t-30 25.5 t-16.5 37.5t-5 45.5q0 42 25 84.5t60 82t73 73.5t64 58v102q0 31 -9 55t-24 40.5t-33.5 25t-37.5 8.5q-27 0 -48.5 -10.5t-36.5 -28t-23 -40.5t-8 -47h-65z" />
<glyph unicode="&#x3bb;" horiz-adv-x="1067" d="M57 0l444 921l-32 127q-9 35 -28 61.5t-44 42t-53.5 18.5t-56.5 -8.5t-52.5 -39.5t-41.5 -74l-53 1q2 97 19 160.5t43 100t59 51t68 14.5q76 0 138 -93t106 -293l144 -661q10 -47 31.5 -79.5t49 -50t58.5 -18.5t60 14t53 47.5t39 82.5l53 -1q-14 -175 -61.5 -261.5 t-124.5 -86.5q-89 0 -150 77.5t-96 249.5l-46 223l-256 -525h-270z" />
<glyph unicode="&#x3bc;" horiz-adv-x="1351" d="M176 -189v1000h274v-444q0 -69 11 -116.5t30 -76.5t44.5 -42t55.5 -13q42 0 86 21.5t87 56.5v614h274v-485q2 -88 29 -138.5t73 -50.5q26 0 56 18t63 56l42 -55q-53 -94 -121.5 -137.5t-146.5 -43.5q-92 0 -155.5 35.5t-92.5 101.5q-68 -44 -119 -71t-91 -41.5 t-73.5 -19.5t-67.5 -5q-24 0 -46 6t-40.5 15.5t-33 20.5t-23.5 21v-93q0 -52 17.5 -98.5t43 -86t53.5 -70.5t48 -51l-220 -116q-25 42 -41 115t-16 173z" />
<glyph unicode="&#x3bd;" horiz-adv-x="1111" d="M36 538q7 142 64.5 219.5t166.5 77.5q37 0 66.5 -7.5t55 -28.5t49 -58.5t48.5 -96.5l179 -422l69 128q37 68 49 130.5t14.5 116.5t1.5 97.5t9.5 74.5t40.5 48t93 17q68 0 92.5 -22.5t24.5 -59.5q-2 -43 -35.5 -106.5t-82 -138t-102 -153t-95.5 -151.5l-131 -228h-115 l-228 561q-6 15 -16 30t-21 26.5t-24 18.5t-25 7q-17 0 -32.5 -17.5t-24.5 -62.5h-91z" />
<glyph unicode="&#x3be;" horiz-adv-x="944" d="M77 1151q0 32 25.5 63.5t77 58.5t128.5 48.5t180 33.5l27 -66q-47 -2 -86.5 -13t-68 -29.5t-45 -43t-16.5 -53.5q0 -11 0.5 -24t5 -27.5t13 -29t25.5 -26.5q43 53 90.5 87t92.5 54t84.5 28t68.5 8q40 0 65 -19t25 -66q0 -43 -33.5 -73t-84 -49t-109 -28t-108.5 -9 q-12 0 -23 0.5t-22 1.5q-20 -11 -34 -28.5t-22.5 -39.5t-12.5 -47t-4 -50q0 -38 6.5 -72t17.5 -57q18 16 50 33.5t71.5 32.5t83 25t82.5 10q27 0 50.5 -5t41.5 -18t28.5 -35.5t10.5 -57.5q0 -38 -17 -64.5t-45.5 -43.5t-66.5 -25t-80 -8q-29 0 -60 3.5t-60 10t-53.5 16.5 t-40.5 24q-18 -16 -36.5 -43t-33 -57t-23.5 -60.5t-9 -54.5q0 -40 27.5 -60.5t72.5 -31t102 -15t117 -12t117 -22t102 -45t72.5 -81.5t27.5 -131q0 -85 -31 -145t-82 -98t-117 -55.5t-135 -17.5q-52 0 -103.5 9.5t-98 27t-85.5 42.5t-65 56l156 137q25 -42 58.5 -75 t70 -55.5t74 -34.5t71.5 -12q27 0 51 8t41.5 25t27.5 43t10 61q0 38 -27 60t-72 35t-102 20.5t-116 17t-116 24.5t-102 43.5t-72 73t-27 113.5q0 34 13 76.5t38.5 88t64 92t89.5 90.5q-58 35 -85 82t-27 96q0 54 30.5 104.5t89.5 85.5q-109 30 -162.5 73t-53.5 91z" />
<glyph unicode="&#x3bf;" horiz-adv-x="1130" d="M74 401q0 100 38 180.5t105 136.5t159 86.5t200 30.5q107 0 195.5 -29t151.5 -83.5t97.5 -132t34.5 -174.5q0 -99 -37 -180t-104 -138.5t-159 -89.5t-202 -32q-107 0 -195 29.5t-151 85t-98 134t-35 176.5zM341 545q0 -117 18 -209.5t52 -156.5t81.5 -98t107.5 -34 q93 0 137.5 63.5t44.5 184.5q0 109 -18.5 197t-52 149.5t-81.5 94.5t-106 33q-88 0 -135.5 -61t-47.5 -163z" />
<glyph unicode="&#x3c0;" horiz-adv-x="1222" d="M69 490q3 49 15.5 105.5t34.5 104.5t53.5 79.5t71.5 31.5h755q40 0 60 6t25 29h39q0 -45 -11.5 -89t-33.5 -79.5t-55 -57.5t-75 -22h-55v-363q0 -30 7.5 -52.5t20.5 -37t29 -22t33 -7.5q41 0 65 22t35 85h52q0 -128 -64.5 -188t-174.5 -60q-115 0 -176.5 58.5 t-61.5 166.5v398h-216v-167q0 -140 -12 -228.5t-36 -139.5t-59.5 -70t-81.5 -19t-78 33.5t-52 81.5t-29 101.5t-9 93.5l41 13q7 -29 19 -47.5t27 -29t32 -15t35 -4.5q39 0 63 18.5t37.5 55t18 92.5t4.5 131v100h-85q-54 0 -98.5 -27t-59.5 -81h-50z" />
<glyph unicode="&#x3c1;" horiz-adv-x="1156" d="M100 259q0 110 27 214t86.5 184.5t153 129t226.5 48.5q107 0 194 -29t148 -83.5t94 -132t33 -174.5q0 -99 -35.5 -180t-100.5 -138.5t-155.5 -89.5t-200.5 -32q-118 0 -212.5 35.5t-157.5 101.5q11 -54 45.5 -102t90.5 -84.5t133 -57.5t173 -21q78 0 134 -30.5 t91.5 -77.5t52.5 -104.5t17 -112.5h-62q-7 15 -26.5 29.5t-54 25.5t-83.5 18t-114 7q-82 0 -150.5 26.5t-124 72.5t-97 108.5t-69.5 135.5t-42 153t-14 160zM378 545q0 -117 15 -209.5t45 -156.5t74.5 -98t104.5 -34q92 0 132 64t40 184q0 109 -17 197t-48.5 149.5t-78 94.5 t-104.5 33q-44 0 -75 -16t-50.5 -45t-28.5 -70.5t-9 -92.5z" />
<glyph unicode="&#x3c2;" horiz-adv-x="1026" d="M85 399q0 80 27 158.5t80.5 140t132 99.5t180.5 38q57 0 117 -11t115.5 -33.5t103.5 -57.5t82 -82l-197 -200q-31 61 -65.5 104t-70 70t-71.5 39t-71 12q-54 0 -95.5 -15.5t-69.5 -41.5t-42.5 -60t-14.5 -71q0 -30 10 -59.5t30 -57t50.5 -50.5t72.5 -39q49 -19 106 -33.5 t113.5 -30t108.5 -35.5t92 -50.5t64 -75t24 -109.5q0 -84 -36.5 -154.5t-97.5 -121.5t-141.5 -80t-167.5 -29q-77 0 -154.5 24t-149.5 78l155 222q43 -54 84 -90.5t78 -59.5t70 -33t61 -10q30 0 53.5 9.5t40 26t25 37.5t8.5 44q0 60 -31.5 93t-82 52.5t-114 31.5t-127.5 28 q-73 18 -126.5 56t-89 89.5t-52.5 112.5t-17 125z" />
<glyph unicode="&#x3c3;" horiz-adv-x="1273" d="M74 401q0 100 38 180.5t105 136.5t159 86.5t200 30.5q69 0 146 -7.5t153 -7.5q74 0 142.5 14.5t124.5 58.5h54q1 -5 1 -11v-10q0 -39 -15 -82t-41.5 -79t-61.5 -61t-75 -28q25 -44 38 -95.5t13 -110.5q0 -99 -37 -180t-104 -138.5t-159 -89.5t-202 -32q-107 0 -195 29.5 t-151 85t-98 134t-35 176.5zM341 545q0 -117 18 -209.5t52 -156.5t81.5 -98t107.5 -34q93 0 137.5 63.5t44.5 184.5q0 109 -18.5 197t-52 149.5t-81.5 94.5t-106 33q-88 0 -135.5 -61t-47.5 -163z" />
<glyph unicode="&#x3c4;" horiz-adv-x="944" d="M31 490q3 49 15.5 105.5t34.5 104.5t53.5 79.5t71.5 31.5h575q40 0 60 6t25 29h39q0 -45 -11.5 -89t-33.5 -79.5t-55 -57.5t-75 -22h-145v-363q0 -30 7.5 -52.5t20.5 -37t29 -22t33 -7.5q41 0 65 22t35 85h52q0 -128 -64.5 -188t-174.5 -60q-115 0 -176.5 58.5 t-61.5 166.5v398h-111q-54 0 -98.5 -27t-59.5 -81h-50z" />
<glyph unicode="&#x3c5;" horiz-adv-x="1038" d="M37 586q0 64 16.5 110.5t47.5 77.5t75.5 46t99.5 15q48 0 81.5 -11t56 -29t35 -40.5t18.5 -45t7.5 -42.5t1.5 -34v-339q0 -61 4 -107.5t16 -77.5t35.5 -47t62.5 -16q63 0 106 31t69.5 76t38.5 94t12 85q0 61 -13.5 102t-33.5 70t-43.5 50t-43.5 44t-33.5 51t-13.5 70 q0 19 5.5 39.5t21 37.5t43.5 28t72 11q55 0 88.5 -29t51.5 -73t23.5 -95t5.5 -96q0 -127 -19.5 -231.5t-63.5 -178.5t-115.5 -115t-175.5 -41q-107 0 -175.5 25.5t-108 69.5t-54.5 104.5t-15 131.5v267q0 18 -2.5 38.5t-8.5 37.5t-17 28t-28 11q-12 0 -23.5 -4.5t-22 -15.5 t-19 -31.5t-13.5 -51.5h-52z" />
<glyph unicode="&#x3c6;" horiz-adv-x="1410" d="M73 431q0 91 29 166t78 127.5t113 81.5t134 29q95 0 187 -57l-41 -65q-20 5 -37.5 7.5t-33.5 2.5q-84 0 -118.5 -70t-34.5 -214q0 -81 15.5 -150t49.5 -120.5t88.5 -83.5t132.5 -39v244q0 117 17.5 203t47.5 146.5t70 98t85 59t93 29t93 7.5q63 0 119.5 -17.5t99 -59.5 t67.5 -111.5t25 -173.5q0 -125 -33 -216.5t-92.5 -152.5t-140.5 -92t-177 -35v-452h-274v452q-71 0 -140 11.5t-131.5 35.5t-116 60.5t-92 87.5t-60.5 116t-22 145zM909 46q90 13 153 49t102.5 91t57.5 126.5t18 156.5q0 68 -14.5 119t-39 85t-58 51t-72.5 17 q-24 0 -49.5 -17.5t-47.5 -53t-36 -88.5t-14 -123v-413z" />
<glyph unicode="&#x3c7;" horiz-adv-x="1083" d="M70 515q0 64 6 122.5t23.5 102t49 69.5t82.5 26q56 0 89 -16.5t57 -54t44.5 -97t50.5 -144.5l41 -115l209 427h262l-360 -738l83 -228q21 -57 56.5 -88t71.5 -34.5t64.5 20.5t36.5 77l72 -1q0 -73 -6.5 -132t-23.5 -101t-47 -64.5t-77 -22.5q-49 0 -80.5 24.5t-54 64.5 t-39 90.5t-35.5 102.5l-69 193l-231 -475h-265l384 785l-59 165q-21 58 -60.5 92.5t-82 41t-80 -15.5t-55.5 -76h-57z" />
<glyph unicode="&#x3c8;" horiz-adv-x="1375" d="M38 586q0 64 16.5 110.5t47.5 77.5t75.5 46t99.5 15q48 0 81.5 -11t56 -29t35 -40.5t18.5 -45t7.5 -42.5t1.5 -34v-339q0 -50 4 -90.5t20 -70.5t48 -50t88 -29l73 986h87l72 -986q59 9 103 27.5t75.5 42.5t51.5 51.5t31.5 55.5t16 54t4.5 47q0 61 -13.5 102t-33.5 70 t-43.5 50t-43.5 44t-33.5 51t-13.5 70q0 19 5.5 39.5t21 37.5t43.5 28t72 11q55 0 88.5 -29t51.5 -73t23.5 -95t5.5 -96q0 -114 -17.5 -210t-63 -169t-124 -119.5t-201.5 -61.5l26 -360h-295l26 357q-132 9 -212.5 37.5t-124 72t-57.5 99t-14 119.5v267q0 18 -2.5 38.5 t-8.5 37.5t-17 28t-28 11q-12 0 -23.5 -4.5t-22 -15.5t-19 -31.5t-13.5 -51.5h-52z" />
<glyph unicode="&#x3c9;" horiz-adv-x="1332" d="M59 372q0 79 18.5 155.5t67.5 137.5t135 101t222 48l14 -55q-47 -14 -82.5 -38t-58.5 -66t-34.5 -105.5t-11.5 -156.5q0 -164 32.5 -255.5t88.5 -91.5q35 0 67 18.5t57.5 47.5t42 64.5t21.5 70.5q-14 31 -28.5 71t-26.5 82.5t-19.5 84.5t-7.5 77q0 23 8.5 44.5t23.5 38.5 t35 27.5t43 10.5q25 0 45 -10.5t34.5 -28t22.5 -39t8 -43.5q0 -35 -7.5 -77t-19.5 -84.5t-26.5 -82.5t-28.5 -71q4 -35 21 -70.5t42.5 -64.5t57.5 -47.5t67 -18.5q28 0 50 23.5t38 68t24.5 109t8.5 146.5q0 93 -11.5 156.5t-35 105.5t-58.5 66t-82 38l14 55q136 -8 222 -48 t135 -101t67.5 -137.5t18.5 -155.5q0 -72 -21.5 -143t-66.5 -127.5t-115.5 -91.5t-167.5 -35q-48 0 -86 15.5t-67 39.5t-49.5 52t-33.5 54q-13 -26 -33.5 -54t-49.5 -52t-67 -39.5t-86 -15.5q-98 0 -168 35t-115 91.5t-66.5 127.5t-21.5 143z" />
<glyph unicode="&#x3ca;" horiz-adv-x="703" d="M121 220v591h274v-476q0 -91 27.5 -144.5t74.5 -53.5q26 0 56 18t63 56l42 -55q-53 -94 -121.5 -137.5t-146.5 -43.5q-62 0 -111.5 17t-84.5 48.5t-54 77t-19 102.5zM-100 1129q0 31 11.5 58.5t32 47.5t47.5 31.5t58 11.5q32 0 59.5 -12t48 -32t32.5 -47.5t12 -57.5 q0 -31 -12 -58.5t-32.5 -48.5t-48 -33t-59.5 -12q-31 0 -58 11.5t-47.5 32t-32 48.5t-11.5 60zM335 1129q0 31 11.5 58.5t32 47.5t47.5 31.5t58 11.5q32 0 59.5 -12t48 -32t32.5 -47.5t12 -57.5q0 -31 -12 -58.5t-32.5 -48.5t-48 -33t-59.5 -12q-31 0 -58 11.5t-47.5 32 t-32 48.5t-11.5 60z" />
<glyph unicode="&#x3cb;" horiz-adv-x="1038" d="M37 586q0 64 16.5 110.5t47.5 77.5t75.5 46t99.5 15q48 0 81.5 -11t56 -29t35 -40.5t18.5 -45t7.5 -42.5t1.5 -34v-339q0 -61 4 -107.5t16 -77.5t35.5 -47t62.5 -16q63 0 106 31t69.5 76t38.5 94t12 85q0 61 -13.5 102t-33.5 70t-43.5 50t-43.5 44t-33.5 51t-13.5 70 q0 19 5.5 39.5t21 37.5t43.5 28t72 11q55 0 88.5 -29t51.5 -73t23.5 -95t5.5 -96q0 -127 -19.5 -231.5t-63.5 -178.5t-115.5 -115t-175.5 -41q-107 0 -175.5 25.5t-108 69.5t-54.5 104.5t-15 131.5v267q0 18 -2.5 38.5t-8.5 37.5t-17 28t-28 11q-12 0 -23.5 -4.5t-22 -15.5 t-19 -31.5t-13.5 -51.5h-52zM165 1129q0 31 11.5 58.5t32 47.5t47.5 31.5t58 11.5q32 0 59.5 -12t48 -32t32.5 -47.5t12 -57.5q0 -31 -12 -58.5t-32.5 -48.5t-48 -33t-59.5 -12q-31 0 -58 11.5t-47.5 32t-32 48.5t-11.5 60zM600 1129q0 31 11.5 58.5t32 47.5t47.5 31.5 t58 11.5q32 0 59.5 -12t48 -32t32.5 -47.5t12 -57.5q0 -31 -12 -58.5t-32.5 -48.5t-48 -33t-59.5 -12q-31 0 -58 11.5t-47.5 32t-32 48.5t-11.5 60z" />
<glyph unicode="&#x3cc;" horiz-adv-x="1130" d="M74 401q0 100 38 180.5t105 136.5t159 86.5t200 30.5q107 0 195.5 -29t151.5 -83.5t97.5 -132t34.5 -174.5q0 -99 -37 -180t-104 -138.5t-159 -89.5t-202 -32q-107 0 -195 29.5t-151 85t-98 134t-35 176.5zM341 545q0 -117 18 -209.5t52 -156.5t81.5 -98t107.5 -34 q93 0 137.5 63.5t44.5 184.5q0 109 -18.5 197t-52 149.5t-81.5 94.5t-106 33q-88 0 -135.5 -61t-47.5 -163zM395 1012q-3 11 5 21l200 272q12 16 25.5 20t39.5 4h184q24 0 35 -7.5t11 -17.5q0 -5 -5 -13.5t-19 -16.5l-412 -261q-20 -12 -37 -12q-24 0 -27 11z" />
<glyph unicode="&#x3cd;" horiz-adv-x="1033" d="M-17 586q0 64 16.5 110.5t47.5 77.5t75.5 46t99.5 15q48 0 81.5 -11t56 -29t35 -40.5t18.5 -45t7.5 -42.5t1.5 -34v-339q0 -61 4 -107.5t16 -77.5t35.5 -47t62.5 -16q63 0 106 31t69.5 76t38.5 94t12 85q0 61 -13.5 102t-33.5 70t-43.5 50t-43.5 44t-33.5 51t-13.5 70 q0 19 5.5 39.5t21 37.5t43.5 28t72 11q55 0 88.5 -29t51.5 -73t23.5 -95t5.5 -96q0 -127 -19.5 -231.5t-63.5 -178.5t-115.5 -115t-175.5 -41q-107 0 -175.5 25.5t-108 69.5t-54.5 104.5t-15 131.5v267q0 18 -2.5 38.5t-8.5 37.5t-17 28t-28 11q-12 0 -23.5 -4.5t-22 -15.5 t-19 -31.5t-13.5 -51.5h-52zM326 1012q-3 11 5 21l200 272q12 16 25.5 20t39.5 4h184q24 0 35 -7.5t11 -17.5q0 -5 -5 -13.5t-19 -16.5l-412 -261q-20 -12 -37 -12q-24 0 -27 11z" />
<glyph unicode="&#x3ce;" horiz-adv-x="1332" d="M59 372q0 79 18.5 155.5t67.5 137.5t135 101t222 48l14 -55q-47 -14 -82.5 -38t-58.5 -66t-34.5 -105.5t-11.5 -156.5q0 -164 32.5 -255.5t88.5 -91.5q35 0 67 18.5t57.5 47.5t42 64.5t21.5 70.5q-14 31 -28.5 71t-26.5 82.5t-19.5 84.5t-7.5 77q0 23 8.5 44.5t23.5 38.5 t35 27.5t43 10.5q25 0 45 -10.5t34.5 -28t22.5 -39t8 -43.5q0 -35 -7.5 -77t-19.5 -84.5t-26.5 -82.5t-28.5 -71q4 -35 21 -70.5t42.5 -64.5t57.5 -47.5t67 -18.5q28 0 50 23.5t38 68t24.5 109t8.5 146.5q0 93 -11.5 156.5t-35 105.5t-58.5 66t-82 38l14 55q136 -8 222 -48 t135 -101t67.5 -137.5t18.5 -155.5q0 -72 -21.5 -143t-66.5 -127.5t-115.5 -91.5t-167.5 -35q-48 0 -86 15.5t-67 39.5t-49.5 52t-33.5 54q-13 -26 -33.5 -54t-49.5 -52t-67 -39.5t-86 -15.5q-98 0 -168 35t-115 91.5t-66.5 127.5t-21.5 143zM585 1012q-3 11 5 21l200 272 q12 16 25.5 20t39.5 4h184q24 0 35 -7.5t11 -17.5q0 -5 -5 -13.5t-19 -16.5l-412 -261q-20 -12 -37 -12q-24 0 -27 11z" />
<glyph unicode="&#x401;" horiz-adv-x="1382" d="M62 0v48l195 32v1114l-195 32v48h1202v-299l-56 -5l-78 214h-568v-498h325l59 153h46v-388h-46l-59 153h-325v-393q0 -42 4.5 -66.5t16 -37.5t31 -16.5t50.5 -3.5h483l101 242h60l-29 -329h-1217zM429 1507q0 31 11.5 58.5t32 47.5t47.5 31.5t58 11.5q32 0 59.5 -12 t48 -32t32.5 -47.5t12 -57.5q0 -31 -12 -58.5t-32.5 -48.5t-48 -33t-59.5 -12q-31 0 -58 11.5t-47.5 32t-32 48.5t-11.5 60zM864 1507q0 31 11.5 58.5t32 47.5t47.5 31.5t58 11.5q32 0 59.5 -12t48 -32t32.5 -47.5t12 -57.5q0 -31 -12 -58.5t-32.5 -48.5t-48 -33t-59.5 -12 q-31 0 -58 11.5t-47.5 32t-32 48.5t-11.5 60z" />
<glyph unicode="&#x402;" horiz-adv-x="1832" d="M80 920l36 354h1362l36 -354l-50 -2l-118 265h-599v-512q31 18 75.5 34t98 28t113.5 19.5t120 7.5q81 0 158 -15.5t137 -53t96.5 -98.5t36.5 -153v-420l-376 -497l-33 80q38 46 58.5 99.5t29.5 109t10.5 111.5t1.5 107v390q2 64 -18 108t-53.5 71.5t-78.5 40t-96 12.5 q-70 0 -143.5 -20.5t-136.5 -54.5v-497l194 -32v-48h-696v48l195 32v1103h-193l-117 -265z" />
<glyph unicode="&#x403;" horiz-adv-x="1207" d="M45 0v48l195 32v1114l-195 32v48h1072v-299l-56 -5l-79 214h-437v-1104l240 -32v-48h-740zM511 1422q-3 11 5 21l200 272q12 16 25.5 20t39.5 4h184q24 0 35 -7.5t11 -17.5q0 -5 -5 -13.5t-19 -16.5l-412 -261q-20 -12 -37 -12q-24 0 -27 11z" />
<glyph unicode="&#x404;" horiz-adv-x="1504" d="M1432.01 247l-157.98 109q-28.9961 -76 -74.9902 -134q-45.9951 -58 -99.4883 -97.5t-108.986 -59.5q-55.4941 -20 -104.487 -20q-92.9893 0 -166.979 40q-73.9912 40 -125.485 113q-51.4932 73 -80.9902 176.5q-29.4961 103.5 -34.4951 229.5h710.913v82h-711.913 q2.99902 137 28.4961 236.5t71.9912 164t113.486 95.5t153.981 31q60.9922 0 129.984 -14.5q68.9912 -14.5 130.983 -48.5t108.987 -89q46.9941 -55 64.9912 -136l80.9902 22l-27.9961 259q-139.983 38 -265.968 65.5t-225.973 27.5q-153.98 0 -280.466 -48.5 q-126.484 -48.5 -215.474 -133.5t-137.982 -199.5q-48.9941 -114.5 -48.9941 -247.5q0 -93 25.4961 -181q25.4971 -88 71.9912 -166q46.4951 -78 110.487 -143.5t141.482 -112.5t165.979 -73.5t182.478 -26.5q193.977 0 340.459 67.5t235.471 212.5z" />
<glyph unicode="&#x405;" horiz-adv-x="1188" d="M104 89v289h51q48 -152 155.5 -231.5t264.5 -79.5q52 0 95 14.5t74 40.5t48 63t17 81q0 136 -310 295q-78 39 -147 76t-120 81t-81 100t-30 134q0 76 31.5 139.5t88 109t134.5 70.5t172 25q93 0 167 -10.5t131 -27t99 -38.5t70 -44v-245l-44 -2q-20 67 -59 118t-90 85.5 t-112.5 52t-126.5 17.5q-47 0 -85 -10.5t-65 -29.5t-42 -46t-15 -60q0 -35 13.5 -63.5t45.5 -56t85 -58t131 -69.5q96 -48 176.5 -92t138.5 -95t90 -116t32 -155q0 -80 -35.5 -148.5t-97 -119t-146 -79.5t-181.5 -29t-172 7.5t-136 22t-112.5 35.5t-102.5 49z" />
<glyph unicode="&#x406;" horiz-adv-x="791" d="M45 1226v48h698v-48l-194 -32v-1095l194 -51v-48h-696v48l195 51v1095z" />
<glyph unicode="&#x407;" horiz-adv-x="791" d="M45 1226v48h698v-48l-194 -32v-1095l194 -51v-48h-696v48l195 51v1095zM29 1507q0 31 11.5 58.5t32 47.5t47.5 31.5t58 11.5q32 0 59.5 -12t48 -32t32.5 -47.5t12 -57.5q0 -31 -12 -58.5t-32.5 -48.5t-48 -33t-59.5 -12q-31 0 -58 11.5t-47.5 32t-32 48.5t-11.5 60z M464 1507q0 31 11.5 58.5t32 47.5t47.5 31.5t58 11.5q32 0 59.5 -12t48 -32t32.5 -47.5t12 -57.5q0 -31 -12 -58.5t-32.5 -48.5t-48 -33t-59.5 -12q-31 0 -58 11.5t-47.5 32t-32 48.5t-11.5 60z" />
<glyph unicode="&#x408;" horiz-adv-x="780" d="M45 1226v48h698v-48l-194 -31v-1175l-376 -497l-33 80q38 46 58.5 99.5t29.5 109t10.5 111.5t1.5 107v1164z" />
<glyph unicode="&#x409;" horiz-adv-x="2056" d="M7 178q81 19 155 56.5t132 87t95.5 109t45.5 122.5l76 634l-213 39v48h1192v-48h-1l-192 -32v-462q84 0 168.5 -3.5t163 -15.5t147 -36t119 -65t79.5 -102t29 -148t-32.5 -154.5t-102 -113.5t-186 -70t-250.5 -24h-639v48l195 32v1114h-387l-75 -675q-11 -93 -32.5 -171 t-57.5 -144t-86.5 -122.5t-118.5 -107.5zM1297 250q0 -50 9 -84t28 -55t48 -30t69 -9q60 0 112.5 21.5t91 59.5t60.5 91.5t22 117.5q0 86 -32.5 144t-91 93.5t-139.5 52t-177 19.5v-421z" />
<glyph unicode="&#x40a;" horiz-adv-x="2226" d="M47 0v47l195 33v1115l-195 31v48h696v-48l-194 -32v-508h608v508l-194 32v48h696v-48l-192 -32v-462q84 0 168.5 -3.5t163 -15.5t147 -36t119 -65t79.5 -102t29 -148t-32.5 -154.5t-102 -113.5t-171.5 -69.5t-217 -24.5h-687v48l194 32v524h-608v-524l194 -33v-47h-696z M1467 250q0 -50 9 -84t28 -55t48 -30t69 -9q60 0 112.5 21.5t91 59.5t60.5 91.5t22 117.5q0 86 -32.5 144t-91 93.5t-139.5 52t-177 19.5v-421z" />
<glyph unicode="&#x40b;" horiz-adv-x="1832" d="M80 920l36 354h1362l36 -354l-50 -2l-118 265h-599v-512q31 18 75.5 34t98 28t113.5 19.5t120 7.5q81 0 158 -15.5t137 -53t96.5 -98.5t36.5 -153v-361l195 -31v-48h-696v48l194 32v340q0 64 -20 108t-53.5 71.5t-78.5 40t-96 12.5q-70 0 -143.5 -20.5t-136.5 -54.5v-497 l194 -32v-48h-696v48l195 32v1103h-193l-117 -265z" />
<glyph unicode="&#x40c;" horiz-adv-x="1578" d="M83 1226v48h701v-48l-197 -32v-480q82 10 136 39.5t89.5 71.5t57.5 92t40 101t37.5 98.5t49 84.5t75 59.5t116.5 22.5q17 0 38.5 -1.5t49.5 -5.5l29 -213q-57 29 -100.5 29.5t-78.5 -18.5t-65 -54t-59 -76t-60 -84.5t-69 -81t-85.5 -63.5t-109.5 -33q110 -5 186.5 -33.5 t129.5 -71.5t88.5 -97t64 -110.5t55.5 -111.5t63 -99t86.5 -74t126.5 -37v-48h-468q-15 55 -31.5 124t-39.5 141t-53.5 140.5t-73 121.5t-98 84t-127.5 29v-541l195 -51v-48h-697v48l195 51v1095zM715 1422q-3 11 5 21l200 272q12 16 25.5 20t39.5 4h184q24 0 35 -7.5 t11 -17.5q0 -5 -5 -13.5t-19 -16.5l-412 -261q-20 -12 -37 -12q-24 0 -27 11z" />
<glyph unicode="&#x40e;" horiz-adv-x="1421" d="M-46 1226v48h676v-48l-178 -32l287 -564l272 566l-184 30v48h474v-48l-143 -32l-486 -913q-39 -74 -84.5 -127t-104 -87t-133.5 -50t-175 -16v260q158 -80 252 -77.5t130 74.5l28 56l-493 880zM289 1654l271 73q9 -54 25.5 -101t40.5 -82.5t56 -55.5t71 -20t71 20 t56 55.5t40.5 82.5t25.5 101l271 -73q-50 -116 -166 -178.5t-298 -62.5t-298 62.5t-166 178.5z" />
<glyph unicode="&#x40f;" horiz-adv-x="1735" d="M47 0v47l195 33v1115l-195 31v48h696v-48l-194 -32v-1107h608v1107l-194 32v48h696v-48l-195 -32v-1114l197 -33v-49l-644 2l-112 -370h-103l-112 370h-643z" />
<glyph unicode="&#x410;" horiz-adv-x="1487" d="M-56 0v48l195 32l540 1194h192l500 -1194l141 -32v-48h-650v49l188 31l-160 387h-473l-155 -387l227 -32v-48h-545zM448 542h411l-207 505z" />
</font>
</defs>
</svg>
