<?xml version="1.0" standalone="no"?>
<!DOCTYPE svg PUBLIC "-//W3C//DTD SVG 1.1//EN" "http://www.w3.org/Graphics/SVG/1.1/DTD/svg11.dtd" >
<svg xmlns="http://www.w3.org/2000/svg">
<metadata>
This is a custom SVG webfont generated by Font Squirrel.
Copyright   : Copyright c 2006 A Gurskas O Aleknaviien L Grumadien P Skirmantas M Strockis V Tumasonis
Foundry     : A Gurskas O Aleknaviien L Grumadien P Skirmantas M Strockis V Tumasonis
</metadata>
<defs>
<font id="PalemonasBoldItalic" horiz-adv-x="0" >
<font-face units-per-em="2048" ascent="1638" descent="-410" />
<missing-glyph horiz-adv-x="576" />
<glyph unicode="A&#x300;" horiz-adv-x="1487" d="M-56 0l12 48l201 32l816 1194h192l224 -1194l134 -32l-11 -48h-650l11 49l195 31l-71 387h-473l-244 -387l220 -32l-11 -48h-545zM573 542h411l-91 505zM660 1714q0 10 11 17.5t35 7.5h184q26 0 39.5 -4t25.5 -20l200 -272q2 -4 4 -7.5t2 -7.5q0 -7 -6.5 -12t-21.5 -5 q-18 0 -37 12l-412 261q-14 9 -19 16.5t-5 13.5z" />
<glyph unicode="A&#x301;" horiz-adv-x="1487" d="M-56 0l12 48l201 32l816 1194h192l224 -1194l134 -32l-11 -48h-650l11 49l195 31l-71 387h-473l-244 -387l220 -32l-11 -48h-545zM573 542h411l-91 505zM1016 1428q0 7 6 15l200 272q12 16 25.5 20t39.5 4h184q24 0 35 -7.5t11 -17.5q0 -6 -5 -13.5t-19 -16.5l-412 -261 q-20 -12 -37 -12q-16 0 -22 5t-6 12z" />
<glyph unicode="A&#x303;" horiz-adv-x="1487" d="M-56 0l12 48l201 32l816 1194h192l224 -1194l134 -32l-11 -48h-650l11 49l195 31l-71 387h-473l-244 -387l220 -32l-11 -48h-545zM573 542h411l-91 505zM846 1415q4 55 17.5 102t35.5 81t52.5 53t69.5 19t72.5 -16.5t63 -36t56.5 -36t53 -16.5q42 0 66 22.5t28 82.5h36 q-2 -54 -13.5 -100.5t-32.5 -80t-51.5 -53t-69.5 -19.5q-40 0 -71 16.5t-59 36t-56 36t-61 16.5q-38 0 -66.5 -24t-33.5 -83h-36z" />
<glyph unicode="E&#x300;" horiz-adv-x="1382" d="M-64 0l11 48l202 32l257 1114l-187 32l11 48h1202l-69 -299l-58 -5l-28 214h-568l-115 -498h325l94 153h46l-89 -388h-46l-24 153h-325l-91 -393q-9 -42 -10.5 -66.5t7 -37.5t27.5 -16.5t50 -3.5h483l156 242h60l-104 -329h-1217zM582 1714q0 10 11 17.5t35 7.5h184 q26 0 39.5 -4t25.5 -20l200 -272q2 -4 4 -7.5t2 -7.5q0 -7 -6.5 -12t-21.5 -5q-18 0 -37 12l-412 261q-14 9 -19 16.5t-5 13.5z" />
<glyph unicode="E&#x301;" horiz-adv-x="1382" d="M-64 0l11 48l202 32l257 1114l-187 32l11 48h1202l-69 -299l-58 -5l-28 214h-568l-115 -498h325l94 153h46l-89 -388h-46l-24 153h-325l-91 -393q-9 -42 -10.5 -66.5t7 -37.5t27.5 -16.5t50 -3.5h483l156 242h60l-104 -329h-1217zM832 1428q0 7 6 15l200 272 q12 16 25.5 20t39.5 4h184q24 0 35 -7.5t11 -17.5q0 -6 -5 -13.5t-19 -16.5l-412 -261q-20 -12 -37 -12q-16 0 -22 5t-6 12z" />
<glyph unicode="I&#x300;" horiz-adv-x="791" d="M-79 0l11 48l206 51l253 1095l-189 32l11 48h698l-11 -48l-202 -32l-253 -1095l183 -51l-11 -48h-696zM222 1714q0 10 11 17.5t35 7.5h184q26 0 39.5 -4t25.5 -20l200 -272q2 -4 4 -7.5t2 -7.5q0 -7 -6.5 -12t-21.5 -5q-18 0 -37 12l-412 261q-14 9 -19 16.5t-5 13.5z " />
<glyph unicode="I&#x301;" horiz-adv-x="791" d="M-79 0l11 48l206 51l253 1095l-189 32l11 48h698l-11 -48l-202 -32l-253 -1095l183 -51l-11 -48h-696zM476 1428q0 7 6 15l200 272q12 16 25.5 20t39.5 4h184q24 0 35 -7.5t11 -17.5q0 -6 -5 -13.5t-19 -16.5l-412 -261q-20 -12 -37 -12q-16 0 -22 5t-6 12z" />
<glyph unicode="N&#x303;" horiz-adv-x="1796" d="M93 0l11 48l195 32l292 1114l-184 32l11 50h394l596 -893l172 811l-199 32l11 48h489l-11 -48l-158 -32l-331 -1200h-69l-702 1010l-177 -924l160 -32l-11 -48h-489zM906 1415q4 55 17.5 102t35.5 81t52.5 53t69.5 19t72.5 -16.5t63 -36t56.5 -36t53 -16.5q42 0 66 22.5 t28 82.5h36q-2 -54 -13.5 -100.5t-32.5 -80t-51.5 -53t-69.5 -19.5q-40 0 -71 16.5t-59 36t-56 36t-61 16.5q-38 0 -66.5 -24t-33.5 -83h-36z" />
<glyph unicode="O&#x300;" horiz-adv-x="1757" d="M197 470q0 116 36 222.5t99 198.5t150 167.5t189 129t215.5 82.5t229.5 29q137 0 246 -36.5t185.5 -103t117 -160t40.5 -206.5q0 -115 -38 -220.5t-104 -196.5t-155 -165t-191 -126.5t-211.5 -81t-216.5 -28.5q-138 0 -248 37t-186.5 102.5t-117 156.5t-40.5 199z M530 450q0 -190 76.5 -293.5t225.5 -103.5q94 0 171 36t137 96t103.5 138.5t72 163t42 170t13.5 158.5q0 88 -19.5 161t-58 125.5t-95 82t-131.5 29.5q-83 0 -155 -32.5t-131.5 -88t-106.5 -130t-79 -159.5t-48.5 -175.5t-16.5 -177.5zM634 1714q0 10 11 17.5t35 7.5h184 q26 0 39.5 -4t25.5 -20l200 -272q2 -4 4 -7.5t2 -7.5q0 -7 -6.5 -12t-21.5 -5q-18 0 -37 12l-412 261q-14 9 -19 16.5t-5 13.5z" />
<glyph unicode="O&#x301;" horiz-adv-x="1757" d="M197 470q0 116 36 222.5t99 198.5t150 167.5t189 129t215.5 82.5t229.5 29q137 0 246 -36.5t185.5 -103t117 -160t40.5 -206.5q0 -115 -38 -220.5t-104 -196.5t-155 -165t-191 -126.5t-211.5 -81t-216.5 -28.5q-138 0 -248 37t-186.5 102.5t-117 156.5t-40.5 199z M530 450q0 -190 76.5 -293.5t225.5 -103.5q94 0 171 36t137 96t103.5 138.5t72 163t42 170t13.5 158.5q0 88 -19.5 161t-58 125.5t-95 82t-131.5 29.5q-83 0 -155 -32.5t-131.5 -88t-106.5 -130t-79 -159.5t-48.5 -175.5t-16.5 -177.5zM1018 1428q0 7 6 15l200 272 q12 16 25.5 20t39.5 4h184q24 0 35 -7.5t11 -17.5q0 -6 -5 -13.5t-19 -16.5l-412 -261q-20 -12 -37 -12q-16 0 -22 5t-6 12z" />
<glyph unicode="O&#x303;" horiz-adv-x="1757" d="M197 470q0 116 36 222.5t99 198.5t150 167.5t189 129t215.5 82.5t229.5 29q137 0 246 -36.5t185.5 -103t117 -160t40.5 -206.5q0 -115 -38 -220.5t-104 -196.5t-155 -165t-191 -126.5t-211.5 -81t-216.5 -28.5q-138 0 -248 37t-186.5 102.5t-117 156.5t-40.5 199z M530 450q0 -190 76.5 -293.5t225.5 -103.5q94 0 171 36t137 96t103.5 138.5t72 163t42 170t13.5 158.5q0 88 -19.5 161t-58 125.5t-95 82t-131.5 29.5q-83 0 -155 -32.5t-131.5 -88t-106.5 -130t-79 -159.5t-48.5 -175.5t-16.5 -177.5zM885 1415q4 55 17.5 102t35.5 81 t52.5 53t69.5 19t72.5 -16.5t63 -36t56.5 -36t53 -16.5q42 0 66 22.5t28 82.5h36q-2 -54 -13.5 -100.5t-32.5 -80t-51.5 -53t-69.5 -19.5q-40 0 -71 16.5t-59 36t-56 36t-61 16.5q-38 0 -66.5 -24t-33.5 -83h-36z" />
<glyph unicode="U&#x300;" horiz-adv-x="1663" d="M245 1226l11 48h690l-11 -48l-203 -32l-158 -687q-9 -38 -14.5 -78t-5.5 -81q0 -54 12.5 -105t44 -90.5t85 -63t135.5 -23.5q102 0 181 26t137.5 79.5t99.5 135.5t67 193l164 694l-201 32l11 48h507l-11 -48l-181 -32l-198 -668q-33 -109 -63.5 -192.5t-67.5 -145 t-84.5 -103t-112.5 -66.5t-151.5 -35.5t-203.5 -10.5q-123 0 -212 29.5t-146.5 81t-85.5 121.5t-28 151q0 61 15 127l164 711zM666 1714q0 10 11 17.5t35 7.5h184q26 0 39.5 -4t25.5 -20l200 -272q2 -4 4 -7.5t2 -7.5q0 -7 -6.5 -12t-21.5 -5q-18 0 -37 12l-412 261 q-14 9 -19 16.5t-5 13.5z" />
<glyph unicode="U&#x301;" horiz-adv-x="1663" d="M245 1226l11 48h690l-11 -48l-203 -32l-158 -687q-9 -38 -14.5 -78t-5.5 -81q0 -54 12.5 -105t44 -90.5t85 -63t135.5 -23.5q102 0 181 26t137.5 79.5t99.5 135.5t67 193l164 694l-201 32l11 48h507l-11 -48l-181 -32l-198 -668q-33 -109 -63.5 -192.5t-67.5 -145 t-84.5 -103t-112.5 -66.5t-151.5 -35.5t-203.5 -10.5q-123 0 -212 29.5t-146.5 81t-85.5 121.5t-28 151q0 61 15 127l164 711zM1038 1428q0 7 6 15l200 272q12 16 25.5 20t39.5 4h184q24 0 35 -7.5t11 -17.5q0 -6 -5 -13.5t-19 -16.5l-412 -261q-20 -12 -37 -12q-16 0 -22 5 t-6 12z" />
<glyph unicode="Y&#x301;" horiz-adv-x="1436" d="M296 1226l11 48h676l-11 -48l-186 -32l160 -541l407 541l-184 32l11 48h474l-11 -48l-151 -32l-513 -610l-116 -504l190 -32l-11 -48h-698l11 48l201 31l110 478l-240 637zM976 1428q0 7 6 15l200 272q12 16 25.5 20t39.5 4h184q24 0 35 -7.5t11 -17.5q0 -6 -5 -13.5 t-19 -16.5l-412 -261q-20 -12 -37 -12q-16 0 -22 5t-6 12z" />
<glyph unicode="a&#x300;" horiz-adv-x="1083" d="M234 1304q0 10 11 17.5t35 7.5h184q26 0 39.5 -4t25.5 -20l200 -272q2 -4 4 -7.5t2 -7.5q0 -7 -6.5 -12t-21.5 -5q-18 0 -37 12l-412 261q-14 9 -19 16.5t-5 13.5zM37 245q0 62 15.5 129.5t44.5 132.5t71.5 123t96 102t118 70t138.5 26q43 0 83.5 -12t76.5 -38l8 33h248 l-135 -571l-11 -48q-7 -28 -7 -50q0 -33 22 -33q10 0 26.5 12.5t36 31t40.5 40t39 40.5l38 -34q-45 -50 -89.5 -91t-91.5 -70.5t-97.5 -46t-105.5 -16.5q-39 0 -60.5 18t-21.5 56q0 9 1 19t4 21l5 22q-85 -71 -151 -103.5t-121 -32.5q-57 0 -99 21t-69 57.5t-40 86 t-13 105.5zM259 286q0 -79 32 -127t86 -48q32 0 74.5 22t99.5 73l112 493q-61 55 -120 55q-39 0 -75 -21.5t-67.5 -57.5t-57.5 -83.5t-44.5 -99.5t-29 -105t-10.5 -101z" />
<glyph unicode="a&#x301;" horiz-adv-x="1083" d="M526 1018q0 7 6 15l200 272q12 16 25.5 20t39.5 4h184q24 0 35 -7.5t11 -17.5q0 -6 -5 -13.5t-19 -16.5l-412 -261q-20 -12 -37 -12q-16 0 -22 5t-6 12zM37 245q0 62 15.5 129.5t44.5 132.5t71.5 123t96 102t118 70t138.5 26q43 0 83.5 -12t76.5 -38l8 33h248l-135 -571 l-11 -48q-7 -28 -7 -50q0 -33 22 -33q10 0 26.5 12.5t36 31t40.5 40t39 40.5l38 -34q-45 -50 -89.5 -91t-91.5 -70.5t-97.5 -46t-105.5 -16.5q-39 0 -60.5 18t-21.5 56q0 9 1 19t4 21l5 22q-85 -71 -151 -103.5t-121 -32.5q-57 0 -99 21t-69 57.5t-40 86t-13 105.5zM259 286 q0 -79 32 -127t86 -48q32 0 74.5 22t99.5 73l112 493q-61 55 -120 55q-39 0 -75 -21.5t-67.5 -57.5t-57.5 -83.5t-44.5 -99.5t-29 -105t-10.5 -101z" />
<glyph unicode="a&#x303;" horiz-adv-x="1080" d="M366 1005q4 55 17.5 102t35.5 81t52.5 53t69.5 19t72.5 -16.5t63 -36t56.5 -36t53 -16.5q42 0 66 22.5t28 82.5h36q-2 -54 -13.5 -100.5t-32.5 -80t-51.5 -53t-69.5 -19.5q-40 0 -71 16.5t-59 36t-56 36t-61 16.5q-38 0 -66.5 -24t-33.5 -83h-36zM37 245q0 62 15.5 129.5 t44.5 132.5t71.5 123t96 102t118 70t138.5 26q43 0 83.5 -12t76.5 -38l8 33h248l-135 -571l-11 -48q-7 -28 -7 -50q0 -33 22 -33q10 0 26.5 12.5t36 31t40.5 40t39 40.5l38 -34q-45 -50 -89.5 -91t-91.5 -70.5t-97.5 -46t-105.5 -16.5q-39 0 -60.5 18t-21.5 56q0 9 1 19 t4 21l5 22q-85 -71 -151 -103.5t-121 -32.5q-57 0 -99 21t-69 57.5t-40 86t-13 105.5zM259 286q0 -79 32 -127t86 -48q32 0 74.5 22t99.5 73l112 493q-61 55 -120 55q-39 0 -75 -21.5t-67.5 -57.5t-57.5 -83.5t-44.5 -99.5t-29 -105t-10.5 -101z" />
<glyph unicode="e&#x300;" horiz-adv-x="773" d="M36 1304q0 10 11 17.5t35 7.5h184q26 0 39.5 -4t25.5 -20l200 -272q2 -4 4 -7.5t2 -7.5q0 -7 -6.5 -12t-21.5 -5q-18 0 -37 12l-412 261q-14 9 -19 16.5t-5 13.5zM-22 237v2q0 70 17 141t49.5 136.5t79.5 123t107 99.5t131.5 66.5t153.5 24.5q87 0 139 -41.5t52 -110.5 q0 -50 -27.5 -93.5t-84.5 -81t-145.5 -69.5t-209.5 -60q-10 -47 -10 -103q0 -84 39.5 -127t117.5 -43q91 0 236 86l28 -34q-67 -47 -125 -80.5t-110.5 -54.5t-100 -31t-92.5 -10q-243 0 -245 260zM254 430q55 12 99.5 36t76 57t49 74t17.5 88q0 72 -62 72q-51 0 -94.5 -79 t-85.5 -248z" />
<glyph unicode="e&#x301;" horiz-adv-x="815" d="M19 237v2q0 70 17 141t49.5 136.5t79.5 123t107 99.5t131.5 66.5t153.5 24.5q87 0 139 -41.5t52 -110.5q0 -50 -27.5 -93.5t-84.5 -81t-145.5 -69.5t-209.5 -60q-10 -47 -10 -103q0 -84 39.5 -127t117.5 -43q91 0 236 86l28 -34q-67 -47 -125 -80.5t-110.5 -54.5 t-100 -31t-92.5 -10q-243 0 -245 260zM295 430q55 12 99.5 36t76 57t49 74t17.5 88q0 72 -62 72q-51 0 -94.5 -79t-85.5 -248zM438 1018q0 7 6 15l200 272q12 16 25.5 20t39.5 4h184q24 0 35 -7.5t11 -17.5q0 -6 -5 -13.5t-19 -16.5l-412 -261q-20 -12 -37 -12q-16 0 -22 5 t-6 12z" />
<glyph unicode="n&#x303;" horiz-adv-x="1100" d="M38 0l172 738h-123v55l386 38l-28 -126q45 27 103 50t115 39.5t107.5 26t80.5 9.5q92 0 129 -21.5t37 -69.5q0 -26 -7 -55l-113 -492q-7 -28 -7 -50q0 -33 22 -33q10 0 26.5 12.5t36 31t40.5 40t39 40.5l38 -34q-45 -50 -89.5 -91t-91.5 -70.5t-97.5 -46t-105.5 -16.5 q-39 0 -60.5 18t-21.5 56q0 9 1 19t4 21l114 490q6 24 6 44q0 45 -25.5 63.5t-67.5 18.5q-50 0 -112.5 -22t-119.5 -56l-148 -627h-240zM420 1005q4 55 17.5 102t35.5 81t52.5 53t69.5 19t72.5 -16.5t63 -36t56.5 -36t53 -16.5q42 0 66 22.5t28 82.5h36q-2 -54 -13.5 -100.5 t-32.5 -80t-51.5 -53t-69.5 -19.5q-40 0 -71 16.5t-59 36t-56 36t-61 16.5q-38 0 -66.5 -24t-33.5 -83h-36z" />
<glyph unicode="o&#x300;" horiz-adv-x="1029" d="M52 267q0 126 43 230t120 178t183 114.5t232 40.5q73 0 131.5 -20.5t100 -57t64 -88.5t22.5 -115q0 -122 -41.5 -227t-117 -182t-182.5 -121t-238 -44q-77 0 -136 21.5t-99.5 60t-61 92t-20.5 118.5zM288 262q0 -106 36.5 -161t107.5 -55q53 0 94 24t71.5 64t51.5 92 t34 108.5t18.5 113t5.5 105.5q0 103 -36 159t-107 56q-54 0 -95.5 -27t-72.5 -70.5t-51.5 -98.5t-33 -111t-18 -108.5t-5.5 -90.5zM138 1304q0 10 11 17.5t35 7.5h184q26 0 39.5 -4t25.5 -20l200 -272q2 -4 4 -7.5t2 -7.5q0 -7 -6.5 -12t-21.5 -5q-18 0 -37 12l-412 261 q-14 9 -19 16.5t-5 13.5z" />
<glyph unicode="o&#x301;" horiz-adv-x="1029" d="M52 267q0 126 43 230t120 178t183 114.5t232 40.5q73 0 131.5 -20.5t100 -57t64 -88.5t22.5 -115q0 -122 -41.5 -227t-117 -182t-182.5 -121t-238 -44q-77 0 -136 21.5t-99.5 60t-61 92t-20.5 118.5zM288 262q0 -106 36.5 -161t107.5 -55q53 0 94 24t71.5 64t51.5 92 t34 108.5t18.5 113t5.5 105.5q0 103 -36 159t-107 56q-54 0 -95.5 -27t-72.5 -70.5t-51.5 -98.5t-33 -111t-18 -108.5t-5.5 -90.5zM494 1018q0 7 6 15l200 272q12 16 25.5 20t39.5 4h184q24 0 35 -7.5t11 -17.5q0 -6 -5 -13.5t-19 -16.5l-412 -261q-20 -12 -37 -12 q-16 0 -22 5t-6 12z" />
<glyph unicode="o&#x303;" horiz-adv-x="1029" d="M52 267q0 126 43 230t120 178t183 114.5t232 40.5q73 0 131.5 -20.5t100 -57t64 -88.5t22.5 -115q0 -122 -41.5 -227t-117 -182t-182.5 -121t-238 -44q-77 0 -136 21.5t-99.5 60t-61 92t-20.5 118.5zM288 262q0 -106 36.5 -161t107.5 -55q53 0 94 24t71.5 64t51.5 92 t34 108.5t18.5 113t5.5 105.5q0 103 -36 159t-107 56q-54 0 -95.5 -27t-72.5 -70.5t-51.5 -98.5t-33 -111t-18 -108.5t-5.5 -90.5zM385 1005q4 55 17.5 102t35.5 81t52.5 53t69.5 19t72.5 -16.5t63 -36t56.5 -36t53 -16.5q42 0 66 22.5t28 82.5h36q-2 -54 -13.5 -100.5 t-32.5 -80t-51.5 -53t-69.5 -19.5q-40 0 -71 16.5t-59 36t-56 36t-61 16.5q-38 0 -66.5 -24t-33.5 -83h-36z" />
<glyph unicode="u&#x300;" horiz-adv-x="1121" d="M223 1304q0 10 11 17.5t35 7.5h184q26 0 39.5 -4t25.5 -20l200 -272q2 -4 4 -7.5t2 -7.5q0 -7 -6.5 -12t-21.5 -5q-18 0 -37 12l-412 261q-14 9 -19 16.5t-5 13.5zM75 139q0 9 1.5 18t3.5 19l132 562h-123v55l386 37l-146 -620q-7 -29 -0.5 -49t22 -32.5t37.5 -18 t48 -5.5q45 0 103 19t113 48l150 639h242l-145 -619q-7 -28 -7 -50q0 -33 22 -33q10 0 26.5 12.5t36 31t40.5 40t39 40.5l38 -34q-45 -50 -89.5 -91t-91.5 -70.5t-97.5 -46t-105.5 -16.5q-39 0 -60.5 18t-21.5 56q0 9 1 19t5 24q-44 -23 -92 -43t-96.5 -35t-94.5 -23.5 t-85 -8.5q-43 0 -78 12t-60 33.5t-39 50t-14 61.5z" />
<glyph unicode="u&#x301;" horiz-adv-x="1121" d="M557 1018q0 7 6 15l200 272q12 16 25.5 20t39.5 4h184q24 0 35 -7.5t11 -17.5q0 -6 -5 -13.5t-19 -16.5l-412 -261q-20 -12 -37 -12q-16 0 -22 5t-6 12zM75 139q0 9 1.5 18t3.5 19l132 562h-123v55l386 37l-146 -620q-7 -29 -0.5 -49t22 -32.5t37.5 -18t48 -5.5 q45 0 103 19t113 48l150 639h242l-145 -619q-7 -28 -7 -50q0 -33 22 -33q10 0 26.5 12.5t36 31t40.5 40t39 40.5l38 -34q-45 -50 -89.5 -91t-91.5 -70.5t-97.5 -46t-105.5 -16.5q-39 0 -60.5 18t-21.5 56q0 9 1 19t5 24q-44 -23 -92 -43t-96.5 -35t-94.5 -23.5t-85 -8.5 q-43 0 -78 12t-60 33.5t-39 50t-14 61.5z" />
<glyph unicode="y&#x301;" horiz-adv-x="952" d="M445 1018q0 7 6 15l200 272q12 16 25.5 20t39.5 4h184q24 0 35 -7.5t11 -17.5q0 -6 -5 -13.5t-19 -16.5l-412 -261q-20 -12 -37 -12q-16 0 -22 5t-6 12zM-83 -247q31 -19 71 -19q39 0 84 17t93.5 47t98.5 71t99 89l-245 780h-134v55l364 37l192 -672q46 60 85 119.5 t67.5 114.5t44.5 101.5t16 81.5q0 19 -7 36.5t-18.5 31.5t-26 25t-30.5 17l144 145q69 0 105 -31t36 -82q0 -30 -15.5 -73.5t-44 -97.5t-68 -116t-87 -128.5t-101 -135t-110.5 -135.5q-86 -101 -171.5 -193t-165 -162t-150 -111.5t-126.5 -41.5v230z" />
<glyph unicode="I&#x303;" horiz-adv-x="791" d="M-79 0l11 48l206 51l253 1095l-189 32l11 48h698l-11 -48l-202 -32l-253 -1095l183 -51l-11 -48h-696zM329 1415q4 55 17.5 102t35.5 81t52.5 53t69.5 19t72.5 -16.5t63 -36t56.5 -36t53 -16.5q42 0 66 22.5t28 82.5h36q-2 -54 -13.5 -100.5t-32.5 -80t-51.5 -53 t-69.5 -19.5q-40 0 -71 16.5t-59 36t-56 36t-61 16.5q-38 0 -66.5 -24t-33.5 -83h-36z" />
<glyph unicode="U&#x303;" horiz-adv-x="1663" d="M245 1226l11 48h690l-11 -48l-203 -32l-158 -687q-9 -38 -14.5 -78t-5.5 -81q0 -54 12.5 -105t44 -90.5t85 -63t135.5 -23.5q102 0 181 26t137.5 79.5t99.5 135.5t67 193l164 694l-201 32l11 48h507l-11 -48l-181 -32l-198 -668q-33 -109 -63.5 -192.5t-67.5 -145 t-84.5 -103t-112.5 -66.5t-151.5 -35.5t-203.5 -10.5q-123 0 -212 29.5t-146.5 81t-85.5 121.5t-28 151q0 61 15 127l164 711zM904 1415q4 55 17.5 102t35.5 81t52.5 53t69.5 19t72.5 -16.5t63 -36t56.5 -36t53 -16.5q42 0 66 22.5t28 82.5h36q-2 -54 -13.5 -100.5 t-32.5 -80t-51.5 -53t-69.5 -19.5q-40 0 -71 16.5t-59 36t-56 36t-61 16.5q-38 0 -66.5 -24t-33.5 -83h-36z" />
<glyph unicode="u&#x303;" horiz-adv-x="1201" d="M70 139q0 9 1.5 18t3.5 19l132 562h-123v55l386 37l-146 -620q-7 -29 -0.5 -49t22 -32.5t37.5 -18t48 -5.5q45 0 103 19t113 48l150 639h242l-145 -619q-7 -28 -7 -50q0 -33 22 -33q10 0 26.5 12.5t36 31t40.5 40t39 40.5l38 -34q-45 -50 -89.5 -91t-91.5 -70.5 t-97.5 -46t-105.5 -16.5q-39 0 -60.5 18t-21.5 56q0 9 1 19t5 24q-44 -23 -92 -43t-96.5 -35t-94.5 -23.5t-85 -8.5q-43 0 -78 12t-60 33.5t-39 50t-14 61.5zM423 1005q4 55 17.5 102t35.5 81t52.5 53t69.5 19t72.5 -16.5t63 -36t56.5 -36t53 -16.5q42 0 66 22.5t28 82.5h36 q-2 -54 -13.5 -100.5t-32.5 -80t-51.5 -53t-69.5 -19.5q-40 0 -71 16.5t-59 36t-56 36t-61 16.5q-38 0 -66.5 -24t-33.5 -83h-36z" />
<glyph unicode="E&#x303;" horiz-adv-x="1382" d="M-64 0l11 48l202 32l257 1114l-187 32l11 48h1202l-69 -299l-58 -5l-28 214h-568l-115 -498h325l94 153h46l-89 -388h-46l-24 153h-325l-91 -393q-9 -42 -10.5 -66.5t7 -37.5t27.5 -16.5t50 -3.5h483l156 242h60l-104 -329h-1217zM687 1415q4 55 17.5 102t35.5 81 t52.5 53t69.5 19t72.5 -16.5t63 -36t56.5 -36t53 -16.5q42 0 66 22.5t28 82.5h36q-2 -54 -13.5 -100.5t-32.5 -80t-51.5 -53t-69.5 -19.5q-40 0 -71 16.5t-59 36t-56 36t-61 16.5q-38 0 -66.5 -24t-33.5 -83h-36z" />
<glyph unicode="e&#x303;" horiz-adv-x="815" d="M19 237v2q0 70 17 141t49.5 136.5t79.5 123t107 99.5t131.5 66.5t153.5 24.5q87 0 139 -41.5t52 -110.5q0 -50 -27.5 -93.5t-84.5 -81t-145.5 -69.5t-209.5 -60q-10 -47 -10 -103q0 -84 39.5 -127t117.5 -43q91 0 236 86l28 -34q-67 -47 -125 -80.5t-110.5 -54.5 t-100 -31t-92.5 -10q-243 0 -245 260zM295 430q55 12 99.5 36t76 57t49 74t17.5 88q0 72 -62 72q-51 0 -94.5 -79t-85.5 -248zM268 1005q4 55 17.5 102t35.5 81t52.5 53t69.5 19t72.5 -16.5t63 -36t56.5 -36t53 -16.5q42 0 66 22.5t28 82.5h36q-2 -54 -13.5 -100.5 t-32.5 -80t-51.5 -53t-69.5 -19.5q-40 0 -71 16.5t-59 36t-56 36t-61 16.5q-38 0 -66.5 -24t-33.5 -83h-36z" />
<glyph unicode="Y&#x303;" horiz-adv-x="1436" d="M296 1226l11 48h676l-11 -48l-186 -32l160 -541l407 541l-184 32l11 48h474l-11 -48l-151 -32l-513 -610l-116 -504l190 -32l-11 -48h-698l11 48l201 31l110 478l-240 637zM824 1415q4 55 17.5 102t35.5 81t52.5 53t69.5 19t72.5 -16.5t63 -36t56.5 -36t53 -16.5 q42 0 66 22.5t28 82.5h36q-2 -54 -13.5 -100.5t-32.5 -80t-51.5 -53t-69.5 -19.5q-40 0 -71 16.5t-59 36t-56 36t-61 16.5q-38 0 -66.5 -24t-33.5 -83h-36z" />
<glyph unicode="y&#x303;" horiz-adv-x="954" d="M-83 -247q31 -19 71 -19q39 0 84 17t93.5 47t98.5 71t99 89l-245 780h-134v55l364 37l192 -672q46 60 85 119.5t67.5 114.5t44.5 101.5t16 81.5q0 19 -7 36.5t-18.5 31.5t-26 25t-30.5 17l144 145q69 0 105 -31t36 -82q0 -30 -15.5 -73.5t-44 -97.5t-68 -116t-87 -128.5 t-101 -135t-110.5 -135.5q-86 -101 -171.5 -193t-165 -162t-150 -111.5t-126.5 -41.5v230zM298 1005q4 55 17.5 102t35.5 81t52.5 53t69.5 19t72.5 -16.5t63 -36t56.5 -36t53 -16.5q42 0 66 22.5t28 82.5h36q-2 -54 -13.5 -100.5t-32.5 -80t-51.5 -53t-69.5 -19.5 q-40 0 -71 16.5t-59 36t-56 36t-61 16.5q-38 0 -66.5 -24t-33.5 -83h-36z" />
<glyph unicode="&#x104;&#x301;" horiz-adv-x="830" d="M0 830h830v-830h-830v830z" />
<glyph unicode="&#x105;&#x301;" horiz-adv-x="1081" d="M487 1018q0 7 6 15l200 272q12 16 25.5 20t39.5 4h184q24 0 35 -7.5t11 -17.5q0 -6 -5 -13.5t-19 -16.5l-412 -261q-20 -12 -37 -12q-16 0 -22 5t-6 12zM37 245q0 62 15.5 129.5t44.5 132.5t71.5 123t96 102t118 70t138.5 26q43 0 83.5 -12t76.5 -38l8 33h248l-146 -619 q-7 -28 -7 -50q0 -33 22 -33q10 0 26.5 12.5t36 31t40.5 40t39 40.5l38 -34q-35 -46 -80.5 -82.5t-94 -69.5t-95 -65t-83 -70t-59 -84.5t-22.5 -108.5q0 -26 9.5 -44.5t25.5 -29.5t37.5 -16t45.5 -5q53 0 102 16l5 -44q-72 -23 -133 -32t-110 -9q-90 0 -134 38.5t-44 97.5 q0 53 18.5 95.5t50.5 77t74.5 62t91.5 49.5q-34 3 -52.5 21t-18.5 53q0 9 1.5 21.5t8.5 40.5q-85 -71 -151 -103.5t-121 -32.5q-57 0 -99 21t-69 57.5t-40 86t-13 105.5zM259 286q0 -79 32 -127t86 -48q32 0 74.5 22t99.5 73l112 493q-61 55 -120 55q-39 0 -75 -21.5 t-67.5 -57.5t-57.5 -83.5t-44.5 -99.5t-29 -105t-10.5 -101z" />
<glyph unicode="&#x104;&#x303;" horiz-adv-x="1487" d="M-131 0l12 48l201 32l816 1194h192l224 -1194q34 -8 67 -16t67 -16l-11 -48h-148q-75 0 -130.5 -23t-92.5 -58t-55 -78.5t-18 -83.5q0 -27 8 -51t24 -42.5t39.5 -29t55.5 -10.5q55 0 102 16l5 -44q-72 -23 -133 -32t-110 -9q-90 0 -134 38.5t-44 97.5q0 45 16.5 77 t40.5 59t50.5 52.5t46.5 57.5t29 74.5t-2 103.5l-65 352h-473l-244 -387l220 -32l-11 -48h-545zM498 542h411l-91 505zM749 1415q4 55 17.5 102t35.5 81t52.5 53t69.5 19t72.5 -16.5t63 -36t56.5 -36t53 -16.5q42 0 66 22.5t28 82.5h36q-2 -54 -13.5 -100.5t-32.5 -80 t-51.5 -53t-69.5 -19.5q-40 0 -71 16.5t-59 36t-56 36t-61 16.5q-38 0 -66.5 -24t-33.5 -83h-36z" />
<glyph unicode="&#x105;&#x303;" horiz-adv-x="1084" d="M364 1005q4 55 17.5 102t35.5 81t52.5 53t69.5 19t72.5 -16.5t63 -36t56.5 -36t53 -16.5q42 0 66 22.5t28 82.5h36q-2 -54 -13.5 -100.5t-32.5 -80t-51.5 -53t-69.5 -19.5q-40 0 -71 16.5t-59 36t-56 36t-61 16.5q-38 0 -66.5 -24t-33.5 -83h-36zM37 245q0 62 15.5 129.5 t44.5 132.5t71.5 123t96 102t118 70t138.5 26q43 0 83.5 -12t76.5 -38l8 33h248l-146 -619q-7 -28 -7 -50q0 -33 22 -33q10 0 26.5 12.5t36 31t40.5 40t39 40.5l38 -34q-35 -46 -80.5 -82.5t-94 -69.5t-95 -65t-83 -70t-59 -84.5t-22.5 -108.5q0 -26 9.5 -44.5t25.5 -29.5 t37.5 -16t45.5 -5q53 0 102 16l5 -44q-72 -23 -133 -32t-110 -9q-90 0 -134 38.5t-44 97.5q0 53 18.5 95.5t50.5 77t74.5 62t91.5 49.5q-34 3 -52.5 21t-18.5 53q0 9 1.5 21.5t8.5 40.5q-85 -71 -151 -103.5t-121 -32.5q-57 0 -99 21t-69 57.5t-40 86t-13 105.5zM259 286 q0 -79 32 -127t86 -48q32 0 74.5 22t99.5 73l112 493q-61 55 -120 55q-39 0 -75 -21.5t-67.5 -57.5t-57.5 -83.5t-44.5 -99.5t-29 -105t-10.5 -101z" />
<glyph unicode="&#x118;&#x301;" horiz-adv-x="1382" d="M-64 0l11 48l202 32l257 1114l-187 32l11 48h1202l-69 -299l-58 -5l-28 214h-568l-115 -498h325l94 153h46l-89 -388h-46l-24 153h-325l-91 -393q-6 -25 -8.5 -43t-2.5 -30q0 -34 20 -42.5t65 -8.5h483l156 242h60l-104 -329h-241q-76 0 -135.5 -25.5t-100.5 -64 t-62.5 -84.5t-21.5 -88q0 -48 30.5 -81t93.5 -33q54 0 102 16l5 -44q-72 -23 -133 -32t-110 -9q-90 0 -134 38.5t-44 97.5q0 61 24 108.5t64.5 84.5t93.5 65t112 51h-760zM805 1428q0 7 6 15l200 272q12 16 25.5 20t39.5 4h184q24 0 35 -7.5t11 -17.5q0 -6 -5 -13.5 t-19 -16.5l-412 -261q-20 -12 -37 -12q-16 0 -22 5t-6 12z" />
<glyph unicode="&#x119;&#x301;" horiz-adv-x="776" d="M407 1018q0 7 6 15l200 272q12 16 25.5 20t39.5 4h184q24 0 35 -7.5t11 -17.5q0 -6 -5 -13.5t-19 -16.5l-412 -261q-20 -12 -37 -12q-16 0 -22 5t-6 12zM-22 -309q0 53 18.5 96t51 78t76 62.5t93.5 49.5q-231 6 -233 260v2q0 70 17 141t49.5 136.5t79.5 123t107 99.5 t131.5 66.5t153.5 24.5q87 0 139 -41.5t52 -110.5q0 -50 -27.5 -93.5t-84.5 -81t-145.5 -69.5t-209.5 -60q-10 -47 -10 -103q0 -84 39.5 -127t117.5 -43q91 0 236 86l28 -34q-45 -38 -98.5 -66.5t-107 -54t-103.5 -52.5t-89 -62.5t-62 -83t-23 -115.5q0 -26 9.5 -44.5 t25.5 -29.5t37.5 -16t45.5 -5q51 0 102 16l5 -44q-72 -23 -133 -32t-110 -9q-90 0 -134 38.5t-44 97.5zM260 430q55 12 99.5 36t76 57t49 74t17.5 88q0 72 -62 72q-51 0 -94.5 -79t-85.5 -248z" />
<glyph unicode="&#x118;&#x303;" horiz-adv-x="1382" d="M-64 0l11 48l202 32l257 1114l-187 32l11 48h1202l-69 -299l-58 -5l-28 214h-568l-115 -498h325l94 153h46l-89 -388h-46l-24 153h-325l-91 -393q-6 -25 -8.5 -43t-2.5 -30q0 -34 20 -42.5t65 -8.5h483l156 242h60l-104 -329h-241q-76 0 -135.5 -25.5t-100.5 -64 t-62.5 -84.5t-21.5 -88q0 -48 30.5 -81t93.5 -33q54 0 102 16l5 -44q-72 -23 -133 -32t-110 -9q-90 0 -134 38.5t-44 97.5q0 61 24 108.5t64.5 84.5t93.5 65t112 51h-760zM687 1415q4 55 17.5 102t35.5 81t52.5 53t69.5 19t72.5 -16.5t63 -36t56.5 -36t53 -16.5 q42 0 66 22.5t28 82.5h36q-2 -54 -13.5 -100.5t-32.5 -80t-51.5 -53t-69.5 -19.5q-40 0 -71 16.5t-59 36t-56 36t-61 16.5q-38 0 -66.5 -24t-33.5 -83h-36z" />
<glyph unicode="&#x119;&#x303;" horiz-adv-x="774" d="M-22 -309q0 53 18.5 96t51 78t76 62.5t93.5 49.5q-231 6 -233 260v2q0 70 17 141t49.5 136.5t79.5 123t107 99.5t131.5 66.5t153.5 24.5q87 0 139 -41.5t52 -110.5q0 -50 -27.5 -93.5t-84.5 -81t-145.5 -69.5t-209.5 -60q-10 -47 -10 -103q0 -84 39.5 -127t117.5 -43 q91 0 236 86l28 -34q-45 -38 -98.5 -66.5t-107 -54t-103.5 -52.5t-89 -62.5t-62 -83t-23 -115.5q0 -26 9.5 -44.5t25.5 -29.5t37.5 -16t45.5 -5q51 0 102 16l5 -44q-72 -23 -133 -32t-110 -9q-90 0 -134 38.5t-44 97.5zM260 430q55 12 99.5 36t76 57t49 74t17.5 88 q0 72 -62 72q-51 0 -94.5 -79t-85.5 -248zM238 1005q4 55 17.5 102t35.5 81t52.5 53t69.5 19t72.5 -16.5t63 -36t56.5 -36t53 -16.5q42 0 66 22.5t28 82.5h36q-2 -54 -13.5 -100.5t-32.5 -80t-51.5 -53t-69.5 -19.5q-40 0 -71 16.5t-59 36t-56 36t-61 16.5q-38 0 -66.5 -24 t-33.5 -83h-36z" />
<glyph unicode="&#x12e;&#x301;" horiz-adv-x="791" d="M-79 0l11 48l206 51l253 1095l-189 32l11 48h698l-11 -48l-202 -32l-253 -1095l183 -51l-11 -48h-105q-79 0 -137 -29t-96 -72t-56.5 -92t-18.5 -88q0 -26 9.5 -44.5t25.5 -29.5t37.5 -16t45.5 -5q54 0 102 16l5 -44q-72 -23 -133 -32t-110 -9q-90 0 -134 38.5t-44 97.5 q0 61 24 108.5t64.5 84.5t93.5 65t112 51h-381zM535 1428q0 7 6 15l200 272q12 16 25.5 20t39.5 4h184q24 0 35 -7.5t11 -17.5q0 -6 -5 -13.5t-19 -16.5l-412 -261q-20 -12 -37 -12q-16 0 -22 5t-6 12z" />
<glyph unicode="&#x12e;&#x303;" horiz-adv-x="791" d="M-79 0l11 48l206 51l253 1095l-189 32l11 48h698l-11 -48l-202 -32l-253 -1095l183 -51l-11 -48h-105q-79 0 -137 -29t-96 -72t-56.5 -92t-18.5 -88q0 -26 9.5 -44.5t25.5 -29.5t37.5 -16t45.5 -5q54 0 102 16l5 -44q-72 -23 -133 -32t-110 -9q-90 0 -134 38.5t-44 97.5 q0 61 24 108.5t64.5 84.5t93.5 65t112 51h-381zM340 1415q4 55 17.5 102t35.5 81t52.5 53t69.5 19t72.5 -16.5t63 -36t56.5 -36t53 -16.5q42 0 66 22.5t28 82.5h36q-2 -54 -13.5 -100.5t-32.5 -80t-51.5 -53t-69.5 -19.5q-40 0 -71 16.5t-59 36t-56 36t-61 16.5 q-38 0 -66.5 -24t-33.5 -83h-36z" />
<glyph unicode="J&#x303;" horiz-adv-x="780" d="M48 -397q49 46 81.5 99.5t54.5 109t36 111.5t26 107l269 1164l-187 32l11 48h698l-11 -48l-202 -31l-271 -1175l-491 -497zM465 1415q4 55 17.5 102t35.5 81t52.5 53t69.5 19t72.5 -16.5t63 -36t56.5 -36t53 -16.5q42 0 66 22.5t28 82.5h36q-2 -54 -13.5 -100.5 t-32.5 -80t-51.5 -53t-69.5 -19.5q-40 0 -71 16.5t-59 36t-56 36t-61 16.5q-38 0 -66.5 -24t-33.5 -83h-36z" />
<glyph unicode="L&#x303;" horiz-adv-x="1382" d="M101 0l11 48l202 32l257 1114l-187 32l11 48h696l-11 -48l-202 -32l-255 -1107h444l221 271h70l-152 -358h-1105zM526 1415q4 55 17.5 102t35.5 81t52.5 53t69.5 19t72.5 -16.5t63 -36t56.5 -36t53 -16.5q42 0 66 22.5t28 82.5h36q-2 -54 -13.5 -100.5t-32.5 -80 t-51.5 -53t-69.5 -19.5q-40 0 -71 16.5t-59 36t-56 36t-61 16.5q-38 0 -66.5 -24t-33.5 -83h-36z" />
<glyph unicode="l&#x303;" horiz-adv-x="584" d="M-2 49q0 9 1 19t4 21l263 1137h-141v48l415 55l-271 -1137q-7 -28 -7 -50q0 -33 22 -33q10 0 26.5 12.5t36 31t40.5 40t39 40.5l38 -34q-45 -50 -89.5 -91t-91.5 -70.5t-97.5 -46t-105.5 -16.5q-39 0 -60.5 18t-21.5 56zM167 1481q4 55 17.5 102t35.5 81t52.5 53t69.5 19 t72.5 -16.5t63 -36t56.5 -36t53 -16.5q42 0 66 22.5t28 82.5h36q-2 -54 -13.5 -100.5t-32.5 -80t-51.5 -53t-69.5 -19.5q-40 0 -71 16.5t-59 36t-56 36t-61 16.5q-38 0 -66.5 -24t-33.5 -83h-36z" />
<glyph unicode="M&#x303;" horiz-adv-x="1984" d="M79 0l11 48l174 32l360 1114l-184 32l11 48h451l200 -922l632 922h416l-11 -48l-163 -32l-197 -1114l164 -32l-11 -48h-680l11 48l213 32l172 937l-704 -1017h-59l-240 1029l-260 -949l164 -32l-11 -48h-459zM1102 1415q4 55 17.5 102t35.5 81t52.5 53t69.5 19 t72.5 -16.5t63 -36t56.5 -36t53 -16.5q42 0 66 22.5t28 82.5h36q-2 -54 -13.5 -100.5t-32.5 -80t-51.5 -53t-69.5 -19.5q-40 0 -71 16.5t-59 36t-56 36t-61 16.5q-38 0 -66.5 -24t-33.5 -83h-36z" />
<glyph unicode="m&#x303;" horiz-adv-x="1606" d="M38 0l172 738h-123v55l386 38l-28 -126q45 27 103 50t115 39.5t107.5 26t80.5 9.5q92 0 129 -21.5t37 -69.5q0 -17 -3 -35q45 27 103 50t116 40t108.5 26.5t80.5 9.5q92 0 129 -21.5t37 -69.5q0 -26 -7 -55l-113 -492q-7 -28 -7 -50q0 -33 22 -33q10 0 26.5 12.5t36 31 t40.5 40t39 40.5l38 -34q-45 -50 -89.5 -91t-91.5 -70.5t-97.5 -46t-105.5 -16.5q-39 0 -60.5 18t-21.5 56q0 9 1 19t4 21l114 490q6 24 6 44q0 45 -25.5 63.5t-67.5 18.5q-24 0 -53 -6t-59 -16.5t-60.5 -24.5t-58.5 -31l-148 -627h-240l135 579q6 24 6 44q0 45 -25.5 63.5 t-67.5 18.5q-50 0 -112.5 -22t-119.5 -56l-148 -627h-240zM714 1005q4 55 17.5 102t35.5 81t52.5 53t69.5 19t72.5 -16.5t63 -36t56.5 -36t53 -16.5q42 0 66 22.5t28 82.5h36q-2 -54 -13.5 -100.5t-32.5 -80t-51.5 -53t-69.5 -19.5q-40 0 -71 16.5t-59 36t-56 36t-61 16.5 q-38 0 -66.5 -24t-33.5 -83h-36z" />
<glyph unicode="R&#x303;" horiz-adv-x="1520" d="M174 -1l12 49l202 32l257 1114l-187 32l11 48q262 12 428 16.5t242 4.5q95 0 173.5 -18t135 -50t87.5 -77t31 -100q0 -80 -25.5 -141t-73 -109t-114 -85.5t-147.5 -68.5q48 -9 78.5 -38.5t51 -71.5t34 -93t27.5 -103t31 -102t44 -90t68 -67t102 -33l-11 -48h-413 q-26 61 -44.5 132t-37.5 141t-42.5 134.5t-58.5 114t-86 79t-125 29.5l-128 -553l186 -29l-12 -49h-696zM840 700q20 -3 40.5 -4t39.5 -1q80 0 144.5 27.5t109.5 75t69.5 111.5t24.5 138q0 33 -14 65.5t-39.5 58t-61 41t-78.5 15.5q-53 0 -117 -15zM853 1415q4 55 17.5 102 t35.5 81t52.5 53t69.5 19t72.5 -16.5t63 -36t56.5 -36t53 -16.5q42 0 66 22.5t28 82.5h36q-2 -54 -13.5 -100.5t-32.5 -80t-51.5 -53t-69.5 -19.5q-40 0 -71 16.5t-59 36t-56 36t-61 16.5q-38 0 -66.5 -24t-33.5 -83h-36z" />
<glyph unicode="r&#x303;" horiz-adv-x="793" d="M6 0l170 738h-123v55l386 37l-34 -148q63 70 127.5 109t130.5 39q35 0 69 -10.5t68 -42.5l-140 -202q-22 30 -66.5 53.5t-97.5 23.5q-28 0 -55.5 -8t-51.5 -28l-143 -616h-240zM229 1005q4 55 17.5 102t35.5 81t52.5 53t69.5 19t72.5 -16.5t63 -36t56.5 -36t53 -16.5 q42 0 66 22.5t28 82.5h36q-2 -54 -13.5 -100.5t-32.5 -80t-51.5 -53t-69.5 -19.5q-40 0 -71 16.5t-59 36t-56 36t-61 16.5q-38 0 -66.5 -24t-33.5 -83h-36z" />
<glyph unicode="&#x172;&#x301;" horiz-adv-x="1722" d="M245 1226l11 48h690l-11 -48l-203 -32l-158 -687q-9 -38 -14.5 -78t-5.5 -81q0 -54 12.5 -105t44 -90.5t85 -63t135.5 -23.5q102 0 181 26t137.5 79.5t99.5 135.5t67 193l164 694l-201 32l11 48h507l-11 -48l-181 -32l-198 -668q-27 -92 -52.5 -163t-53 -125t-59 -93 t-71 -68t-89.5 -50t-114 -38q-59 -15 -109 -34t-86.5 -49t-57.5 -75t-21 -112q0 -26 9.5 -44.5t25.5 -29.5t37.5 -16t45.5 -5q57 0 102 16l5 -44q-72 -23 -133 -32t-110 -9q-90 0 -134 38.5t-44 97.5q0 52 18 94.5t49 76.5t73 61.5t90 49.5h-4q-123 0 -212 29.5t-146.5 81 t-85.5 121.5t-28 151q0 61 15 127l164 711zM1013 1428q0 7 6 15l200 272q12 16 25.5 20t39.5 4h184q24 0 35 -7.5t11 -17.5q0 -6 -5 -13.5t-19 -16.5l-412 -261q-20 -12 -37 -12q-16 0 -22 5t-6 12z" />
<glyph unicode="&#x173;&#x301;" horiz-adv-x="1119" d="M569 1018q0 7 6 15l200 272q12 16 25.5 20t39.5 4h184q24 0 35 -7.5t11 -17.5q0 -6 -5 -13.5t-19 -16.5l-412 -261q-20 -12 -37 -12q-16 0 -22 5t-6 12zM70 139q0 9 1.5 18t3.5 19l132 562h-123v55l386 37l-146 -620q-3 -15 -3 -27q0 -21 9 -36t24 -24.5t35 -13.5t42 -4 q45 0 103 19t113 48l150 639h242l-145 -619q-7 -28 -7 -50q0 -33 22 -33q10 0 26.5 12.5t36 31t40.5 40t39 40.5l38 -34q-38 -48 -85 -84t-95 -68t-93.5 -63t-80.5 -68.5t-56.5 -85t-21.5 -111.5q0 -26 9.5 -44.5t25.5 -29.5t37.5 -16t45.5 -5q53 0 102 16l5 -44 q-72 -23 -133 -32t-110 -9q-90 0 -134 38.5t-44 97.5q0 53 18.5 95.5t50.5 77t74.5 62t91.5 49.5q-73 5 -73 74q0 9 1 19t5 24q-44 -23 -92 -43t-96.5 -35t-94.5 -23.5t-85 -8.5q-43 0 -78 12t-60 33.5t-39 50t-14 61.5z" />
<glyph unicode="&#x172;&#x303;" horiz-adv-x="1722" d="M245 1226l11 48h690l-11 -48l-203 -32l-158 -687q-9 -38 -14.5 -78t-5.5 -81q0 -54 12.5 -105t44 -90.5t85 -63t135.5 -23.5q102 0 181 26t137.5 79.5t99.5 135.5t67 193l164 694l-201 32l11 48h507l-11 -48l-181 -32l-198 -668q-27 -92 -52.5 -163t-53 -125t-59 -93 t-71 -68t-89.5 -50t-114 -38q-59 -15 -109 -34t-86.5 -49t-57.5 -75t-21 -112q0 -26 9.5 -44.5t25.5 -29.5t37.5 -16t45.5 -5q57 0 102 16l5 -44q-72 -23 -133 -32t-110 -9q-90 0 -134 38.5t-44 97.5q0 52 18 94.5t49 76.5t73 61.5t90 49.5h-4q-123 0 -212 29.5t-146.5 81 t-85.5 121.5t-28 151q0 61 15 127l164 711zM887 1415q4 55 17.5 102t35.5 81t52.5 53t69.5 19t72.5 -16.5t63 -36t56.5 -36t53 -16.5q42 0 66 22.5t28 82.5h36q-2 -54 -13.5 -100.5t-32.5 -80t-51.5 -53t-69.5 -19.5q-40 0 -71 16.5t-59 36t-56 36t-61 16.5q-38 0 -66.5 -24 t-33.5 -83h-36z" />
<glyph unicode="&#x173;&#x303;" horiz-adv-x="1122" d="M421 1005q4 55 17.5 102t35.5 81t52.5 53t69.5 19t72.5 -16.5t63 -36t56.5 -36t53 -16.5q42 0 66 22.5t28 82.5h36q-2 -54 -13.5 -100.5t-32.5 -80t-51.5 -53t-69.5 -19.5q-40 0 -71 16.5t-59 36t-56 36t-61 16.5q-38 0 -66.5 -24t-33.5 -83h-36zM70 139q0 9 1.5 18 t3.5 19l132 562h-123v55l386 37l-146 -620q-3 -15 -3 -27q0 -21 9 -36t24 -24.5t35 -13.5t42 -4q45 0 103 19t113 48l150 639h242l-145 -619q-7 -28 -7 -50q0 -33 22 -33q10 0 26.5 12.5t36 31t40.5 40t39 40.5l38 -34q-38 -48 -85 -84t-95 -68t-93.5 -63t-80.5 -68.5 t-56.5 -85t-21.5 -111.5q0 -26 9.5 -44.5t25.5 -29.5t37.5 -16t45.5 -5q53 0 102 16l5 -44q-72 -23 -133 -32t-110 -9q-90 0 -134 38.5t-44 97.5q0 53 18.5 95.5t50.5 77t74.5 62t91.5 49.5q-73 5 -73 74q0 9 1 19t5 24q-44 -23 -92 -43t-96.5 -35t-94.5 -23.5t-85 -8.5 q-43 0 -78 12t-60 33.5t-39 50t-14 61.5z" />
<glyph unicode="&#x16a;&#x301;" horiz-adv-x="1663" d="M245 1226l11 48h690l-11 -48l-203 -32l-158 -687q-9 -38 -14.5 -78t-5.5 -81q0 -54 12.5 -105t44 -90.5t85 -63t135.5 -23.5q102 0 181 26t137.5 79.5t99.5 135.5t67 193l164 694l-201 32l11 48h507l-11 -48l-181 -32l-198 -668q-33 -109 -63.5 -192.5t-67.5 -145 t-84.5 -103t-112.5 -66.5t-151.5 -35.5t-203.5 -10.5q-123 0 -212 29.5t-146.5 81t-85.5 121.5t-28 151q0 61 15 127l164 711zM1040 1628q0 7 6 15l200 272q12 16 25.5 20t39.5 4h184q24 0 35 -7.5t11 -17.5q0 -6 -5 -13.5t-19 -16.5l-412 -261q-20 -12 -37 -12q-16 0 -22 5 t-6 12zM840 1387v112h594v-112h-594z" />
<glyph unicode="&#x16b;&#x301;" horiz-adv-x="1118" d="M359 1013v112h594v-112h-594zM594 1280q0 7 6 15l200 272q12 16 25.5 20t39.5 4h184q24 0 35 -7.5t11 -17.5q0 -6 -5 -13.5t-19 -16.5l-412 -261q-20 -12 -37 -12q-16 0 -22 5t-6 12zM75 139q0 9 1.5 18t3.5 19l132 562h-123v55l386 37l-146 -620q-7 -29 -0.5 -49 t22 -32.5t37.5 -18t48 -5.5q45 0 103 19t113 48l150 639h242l-145 -619q-7 -28 -7 -50q0 -33 22 -33q10 0 26.5 12.5t36 31t40.5 40t39 40.5l38 -34q-45 -50 -89.5 -91t-91.5 -70.5t-97.5 -46t-105.5 -16.5q-39 0 -60.5 18t-21.5 56q0 9 1 19t5 24q-44 -23 -92 -43 t-96.5 -35t-94.5 -23.5t-85 -8.5q-43 0 -78 12t-60 33.5t-39 50t-14 61.5z" />
<glyph unicode="&#x16a;&#x303;" horiz-adv-x="1663" d="M245 1226l11 48h690l-11 -48l-203 -32l-158 -687q-9 -38 -14.5 -78t-5.5 -81q0 -54 12.5 -105t44 -90.5t85 -63t135.5 -23.5q102 0 181 26t137.5 79.5t99.5 135.5t67 193l164 694l-201 32l11 48h507l-11 -48l-181 -32l-198 -668q-33 -109 -63.5 -192.5t-67.5 -145 t-84.5 -103t-112.5 -66.5t-151.5 -35.5t-203.5 -10.5q-123 0 -212 29.5t-146.5 81t-85.5 121.5t-28 151q0 61 15 127l164 711zM940 1615q4 55 17.5 102t35.5 81t52.5 53t69.5 19t72.5 -16.5t63 -36t56.5 -36t53 -16.5q42 0 66 22.5t28 82.5h36q-2 -54 -13.5 -100.5 t-32.5 -80t-51.5 -53t-69.5 -19.5q-40 0 -71 16.5t-59 36t-56 36t-61 16.5q-38 0 -66.5 -24t-33.5 -83h-36zM840 1387v112h594v-112h-594z" />
<glyph unicode="&#x16b;&#x303;" horiz-adv-x="1118" d="M374 1013v112h594v-112h-594zM439 1267q4 55 17.5 102t35.5 81t52.5 53t69.5 19t72.5 -16.5t63 -36t56.5 -36t53 -16.5q42 0 66 22.5t28 82.5h36q-2 -54 -13.5 -100.5t-32.5 -80t-51.5 -53t-69.5 -19.5q-40 0 -71 16.5t-59 36t-56 36t-61 16.5q-38 0 -66.5 -24t-33.5 -83 h-36zM75 139q0 9 1.5 18t3.5 19l132 562h-123v55l386 37l-146 -620q-7 -29 -0.5 -49t22 -32.5t37.5 -18t48 -5.5q45 0 103 19t113 48l150 639h242l-145 -619q-7 -28 -7 -50q0 -33 22 -33q10 0 26.5 12.5t36 31t40.5 40t39 40.5l38 -34q-45 -50 -89.5 -91t-91.5 -70.5 t-97.5 -46t-105.5 -16.5q-39 0 -60.5 18t-21.5 56q0 9 1 19t5 24q-44 -23 -92 -43t-96.5 -35t-94.5 -23.5t-85 -8.5q-43 0 -78 12t-60 33.5t-39 50t-14 61.5z" />
<glyph horiz-adv-x="576" d="M63 0v1274h450v-1274h-450zM104 41h368v1192h-368v-1192z" />
<glyph horiz-adv-x="576" d="M63 0v1274h450v-1274h-450zM104 41h368v1192h-368v-1192z" />
<glyph unicode=" "  horiz-adv-x="576" />
<glyph unicode="&#x09;" horiz-adv-x="576" />
<glyph unicode="&#xa0;" horiz-adv-x="576" />
<glyph unicode="!" horiz-adv-x="647" d="M81 63q0 33 13.5 62.5t36 51t51.5 34.5t61 13q48 0 76 -27.5t28 -72.5q0 -15 -3 -30q-6 -28 -21 -51.5t-36.5 -41t-47.5 -27t-54 -9.5q-48 0 -76 26.5t-28 71.5zM230 375l97 879q3 25 10 45.5t22 34t39.5 21t62.5 7.5h96q54 0 75 -15t21 -43q0 -11 -2.5 -23.5t-7.5 -26.5 l-299 -879h-114z" />
<glyph unicode="&#x22;" horiz-adv-x="1017" d="M607 795l16 473q0 52 35 73t101 21h53q51 0 77 -12t26 -41q0 -19 -9 -41l-197 -473h-102zM187 795l16 473q0 52 35 73t101 21h53q51 0 77 -12t26 -41q0 -19 -9 -41l-197 -473h-102z" />
<glyph unicode="#" horiz-adv-x="1142" d="M-25 361l82 178h236l136 293h-236l82 178h236l162 353h105l-162 -353h226l162 353h105l-162 -353h236l-82 -178h-236l-136 -293h236l-82 -178h-236l-180 -388h-105l180 388h-226l-180 -388h-105l180 388h-236zM398 539h226l136 293h-226z" />
<glyph unicode="$" horiz-adv-x="1188" d="M28 118v3q0 11 6 23.5t20 29.5l96 119q27 34 53 34q12 0 22 -11t14 -37q6 -50 19.5 -91t37 -71.5t59.5 -48.5t87 -21l109 485q-58 34 -117 69t-107 77t-78.5 93t-30.5 117q0 94 39 168t107.5 126t160.5 81t198 32l25 111h59l-25 -111q70 -2 137 -16.5t119 -34t83.5 -40.5 t31.5 -36q0 -6 -3 -15t-11 -21l-102 -143q-18 -25 -38 -25q-15 0 -26.5 13.5t-15.5 33.5q-17 92 -61.5 148t-130.5 62l-89 -395q62 -34 127.5 -71t119 -83.5t88 -105t34.5 -135.5q0 -99 -43 -182t-118 -143t-177.5 -94t-221.5 -36l-25 -113h-59l25 113q-80 0 -152 13.5 t-126.5 34.5t-87 46t-32.5 48zM470 1029q0 -26 11.5 -49t32.5 -44.5t49 -41.5t61 -39l82 365q-37 -3 -74.5 -13.5t-70 -30t-56 -49t-32.5 -71.5q-3 -14 -3 -27zM501 48q51 4 96 24t80.5 50t59 67.5t32.5 76.5q4 15 4 34q0 31 -13 58.5t-36 52t-54 47t-67 44.5z" />
<glyph unicode="%" horiz-adv-x="1668" d="M91 825q0 109 31.5 198t87 151.5t131.5 96.5t165 34q55 0 101 -16.5t79.5 -49t52.5 -81.5t19 -113q0 -93 -33.5 -179t-90.5 -151t-132.5 -104t-160.5 -39q-53 0 -98.5 16t-79 47.5t-53 79t-19.5 110.5zM258 734q0 -66 21 -98.5t69 -32.5q35 0 66.5 26t58.5 69t49 99 t37 115.5t23.5 118t8.5 106.5q0 137 -92 137q-34 0 -65.5 -29.5t-58 -77t-48.5 -107.5t-37 -120t-23.5 -114.5t-8.5 -91.5zM319 -33l944 1338h58l-944 -1338h-58zM901 228q0 109 31.5 198t87 151.5t131.5 96.5t165 34q55 0 101 -16.5t79.5 -49t52.5 -81.5t19 -113 q0 -93 -33.5 -179t-90.5 -151t-132.5 -104t-160.5 -39q-53 0 -98.5 16t-79 47.5t-53 79t-19.5 110.5zM1068 137q0 -66 21 -98.5t69 -32.5q35 0 66.5 26t58.5 69t49 99t37 115.5t23.5 117.5t8.5 107q0 137 -92 137q-34 0 -65.5 -29.5t-58 -77t-48.5 -107.5t-37 -120 t-23.5 -114.5t-8.5 -91.5z" />
<glyph unicode="&#x26;" horiz-adv-x="1422" d="M39 214q0 72 18 131t49 107t73.5 87t92 72t104 61t109.5 54q0 108 19 207.5t62.5 175t115 121t177.5 45.5q52 0 94 -11.5t72 -32.5t46.5 -50.5t16.5 -65.5q0 -81 -31 -135.5t-82.5 -93.5t-117.5 -68.5t-135 -59.5q16 -88 41 -177.5t57 -171.5q30 63 63 122.5t73 106 t90 74.5t115 28q29 0 52 -6l16 -131q-19 0 -40 3t-37 3q-52 0 -93 -24t-75.5 -63.5t-65 -91.5t-61.5 -107q23 -50 47 -92t47 -72t45 -46.5t42 -16.5q26 0 57.5 25t69.5 85l57 -50q-24 -45 -57 -78.5t-72 -56.5t-81.5 -34.5t-84.5 -11.5q-63 0 -120 31.5t-105 86.5 q-53 -56 -123 -91.5t-165 -35.5q-108 0 -180.5 19t-115.5 52.5t-61 78.5t-18 98zM337 258q0 -41 8.5 -77t27 -63t48 -42.5t72.5 -15.5q54 0 94.5 22t75.5 59q-33 47 -61 103.5t-50 119t-37 129t-23 134.5q-34 -29 -62.5 -65t-49 -81t-32 -100.5t-11.5 -122.5zM702 956 q0 -26 1.5 -54.5t5.5 -58.5q40 25 74.5 54t59 64t38.5 76t14 91q0 35 -11 56t-35 21q-40 0 -68 -18.5t-45.5 -51.5t-25.5 -79t-8 -100z" />
<glyph unicode="'" horiz-adv-x="423" d="M219 795l16 473q0 52 35 73t101 21h53q51 0 77 -12t26 -41q0 -19 -9 -41l-197 -473h-102z" />
<glyph unicode="(" horiz-adv-x="880" d="M86 248q0 107 33.5 223t92.5 231.5t139.5 227.5t174.5 210.5t197.5 180t207.5 136.5l19 -64q-59 -41 -116 -110t-110 -155.5t-101 -185.5t-89 -200t-74.5 -198.5t-57 -182t-36 -149.5t-12.5 -101q0 -29 7.5 -72.5t20.5 -93.5t31 -103t38.5 -101t43 -87.5t45.5 -63.5 l-41 -67q-65 45 -121 102t-102 120.5t-81.5 131t-59.5 133t-36.5 126.5t-12.5 112z" />
<glyph unicode=")" horiz-adv-x="880" d="M-85 -410q193 136 343 375q63 100 112.5 230t86.5 297q25 112 37.5 206.5t12.5 175.5q0 79 -12 145q-44 237 -178 374l47 64q285 -198 360 -417q51 -149 51 -308q0 -110 -26 -234q-66 -293 -271 -554q-177 -222 -552 -421z" />
<glyph unicode="*" horiz-adv-x="1024" d="M168 878l331 83l-330 84l98 171l238 -244l-92 329h197l-91 -329l237 245l99 -170l-330 -86l330 -85l-98 -170l-238 244l91 -328h-197l92 328l-238 -243z" />
<glyph unicode="+" horiz-adv-x="1364" d="M101 422v105h511v513h104v-513h515v-105h-515v-513h-104v513h-511z" />
<glyph unicode="," horiz-adv-x="540" d="M-36 -286q45 11 88 29t78.5 42.5t60 56t33.5 69.5q1 5 1.5 9t0.5 6q0 23 -15 35.5t-38 12.5q-49 0 -78 28.5t-29 74.5q0 34 14.5 64t38.5 52.5t55 35.5t64 13q57 0 86.5 -39t29.5 -108q0 -44 -10 -88q-32 -134 -136 -222q-109 -94 -239 -128z" />
<glyph unicode="-" horiz-adv-x="808" d="M80 407v106h648v-106h-648z" />
<glyph unicode="." horiz-adv-x="564" d="M55 94q0 28 9.5 51.5t27 41t41 27.5t51.5 10t51.5 -10t41 -27.5t27.5 -41t10 -51.5t-10 -51.5t-27.5 -41t-41 -27t-51.5 -9.5q-57 0 -93 36t-36 93z" />
<glyph unicode="/" horiz-adv-x="960" d="M91 -59l682 1421h128l-682 -1421h-128z" />
<glyph unicode="0" horiz-adv-x="1024" d="M51 338q0 129 40 299q76 328 224 498t375 170q169 0 249 -92.5t80 -278.5q0 -128 -39 -297q-76 -328 -225.5 -499t-373.5 -171q-169 0 -249.5 93t-80.5 278zM285 212q0 -42 5.5 -77t18 -61t33.5 -40.5t51 -14.5q47 0 86 29.5t70.5 79t56.5 113.5t45.5 132.5t37 137 t30.5 126.5q11 49 23.5 105t23 113.5t17.5 113t7 104.5q0 39 -5.5 72t-18.5 57t-34.5 37.5t-53.5 13.5q-44 0 -82 -29t-70 -78t-58 -112.5t-47.5 -132t-38.5 -137t-30 -127.5q-11 -47 -23 -101t-22 -109.5t-16 -110.5t-6 -104z" />
<glyph unicode="1" horiz-adv-x="1024" d="M62 0l11 48l229 51l237 1025h-219l11 46l317 104h172l-272 -1175l207 -51l-11 -48h-682z" />
<glyph unicode="2" horiz-adv-x="1024" d="M-67 0l13 53q79 76 159 145t155.5 135t144 133t125 139t98 153t63.5 175q5 24 8 45t3 41q0 77 -39.5 113.5t-101.5 36.5q-38 0 -81.5 -13t-90 -40.5t-94.5 -70t-95 -101.5l-51 35q53 87 114.5 148t128.5 99.5t138 55.5t144 17q60 0 115 -13.5t97 -43t67.5 -77 t25.5 -115.5q0 -44 -12 -96q-15 -63 -56 -125.5t-100.5 -125.5t-132 -125t-149 -123t-152.5 -120.5t-142 -116.5h457l107 159h50l-132 -377h-784z" />
<glyph unicode="3" horiz-adv-x="1024" d="M-60 109l196 193q18 -67 41 -111t49.5 -69.5t55 -35.5t57.5 -10q52 0 102.5 35t90.5 91t64.5 126t24.5 140q0 40 -10.5 75t-33 61t-59 41t-88.5 15q-34 0 -73.5 -8t-85.5 -25v77q88 18 155 52t114.5 79t77 97t41.5 105q6 25 6 45q0 46 -25 66t-64 20q-33 0 -72.5 -12.5 t-80.5 -35.5t-80.5 -55t-72.5 -71l-48 55q57 69 116.5 116.5t119 77.5t116.5 43t110 13t98.5 -12t78.5 -34.5t51.5 -55.5t18.5 -74q0 -97 -86.5 -191.5t-273.5 -194.5q84 -2 142.5 -18.5t96 -44.5t54.5 -66t17 -82q0 -57 -26.5 -120.5t-72.5 -126t-108.5 -119t-135 -100 t-151 -69t-157.5 -25.5q-85 0 -159.5 34t-130.5 109z" />
<glyph unicode="4" horiz-adv-x="1024" d="M16 353l7 30l773 940h170l-200 -868h181l-24 -102h-181l-81 -353h-247l81 353h-479zM182 455h337l133 576z" />
<glyph unicode="5" horiz-adv-x="1024" d="M-33 109l196 193q18 -67 41 -111t49.5 -69.5t55 -35.5t57.5 -10q61 0 112.5 35.5t88.5 93.5t58 131.5t21 149.5q0 46 -9.5 87.5t-29.5 72.5t-51.5 49t-76.5 18q-48 0 -110.5 -22.5t-143.5 -74.5l-47 27l191 631h627l-67 -208h-543l-97 -315q75 45 146.5 65t137.5 20 q70 0 129.5 -21t102.5 -59t67.5 -90t24.5 -114q0 -64 -25 -132t-68.5 -133t-104 -123.5t-131.5 -102t-150.5 -69.5t-160.5 -26q-85 0 -159.5 34t-130.5 109z" />
<glyph unicode="6" horiz-adv-x="1024" d="M55 314q0 88 24 190q28 124 83 231t129.5 195t164 157t188 116t201.5 71.5t203 24.5l-21 -53q-50 0 -109 -20.5t-120.5 -55.5t-121.5 -82t-110.5 -98.5t-88 -105.5t-54.5 -104q43 20 97.5 33t114.5 13q70 0 126.5 -23t95.5 -64t60 -97.5t21 -122.5q0 -76 -21.5 -146.5 t-59 -132t-88.5 -112t-110.5 -86.5t-125 -55.5t-132.5 -19.5q-91 0 -156.5 25t-107.5 70.5t-62 109.5t-20 142zM295 210q0 -191 122 -191q72 0 136 94.5t108 283.5q9 38 15 86.5t6 97.5q0 36 -4.5 69t-15 58t-28 40t-43.5 15q-38 0 -78.5 -25.5t-76.5 -67.5t-64.5 -96 t-41.5 -111q-35 -154 -35 -253z" />
<glyph unicode="7" horiz-adv-x="1024" d="M190 863l126 411h789l-13 -54l-644 -1220h-236l698 1044h-537l-94 -181h-89z" />
<glyph unicode="8" horiz-adv-x="1024" d="M18 252q0 76 35.5 138.5t92 112.5t126 88.5t138.5 65.5h-2q-70 39 -112.5 72.5t-66 64.5t-31 62t-7.5 66q0 25 6 51q18 76 68 137.5t117.5 104.5t143.5 66.5t147 23.5q61 0 120.5 -14.5t106 -44t75.5 -74t29 -104.5q0 -116 -90 -199.5t-259 -148.5h1q48 -25 91 -54 t74.5 -65t50 -79.5t18.5 -97.5q0 -36 -9 -76q-20 -88 -72.5 -158.5t-123.5 -120t-153.5 -76t-162.5 -26.5q-93 0 -159 25.5t-109 66.5t-63 92t-20 101zM254 198q0 -37 7 -69.5t22.5 -57t40 -38.5t59.5 -14q43 0 82.5 23t71.5 61t55.5 87t35.5 101q5 28 8 50.5t3 40.5 q0 46 -13 79.5t-35.5 60t-52 49t-62.5 46.5q-47 -29 -87.5 -71t-70.5 -95.5t-47 -117t-17 -135.5zM434 970q0 -44 15.5 -76.5t39.5 -57.5t53 -43.5t57 -34.5q127 85 165 254q5 22 7.5 44t2.5 44q0 66 -28 109.5t-87 43.5q-42 0 -82 -22t-72 -60t-51.5 -89.5t-19.5 -111.5z " />
<glyph unicode="9" horiz-adv-x="1024" d="M30 -33l21 53q49 0 108.5 20.5t121.5 55.5t122 82t110.5 98.5t88 105.5t54.5 104q-44 -20 -98.5 -33t-114.5 -13q-71 0 -127 23t-95 64t-60 97.5t-21 122.5q0 76 21.5 146.5t59 132t88.5 112t110.5 86.5t125.5 55.5t132 19.5q91 0 156.5 -25t107.5 -70.5t62 -109.5 t20 -142q0 -88 -24 -190q-29 -124 -83.5 -231t-129 -195t-164 -157t-188 -116t-201.5 -71.5t-203 -24.5zM396 687q0 -36 4.5 -69.5t15 -59t28.5 -40.5t44 -15q37 0 77.5 25.5t76.5 67.5t64.5 96t41.5 111q35 154 35 252q0 192 -122 192q-72 0 -136 -94.5t-108 -283.5 q-9 -38 -15 -86t-6 -96z" />
<glyph unicode=":" horiz-adv-x="591" d="M36 63q0 33 13.5 62.5t36 51t51.5 34.5t61 13q48 0 76 -27.5t28 -72.5q0 -15 -3 -30q-6 -28 -21 -51.5t-36.5 -41t-47.5 -27t-54 -9.5q-48 0 -76 26.5t-28 71.5zM175 683q0 33 14 62.5t36.5 51t51.5 34.5t60 13q48 0 76.5 -27t28.5 -72q0 -16 -4 -31q-6 -28 -21 -51.5 t-36.5 -41t-47.5 -27t-54 -9.5q-48 0 -76 26.5t-28 71.5z" />
<glyph unicode=";" horiz-adv-x="581" d="M-69 -286q45 11 88 29t78.5 42.5t60 56t33.5 69.5q1 5 1.5 9t0.5 6q0 23 -15 35.5t-38 12.5q-49 0 -78 28.5t-29 74.5q0 34 14.5 64t38.5 52.5t55 35.5t64 13q57 0 86.5 -39t29.5 -108q0 -44 -10 -88q-32 -134 -136 -222q-109 -94 -239 -128zM176 683q0 33 14 62.5 t36.5 51t51.5 34.5t60 13q48 0 76.5 -27t28.5 -72q0 -16 -4 -31q-6 -28 -21 -51.5t-36.5 -41t-47.5 -27t-54 -9.5q-48 0 -76 26.5t-28 71.5z" />
<glyph unicode="&#x3c;" horiz-adv-x="1274" d="M72 446l14 58l1054 506l-28 -120l-863 -415l671 -415l-27 -120z" />
<glyph unicode="=" horiz-adv-x="1471" d="M186 243v105h1063v-105h-1063zM186 567v105h1063v-105h-1063z" />
<glyph unicode="&#x3e;" horiz-adv-x="1274" d="M143 -60l27 120l863 415l-671 415l28 120l820 -506l-14 -58z" />
<glyph unicode="?" horiz-adv-x="970" d="M126 1025q0 20 11 40q34 62 78.5 107.5t102 75t130 43.5t162.5 14q70 0 136 -10t116.5 -35t81 -67.5t30.5 -107.5q0 -17 -1.5 -34t-6.5 -37q-14 -60 -44.5 -104t-71.5 -77t-89 -58t-97 -48t-96.5 -46t-87 -52t-68.5 -66.5t-41 -89.5q-4 -15 -4 -34q0 -26 6 -50.5 t11 -52.5h-92q-19 34 -27.5 65t-8.5 60q0 24 6 47q12 53 47.5 100t82.5 90.5t100 85.5t100 85t82.5 89t47.5 98q5 19 6.5 35.5t1.5 32.5q0 115 -122 115q-82 0 -140 -55t-86 -176q-4 -17 -14.5 -30.5t-24.5 -23t-31 -14.5t-33 -5q-19 0 -34 6l-80 30q-39 14 -39 54zM147 63 q0 33 13.5 62.5t36 51t51.5 34.5t61 13q48 0 76 -27.5t28 -72.5q0 -15 -3 -30q-6 -28 -21 -51.5t-36.5 -41t-47.5 -27t-54 -9.5q-48 0 -76 26.5t-28 71.5z" />
<glyph unicode="@" horiz-adv-x="1845" d="M106 134q0 131 39.5 258t110.5 241.5t170 211t217.5 167t252.5 110t276 39.5q116 0 212 -27t164.5 -79.5t106.5 -130t38 -179.5q0 -84 -26 -173.5t-72.5 -175t-111 -162t-142 -134t-164.5 -91.5t-179 -34q-76 0 -111 30t-34 102q-32 -20 -71.5 -43t-83.5 -42.5t-90 -33 t-90 -13.5q-36 0 -61 12.5t-40.5 33.5t-22.5 48.5t-7 57.5q0 95 36.5 184.5t99 168.5t145 145t174 113.5t186 74t182.5 26.5q16 0 40.5 -1.5t53 -5.5t60 -9.5t61.5 -12.5l-295 -593q-13 -26 -18 -43.5t-5 -31.5q0 -18 9.5 -26.5t26.5 -8.5q28 0 72 23.5t92.5 65t97.5 98.5 t88 124.5t63.5 142t24.5 150.5q0 78 -30 142.5t-87 110t-138.5 70.5t-184.5 25q-128 0 -244.5 -39t-216.5 -106.5t-181 -157.5t-138 -191.5t-88 -209.5t-31 -210q0 -95 28.5 -177.5t89 -144t155 -97t225.5 -35.5q88 0 188.5 25t200.5 74t193.5 121.5t167.5 168.5l71 -37 q-71 -102 -168 -183.5t-209 -139t-232 -88.5t-235 -31q-160 0 -275.5 42t-190 114.5t-110 169.5t-35.5 207zM623 215q0 -37 13.5 -53t42.5 -16q31 0 70.5 14.5t79 41t75 63.5t58.5 83l194 382q-53 -3 -113 -24t-119 -56.5t-113.5 -82.5t-96 -103.5t-66.5 -119.5t-25 -129z " />
<glyph unicode="A" horiz-adv-x="1540" d="M-131 0l12 48l201 32l816 1194h192l224 -1194l134 -32l-11 -48h-650l11 49l195 31l-71 387h-473l-244 -387l220 -32l-11 -48h-545zM498 542h411l-91 505z" />
<glyph unicode="B" horiz-adv-x="1479" d="M-79 0l11 48l202 32l257 1114l-187 32l11 48q51 0 122 1.5t152.5 3t168.5 3t169 1.5q130 0 235 -14t179 -43.5t114 -75t40 -109.5q0 -67 -20.5 -115t-59 -84t-93.5 -63t-124 -52q125 -36 184.5 -108t59.5 -164q0 -103 -40 -176.5t-107 -124t-154 -81t-180.5 -47 t-187.5 -21.5t-174 -5h-578zM477 187q0 -38 10.5 -61t29.5 -36t45.5 -17.5t59.5 -4.5q82 0 153.5 34t125 87.5t84.5 119.5t31 131q0 48 -19 92t-61 77t-107.5 52.5t-158.5 19.5h-88l-90 -389q-15 -63 -15 -105zM596 742h111q80 0 149.5 16t121 51.5t81 92.5t29.5 139 q0 95 -75.5 135.5t-221.5 40.5h-86z" />
<glyph unicode="C" horiz-adv-x="1610" d="M86 476q0 124 41.5 234.5t113 203t167.5 166t205.5 124.5t227 78t231.5 27q40 0 97.5 -6t121.5 -22t130.5 -44.5t124.5 -72.5l-70 -305h-46q-15 81 -44 150t-74 118.5t-106.5 77.5t-140.5 28q-93 0 -176.5 -30.5t-154.5 -83.5t-128.5 -124.5t-97.5 -153.5t-61.5 -170 t-21.5 -174q0 -98 32.5 -177.5t88 -135.5t129.5 -87t158 -31q77 0 147.5 24.5t134 68t120 103t107.5 130.5l66 -44q-62 -86 -128.5 -155t-147.5 -117.5t-181.5 -74.5t-229.5 -26q-132 0 -247.5 32.5t-201.5 96t-136 157t-50 215.5z" />
<glyph unicode="D" horiz-adv-x="1713" d="M-67 0l11 48l202 32l257 1114l-187 32l11 48q33 0 82.5 1.5t108 4t123 5t128.5 5t123.5 4t108.5 1.5q87 0 176 -7.5t171.5 -26.5t154 -52t125 -83.5t84 -121.5t30.5 -167q0 -144 -43 -261.5t-117 -210.5t-172 -161.5t-208 -114t-225.5 -67.5t-224.5 -22h-719zM479 173 q0 -58 46 -82.5t148 -24.5q100 0 187.5 31.5t160.5 86t130.5 128t97 157t60.5 172.5t21 175q0 94 -30.5 170t-90 129.5t-147 82t-201.5 28.5h-143l-232 -1001q-7 -28 -7 -52z" />
<glyph unicode="E" horiz-adv-x="1382" d="M-64 0l11 48l202 32l257 1114l-187 32l11 48h1202l-69 -299l-58 -5l-28 214h-568l-115 -498h325l94 153h46l-89 -388h-46l-24 153h-325l-91 -393q-9 -42 -10.5 -66.5t7 -37.5t27.5 -16.5t50 -3.5h483l156 242h60l-104 -329h-1217z" />
<glyph unicode="F" horiz-adv-x="1207" d="M-81 0l11 48l202 32l257 1114l-187 32l11 48h1072l-69 -299l-58 -5l-29 214h-437l-115 -498h262l107 153h46l-89 -388h-46l-37 153h-262l-121 -524l233 -32l-11 -48h-740z" />
<glyph unicode="G" horiz-adv-x="1692" d="M77 472q0 126 38 236t105.5 201.5t158.5 164t197.5 122t223 76t233.5 26.5q98 0 180.5 -7.5t150.5 -24.5t123 -45.5t98 -71.5l-67 -291h-58q-10 87 -41 154.5t-79.5 114.5t-114.5 71.5t-147 24.5q-132 0 -252 -55.5t-211 -154.5t-145 -236t-54 -299q0 -97 26.5 -175 t78 -133t126.5 -85t171 -30q30 0 63 3t66 9t64.5 14.5t58.5 19.5l97 419l-203 44l10 49h679l-13 -48l-164 -45l-99 -426q-160 -60 -326.5 -90.5t-319.5 -30.5q-141 0 -261 32t-207.5 95t-136.5 156t-49 216z" />
<glyph unicode="H" horiz-adv-x="1772" d="M-61 0l10 47l203 33l257 1115l-187 31l11 48h696l-11 -48l-202 -32l-117 -508h608l117 508l-186 32l11 48h696l-11 -48l-203 -32l-255 -1114l187 -33l-10 -47h-698l10 47l202 33l121 524h-608l-121 -524l186 -33l-10 -47h-696z" />
<glyph unicode="I" horiz-adv-x="791" d="M-79 0l11 48l206 51l253 1095l-189 32l11 48h698l-11 -48l-202 -32l-253 -1095l183 -51l-11 -48h-696z" />
<glyph unicode="J" horiz-adv-x="754" d="M-71 -397q49 46 81.5 99.5t54.5 109t36 111.5t26 107l269 1164l-187 32l11 48h698l-11 -48l-202 -31l-271 -1175l-491 -497z" />
<glyph unicode="K" horiz-adv-x="1603" d="M-50 0l11 48l202 32l257 1114l-187 32l11 48h696l-11 -48l-202 -32l-116 -503l667 503l-179 32l11 48h527l-11 -48l-194 -32l-584 -416l471 -698l131 -32l-11 -48h-409l-427 656l-133 -576l187 -32l-11 -48h-696z" />
<glyph unicode="L" horiz-adv-x="1231" d="M-55 0l11 48l202 32l257 1114l-187 32l11 48h696l-11 -48l-202 -32l-255 -1107h444l221 271h70l-152 -358h-1105z" />
<glyph unicode="M" horiz-adv-x="1954" d="M-66 0l11 48l174 32l360 1114l-184 32l11 48h451l200 -922l632 922h416l-11 -48l-163 -32l-197 -1114l164 -32l-11 -48h-680l11 48l213 32l172 937l-704 -1017h-59l-240 1029l-260 -949l164 -32l-11 -48h-459z" />
<glyph unicode="N" horiz-adv-x="1561" d="M-88 0l11 48l195 32l292 1114l-184 32l11 50h394l596 -893l172 811l-199 32l11 48h489l-11 -48l-158 -32l-331 -1200h-69l-702 1010l-177 -924l160 -32l-11 -48h-489z" />
<glyph unicode="O" horiz-adv-x="1675" d="M113 470q0 116 36 222.5t99 198.5t150 167.5t189 129t215.5 82.5t229.5 29q137 0 246 -36.5t185.5 -103t117 -160t40.5 -206.5q0 -115 -38 -220.5t-104 -196.5t-155 -165t-191 -126.5t-211.5 -81t-216.5 -28.5q-138 0 -248 37t-186.5 102.5t-117 156.5t-40.5 199z M446 450q0 -190 76.5 -293.5t225.5 -103.5q94 0 171 36t137 96t103.5 138.5t72 163t42 170t13.5 158.5q0 88 -19.5 161t-58 125.5t-95 82t-131.5 29.5q-83 0 -155 -32.5t-131.5 -88t-106.5 -130t-79 -159.5t-48.5 -175.5t-16.5 -177.5z" />
<glyph unicode="P" horiz-adv-x="1488" d="M-18 0l11 48l202 32l257 1114l-187 32l11 48q7 0 37 1t74 2t99 3t111.5 3.5t111 3.5t98.5 3t73 2t35 1q133 0 229 -19t158 -53t91.5 -82t29.5 -105q0 -106 -36 -181t-95.5 -125t-136.5 -79.5t-158 -44.5t-160 -19t-144 -4h-37q-18 0 -36 1l-116 -502l185 -32l-11 -48 h-696zM636 652q21 -4 41 -5.5t40 -1.5q81 0 159 22t139.5 67t99 113.5t37.5 162.5q0 46 -16.5 84t-51 66t-88.5 43.5t-129 15.5q-23 0 -48.5 -1.5t-53.5 -5.5z" />
<glyph unicode="Q" horiz-adv-x="1692" d="M88 470q0 108 36 212t99 196t150 169.5t189 133t215.5 87t229.5 31.5q137 0 246 -38.5t185.5 -106t117 -160t40.5 -201.5q0 -115 -38 -221t-104.5 -198t-155.5 -167t-190.5 -128.5t-211.5 -82.5t-217 -29q-138 0 -247.5 38t-186 105.5t-117 159.5t-40.5 200zM198 -280 q68 68 131.5 113.5t123 73t115 39t107.5 11.5q57 0 111 -11t105 -27.5t100.5 -36t97 -36t94.5 -27.5t94 -11q63 0 127 26t131 94l41 -37l-336 -343q-76 24 -155 68t-161.5 87.5t-170 75.5t-180.5 32q-81 0 -162.5 -30t-170.5 -103zM421 434q0 -89 19 -161t57 -122.5t94 -78 t131 -27.5q94 0 171 37.5t137 99.5t103.5 142.5t72 167.5t42.5 173.5t14 159.5q0 88 -19.5 159.5t-58 122.5t-95 78.5t-131.5 27.5q-83 0 -155 -32.5t-131.5 -88.5t-106.5 -131.5t-79 -162t-48.5 -180t-16.5 -184.5z" />
<glyph unicode="R" horiz-adv-x="1514" d="M-70 -1l12 49l202 32l257 1114l-187 32l11 48q262 12 428 16.5t242 4.5q95 0 173.5 -18t135 -50t87.5 -77t31 -100q0 -80 -25.5 -141t-73 -109t-114 -85.5t-147.5 -68.5q48 -9 78.5 -38.5t51 -71.5t34 -93t27.5 -103t31 -102t44 -90t68 -67t102 -33l-11 -48h-413 q-26 61 -44.5 132t-37.5 141t-42.5 134.5t-58.5 114t-86 79t-125 29.5l-128 -553l186 -29l-12 -49h-696zM596 700q20 -3 40.5 -4t39.5 -1q80 0 144.5 27.5t109.5 75t69.5 111.5t24.5 138q0 33 -14 65.5t-39.5 58t-61 41t-78.5 15.5q-53 0 -117 -15z" />
<glyph unicode="S" horiz-adv-x="1188" d="M-2 89l67 289h51q13 -153 101.5 -232t246.5 -79q52 0 103 17t91 47t64.5 71.5t24.5 91.5q0 62 -61 129t-184 138q-60 34 -114 66.5t-94.5 68.5t-64.5 80t-24 103q0 91 42 167.5t113 132t164.5 86.5t195.5 31q93 0 164.5 -10.5t124.5 -27t89.5 -38.5t60.5 -44l-57 -245 l-44 -2q-5 67 -32 118t-70.5 85.5t-100.5 52t-122 17.5q-53 0 -97.5 -13.5t-77.5 -37.5t-51.5 -57.5t-18.5 -73.5q0 -27 12 -50.5t39 -48t69 -51.5t102 -61q74 -42 137 -80t108.5 -80.5t71.5 -92.5t26 -116q0 -95 -45.5 -179.5t-122 -148t-178 -100.5t-212.5 -37 q-98 0 -171 7.5t-130.5 22t-104 35.5t-91.5 49z" />
<glyph unicode="T" horiz-adv-x="1491" d="M166 920l118 354h1258l-46 -354l-51 -2l-56 265h-343l-255 -1103l187 -32l-11 -48h-696l11 48l202 32l255 1103h-345l-179 -265z" />
<glyph unicode="U" horiz-adv-x="1663" d="M245 1226l11 48h690l-11 -48l-203 -32l-158 -687q-9 -38 -14.5 -78t-5.5 -81q0 -54 12.5 -105t44 -90.5t85 -63t135.5 -23.5q102 0 181 26t137.5 79.5t99.5 135.5t67 193l164 694l-201 32l11 48h507l-11 -48l-181 -32l-198 -668q-33 -109 -63.5 -192.5t-67.5 -145 t-84.5 -103t-112.5 -66.5t-151.5 -35.5t-203.5 -10.5q-123 0 -212 29.5t-146.5 81t-85.5 121.5t-28 151q0 61 15 127l164 711z" />
<glyph unicode="V" horiz-adv-x="1549" d="M153 1226l11 48h692l-11 -48l-214 -32l219 -887l574 887l-200 32l11 48h524l-11 -48l-173 -32l-872 -1219h-106l-305 1219z" />
<glyph unicode="W" horiz-adv-x="2187" d="M196 1226l11 48h702l-11 -48l-216 -32l75 -880l541 960h65l170 -958l439 878l-201 32l11 48h524l-11 -48l-195 -32l-694 -1219h-122l-166 803l-486 -803h-122l-170 1219z" />
<glyph unicode="X" horiz-adv-x="1644" d="M-158 0l12 48l172 32l662 517l-337 597l-187 32l11 48h836l-11 -48l-260 -32l213 -383l452 383l-203 32l11 48h559l-11 -48l-183 -32l-585 -456l368 -658l184 -32l-11 -48h-779l11 48l217 32l-253 445l-529 -445l170 -32l-11 -48h-518z" />
<glyph unicode="Y" horiz-adv-x="1434" d="M219 1226l11 48h676l-11 -48l-186 -32l160 -541l407 541l-184 32l11 48h474l-11 -48l-151 -32l-513 -610l-116 -504l190 -32l-11 -48h-698l11 48l201 31l110 478l-240 637z" />
<glyph unicode="Z" horiz-adv-x="1416" d="M-46 0l29 127l1044 1049h-612l-155 -253h-47l81 351h1113l-28 -118l-1045 -1058h683l182 311l45 -2l-93 -407h-1197z" />
<glyph unicode="[" horiz-adv-x="877" d="M-26 -477l417 1852h531l-9 -41h-213q-45 0 -63 -79l-363 -1611q-2 -10 -4 -18t-1 -16q0 -46 32 -46h213l-9 -41h-531z" />
<glyph unicode="\" horiz-adv-x="974" d="M883.011 -59l-681.916 1421h-127.984l681.916 -1421h127.984z" />
<glyph unicode="]" horiz-adv-x="877" d="M-26 -477l9 41h213q45 0 63 80l363 1611q3 13 3.5 22.5t1.5 16.5q0 40 -32 40h-213l9 41h531l-417 -1852h-531z" />
<glyph unicode="^" horiz-adv-x="956" d="M68 624l384 712h51l384 -712h-101l-308 570l-309 -570h-101z" />
<glyph unicode="_" horiz-adv-x="1024" d="M-180 -198h1054v-96h-1054v96z" />
<glyph unicode="`" horiz-adv-x="641" d="M66 1304q0 10 11 17.5t35 7.5h184q26 0 39.5 -4t25.5 -20l200 -272q2 -4 4 -7.5t2 -7.5q0 -7 -6.5 -12t-21.5 -5q-18 0 -37 12l-412 261q-14 9 -19 16.5t-5 13.5z" />
<glyph unicode="a" horiz-adv-x="1080" d="M37 245q0 62 15.5 129.5t44.5 132.5t71.5 123t96 102t118 70t138.5 26q43 0 83.5 -12t76.5 -38l8 33h248l-135 -571l-11 -48q-7 -28 -7 -50q0 -33 22 -33q10 0 26.5 12.5t36 31t40.5 40t39 40.5l38 -34q-45 -50 -89.5 -91t-91.5 -70.5t-97.5 -46t-105.5 -16.5 q-39 0 -60.5 18t-21.5 56q0 9 1 19t4 21l5 22q-85 -71 -151 -103.5t-121 -32.5q-57 0 -99 21t-69 57.5t-40 86t-13 105.5zM259 286q0 -79 32 -127t86 -48q32 0 74.5 22t99.5 73l112 493q-61 55 -120 55q-39 0 -75 -21.5t-67.5 -57.5t-57.5 -83.5t-44.5 -99.5t-29 -105 t-10.5 -101z" />
<glyph unicode="b" horiz-adv-x="1029" d="M85 179q0 42 10 78l217 969h-141v48l415 55l-135 -580q30 20 64.5 35.5t70 25.5t70 15t65.5 5q54 0 94 -21.5t67 -59t40 -88t13 -107.5q0 -63 -15.5 -130t-46.5 -131.5t-76.5 -122t-105.5 -101t-135 -69t-163 -25.5q-148 0 -228 48.5t-80 155.5zM325 165q0 -52 25 -84.5 t79 -32.5q57 0 107 42.5t86.5 108t57.5 143.5t21 150q0 43 -8.5 81t-26.5 66t-46 44t-67 16q-27 0 -57.5 -8t-64.5 -31l-97 -420q-5 -21 -7 -39.5t-2 -35.5z" />
<glyph unicode="c" horiz-adv-x="825" d="M27 218q-5 32 -5 66q0 45 9 94q18 96 65 179t115.5 144.5t153.5 97t179 35.5q52 0 94 -13t72.5 -33.5t49 -44t23.5 -44.5l-119 -150q-10 28 -23 62.5t-33.5 65t-50 51t-71.5 20.5q-39 0 -72 -22.5t-59 -63t-45 -96t-32 -121.5q-12 -65 -12 -121v-20q2 -64 21.5 -111 t53.5 -73t84 -26t100 32t115 100l47 -38q-44 -54 -87 -94t-88 -66.5t-94 -39.5t-104 -13q-81 0 -141 31t-97 84.5t-49 127.5z" />
<glyph unicode="d" horiz-adv-x="1080" d="M37 245q0 62 15.5 129.5t44.5 132.5t71.5 123t96 102t118 70t138.5 26q43 0 83.5 -12t76.5 -38l104 448h-141v48l415 55l-257 -1089l-11 -48q-7 -28 -7 -50q0 -33 22 -33q10 0 26.5 12.5t36 31t40.5 40t39 40.5l38 -34q-45 -50 -89.5 -91t-91.5 -70.5t-97.5 -46 t-105.5 -16.5q-39 0 -60.5 18t-21.5 56q0 9 1 19t4 21l5 22q-85 -71 -151 -103.5t-121 -32.5q-57 0 -99 21t-69 57.5t-40 86t-13 105.5zM259 286q0 -79 32 -127t86 -48q32 0 74.5 22t99.5 73l112 493q-61 55 -120 55q-39 0 -75 -21.5t-67.5 -57.5t-57.5 -83.5t-44.5 -99.5 t-29 -105t-10.5 -101z" />
<glyph unicode="e" horiz-adv-x="815" d="M25 237v2q0 70 17 141t49.5 136.5t79.5 123t107 99.5t131.5 66.5t153.5 24.5q87 0 139 -41.5t52 -110.5q0 -50 -27.5 -93.5t-84.5 -81t-145.5 -69.5t-209.5 -60q-10 -47 -10 -103q0 -84 39.5 -127t117.5 -43q91 0 236 86l28 -34q-67 -47 -125 -80.5t-110.5 -54.5 t-100 -31t-92.5 -10q-243 0 -245 260zM301 430q55 12 99.5 36t76 57t49 74t17.5 88q0 72 -62 72q-51 0 -94.5 -79t-85.5 -248z" />
<glyph unicode="f" horiz-adv-x="669" d="M-361 -450l64 167q54 -42 100 -69.5t83 -27.5q21 0 39.5 11.5t35 38.5t32 71t30.5 109l196 876h-149l20 85h150q6 27 15.5 59.5t22.5 65t29 61.5t33 47l242 259q32 33 72 46t85 13q72 0 149 -28l-73 -144q-78 84 -138 84q-51 0 -85.5 -54.5t-57.5 -157.5l-56 -251h232 l-21 -85h-232l-165 -768l-267 -335q-42 -52 -98 -76.5t-125 -24.5q-76 0 -163 28z" />
<glyph unicode="g" horiz-adv-x="1033" d="M-164 -215q0 33 14 65.5t44 62t76 55t110 44.5q-45 21 -71 43.5t-26 48.5q0 16 13 33.5t41 36.5t72.5 39.5t108.5 43.5q-56 30 -86 82t-30 130q0 75 37.5 141t101 114.5t147 77t175.5 28.5q97 0 172 -21t117 -75l224 99l-42 -211l-143 32q9 -36 9 -80q0 -58 -34.5 -122 t-95.5 -117.5t-143.5 -88.5t-179.5 -35q-43 0 -81.5 4t-72.5 13q-16 -11 -30 -28t-14 -31q0 -19 27.5 -35t72.5 -30.5t102.5 -28.5t117.5 -29.5t117.5 -33t102.5 -39.5t72.5 -48.5t27.5 -60.5t-20.5 -72t-58.5 -76t-93.5 -73t-125.5 -61.5t-154 -42.5t-179 -16 q-96 0 -174 22.5t-133 59t-85 83.5t-30 97zM41 -172q0 -41 24 -78.5t67.5 -67t105 -47t136.5 -17.5q70 0 124.5 14t91.5 35.5t56 47t19 48.5q0 20 -24 39t-64.5 37.5t-93.5 36t-110.5 35t-115.5 35.5t-108 37q-57 -33 -82.5 -73.5t-25.5 -81.5zM322 419q0 -27 5 -51 t16.5 -41.5t31 -27.5t48.5 -10q46 0 88.5 24t75.5 67t53 101.5t20 126.5q0 71 -25.5 108t-85.5 37q-31 0 -60 -15t-54.5 -41t-46 -59.5t-35.5 -70.5t-23 -75.5t-8 -72.5z" />
<glyph unicode="h" horiz-adv-x="1204" d="M38 0l281 1226h-141v48l415 55l-148 -624q45 27 103 50t115 39.5t107.5 26t80.5 9.5q92 0 129 -21.5t37 -69.5q0 -26 -7 -55l-113 -492q-7 -28 -7 -50q0 -33 22 -33q10 0 26.5 12.5t36 31t40.5 40t39 40.5l38 -34q-45 -50 -89.5 -91t-91.5 -70.5t-97.5 -46t-105.5 -16.5 q-39 0 -60.5 18t-21.5 56q0 9 1 19t4 21l114 490q6 24 6 44q0 45 -25.5 63.5t-67.5 18.5q-50 0 -112.5 -22t-119.5 -56l-148 -627h-240z" />
<glyph unicode="i" horiz-adv-x="596" d="M46 49q0 9 1 19t4 21l152 649h-123v55l386 38l-149 -639q-7 -28 -7 -50q0 -33 22 -33q10 0 26.5 12.5t36 31t40.5 40t39 40.5l38 -34q-45 -50 -89.5 -91t-91.5 -70.5t-97.5 -46t-105.5 -16.5q-39 0 -60.5 18t-21.5 56zM260 1129q0 31 11.5 58.5t32 47.5t47.5 31.5 t58 11.5t59 -12t48.5 -32t32.5 -47.5t12 -57.5q0 -31 -12 -58.5t-32.5 -48.5t-48.5 -33t-59 -12t-58 11.5t-47.5 32t-32 48.5t-11.5 60z" />
<glyph unicode="j" horiz-adv-x="619" d="M-82 -421q34 33 56.5 64.5t38 67.5t27.5 78.5t24 97.5l191 851h-123v55l386 37l-203 -874l-347 -430zM297 1129q0 31 11.5 58.5t32 47.5t47.5 31.5t58 11.5t59 -12t48.5 -32t32.5 -47.5t12 -57.5q0 -31 -12 -58.5t-32.5 -48.5t-48.5 -33t-59 -12t-58 11.5t-47.5 32 t-32 48.5t-11.5 60z" />
<glyph unicode="k" horiz-adv-x="1062" d="M1 0l285 1226h-141v48l415 55l-156 -653q55 46 110 76t106 47.5t96 24.5t81 7q32 0 60.5 -13t50.5 -35.5t34.5 -53t12.5 -64.5q0 -196 -312 -256q18 -67 39 -120.5t43 -91t45 -58t46 -20.5q26 0 48.5 16t50.5 39l28 -36q-37 -33 -70.5 -62t-65.5 -50.5t-62 -34t-59 -12.5 q-43 0 -73 16t-54.5 51t-48 90.5t-53.5 135.5q-17 46 -34 89.5t-33 71.5q11 -1 21.5 -1.5t21.5 -0.5q64 0 115.5 13.5t88 37t56.5 55.5t20 70q0 28 -18 48.5t-43 20.5q-17 0 -46 -4t-65 -16t-77.5 -33t-84.5 -55l-135 -568h-243z" />
<glyph unicode="l" horiz-adv-x="612" d="M35 49q0 9 1 19t4 21l263 1137h-141v48l415 55l-271 -1137q-7 -28 -7 -50q0 -33 22 -33q10 0 26.5 12.5t36 31t40.5 40t39 40.5l38 -34q-45 -50 -89.5 -91t-91.5 -70.5t-97.5 -46t-105.5 -16.5q-39 0 -60.5 18t-21.5 56z" />
<glyph unicode="m" horiz-adv-x="1775" d="M38 0l172 738h-123v55l386 38l-28 -126q45 27 103 50t115 39.5t107.5 26t80.5 9.5q92 0 129 -21.5t37 -69.5q0 -17 -3 -35q45 27 103 50t116 40t108.5 26.5t80.5 9.5q92 0 129 -21.5t37 -69.5q0 -26 -7 -55l-113 -492q-7 -28 -7 -50q0 -33 22 -33q10 0 26.5 12.5t36 31 t40.5 40t39 40.5l38 -34q-45 -50 -89.5 -91t-91.5 -70.5t-97.5 -46t-105.5 -16.5q-39 0 -60.5 18t-21.5 56q0 9 1 19t4 21l114 490q6 24 6 44q0 45 -25.5 63.5t-67.5 18.5q-24 0 -53 -6t-59 -16.5t-60.5 -24.5t-58.5 -31l-148 -627h-240l135 579q6 24 6 44q0 45 -25.5 63.5 t-67.5 18.5q-50 0 -112.5 -22t-119.5 -56l-148 -627h-240z" />
<glyph unicode="n" horiz-adv-x="1204" d="M38 0l172 738h-123v55l386 38l-28 -126q45 27 103 50t115 39.5t107.5 26t80.5 9.5q92 0 129 -21.5t37 -69.5q0 -26 -7 -55l-113 -492q-7 -28 -7 -50q0 -33 22 -33q10 0 26.5 12.5t36 31t40.5 40t39 40.5l38 -34q-45 -50 -89.5 -91t-91.5 -70.5t-97.5 -46t-105.5 -16.5 q-39 0 -60.5 18t-21.5 56q0 9 1 19t4 21l114 490q6 24 6 44q0 45 -25.5 63.5t-67.5 18.5q-50 0 -112.5 -22t-119.5 -56l-148 -627h-240z" />
<glyph unicode="o" horiz-adv-x="1029" d="M52 267q0 126 43 230t120 178t183 114.5t232 40.5q73 0 131.5 -20.5t100 -57t64 -88.5t22.5 -115q0 -122 -41.5 -227t-117 -182t-182.5 -121t-238 -44q-77 0 -136 21.5t-99.5 60t-61 92t-20.5 118.5zM288 262q0 -106 36.5 -161t107.5 -55q53 0 94 24t71.5 64t51.5 92 t34 108.5t18.5 113t5.5 105.5q0 103 -36 159t-107 56q-54 0 -95.5 -27t-72.5 -70.5t-51.5 -98.5t-33 -111t-18 -108.5t-5.5 -90.5z" />
<glyph unicode="p" horiz-adv-x="1007" d="M-79 -477l280 1215h-123v55l386 37l-16 -70q49 36 102 53t107 17q73 0 126.5 -24t88.5 -65.5t52 -96.5t17 -117t-16.5 -126.5t-48 -126t-78.5 -116t-108 -95t-135.5 -64.5t-161.5 -24q-34 0 -65 8.5t-54 24.5l-112 -485h-241zM307 153q11 -48 42.5 -76.5t76.5 -28.5 q42 0 79 19.5t67.5 52.5t54.5 77.5t40.5 93.5t25.5 101t9 100q0 46 -8 86.5t-25.5 70.5t-44 47.5t-62.5 17.5q-63 0 -139 -60z" />
<glyph unicode="q" horiz-adv-x="996" d="M37 245q0 62 15.5 129.5t44.5 132.5t71.5 123.5t96 103t118 70.5t138.5 26q59 0 110.5 -22t82.5 -47l74 69h154l-291 -1238l136 -21l-8 -48h-385l135 587q-42 -35 -79.5 -60.5t-70.5 -41.5t-63 -24t-58 -9q-57 1 -99 22.5t-69 57.5t-40 85t-13 105zM259 286 q0 -79 32 -127t86 -48q32 0 74.5 22t99.5 73l112 493q-61 55 -120 55q-39 0 -75 -21.5t-67.5 -57.5t-57.5 -83.5t-44.5 -99.5t-29 -105t-10.5 -101z" />
<glyph unicode="r" horiz-adv-x="748" d="M6 0l170 738h-123v55l386 37l-34 -148q63 70 127.5 109t130.5 39q35 0 69 -10.5t68 -42.5l-140 -202q-22 30 -66.5 53.5t-97.5 23.5q-28 0 -55.5 -8t-51.5 -28l-143 -616h-240z" />
<glyph unicode="s" horiz-adv-x="799" d="M-34 18l32 206l53 -4q7 -39 25 -68t44.5 -48t60 -28.5t71.5 -9.5q27 0 52 6.5t44.5 19t31 30t11.5 39.5q0 38 -23 67.5t-57.5 56t-75 52.5t-75 57t-57.5 69t-23 89q0 67 33 119t89 87t129 53.5t153 18.5q58 0 117 -8.5t116 -30.5l-42 -209l-54 2q-3 37 -20 67.5t-42 52 t-55.5 33t-61.5 11.5q-23 0 -44.5 -7t-38.5 -20t-27.5 -30t-10.5 -37q0 -40 24.5 -70.5t61 -57.5t79 -52.5t79 -53.5t61 -61t24.5 -75q0 -84 -35.5 -143t-94 -95.5t-134 -53.5t-155.5 -17q-69 0 -137 11.5t-128 31.5z" />
<glyph unicode="t" horiz-adv-x="612" d="M24 49q0 9 1 19t4 21l148 639h-117l19 83h117l55 238l269 85l-77 -323h156l-18 -83h-158l-128 -536q-7 -28 -7 -50q0 -33 22 -33q10 0 26.5 12.5t36 31t40.5 40t39 40.5l38 -34q-45 -50 -89.5 -91t-91.5 -70.5t-97.5 -46t-105.5 -16.5q-39 0 -60.5 18t-21.5 56z" />
<glyph unicode="u" horiz-adv-x="1201" d="M70 139q0 9 1.5 18t3.5 19l132 562h-123v55l386 37l-146 -620q-7 -29 -0.5 -49t22 -32.5t37.5 -18t48 -5.5q45 0 103 19t113 48l150 639h242l-145 -619q-7 -28 -7 -50q0 -33 22 -33q10 0 26.5 12.5t36 31t40.5 40t39 40.5l38 -34q-45 -50 -89.5 -91t-91.5 -70.5 t-97.5 -46t-105.5 -16.5q-39 0 -60.5 18t-21.5 56q0 9 1 19t5 24q-44 -23 -92 -43t-96.5 -35t-94.5 -23.5t-85 -8.5q-43 0 -78 12t-60 33.5t-39 50t-14 61.5z" />
<glyph unicode="v" horiz-adv-x="1068" d="M20 555l115 255q88 0 183 2.5t178 17.5l32 -38q-26 -48 -60 -109.5t-64 -131t-51 -145t-21 -151.5q0 -56 12.5 -95.5t34 -64t51 -36t63.5 -11.5q52 0 101 37.5t87 102t61 150t23 181.5q0 66 -20 120t-60 88l198 103q19 -10 36.5 -32.5t31 -50.5t21.5 -59.5t8 -59.5 q0 -76 -18 -153.5t-53 -150t-85.5 -136t-115.5 -111t-143.5 -75t-168.5 -27.5q-65 0 -120.5 15.5t-96 45t-63.5 72.5t-23 99q0 54 14.5 112.5t42 117.5t69 116.5t95.5 110.5q-58 0 -96 -2t-66.5 -13.5t-51.5 -36.5t-50 -71z" />
<glyph unicode="w" horiz-adv-x="1585" d="M12 555l115 255q88 0 183 2.5t178 17.5l32 -38q-19 -25 -41.5 -63t-45 -84t-44 -98t-37.5 -105t-26 -104t-10 -97q0 -43 10.5 -76.5t28.5 -57t42 -35.5t51 -12q31 0 64 17t64 52.5t56.5 90.5t41.5 132l96 459h242l-104 -456q-16 -70 -16 -125q0 -86 34 -128t83 -42 q42 0 88.5 29.5t86 86t65 138.5t25.5 188q0 66 -18.5 125t-60.5 100l198 103q52 -44 76 -104t24 -129q0 -68 -21 -141t-59.5 -142.5t-91 -131.5t-116 -108.5t-135 -74t-146.5 -27.5q-94 0 -158.5 38t-93.5 101q-33 -35 -64 -60.5t-65 -42t-71.5 -25t-83.5 -8.5 q-81 0 -138.5 19t-93.5 52t-52.5 77.5t-16.5 96.5q0 54 16 113t45.5 117t69.5 113t88 101q-58 0 -96 -2t-66.5 -13.5t-51.5 -36.5t-50 -71z" />
<glyph unicode="x" horiz-adv-x="1046" d="M-35 38l87 210q9 -14 24.5 -24.5t33.5 -18t37 -11t36 -3.5q51 0 99.5 35.5t110.5 115.5l-165 355h-144l-9 50l337 83l138 -285l20 26q36 47 72.5 93.5t75 83t81 59.5t90.5 23q16 0 32.5 -2t30.5 -7.5t25 -13.5t16 -20l-75 -204q-29 47 -103 47q-30 0 -55 -4t-50.5 -18.5 t-54 -41.5t-64.5 -72l-11 -13l86 -179q32 -67 55 -106.5t49 -53t60.5 -2t89.5 45.5l25 -44q-52 -34 -93.5 -63.5t-77 -51t-65.5 -33.5t-58 -12q-27 0 -46 5.5t-37.5 24.5t-38.5 54.5t-48 94.5l-53 112q-37 -52 -80.5 -105t-90 -96t-94.5 -70t-94 -27q-41 0 -65.5 20 t-38.5 43z" />
<glyph unicode="y" horiz-adv-x="989" d="M-83 -247q31 -19 71 -19q39 0 84 17t93.5 47t98.5 71t99 89l-245 780h-134v55l364 37l192 -672q46 60 85 119.5t67.5 114.5t44.5 101.5t16 81.5q0 19 -7 36.5t-18.5 31.5t-26 25t-30.5 17l144 145q69 0 105 -31t36 -82q0 -30 -15.5 -73.5t-44 -97.5t-68 -116t-87 -128.5 t-101 -135t-110.5 -135.5q-86 -101 -171.5 -193t-165 -162t-150 -111.5t-126.5 -41.5v230z" />
<glyph unicode="z" horiz-adv-x="843" d="M-49 24l615 613q-32 -21 -52.5 -26.5t-40.5 -5.5q-8 0 -17 0.5t-19 0.5q-33 0 -61 6.5t-54 14.5t-50.5 14.5t-50.5 6.5q-28 0 -51.5 -4.5t-44.5 -16t-39.5 -31.5t-35.5 -50l-35 27l89 200q25 22 65 39.5t94 17.5q44 0 88.5 -10t89 -22t89 -22t89.5 -10q44 0 80 12.5 t65 51.5l51 -39l-604 -608q21 10 36.5 15.5t28.5 7.5t26 2.5t29 0.5q34 0 64 -8t58 -18t55 -18t56 -8q49 0 80.5 16t55.5 61l32 -21l-100 -215q-18 -9 -41.5 -16t-65.5 -7t-89.5 8.5t-97 19t-99 19t-95.5 8.5q-54 0 -89.5 -11.5t-66.5 -43.5z" />
<glyph unicode="{" horiz-adv-x="1039" d="M72 427l10 45q63 10 109 16.5t79.5 16.5t56.5 26t40.5 45t32 75t29.5 114l59 263q27 120 74 188.5t120 102.5t174 43.5t235 12.5l-9 -41q-59 -4 -101 -9.5t-72 -16t-50 -28.5t-34.5 -47t-26 -71.5t-24.5 -102.5l-44 -193q-23 -102 -56 -173t-84.5 -119.5t-126 -77.5 t-179.5 -47q74 -14 127 -34.5t87 -50.5t50 -72t16 -99q0 -68 -21 -161l-44 -193q-13 -57 -20 -97t-7 -69q0 -32 10.5 -51t35.5 -30.5t65 -17.5t100 -10l-9 -41q-112 2 -198.5 8.5t-145.5 28.5t-89.5 64.5t-30.5 117.5q0 27 4 58.5t13 69.5l59 263q12 55 18.5 94.5t6.5 68.5 q0 39 -13 60.5t-42 33.5t-74.5 19t-109.5 18z" />
<glyph unicode="|" horiz-adv-x="1030" d="M473 -477v1839h84v-1839h-84z" />
<glyph unicode="}" horiz-adv-x="1039" d="M-131 -477l9 41q59 4 101 9.5t72 16t49.5 28.5t34 47t26 71.5t24.5 102.5l44 193q23 102 56.5 173t85.5 119t126 77.5t179 47.5q-75 14 -128.5 34t-87.5 50t-50 71.5t-16 98.5q0 69 22 163l44 193q13 57 20 96.5t7 68.5q0 32 -11 51.5t-35.5 31t-65 17t-99.5 10.5l9 41 q112 -2 198.5 -8.5t145 -28.5t89 -65t30.5 -117q0 -27 -4 -59t-12 -69l-59 -263q-13 -57 -19.5 -96t-6.5 -68q0 -39 13.5 -60t42.5 -33t75 -19l110 -17l-10 -45q-64 -10 -110 -16.5t-79.5 -16.5t-57 -26.5t-41 -46t-31.5 -75t-29 -113.5l-59 -263q-27 -120 -74 -188.5 t-120 -102.5t-173.5 -43.5t-234.5 -12.5z" />
<glyph unicode="~" horiz-adv-x="1227" d="M64 330q7 75 34 134.5t69.5 101t98 63.5t120.5 22q129 0 264 -93q63 -45 116 -65.5t106 -20.5q78 0 123.5 47t60.5 132h78q-9 -79 -34.5 -139t-63 -100.5t-85 -61t-101.5 -20.5q-128 0 -270 92q-69 44 -128 66t-113 22q-39 0 -73 -14.5t-59.5 -39t-42 -57.5t-20.5 -69 h-80z" />
<glyph unicode="&#xa1;" horiz-adv-x="583" d="M-66 -495q-1 11 2 23.5t8 26.5l299 879h114l-97 -879q-3 -26 -10.5 -46t-22.5 -33.5t-39.5 -21t-61.5 -7.5h-96q-54 0 -75 15t-21 43zM220 684q0 33 14 62.5t36.5 51t51.5 34t60 12.5q48 0 76.5 -26.5t28.5 -71.5q0 -16 -4 -31q-6 -28 -21 -51.5t-36.5 -41t-47.5 -27.5 t-54 -10q-48 0 -76 27t-28 72z" />
<glyph unicode="&#xa2;" horiz-adv-x="1057" d="M42 286q0 110 49.5 206t132.5 169t193 118t230 53l25 114h40l-25 -112h1q53 0 98.5 -8.5t81.5 -22.5t62.5 -32t41.5 -37l-134 -160q-13 44 -28 73.5t-35 49t-46 31.5t-61 22l-147 -655q6 -1 12 -1h12q31 0 61.5 8t62 24.5t66 41t75.5 58.5l59 -38q-90 -90 -179 -141.5 t-195 -65.5l-26 -118h-40l25 114q-11 -1 -23 -1.5t-24 -0.5q-86 0 -153.5 23t-114.5 64t-72 98.5t-25 125.5zM346 324q0 -88 34.5 -145.5t101.5 -76.5l147 653h-10q-62 0 -112 -40.5t-86 -103.5t-55.5 -139.5t-19.5 -147.5z" />
<glyph unicode="&#xa3;" horiz-adv-x="1024" d="M-38 59q0 42 31 77.5t77.5 64t99.5 50t98 36.5q-6 37 -9.5 73t-3.5 76q0 38 4 80t12 93h-189l9 40h188q19 81 45 161t59.5 151.5t75.5 132.5t92 106t109.5 70t128.5 25q35 0 78 -10.5t84 -28.5t74 -41.5t48 -49.5l-213 -130q-11 15 -17 37t-11 45.5t-10 47.5t-13.5 42.5 t-22.5 30.5t-36 12q-20 0 -40.5 -24.5t-41 -67.5t-42 -100.5t-43 -124.5t-43 -139.5t-43.5 -144.5h204l-9 -40h-208q-35 -118 -64 -192.5t-61 -116.5q11 4 22.5 4.5t22.5 0.5q29 0 55 -15t49 -38t44 -49.5t42 -49.5t42 -38t44 -15q26 0 46 23t20 65q0 25 -9 47t-19.5 41.5 t-20 36t-10.5 30.5l221 58q12 -15 12 -44q0 -31 -16.5 -71.5t-43.5 -83t-63 -83.5t-74.5 -73t-77.5 -51.5t-73 -19.5q-39 0 -68 13t-51 35t-39 49.5t-32.5 56t-31.5 56t-36 48.5q-19 -35 -47.5 -79.5t-60.5 -84.5t-66 -67t-64 -27q-55 0 -84.5 23.5t-29.5 60.5z" />
<glyph unicode="&#xa4;" horiz-adv-x="1338" d="M187 952l110 110l78 -122q60 48 128.5 73t149.5 25q160 0 277 -96q19 29 40.5 60.5t38.5 57.5l125 -97l-137 -90q48 -60 73 -129t25 -148q0 -81 -25 -149.5t-73 -128.5q29 -18 62.5 -40t59.5 -39l-109 -109l-79 122q-120 -99 -278 -99t-278 99q-10 -16 -22 -34t-24 -36.5 t-23.5 -36t-20.5 -30.5l-96 125l119 78q-97 118 -97 278q0 78 24.5 148t72.5 130q-29 19 -62 40t-59 38zM367 596q0 -65 20.5 -118t58 -90.5t90 -58t117.5 -20.5q66 0 119 20.5t90.5 58.5t57.5 90.5t20 117.5q0 64 -20.5 117t-58 90.5t-90.5 58t-118 20.5t-117.5 -20 t-90 -57.5t-58 -90.5t-20.5 -118z" />
<glyph unicode="&#xa5;" horiz-adv-x="1429" d="M150 1226l10 48h627l-10 -48q-72 0 -106.5 -28t-34.5 -73v-4q0 -27 18 -61l192 -379h24l263 315q38 46 60.5 86.5t22.5 73.5q0 32 -26.5 51t-86.5 19l10 48h457l-10 -48q-36 0 -65 -9.5t-54 -27t-49 -43t-51 -58.5l-340 -407h239l-11 -50h-270l-84 -101l-12 -58h335 l-10 -49h-335l-46 -228q-2 -15 -4 -28t-2 -24q0 -50 34 -72.5t118 -22.5l-9 -48h-620l9 48q50 0 85 8t58.5 26t37 46t21.5 67l46 228h-316l10 49h316l9 45l-59 114h-235l11 50h199l-190 370q-23 45 -41.5 78t-37.5 54.5t-42 32t-55 10.5z" />
<glyph unicode="&#xa6;" horiz-adv-x="949" d="M402 348h122v-803h-122v803zM402 534v802h122v-802h-122z" />
<glyph unicode="&#xa7;" horiz-adv-x="1195" d="M50 -62q0 13 12 24t33 22l83 39q23 11 48 20t49 9q25 0 36.5 -14.5t11.5 -52.5q-1 -5 -1 -9v-8q0 -38 14.5 -66.5t38.5 -48t55 -29.5t65 -10q36 0 75 14t71.5 41t54 66.5t21.5 90.5q0 43 -24.5 75.5t-64.5 59.5t-91 50.5t-104 48t-104 52.5t-91 64t-64.5 81.5 t-24.5 106.5q0 64 20.5 115.5t56 92t84 71.5t104.5 54q-29 31 -46.5 70t-17.5 90q0 96 40.5 167.5t104.5 118.5t144 70t159 23q61 0 120 -11.5t108 -33t86 -52t55 -68.5q4 -7 4 -14q0 -27 -44 -48l-82 -39q-24 -11 -50 -20t-48 -9t-35.5 11.5t-13.5 43.5q0 7 1 14.5t1 14.5 q0 37 -14 66t-38 48.5t-55 29.5t-65 10q-36 0 -75.5 -14t-72 -41t-53.5 -67t-21 -91q0 -43 24.5 -75.5t64 -59.5t90.5 -50.5t104.5 -48t104.5 -52.5t90.5 -63.5t64 -81.5t24.5 -107q0 -64 -20.5 -116t-56 -92.5t-84 -71t-105.5 -52.5q30 -31 47.5 -70.5t17.5 -90.5 q0 -96 -40.5 -167t-104.5 -118t-143.5 -70t-158.5 -23q-62 0 -120.5 11.5t-108 33t-86.5 52t-55 68.5q-5 12 -5 16zM304 671q0 -47 22.5 -82t59.5 -62t85 -49.5t99 -44t101 -45t91 -53.5q75 29 115 76.5t40 104.5q0 49 -22 84.5t-58.5 63.5t-84 50t-98 43.5t-101 45.5 t-92.5 55q-75 -30 -116 -75.5t-41 -111.5z" />
<glyph unicode="&#xa8;" horiz-adv-x="928" d="M96 1129q0 31 11.5 58.5t32 47.5t47.5 31.5t58 11.5t59 -12t48.5 -32t32.5 -47.5t12 -57.5q0 -31 -12 -58.5t-32.5 -48.5t-48.5 -33t-59 -12t-58 11.5t-47.5 32t-32 48.5t-11.5 60zM531 1129q0 31 11.5 58.5t32 47.5t47.5 31.5t58 11.5t59 -12t48.5 -32t32.5 -47.5 t12 -57.5q0 -31 -12 -58.5t-32.5 -48.5t-48.5 -33t-59 -12t-58 11.5t-47.5 32t-32 48.5t-11.5 60z" />
<glyph unicode="&#xa9;" horiz-adv-x="1556" d="M66 622q0 97 25 186.5t71 167.5t110 142t142 109.5t167.5 70.5t186.5 25t186.5 -25t167.5 -70.5t142.5 -109.5t110.5 -142t71 -167.5t25 -186.5q0 -145 -55.5 -272.5t-151 -222.5t-223.5 -150t-273 -55q-97 0 -186.5 25t-167.5 70.5t-142 109.5t-110 141.5t-71 167 t-25 186.5zM164 622q0 -125 47 -234.5t129 -191.5t191.5 -129t234.5 -47t235 47t191.5 129t129 191.5t47.5 234.5q0 83 -21.5 160t-61 144t-94.5 122t-122 94.5t-144 61t-160 21.5q-125 0 -234.5 -47.5t-191.5 -129t-129 -191.5t-47 -235zM282 609q0 103 45 187t119.5 143.5 t171 92t199.5 32.5q40 0 73 -2.5t63 -7t58 -10t57 -11.5q8 -2 19 -3t18 -3l34 -213l-67 4q-22 52 -45 83.5t-51.5 47.5t-65.5 21t-87 5q-67 0 -123 -24.5t-96 -70t-62.5 -111.5t-22.5 -148t27.5 -147t73.5 -110.5t105 -70t121 -24.5q31 0 67.5 11t72 31t67.5 47t55 59 l71 -46q-39 -58 -84 -95t-94.5 -58.5t-102.5 -30t-108 -8.5q-99 0 -191 28t-162.5 83t-112.5 135t-42 184z" />
<glyph unicode="&#xaa;" horiz-adv-x="820" d="M201 642v72h525v-72h-525zM207 995q0 56 20.5 118t58.5 113.5t92 85t120 33.5q26 0 50 -7t46 -23l5 20h149l-81 -343l-7 -29q-4 -16 -4 -30q0 -20 13 -20q6 0 16 7.5t21.5 18.5t24 24.5t23.5 24.5l23 -21q-54 -60 -109 -97t-121 -37q-50 0 -50 44q0 10 3 24l3 14 q-51 -43 -90.5 -62.5t-72.5 -19.5q-35 0 -60 12.5t-41 34.5t-24 51.5t-8 63.5zM341 1020q0 -48 19 -76.5t51 -28.5q20 0 45 13t60 44l67 296q-36 33 -72 33q-35 0 -66 -28t-54 -70t-36.5 -91t-13.5 -92z" />
<glyph unicode="&#xab;" horiz-adv-x="851" d="M43 415l479 378h36l-301 -378l131 -379h-36zM371 415l410 344h36l-232 -344l77 -345h-36z" />
<glyph unicode="&#xac;" horiz-adv-x="1366" d="M145 721v90h1076v-437h-93v347h-983z" />
<glyph unicode="&#xad;" horiz-adv-x="808" d="M80 407v106h648v-106h-648z" />
<glyph unicode="&#xae;" horiz-adv-x="1556" d="M220 953q0 97 25 186.5t71 167.5t110 142t142 109.5t167.5 70.5t186.5 25t186.5 -25t167.5 -70.5t142.5 -109.5t110.5 -142t71 -167.5t25 -186.5q0 -145 -55.5 -272.5t-151 -222.5t-223.5 -150t-273 -55q-97 0 -186.5 25t-167.5 70.5t-142 109.5t-110 141.5t-71 167 t-25 186.5zM318 953q0 -125 47 -234.5t129 -191.5t191.5 -129t234.5 -47t235 47t191.5 129t129 191.5t47.5 234.5q0 83 -21.5 160t-61 144t-94.5 122t-122 94.5t-144 61t-160 21.5q-125 0 -234.5 -47.5t-191.5 -129t-129 -191.5t-47 -235zM517 590v33l101 17v675l-101 17v32 q140 8 240.5 11t146.5 3q145 0 222.5 -48t77.5 -150q0 -35 -12.5 -63.5t-34 -53t-52.5 -44t-70 -36.5q31 -3 54 -20t41.5 -42t33.5 -56t31 -63.5t32.5 -63t39 -57.5t46.5 -41.5t46 -19.5v-29h-236q-19 35 -37.5 76t-38.5 83.5t-42.5 83t-50.5 71.5t-62 49.5t-76 18.5h-10 v-335l116 -18v-30h-405zM806 1016q12 -1 25 -2t24 -1q39 0 69.5 9.5t52.5 29t34 50t12 72.5q0 40 -11 70.5t-30.5 50.5t-47 30.5t-60.5 10.5q-32 0 -68 -9v-311z" />
<glyph unicode="&#xaf;" horiz-adv-x="1086" d="M246 1047v112h594v-112h-594z" />
<glyph unicode="&#xb0;" horiz-adv-x="811" d="M172 979q0 63 25.5 119t68.5 97.5t99.5 66t118.5 24.5q66 0 123 -25t99 -68.5t66 -101t24 -123.5q0 -63 -25 -118.5t-68 -97.5t-99.5 -66.5t-119.5 -24.5q-66 0 -123 25t-99 68.5t-66 101.5t-24 123zM301 965q0 -36 13.5 -68t37 -56t55.5 -37.5t69 -13.5q42 0 77 13 t60.5 36.5t39.5 57t14 75.5q0 41 -13.5 75t-38 58.5t-58.5 38t-74 13.5q-42 0 -75.5 -14.5t-57 -40t-36.5 -60.5t-13 -77z" />
<glyph unicode="&#xb1;" horiz-adv-x="1140" d="M60 88v112h972v-112h-972zM60 664v115h423v370h124v-370h425v-115h-425v-370h-124v370h-423z" />
<glyph unicode="&#xb2;" horiz-adv-x="820" d="M138 546l11 44q70 67 139.5 124.5t129 116.5t103.5 124.5t63 146.5q15 67 -6.5 97.5t-62.5 30.5q-42 0 -96.5 -32t-111.5 -104l-44 29q34 55 72 93.5t79 62.5t84.5 35t87.5 11q42 0 80.5 -11t65 -36t36.5 -65.5t-3 -98.5q-13 -55 -57.5 -109.5t-104.5 -107t-127.5 -104 t-124.5 -100.5h239l63 93h46l-84 -240h-477z" />
<glyph unicode="&#xb3;" horiz-adv-x="820" d="M178 632l134 132q11 -41 24.5 -68t28.5 -43t30.5 -22t31.5 -6q24 0 47 13.5t42.5 36.5t34 53t22.5 63q7 30 6.5 58t-11.5 50t-33.5 35t-59.5 13q-18 0 -43 -5.5t-57 -18.5v67q52 10 91.5 30t67.5 45t44.5 54t23.5 58q8 36 -4.5 51.5t-35.5 15.5q-18 0 -41 -8t-47 -22 t-48 -34t-44 -44l-39 46q36 44 73 74t74 49t72 27t67 8q37 0 68 -9.5t51.5 -27.5t28.5 -43.5t1 -57.5q-11 -50 -54.5 -96.5t-130.5 -96.5q49 -5 82 -20t51.5 -37.5t23.5 -50.5t-2 -59q-12 -50 -50 -103t-92 -97t-118.5 -72.5t-129.5 -28.5q-51 0 -97.5 21.5t-82.5 69.5z" />
<glyph unicode="&#xb4;" horiz-adv-x="641" d="M70 1018q0 7 6 15l200 272q12 16 25.5 20t39.5 4h184q24 0 35 -7.5t11 -17.5q0 -6 -5 -13.5t-19 -16.5l-412 -261q-20 -12 -37 -12q-16 0 -22 5t-6 12z" />
<glyph unicode="&#xb5;" horiz-adv-x="1245" d="M-32 -402q0 34 9 86t26 127l183 814q6 27 6 51q0 39 -22.5 62.5t-81.5 23.5l11 49q103 0 185.5 4.5t157.5 18.5h65l-105 -467q-8 -35 -11.5 -64.5t-3.5 -53.5q0 -71 28 -100.5t72 -29.5q49 0 108.5 28t116.5 70l92 408q6 27 6 51q0 39 -22.5 62.5t-81.5 23.5l11 49 q103 0 185.5 4.5t157.5 18.5h65l-121 -539q-5 -21 -7.5 -39t-2.5 -34q0 -38 17.5 -57t57.5 -19q16 0 34 3l-12 -55q-106 -16 -202 -45t-184 -74h-47l33 148q-69 -40 -121.5 -68t-97 -46t-86 -26t-88.5 -8q-23 0 -44 6t-38 15.5t-29 20.5t-18 21l-21 -93q-6 -29 -6 -55 q0 -45 13 -84.5t30.5 -72.5t34.5 -58t25 -41q5 -9 6 -16.5t2 -13.5q0 -23 -17.5 -38t-46.5 -20l-117 -19q-12 -2 -22 -3t-19 -1q-33 0 -48 16.5t-15 58.5z" />
<glyph unicode="&#xb6;" horiz-adv-x="1079" d="M118 793q0 112 42.5 201t116.5 151.5t174.5 95.5t216.5 33h494l-13 -55h-131l-392 -1696h-74l392 1696h-186l-392 -1696h-74l230 995q-205 0 -304.5 70t-99.5 205z" />
<glyph unicode="&#xb7;" horiz-adv-x="540" d="M165 739q0 45 30 75t75 30t75 -30t30 -75t-30 -75t-75 -30t-75 30t-30 75z" />
<glyph unicode="&#xb8;" horiz-adv-x="739" d="M143 -397q0 23 15 40.5t39 17.5q36 0 61 -11.5t45 -25.5t39.5 -25.5t44.5 -11.5q22 0 40.5 7.5t32 20t21 28.5t7.5 33q0 43 -59.5 72.5t-162.5 42.5l138 226h63l-62 -104q44 -9 79 -22t60 -36t38 -58t13 -87q0 -38 -15.5 -72t-49 -59.5t-86 -40.5t-125.5 -15q-37 0 -69 5 t-56 14.5t-37.5 24.5t-13.5 36z" />
<glyph unicode="&#xb9;" horiz-adv-x="820" d="M247 559l11 49l138 30l133 575h-132l11 48l190 62h103l-158 -685l124 -30l-11 -49h-409z" />
<glyph unicode="&#xba;" horiz-adv-x="820" d="M182 642v72h539v-72h-539zM251 1007q0 76 26 138t72 106.5t110 69t139 24.5q88 0 139.5 -46.5t51.5 -122.5q0 -73 -24.5 -136t-70 -109t-109.5 -72.5t-143 -26.5q-47 0 -82.5 13t-59.5 36t-36.5 55t-12.5 71zM393 1004q0 -63 22 -96t64 -33q48 0 80 31t51 77t27 99t8 97 q0 62 -22 95.5t-64 33.5q-33 0 -58 -16t-43.5 -42.5t-31 -59.5t-20 -67t-10.5 -65t-3 -54z" />
<glyph unicode="&#xbb;" horiz-adv-x="851" d="M34 70l233 345l-78 344h36l256 -344l-411 -345h-36zM294 36l301 379l-131 378h36l309 -378l-479 -379h-36z" />
<glyph unicode="&#xbc;" horiz-adv-x="1616" d="M117 559l11 49l138 30l133 575h-132l11 48l190 62h103l-158 -685l124 -30l-11 -49h-409zM866 196l7 31l458 557h115l-118 -509h106l-18 -79h-106l-47 -206h-164l47 206h-280zM993 275h171l68 291zM330 -59l932 1421h102l-932 -1421h-102z" />
<glyph unicode="&#xbd;" horiz-adv-x="1616" d="M88 559l11 49l138 30l133 575h-132l11 48l190 62h103l-158 -685l124 -30l-11 -49h-409zM267 -59l932 1421h102l-932 -1421h-102zM870 -10l11 44q70 67 139.5 124.5t129 116.5t103.5 124.5t63 146.5q15 67 -6.5 97.5t-62.5 30.5q-42 0 -96.5 -32t-111.5 -104l-44 29 q34 55 72 93.5t79 62.5t84.5 35t87.5 11q42 0 80.5 -11t65 -36t36.5 -65.5t-3 -98.5q-13 -55 -57.5 -109.5t-104.5 -107t-127.5 -104t-124.5 -100.5h239l63 93h46l-84 -240h-477z" />
<glyph unicode="&#xbe;" horiz-adv-x="1616" d="M102 632l134 132q11 -41 24.5 -68t28.5 -43t30.5 -22t31.5 -6q24 0 47 13.5t42.5 36.5t34 53t22.5 63q7 30 6.5 58t-11.5 50t-33.5 35t-59.5 13q-18 0 -43 -5.5t-57 -18.5v67q52 10 91.5 30t67.5 45t44.5 54t23.5 58q8 36 -4.5 51.5t-35.5 15.5q-18 0 -41 -8t-47 -22 t-48 -34t-44 -44l-39 46q36 44 73 74t74 49t72 27t67 8q37 0 68 -9.5t51.5 -27.5t28.5 -43.5t1 -57.5q-11 -50 -54.5 -96.5t-130.5 -96.5q49 -5 82 -20t51.5 -37.5t23.5 -50.5t-2 -59q-12 -50 -50 -103t-92 -97t-118.5 -72.5t-129.5 -28.5q-51 0 -97.5 21.5t-82.5 69.5z M340 -59l932 1421h102l-932 -1421h-102zM874 196l7 31l458 557h115l-118 -509h106l-18 -79h-106l-47 -206h-164l47 206h-280zM1001 275h171l68 291z" />
<glyph unicode="&#xbf;" horiz-adv-x="970" d="M-123 -285q0 16 1.5 33t6.5 37q19 80 65.5 132t107.5 89t128.5 66t127 62t105 78t61.5 114q4 15 4 34q0 26 -6 50.5t-11 52.5h92q35 -68 35 -126q0 -12 -1.5 -23.5t-3.5 -22.5q-12 -53 -47.5 -100t-82.5 -90.5t-100 -85.5t-100 -85t-82.5 -89t-47.5 -98q-9 -39 -9 -68 q0 -60 31.5 -87.5t91.5 -27.5q81 0 139.5 55.5t85.5 175.5q4 17 14.5 30.5t25 23t31 14.5t33.5 5t34 -6l80 -30q39 -15 39 -55q0 -19 -11 -39q-35 -62 -79.5 -107.5t-101.5 -75t-129 -43.5t-163 -14q-71 0 -137 10t-116.5 35t-80.5 68t-30 108zM437 674q0 18 4 31 q6 28 21 51.5t36.5 40.5t47.5 27t54 10q48 0 76 -26.5t28 -71.5q0 -33 -14 -62.5t-36.5 -51t-51.5 -34.5t-60 -13q-48 0 -76.5 27t-28.5 72z" />
<glyph unicode="&#xc2;" horiz-adv-x="1487" d="M-56 0l12 48l201 32l816 1194h192l224 -1194l134 -32l-11 -48h-650l11 49l195 31l-71 387h-473l-244 -387l220 -32l-11 -48h-545zM573 542h411l-91 505zM757 1422l305 293q17 16 28 20t29 4h97q17 0 27.5 -3.5t19.5 -20.5l151 -290v-4q-1 -5 -8 -7.5t-12 -2.5q-8 0 -15 5 l-245 176l-342 -176q-13 -5 -17 -5q-7 0 -12.5 3.5t-5.5 7.5z" />
<glyph unicode="&#xc4;" horiz-adv-x="1487" d="M-56 0l12 48l201 32l816 1194h192l224 -1194l134 -32l-11 -48h-650l11 49l195 31l-71 387h-473l-244 -387l220 -32l-11 -48h-545zM573 542h411l-91 505zM750 1539q0 31 11.5 58.5t32 47.5t47.5 31.5t58 11.5t59 -12t48.5 -32t32.5 -47.5t12 -57.5q0 -31 -12 -58.5 t-32.5 -48.5t-48.5 -33t-59 -12t-58 11.5t-47.5 32t-32 48.5t-11.5 60zM1185 1539q0 31 11.5 58.5t32 47.5t47.5 31.5t58 11.5t59 -12t48.5 -32t32.5 -47.5t12 -57.5q0 -31 -12 -58.5t-32.5 -48.5t-48.5 -33t-59 -12t-58 11.5t-47.5 32t-32 48.5t-11.5 60z" />
<glyph unicode="&#xc5;" horiz-adv-x="1487" d="M-56 0l12 48l201 32l816 1194h192l224 -1194l134 -32l-11 -48h-650l11 49l195 31l-71 387h-473l-244 -387l220 -32l-11 -48h-545zM573 542h411l-91 505zM933 1555q0 39 14 73t39 58.5t58 38.5t72 14q40 0 74 -14t58.5 -38.5t38 -58.5t13.5 -73t-13.5 -72.5t-38 -57.5 t-58.5 -38t-74 -14t-73.5 13.5t-58 37.5t-38 57.5t-13.5 73.5zM1026 1555q0 -38 25.5 -63.5t64.5 -25.5q38 0 62.5 25.5t24.5 63.5t-24.5 63t-62.5 25q-39 0 -64.5 -25t-25.5 -63z" />
<glyph unicode="&#xc6;" horiz-adv-x="1987" d="M-165 0l11 48q48 0 96 12t90 32.5t76.5 48.5t56.5 60l663 944q31 43 31 60q0 14 -20.5 17.5t-62.5 3.5h-49l11 48h1252l-67 -299l-57 -5q2 22 3.5 41t1.5 36q0 36 -7.5 61.5t-27 42.5t-52.5 25t-85 8h-381l-112 -498h149q98 0 149.5 34.5t69.5 118.5h46l-87 -388h-46 q6 28 6 52q0 55 -38 78t-119 23h-149l-88 -393q-5 -23 -8 -40.5t-3 -31.5q0 -17 5 -27.5t15.5 -16t26.5 -7t38 -1.5h253q72 0 125 16.5t92.5 47.5t67.5 76t51 102h60l-103 -329h-1147l10 48q54 0 90 8.5t59.5 26t36.5 45.5t22 67l62 272h-407l-153 -220q-52 -75 -52 -119 q0 -40 42 -60t138 -20l-10 -48h-575zM497 542h371l114 507q5 20 6.5 35t1.5 28q0 26 -7.5 38t-19.5 12q-14 -1 -31 -14t-34 -36z" />
<glyph unicode="&#xc7;" horiz-adv-x="1610" d="M90 479q0 123 40.5 232.5t111.5 201.5t166 165.5t204 124.5t226 78.5t232 27.5q40 0 97.5 -6t122 -22t130.5 -44.5t125 -72.5l-68 -305h-46q-29 163 -122.5 252.5t-252.5 89.5q-80 0 -157.5 -24.5t-147.5 -69.5t-129 -108.5t-102 -141.5t-67.5 -168t-24.5 -189 q0 -98 32 -176.5t87.5 -133t130 -83.5t158.5 -29q78 0 145.5 21.5t129 62t119 98.5t116.5 132l57 -4l-127 -312q-138 -51 -258 -73t-235 -27l-37 -63q44 -9 79 -22t60 -36t38 -58t13 -87q0 -38 -15.5 -72t-49 -59.5t-86 -40.5t-125.5 -15q-37 0 -69 5t-56 14.5t-37.5 24.5 t-13.5 36q0 23 15 40.5t39 17.5q36 0 61 -11.5t45 -25.5t39.5 -25.5t44.5 -11.5q22 0 40.5 7.5t32 20t21 28.5t7.5 33q0 43 -59.5 72.5t-162.5 42.5l112 184q-131 1 -245.5 34t-200 97t-134.5 157.5t-49 215.5z" />
<glyph unicode="&#xca;" horiz-adv-x="1382" d="M-64 0l11 48l202 32l257 1114l-187 32l11 48h1202l-69 -299l-58 -5l-28 214h-568l-115 -498h325l94 153h46l-89 -388h-46l-24 153h-325l-91 -393q-9 -42 -10.5 -66.5t7 -37.5t27.5 -16.5t50 -3.5h483l156 242h60l-104 -329h-1217zM613 1422l305 293q17 16 28 20t29 4h97 q17 0 27.5 -3.5t19.5 -20.5l151 -290v-4q-1 -5 -8 -7.5t-12 -2.5q-8 0 -15 5l-245 176l-342 -176q-13 -5 -17 -5q-7 0 -12.5 3.5t-5.5 7.5z" />
<glyph unicode="&#xcb;" horiz-adv-x="1382" d="M-64 0l11 48l202 32l257 1114l-187 32l11 48h1202l-69 -299l-58 -5l-28 214h-568l-115 -498h325l94 153h46l-89 -388h-46l-24 153h-325l-91 -393q-9 -42 -10.5 -66.5t7 -37.5t27.5 -16.5t50 -3.5h483l156 242h60l-104 -329h-1217zM574 1539q0 31 11.5 58.5t32 47.5 t47.5 31.5t58 11.5t59 -12t48.5 -32t32.5 -47.5t12 -57.5q0 -31 -12 -58.5t-32.5 -48.5t-48.5 -33t-59 -12t-58 11.5t-47.5 32t-32 48.5t-11.5 60zM1009 1539q0 31 11.5 58.5t32 47.5t47.5 31.5t58 11.5t59 -12t48.5 -32t32.5 -47.5t12 -57.5q0 -31 -12 -58.5t-32.5 -48.5 t-48.5 -33t-59 -12t-58 11.5t-47.5 32t-32 48.5t-11.5 60z" />
<glyph unicode="&#xce;" horiz-adv-x="791" d="M-79 0l11 48l206 51l253 1095l-189 32l11 48h698l-11 -48l-202 -32l-253 -1095l183 -51l-11 -48h-696zM261 1422l305 293q17 16 28 20t29 4h97q17 0 27.5 -3.5t19.5 -20.5l151 -290v-4q-1 -5 -8 -7.5t-12 -2.5q-8 0 -15 5l-245 176l-342 -176q-13 -5 -17 -5 q-7 0 -12.5 3.5t-5.5 7.5z" />
<glyph unicode="&#xcf;" horiz-adv-x="791" d="M-79 0l11 48l206 51l253 1095l-189 32l11 48h698l-11 -48l-202 -32l-253 -1095l183 -51l-11 -48h-696zM254 1539q0 31 11.5 58.5t32 47.5t47.5 31.5t58 11.5t59 -12t48.5 -32t32.5 -47.5t12 -57.5q0 -31 -12 -58.5t-32.5 -48.5t-48.5 -33t-59 -12t-58 11.5t-47.5 32 t-32 48.5t-11.5 60zM689 1539q0 31 11.5 58.5t32 47.5t47.5 31.5t58 11.5t59 -12t48.5 -32t32.5 -47.5t12 -57.5q0 -31 -12 -58.5t-32.5 -48.5t-48.5 -33t-59 -12t-58 11.5t-47.5 32t-32 48.5t-11.5 60z" />
<glyph unicode="&#xd0;" horiz-adv-x="1749" d="M-73 0l20 88q105 0 158 35t70 113l84 376q-69 -6 -137.5 -20.5t-131.5 -29.5l-10 -2q-14 0 -14 13q0 7 13 19l93 87q12 11 31.5 15t41.5 4q21 0 36 -1t29 -2t29.5 -2.5t37.5 -2.5l78 350q6 27 6 50q0 52 -38.5 75t-128.5 23l20 90q215 14 381 20.5t295 6.5q252 0 406 -34 q94 -20 171.5 -60t133 -98.5t86 -134.5t30.5 -169q0 -70 -16 -138q-27 -122 -86 -219t-141 -171.5t-181.5 -127.5t-207.5 -87t-220 -50t-219 -16h-719zM477 193q0 -58 46 -82.5t148 -24.5q132 0 246.5 40t205.5 114.5t154.5 179.5t92.5 235q8 35 12 70t4 69q0 98 -36 175 t-105 130.5t-170.5 81.5t-231.5 28h-143l-115 -515q109 9 230 41q8 2 9 2q7 0 12.5 -4t5.5 -12v-2q0 -9 -14 -23l-84 -78q-11 -10 -28.5 -13.5t-37.5 -3.5q-27 0 -57 4.5t-55 6.5l-82 -367q-3 -14 -5 -27t-2 -25z" />
<glyph unicode="&#xd4;" horiz-adv-x="1757" d="M197 470q0 116 36 222.5t99 198.5t150 167.5t189 129t215.5 82.5t229.5 29q137 0 246 -36.5t185.5 -103t117 -160t40.5 -206.5q0 -115 -38 -220.5t-104 -196.5t-155 -165t-191 -126.5t-211.5 -81t-216.5 -28.5q-138 0 -248 37t-186.5 102.5t-117 156.5t-40.5 199z M530 450q0 -190 76.5 -293.5t225.5 -103.5q94 0 171 36t137 96t103.5 138.5t72 163t42 170t13.5 158.5q0 88 -19.5 161t-58 125.5t-95 82t-131.5 29.5q-83 0 -155 -32.5t-131.5 -88t-106.5 -130t-79 -159.5t-48.5 -175.5t-16.5 -177.5zM793 1422l305 293q17 16 28 20t29 4 h97q17 0 27.5 -3.5t19.5 -20.5l151 -290v-4q-1 -5 -8 -7.5t-12 -2.5q-8 0 -15 5l-245 176l-342 -176q-13 -5 -17 -5q-7 0 -12.5 3.5t-5.5 7.5z" />
<glyph unicode="&#xd6;" horiz-adv-x="1757" d="M197 470q0 116 36 222.5t99 198.5t150 167.5t189 129t215.5 82.5t229.5 29q137 0 246 -36.5t185.5 -103t117 -160t40.5 -206.5q0 -115 -38 -220.5t-104 -196.5t-155 -165t-191 -126.5t-211.5 -81t-216.5 -28.5q-138 0 -248 37t-186.5 102.5t-117 156.5t-40.5 199z M530 450q0 -190 76.5 -293.5t225.5 -103.5q94 0 171 36t137 96t103.5 138.5t72 163t42 170t13.5 158.5q0 88 -19.5 161t-58 125.5t-95 82t-131.5 29.5q-83 0 -155 -32.5t-131.5 -88t-106.5 -130t-79 -159.5t-48.5 -175.5t-16.5 -177.5zM789 1539q0 31 11.5 58.5t32 47.5 t47.5 31.5t58 11.5t59 -12t48.5 -32t32.5 -47.5t12 -57.5q0 -31 -12 -58.5t-32.5 -48.5t-48.5 -33t-59 -12t-58 11.5t-47.5 32t-32 48.5t-11.5 60zM1224 1539q0 31 11.5 58.5t32 47.5t47.5 31.5t58 11.5t59 -12t48.5 -32t32.5 -47.5t12 -57.5q0 -31 -12 -58.5t-32.5 -48.5 t-48.5 -33t-59 -12t-58 11.5t-47.5 32t-32 48.5t-11.5 60z" />
<glyph unicode="&#xd7;" horiz-adv-x="1364" d="M222 71l409 408l-407 408l49 49l408 -407l408 409l50 -50l-409 -409l410 -410l-49 -49l-410 410l-409 -409z" />
<glyph unicode="&#xd8;" horiz-adv-x="1757" d="M78 485q0 107 38 208.5t105.5 192t160 166.5t202 131t231.5 85.5t248 30.5q118 0 216.5 -23.5t177.5 -66.5l132 137l53 -34l-131 -136q103 -72 157 -172.5t54 -224.5q0 -30 -3.5 -61t-10.5 -63q-24 -105 -76.5 -197t-126.5 -168.5t-164.5 -136.5t-190 -101.5t-204.5 -63 t-206 -21.5q-97 0 -178.5 15.5t-153.5 43.5l-139 -145l-51 38l130 135q-131 69 -200.5 180t-69.5 251zM417 478q0 -170 70 -279l824 857q-48 75 -123.5 116t-177.5 41q-101 0 -192.5 -37.5t-166 -106t-128.5 -165.5t-81 -217q-13 -57 -19 -109t-6 -100zM526 149 q98 -104 259 -104q106 0 198.5 38t166.5 109t128 172.5t83 229.5q22 95 22 185q0 63 -11 117.5t-31 102.5z" />
<glyph unicode="&#xdb;" horiz-adv-x="1663" d="M245 1226l11 48h690l-11 -48l-203 -32l-158 -687q-9 -38 -14.5 -78t-5.5 -81q0 -54 12.5 -105t44 -90.5t85 -63t135.5 -23.5q102 0 181 26t137.5 79.5t99.5 135.5t67 193l164 694l-201 32l11 48h507l-11 -48l-181 -32l-198 -668q-33 -109 -63.5 -192.5t-67.5 -145 t-84.5 -103t-112.5 -66.5t-151.5 -35.5t-203.5 -10.5q-123 0 -212 29.5t-146.5 81t-85.5 121.5t-28 151q0 61 15 127l164 711zM819 1422l305 293q17 16 28 20t29 4h97q17 0 27.5 -3.5t19.5 -20.5l151 -290v-4q-1 -5 -8 -7.5t-12 -2.5q-8 0 -15 5l-245 176l-342 -176 q-13 -5 -17 -5q-7 0 -12.5 3.5t-5.5 7.5z" />
<glyph unicode="&#xdc;" horiz-adv-x="1663" d="M245 1226l11 48h690l-11 -48l-203 -32l-158 -687q-9 -38 -14.5 -78t-5.5 -81q0 -54 12.5 -105t44 -90.5t85 -63t135.5 -23.5q102 0 181 26t137.5 79.5t99.5 135.5t67 193l164 694l-201 32l11 48h507l-11 -48l-181 -32l-198 -668q-33 -109 -63.5 -192.5t-67.5 -145 t-84.5 -103t-112.5 -66.5t-151.5 -35.5t-203.5 -10.5q-123 0 -212 29.5t-146.5 81t-85.5 121.5t-28 151q0 61 15 127l164 711zM810 1539q0 31 11.5 58.5t32 47.5t47.5 31.5t58 11.5t59 -12t48.5 -32t32.5 -47.5t12 -57.5q0 -31 -12 -58.5t-32.5 -48.5t-48.5 -33t-59 -12 t-58 11.5t-47.5 32t-32 48.5t-11.5 60zM1245 1539q0 31 11.5 58.5t32 47.5t47.5 31.5t58 11.5t59 -12t48.5 -32t32.5 -47.5t12 -57.5q0 -31 -12 -58.5t-32.5 -48.5t-48.5 -33t-59 -12t-58 11.5t-47.5 32t-32 48.5t-11.5 60z" />
<glyph unicode="&#xde;" horiz-adv-x="1324" d="M-16 0l10 48q54 0 93 8.5t66 26t43.5 45.5t25.5 67l199 884q6 25 6 47q0 54 -39.5 77t-130.5 23l11 48h698l-11 -48q-54 0 -92.5 -8.5t-65.5 -26t-43.5 -45.5t-25.5 -67l-13 -57q15 1 24 1.5t12 0.5q166 0 264 -18q155 -28 234 -106t79 -193q0 -67 -22 -127t-62 -111.5 t-96 -93t-123.5 -70.5t-145 -45t-159.5 -16q-32 0 -78 2.5t-100 7.5l-13 -59q-6 -27 -6 -48q0 -52 38.5 -75.5t128.5 -23.5l-10 -48h-696zM562 341q9 -2 16 -2h16h19q88 0 161 27.5t125 78t80.5 121.5t28.5 158q0 103 -65 156.5t-192 53.5q-25 0 -56 -3z" />
<glyph unicode="&#xdf;" horiz-adv-x="1248" d="M-311 -447q0 12 4 20l29 89q6 18 17 18t26 -12t32 -27t36 -27t39 -12q24 0 44.5 12.5t38 41t32.5 76t29 118.5l185 970q30 159 90.5 265.5t140.5 171t175 92t196 27.5q65 0 122.5 -14t100.5 -41.5t68 -69.5t25 -97q0 -83 -32 -147t-84.5 -112.5t-120 -82t-137.5 -54.5 q74 -6 138.5 -27t112.5 -57.5t75.5 -89t27.5 -121.5q0 -103 -30 -177.5t-81 -126t-119 -83t-143.5 -48.5t-154 -23t-151.5 -6h-35h-17q-9 0 -17 1l10 48q14 -2 27 -3.5t26 -1.5q66 0 137.5 28t130.5 83.5t97.5 139.5t38.5 195q0 113 -72 171t-234 60l12 53h15q81 0 139 33.5 t96 89.5t56 130.5t18 156.5q0 57 -26.5 88.5t-75.5 31.5q-44 0 -86.5 -19t-80 -61t-67 -108.5t-47.5 -161.5l-146 -788q-119 -642 -588 -642q-12 0 -27 5t-15 25z" />
<glyph unicode="&#xe2;" horiz-adv-x="1083" d="M273 1012l305 293q17 16 28 20t29 4h97q17 0 27.5 -3.5t19.5 -20.5l151 -290v-4q-1 -5 -8 -7.5t-12 -2.5q-8 0 -15 5l-245 176l-342 -176q-13 -5 -17 -5q-7 0 -12.5 3.5t-5.5 7.5zM37 245q0 62 15.5 129.5t44.5 132.5t71.5 123t96 102t118 70t138.5 26q43 0 83.5 -12 t76.5 -38l8 33h248l-135 -571l-11 -48q-7 -28 -7 -50q0 -33 22 -33q10 0 26.5 12.5t36 31t40.5 40t39 40.5l38 -34q-45 -50 -89.5 -91t-91.5 -70.5t-97.5 -46t-105.5 -16.5q-39 0 -60.5 18t-21.5 56q0 9 1 19t4 21l5 22q-85 -71 -151 -103.5t-121 -32.5q-57 0 -99 21 t-69 57.5t-40 86t-13 105.5zM259 286q0 -79 32 -127t86 -48q32 0 74.5 22t99.5 73l112 493q-61 55 -120 55q-39 0 -75 -21.5t-67.5 -57.5t-57.5 -83.5t-44.5 -99.5t-29 -105t-10.5 -101z" />
<glyph unicode="&#xe4;" horiz-adv-x="1080" d="M37 245q0 62 15.5 129.5t44.5 132.5t71.5 123t96 102t118 70t138.5 26q43 0 83.5 -12t76.5 -38l8 33h248l-135 -571l-11 -48q-7 -28 -7 -50q0 -33 22 -33q10 0 26.5 12.5t36 31t40.5 40t39 40.5l38 -34q-45 -50 -89.5 -91t-91.5 -70.5t-97.5 -46t-105.5 -16.5 q-39 0 -60.5 18t-21.5 56q0 9 1 19t4 21l5 22q-85 -71 -151 -103.5t-121 -32.5q-57 0 -99 21t-69 57.5t-40 86t-13 105.5zM259 286q0 -79 32 -127t86 -48q32 0 74.5 22t99.5 73l112 493q-61 55 -120 55q-39 0 -75 -21.5t-67.5 -57.5t-57.5 -83.5t-44.5 -99.5t-29 -105 t-10.5 -101zM256 1129q0 31 11.5 58.5t32 47.5t47.5 31.5t58 11.5t59 -12t48.5 -32t32.5 -47.5t12 -57.5q0 -31 -12 -58.5t-32.5 -48.5t-48.5 -33t-59 -12t-58 11.5t-47.5 32t-32 48.5t-11.5 60zM691 1129q0 31 11.5 58.5t32 47.5t47.5 31.5t58 11.5t59 -12t48.5 -32 t32.5 -47.5t12 -57.5q0 -31 -12 -58.5t-32.5 -48.5t-48.5 -33t-59 -12t-58 11.5t-47.5 32t-32 48.5t-11.5 60z" />
<glyph unicode="&#xe5;" horiz-adv-x="1080" d="M37 245q0 62 15.5 129.5t44.5 132.5t71.5 123t96 102t118 70t138.5 26q43 0 83.5 -12t76.5 -38l8 33h248l-135 -571l-11 -48q-7 -28 -7 -50q0 -33 22 -33q10 0 26.5 12.5t36 31t40.5 40t39 40.5l38 -34q-45 -50 -89.5 -91t-91.5 -70.5t-97.5 -46t-105.5 -16.5 q-39 0 -60.5 18t-21.5 56q0 9 1 19t4 21l5 22q-85 -71 -151 -103.5t-121 -32.5q-57 0 -99 21t-69 57.5t-40 86t-13 105.5zM259 286q0 -79 32 -127t86 -48q32 0 74.5 22t99.5 73l112 493q-61 55 -120 55q-39 0 -75 -21.5t-67.5 -57.5t-57.5 -83.5t-44.5 -99.5t-29 -105 t-10.5 -101zM439 1131q0 39 14 73t39 58.5t58 38.5t72 14q40 0 74 -14t58.5 -38.5t38 -58.5t13.5 -73t-13.5 -72.5t-38 -57.5t-58.5 -38t-74 -14t-73.5 13.5t-58 37.5t-38 57.5t-13.5 73.5zM532 1131q0 -38 25.5 -63.5t64.5 -25.5q38 0 62.5 25.5t24.5 63.5t-24.5 63 t-62.5 25q-39 0 -64.5 -25t-25.5 -63z" />
<glyph unicode="&#xe6;" horiz-adv-x="1334" d="M33 140q0 70 24.5 117t65.5 77.5t95 48t112.5 28.5t118.5 18t113 17l44 197q3 16 3 31q0 39 -23 64t-65 25q-47 0 -73.5 -16t-40 -38.5t-17.5 -47.5t-6 -43q-2 -21 -13 -37.5t-35 -22.5l-136 -35q-4 -2 -10 -2q-22 0 -30.5 12t-8.5 35q0 68 29 117.5t82.5 81.5t129 47.5 t168.5 15.5q54 0 89 -4.5t59 -13.5t41.5 -23.5t35.5 -33.5q57 35 121.5 55t139.5 20q87 0 139 -41.5t52 -110.5q0 -101 -113.5 -176.5t-356.5 -132.5q-5 -26 -6 -48.5t-1 -49.5q0 -84 39.5 -127t117.5 -43q91 0 236 86l28 -34q-67 -47 -125 -80.5t-110.5 -54.5t-100 -31 t-92.5 -10q-176 0 -225 135q-29 -27 -58 -52t-63.5 -44t-78 -30t-102.5 -11q-103 0 -148 43.5t-45 121.5zM262 175q0 -37 28 -58.5t70 -21.5q30 0 56 14t46.5 35.5t34 47.5t19.5 50l28 142q-81 -15 -135 -31t-86.5 -39t-46.5 -56.5t-14 -82.5zM781 425q55 12 100 36.5 t77 58.5t50 76t18 89q0 72 -62 72q-100 0 -183 -332z" />
<glyph unicode="&#xe7;" horiz-adv-x="791" d="M42 -397q0 23 15 40.5t39 17.5q36 0 61 -11.5t45 -25.5t39.5 -25.5t44.5 -11.5q22 0 40.5 7.5t32 20t21 28.5t7.5 33q0 43 -59.5 72.5t-162.5 42.5l112 185q-51 2 -93 21t-72.5 51t-47.5 74.5t-17 92.5q0 134 36 247t103.5 194.5t164 127.5t218.5 46q24 0 52 -8 t52.5 -20.5t41 -28.5t16.5 -31q0 -14 -15 -35l-52 -72q-15 -21 -32 -21q-23 0 -42 21.5t-39.5 47t-45 47t-57.5 21.5q-27 0 -55 -33.5t-51 -94t-37.5 -144.5t-14.5 -185q0 -195 144 -195q21 0 40.5 4.5t41.5 15.5t47.5 30t60.5 49l39 -32q-69 -87 -148 -132.5t-173 -55.5 l-38 -65q44 -9 79 -22t60 -36t38 -58t13 -87q0 -38 -15.5 -72t-49 -59.5t-86 -40.5t-125.5 -15q-37 0 -69 5t-56 14.5t-37.5 24.5t-13.5 36z" />
<glyph unicode="&#xea;" horiz-adv-x="815" d="M19 237v2q0 70 17 141t49.5 136.5t79.5 123t107 99.5t131.5 66.5t153.5 24.5q87 0 139 -41.5t52 -110.5q0 -50 -27.5 -93.5t-84.5 -81t-145.5 -69.5t-209.5 -60q-10 -47 -10 -103q0 -84 39.5 -127t117.5 -43q91 0 236 86l28 -34q-67 -47 -125 -80.5t-110.5 -54.5 t-100 -31t-92.5 -10q-243 0 -245 260zM295 430q55 12 99.5 36t76 57t49 74t17.5 88q0 72 -62 72q-51 0 -94.5 -79t-85.5 -248zM193 1012l305 293q17 16 28 20t29 4h97q17 0 27.5 -3.5t19.5 -20.5l151 -290v-4q-1 -5 -8 -7.5t-12 -2.5q-8 0 -15 5l-245 176l-342 -176 q-13 -5 -17 -5q-7 0 -12.5 3.5t-5.5 7.5z" />
<glyph unicode="&#xeb;" horiz-adv-x="806" d="M140 1129q0 31 11.5 58.5t32 47.5t47.5 31.5t58 11.5t59 -12t48.5 -32t32.5 -47.5t12 -57.5q0 -31 -12 -58.5t-32.5 -48.5t-48.5 -33t-59 -12t-58 11.5t-47.5 32t-32 48.5t-11.5 60zM575 1129q0 31 11.5 58.5t32 47.5t47.5 31.5t58 11.5t59 -12t48.5 -32t32.5 -47.5 t12 -57.5q0 -31 -12 -58.5t-32.5 -48.5t-48.5 -33t-59 -12t-58 11.5t-47.5 32t-32 48.5t-11.5 60zM-22 237v2q0 70 17 141t49.5 136.5t79.5 123t107 99.5t131.5 66.5t153.5 24.5q87 0 139 -41.5t52 -110.5q0 -50 -27.5 -93.5t-84.5 -81t-145.5 -69.5t-209.5 -60 q-10 -47 -10 -103q0 -84 39.5 -127t117.5 -43q91 0 236 86l28 -34q-67 -47 -125 -80.5t-110.5 -54.5t-100 -31t-92.5 -10q-243 0 -245 260zM254 430q55 12 99.5 36t76 57t49 74t17.5 88q0 72 -62 72q-51 0 -94.5 -79t-85.5 -248z" />
<glyph unicode="&#xec;" horiz-adv-x="596" d="M46 49q0 9 1 19t4 21l152 649h-123v55l386 38l-149 -639q-7 -28 -7 -50q0 -33 22 -33q10 0 26.5 12.5t36 31t40.5 40t39 40.5l38 -34q-45 -50 -89.5 -91t-91.5 -70.5t-97.5 -46t-105.5 -16.5q-39 0 -60.5 18t-21.5 56zM-9 1304q0 10 11 17.5t35 7.5h184q26 0 39.5 -4 t25.5 -20l200 -272q2 -4 4 -7.5t2 -7.5q0 -7 -6.5 -12t-21.5 -5q-18 0 -37 12l-412 261q-14 9 -19 16.5t-5 13.5z" />
<glyph unicode="&#xed;" horiz-adv-x="596" d="M46 49q0 9 1 19t4 21l152 649h-123v55l386 38l-149 -639q-7 -28 -7 -50q0 -33 22 -33q10 0 26.5 12.5t36 31t40.5 40t39 40.5l38 -34q-45 -50 -89.5 -91t-91.5 -70.5t-97.5 -46t-105.5 -16.5q-39 0 -60.5 18t-21.5 56zM224 1018q0 7 6 15l200 272q12 16 25.5 20t39.5 4 h184q24 0 35 -7.5t11 -17.5q0 -6 -5 -13.5t-19 -16.5l-412 -261q-20 -12 -37 -12q-16 0 -22 5t-6 12z" />
<glyph unicode="&#xee;" horiz-adv-x="596" d="M46 49q0 9 1 19t4 21l152 649h-123v55l386 38l-149 -639q-7 -28 -7 -50q0 -33 22 -33q10 0 26.5 12.5t36 31t40.5 40t39 40.5l38 -34q-45 -50 -89.5 -91t-91.5 -70.5t-97.5 -46t-105.5 -16.5q-39 0 -60.5 18t-21.5 56zM50 1012l305 293q17 16 28 20t29 4h97 q17 0 27.5 -3.5t19.5 -20.5l151 -290v-4q-1 -5 -8 -7.5t-12 -2.5q-8 0 -15 5l-245 176l-342 -176q-13 -5 -17 -5q-7 0 -12.5 3.5t-5.5 7.5z" />
<glyph unicode="&#xef;" horiz-adv-x="596" d="M46 49q0 9 1 19t4 21l152 649h-123v55l386 38l-149 -639q-7 -28 -7 -50q0 -33 22 -33q10 0 26.5 12.5t36 31t40.5 40t39 40.5l38 -34q-45 -50 -89.5 -91t-91.5 -70.5t-97.5 -46t-105.5 -16.5q-39 0 -60.5 18t-21.5 56zM-3 1129q0 31 11.5 58.5t32 47.5t47.5 31.5t58 11.5 t59 -12t48.5 -32t32.5 -47.5t12 -57.5q0 -31 -12 -58.5t-32.5 -48.5t-48.5 -33t-59 -12t-58 11.5t-47.5 32t-32 48.5t-11.5 60zM432 1129q0 31 11.5 58.5t32 47.5t47.5 31.5t58 11.5t59 -12t48.5 -32t32.5 -47.5t12 -57.5q0 -31 -12 -58.5t-32.5 -48.5t-48.5 -33t-59 -12 t-58 11.5t-47.5 32t-32 48.5t-11.5 60z" />
<glyph unicode="&#xf0;" horiz-adv-x="1162" d="M34 314q0 76 24.5 144.5t67.5 126.5t101.5 104t126.5 78t143.5 49.5t151.5 17.5q68 0 132 -14q2 12 3.5 24t1.5 24q0 60 -24 116.5t-61 110.5q-138 -67 -267 -169q-7 -7 -15 -7t-8 13q0 7 1 9l19 90q3 14 13.5 21t36.5 16t70.5 24.5t115.5 47.5q-31 36 -64.5 66.5t-65 53 t-58 35.5t-44.5 14l36 46q106 -15 192.5 -52t155.5 -92q126 60 231 144q8 7 17 7q14 0 14 -14q0 -2 -0.5 -3t-0.5 -3l-18 -81q-3 -11 -11 -17t-29 -14t-58 -21.5t-98 -38.5q111 -109 169 -234t58 -276q0 -91 -21 -177.5t-59.5 -162.5t-94.5 -139.5t-126 -109t-153.5 -71 t-176.5 -25.5q-102 0 -182 26t-134.5 71.5t-83 107.5t-28.5 134zM330 297q0 -59 10.5 -108.5t31 -86t51.5 -57t72 -20.5q40 0 79 24t73.5 67.5t62.5 103.5t45 132q9 42 14 83t5 79q0 58 -10.5 107.5t-31.5 85.5t-52 56.5t-71 20.5q-55 0 -105.5 -42t-89 -111t-61.5 -156.5 t-23 -177.5z" />
<glyph unicode="&#xf4;" horiz-adv-x="1029" d="M52 267q0 126 43 230t120 178t183 114.5t232 40.5q73 0 131.5 -20.5t100 -57t64 -88.5t22.5 -115q0 -122 -41.5 -227t-117 -182t-182.5 -121t-238 -44q-77 0 -136 21.5t-99.5 60t-61 92t-20.5 118.5zM288 262q0 -106 36.5 -161t107.5 -55q53 0 94 24t71.5 64t51.5 92 t34 108.5t18.5 113t5.5 105.5q0 103 -36 159t-107 56q-54 0 -95.5 -27t-72.5 -70.5t-51.5 -98.5t-33 -111t-18 -108.5t-5.5 -90.5zM293 1012l305 293q17 16 28 20t29 4h97q17 0 27.5 -3.5t19.5 -20.5l151 -290v-4q-1 -5 -8 -7.5t-12 -2.5q-8 0 -15 5l-245 176l-342 -176 q-13 -5 -17 -5q-7 0 -12.5 3.5t-5.5 7.5z" />
<glyph unicode="&#xf6;" horiz-adv-x="1029" d="M52 267q0 126 43 230t120 178t183 114.5t232 40.5q73 0 131.5 -20.5t100 -57t64 -88.5t22.5 -115q0 -122 -41.5 -227t-117 -182t-182.5 -121t-238 -44q-77 0 -136 21.5t-99.5 60t-61 92t-20.5 118.5zM288 262q0 -106 36.5 -161t107.5 -55q53 0 94 24t71.5 64t51.5 92 t34 108.5t18.5 113t5.5 105.5q0 103 -36 159t-107 56q-54 0 -95.5 -27t-72.5 -70.5t-51.5 -98.5t-33 -111t-18 -108.5t-5.5 -90.5zM296 1129q0 31 11.5 58.5t32 47.5t47.5 31.5t58 11.5t59 -12t48.5 -32t32.5 -47.5t12 -57.5q0 -31 -12 -58.5t-32.5 -48.5t-48.5 -33t-59 -12 t-58 11.5t-47.5 32t-32 48.5t-11.5 60zM731 1129q0 31 11.5 58.5t32 47.5t47.5 31.5t58 11.5t59 -12t48.5 -32t32.5 -47.5t12 -57.5q0 -31 -12 -58.5t-32.5 -48.5t-48.5 -33t-59 -12t-58 11.5t-47.5 32t-32 48.5t-11.5 60z" />
<glyph unicode="&#xf7;" horiz-adv-x="1364" d="M69 443v70h1226v-70h-1226zM576 124q0 45 30 75t75 30t75 -30t30 -75t-30 -75t-75 -30t-75 30t-30 75zM576 832q0 45 30 75t75 30t75 -30t30 -75t-30 -75t-75 -30t-75 30t-30 75z" />
<glyph unicode="&#xf8;" horiz-adv-x="909" d="M-14 261q0 126 53.5 233.5t159.5 188.5q91 70 186.5 109t183.5 39q54 0 100 -17l45 61l61 -33l-46 -62q86 -72 86 -228q0 -100 -30.5 -183t-96.5 -161q-45 -54 -98.5 -97t-116.5 -75t-124 -46.5t-124 -14.5q-46 0 -77 10l-62 -85l-63 33l60 82q-97 67 -97 246zM238 298 q0 -37 3 -68l304 415q-31 97 -101 97q-41 0 -78.5 -35.5t-66 -96t-45 -141.5t-16.5 -171zM261 139q29 -77 89 -77q39 0 77 36.5t69 96t50 136t19 156.5q0 34 -3 64z" />
<glyph unicode="&#xfb;" horiz-adv-x="1118" d="M317 1012l305 293q17 16 28 20t29 4h97q17 0 27.5 -3.5t19.5 -20.5l151 -290v-4q-1 -5 -8 -7.5t-12 -2.5q-8 0 -15 5l-245 176l-342 -176q-13 -5 -17 -5q-7 0 -12.5 3.5t-5.5 7.5zM75 139q0 9 1.5 18t3.5 19l132 562h-123v55l386 37l-146 -620q-7 -29 -0.5 -49t22 -32.5 t37.5 -18t48 -5.5q45 0 103 19t113 48l150 639h242l-145 -619q-7 -28 -7 -50q0 -33 22 -33q10 0 26.5 12.5t36 31t40.5 40t39 40.5l38 -34q-45 -50 -89.5 -91t-91.5 -70.5t-97.5 -46t-105.5 -16.5q-39 0 -60.5 18t-21.5 56q0 9 1 19t5 24q-44 -23 -92 -43t-96.5 -35 t-94.5 -23.5t-85 -8.5q-43 0 -78 12t-60 33.5t-39 50t-14 61.5z" />
<glyph unicode="&#xfc;" horiz-adv-x="1201" d="M70 139q0 9 1.5 18t3.5 19l132 562h-123v55l386 37l-146 -620q-7 -29 -0.5 -49t22 -32.5t37.5 -18t48 -5.5q45 0 103 19t113 48l150 639h242l-145 -619q-7 -28 -7 -50q0 -33 22 -33q10 0 26.5 12.5t36 31t40.5 40t39 40.5l38 -34q-45 -50 -89.5 -91t-91.5 -70.5 t-97.5 -46t-105.5 -16.5q-39 0 -60.5 18t-21.5 56q0 9 1 19t5 24q-44 -23 -92 -43t-96.5 -35t-94.5 -23.5t-85 -8.5q-43 0 -78 12t-60 33.5t-39 50t-14 61.5zM336 1129q0 31 11.5 58.5t32 47.5t47.5 31.5t58 11.5t59 -12t48.5 -32t32.5 -47.5t12 -57.5q0 -31 -12 -58.5 t-32.5 -48.5t-48.5 -33t-59 -12t-58 11.5t-47.5 32t-32 48.5t-11.5 60zM771 1129q0 31 11.5 58.5t32 47.5t47.5 31.5t58 11.5t59 -12t48.5 -32t32.5 -47.5t12 -57.5q0 -31 -12 -58.5t-32.5 -48.5t-48.5 -33t-59 -12t-58 11.5t-47.5 32t-32 48.5t-11.5 60z" />
<glyph unicode="&#xfe;" horiz-adv-x="1018" d="M-258 -477l12 47q56 0 95 11t67 41.5t48.5 84t39.5 138.5l285 1269q3 14 5 26t2 22q0 39 -29 51.5t-93 12.5v48q55 0 102.5 13.5t87.5 30t72 30t57 13.5q45 0 61.5 -24t16.5 -59q0 -16 -2.5 -32.5t-6.5 -33.5l-128 -536q63 72 134 113t153 41q48 0 85 -24t62 -65t38 -96 t13 -116q0 -62 -13.5 -127t-41.5 -126.5t-70.5 -116t-101 -95.5t-133 -65t-166.5 -24q-21 0 -49 6.5t-61 18.5l-48 -221q-9 -39 -9 -73q0 -32 9.5 -57t31 -42.5t56 -27t84.5 -9.5l-12 -47h-653zM325 165q0 -52 23.5 -80t77.5 -28q58 0 105 40.5t79 102.5t49.5 135.5 t17.5 140.5q0 39 -6 73t-19 59.5t-32.5 40t-46.5 14.5q-43 0 -86.5 -22t-78.5 -73l-74 -328q-9 -42 -9 -75z" />
<glyph unicode="&#xff;" horiz-adv-x="952" d="M238 1129q0 31 11.5 58.5t32 47.5t47.5 31.5t58 11.5t59 -12t48.5 -32t32.5 -47.5t12 -57.5q0 -31 -12 -58.5t-32.5 -48.5t-48.5 -33t-59 -12t-58 11.5t-47.5 32t-32 48.5t-11.5 60zM673 1129q0 31 11.5 58.5t32 47.5t47.5 31.5t58 11.5t59 -12t48.5 -32t32.5 -47.5 t12 -57.5q0 -31 -12 -58.5t-32.5 -48.5t-48.5 -33t-59 -12t-58 11.5t-47.5 32t-32 48.5t-11.5 60zM-83 -247q31 -19 71 -19q39 0 84 17t93.5 47t98.5 71t99 89l-245 780h-134v55l364 37l192 -672q46 60 85 119.5t67.5 114.5t44.5 101.5t16 81.5q0 19 -7 36.5t-18.5 31.5 t-26 25t-30.5 17l144 145q69 0 105 -31t36 -82q0 -30 -15.5 -73.5t-44 -97.5t-68 -116t-87 -128.5t-101 -135t-110.5 -135.5q-86 -101 -171.5 -193t-165 -162t-150 -111.5t-126.5 -41.5v230z" />
<glyph unicode="&#x100;" horiz-adv-x="1487" d="M-56 0l12 48l201 32l816 1194h192l224 -1194l134 -32l-11 -48h-650l11 49l195 31l-71 387h-473l-244 -387l220 -32l-11 -48h-545zM573 542h411l-91 505zM830 1457v112h594v-112h-594z" />
<glyph unicode="&#x101;" horiz-adv-x="1080" d="M37 245q0 62 15.5 129.5t44.5 132.5t71.5 123t96 102t118 70t138.5 26q43 0 83.5 -12t76.5 -38l8 33h248l-135 -571l-11 -48q-7 -28 -7 -50q0 -33 22 -33q10 0 26.5 12.5t36 31t40.5 40t39 40.5l38 -34q-45 -50 -89.5 -91t-91.5 -70.5t-97.5 -46t-105.5 -16.5 q-39 0 -60.5 18t-21.5 56q0 9 1 19t4 21l5 22q-85 -71 -151 -103.5t-121 -32.5q-57 0 -99 21t-69 57.5t-40 86t-13 105.5zM259 286q0 -79 32 -127t86 -48q32 0 74.5 22t99.5 73l112 493q-61 55 -120 55q-39 0 -75 -21.5t-67.5 -57.5t-57.5 -83.5t-44.5 -99.5t-29 -105 t-10.5 -101zM335 1047v112h594v-112h-594z" />
<glyph unicode="&#x102;" horiz-adv-x="1540" d="M-131 0l12 48l201 32l816 1194h192l224 -1194l134 -32l-11 -48h-650l11 49l195 31l-71 387h-473l-244 -387l220 -32l-11 -48h-545zM498 542h411l-91 505zM800 1670h76q10 -39 24 -66t34.5 -44t49.5 -25t68 -8q79 0 136.5 33t110.5 110h82q-27 -65 -64.5 -118.5t-83 -91 t-97.5 -58t-108 -20.5q-58 0 -102.5 20.5t-74 58t-43 91t-8.5 118.5z" />
<glyph unicode="&#x103;" horiz-adv-x="1080" d="M37 245q0 62 15.5 129.5t44.5 132.5t71.5 123t96 102t118 70t138.5 26q43 0 83.5 -12t76.5 -38l8 33h248l-135 -571l-11 -48q-7 -28 -7 -50q0 -33 22 -33q10 0 26.5 12.5t36 31t40.5 40t39 40.5l38 -34q-45 -50 -89.5 -91t-91.5 -70.5t-97.5 -46t-105.5 -16.5 q-39 0 -60.5 18t-21.5 56q0 9 1 19t4 21l5 22q-85 -71 -151 -103.5t-121 -32.5q-57 0 -99 21t-69 57.5t-40 86t-13 105.5zM259 286q0 -79 32 -127t86 -48q32 0 74.5 22t99.5 73l112 493q-61 55 -120 55q-39 0 -75 -21.5t-67.5 -57.5t-57.5 -83.5t-44.5 -99.5t-29 -105 t-10.5 -101zM369 1260h76q10 -39 24 -66t34.5 -44t49.5 -25t68 -8q79 0 136.5 33t110.5 110h82q-27 -65 -64.5 -118.5t-83 -91t-97.5 -58t-108 -20.5q-58 0 -102.5 20.5t-74 58t-43 91t-8.5 118.5z" />
<glyph unicode="&#x104;" horiz-adv-x="1540" d="M-131 0l12 48l201 32l816 1194h192l224 -1194q34 -8 67 -16t67 -16l-11 -48h-148q-75 0 -130.5 -23t-92.5 -58t-55 -78.5t-18 -83.5q0 -27 8 -51t24 -42.5t39.5 -29t55.5 -10.5q55 0 102 16l5 -44q-72 -23 -133 -32t-110 -9q-90 0 -134 38.5t-44 97.5q0 45 16.5 77 t40.5 59t50.5 52.5t46.5 57.5t29 74.5t-2 103.5l-65 352h-473l-244 -387l220 -32l-11 -48h-545zM498 542h411l-91 505z" />
<glyph unicode="&#x105;" horiz-adv-x="1080" d="M37 245q0 62 15.5 129.5t44.5 132.5t71.5 123t96 102t118 70t138.5 26q43 0 83.5 -12t76.5 -38l8 33h248l-146 -619q-7 -28 -7 -50q0 -33 22 -33q10 0 26.5 12.5t36 31t40.5 40t39 40.5l38 -34q-35 -46 -80.5 -82.5t-94 -69.5t-95 -65t-83 -70t-59 -84.5t-22.5 -108.5 q0 -26 9.5 -44.5t25.5 -29.5t37.5 -16t45.5 -5q53 0 102 16l5 -44q-72 -23 -133 -32t-110 -9q-90 0 -134 38.5t-44 97.5q0 53 18.5 95.5t50.5 77t74.5 62t91.5 49.5q-34 3 -52.5 21t-18.5 53q0 9 1.5 21.5t8.5 40.5q-85 -71 -151 -103.5t-121 -32.5q-57 0 -99 21t-69 57.5 t-40 86t-13 105.5zM259 286q0 -79 32 -127t86 -48q32 0 74.5 22t99.5 73l112 493q-61 55 -120 55q-39 0 -75 -21.5t-67.5 -57.5t-57.5 -83.5t-44.5 -99.5t-29 -105t-10.5 -101z" />
<glyph unicode="&#x106;" horiz-adv-x="1610" d="M86 476q0 124 41.5 234.5t113 203t167.5 166t205.5 124.5t227 78t231.5 27q40 0 97.5 -6t121.5 -22t130.5 -44.5t124.5 -72.5l-70 -305h-46q-15 81 -44 150t-74 118.5t-106.5 77.5t-140.5 28q-93 0 -176.5 -30.5t-154.5 -83.5t-128.5 -124.5t-97.5 -153.5t-61.5 -170 t-21.5 -174q0 -98 32.5 -177.5t88 -135.5t129.5 -87t158 -31q77 0 147.5 24.5t134 68t120 103t107.5 130.5l66 -44q-62 -86 -128.5 -155t-147.5 -117.5t-181.5 -74.5t-229.5 -26q-132 0 -247.5 32.5t-201.5 96t-136 157t-50 215.5zM935 1428q0 7 6 15l200 272q12 16 25.5 20 t39.5 4h184q24 0 35 -7.5t11 -17.5q0 -6 -5 -13.5t-19 -16.5l-412 -261q-20 -12 -37 -12q-16 0 -22 5t-6 12z" />
<glyph unicode="&#x107;" horiz-adv-x="825" d="M27 218q-5 32 -5 66q0 45 9 94q18 96 65 179t115.5 144.5t153.5 97t179 35.5q52 0 94 -13t72.5 -33.5t49 -44t23.5 -44.5l-119 -150q-10 28 -23 62.5t-33.5 65t-50 51t-71.5 20.5q-39 0 -72 -22.5t-59 -63t-45 -96t-32 -121.5q-12 -65 -12 -121v-20q2 -64 21.5 -111 t53.5 -73t84 -26t100 32t115 100l47 -38q-44 -54 -87 -94t-88 -66.5t-94 -39.5t-104 -13q-81 0 -141 31t-97 84.5t-49 127.5zM401 1018q0 7 6 15l200 272q12 16 25.5 20t39.5 4h184q24 0 35 -7.5t11 -17.5q0 -6 -5 -13.5t-19 -16.5l-412 -261q-20 -12 -37 -12q-16 0 -22 5 t-6 12z" />
<glyph unicode="&#x10c;" horiz-adv-x="1610" d="M86 476q0 124 41.5 234.5t113 203t167.5 166t205.5 124.5t227 78t231.5 27q40 0 97.5 -6t121.5 -22t130.5 -44.5t124.5 -72.5l-70 -305h-46q-15 81 -44 150t-74 118.5t-106.5 77.5t-140.5 28q-93 0 -176.5 -30.5t-154.5 -83.5t-128.5 -124.5t-97.5 -153.5t-61.5 -170 t-21.5 -174q0 -98 32.5 -177.5t88 -135.5t129.5 -87t158 -31q77 0 147.5 24.5t134 68t120 103t107.5 130.5l66 -44q-62 -86 -128.5 -155t-147.5 -117.5t-181.5 -74.5t-229.5 -26q-132 0 -247.5 32.5t-201.5 96t-136 157t-50 215.5zM812 1739h237l112 -204l190 204h109 l-328 -328h-148z" />
<glyph unicode="&#x10d;" horiz-adv-x="825" d="M27 218q-5 32 -5 66q0 45 9 94q18 96 65 179t115.5 144.5t153.5 97t179 35.5q52 0 94 -13t72.5 -33.5t49 -44t23.5 -44.5l-119 -150q-10 28 -23 62.5t-33.5 65t-50 51t-71.5 20.5q-39 0 -72 -22.5t-59 -63t-45 -96t-32 -121.5q-12 -65 -12 -121v-20q2 -64 21.5 -111 t53.5 -73t84 -26t100 32t115 100l47 -38q-44 -54 -87 -94t-88 -66.5t-94 -39.5t-104 -13q-81 0 -141 31t-97 84.5t-49 127.5zM295 1329h237l112 -204l190 204h109l-328 -328h-148z" />
<glyph unicode="&#x10e;" horiz-adv-x="1713" d="M-67 0l11 48l202 32l257 1114l-187 32l11 48q33 0 82.5 1.5t108 4t123 5t128.5 5t123.5 4t108.5 1.5q87 0 176 -7.5t171.5 -26.5t154 -52t125 -83.5t84 -121.5t30.5 -167q0 -144 -43 -261.5t-117 -210.5t-172 -161.5t-208 -114t-225.5 -67.5t-224.5 -22h-719zM479 173 q0 -58 46 -82.5t148 -24.5q100 0 187.5 31.5t160.5 86t130.5 128t97 157t60.5 172.5t21 175q0 94 -30.5 170t-90 129.5t-147 82t-201.5 28.5h-143l-232 -1001q-7 -28 -7 -52zM738 1739h237l112 -204l190 204h109l-328 -328h-148z" />
<glyph unicode="&#x10f;" horiz-adv-x="1094" d="M37 245q0 62 15.5 129.5t44.5 132.5t71.5 123t96 102t118 70t138.5 26q43 0 83.5 -12t76.5 -38l104 448h-141v48l415 55l-257 -1089l-11 -48q-7 -28 -7 -50q0 -33 22 -33q10 0 26.5 12.5t36 31t40.5 40t39 40.5l38 -34q-45 -50 -89.5 -91t-91.5 -70.5t-97.5 -46 t-105.5 -16.5q-39 0 -60.5 18t-21.5 56q0 9 1 19t4 21l5 22q-85 -71 -151 -103.5t-121 -32.5q-57 0 -99 21t-69 57.5t-40 86t-13 105.5zM259 286q0 -79 32 -127t86 -48q32 0 74.5 22t99.5 73l112 493q-61 55 -120 55q-39 0 -75 -21.5t-67.5 -57.5t-57.5 -83.5t-44.5 -99.5 t-29 -105t-10.5 -101zM688 1829h237l112 -204l190 204h109l-328 -328h-148z" />
<glyph unicode="&#x110;" horiz-adv-x="1713" d="M-67 0l11 48l202 32l131 569h-165l20 85h165l106 460l-187 32l11 48q33 0 82.5 1.5t108 4t123 5t128.5 5t123.5 4t108.5 1.5q87 0 176 -7.5t171.5 -26.5t154 -52t125 -83.5t84 -121.5t30.5 -167q0 -144 -43 -261.5t-117 -210.5t-172 -161.5t-208 -114t-225.5 -67.5 t-224.5 -22h-719zM479 173q0 -58 46 -82.5t148 -24.5q100 0 187.5 31.5t160.5 86t130.5 128t97 157t60.5 172.5t21 175q0 94 -30.5 170t-90 129.5t-147 82t-201.5 28.5h-143l-114 -492h148l-21 -85h-147l-98 -424q-3 -14 -5 -27t-2 -25z" />
<glyph unicode="&#x111;" horiz-adv-x="1080" d="M37 245q0 62 15.5 129.5t44.5 132.5t71.5 123t96 102t118 70t138.5 26q43 0 83.5 -12t76.5 -38l53 228h-245l20 85h244l32 135h-141v48l415 55l-56 -238h126l-21 -85h-125l-181 -766l-11 -48q-7 -28 -7 -50q0 -33 22 -33q10 0 26.5 12.5t36 31t40.5 40t39 40.5l38 -34 q-45 -50 -89.5 -91t-91.5 -70.5t-97.5 -46t-105.5 -16.5q-39 0 -60.5 18t-21.5 56q0 9 1 19t4 21l5 22q-85 -71 -151 -103.5t-121 -32.5q-57 0 -99 21t-69 57.5t-40 86t-13 105.5zM259 286q0 -79 32 -127t86 -48q32 0 74.5 22t99.5 73l112 493q-61 55 -120 55 q-39 0 -75 -21.5t-67.5 -57.5t-57.5 -83.5t-44.5 -99.5t-29 -105t-10.5 -101z" />
<glyph unicode="&#x112;" horiz-adv-x="1382" d="M-64 0l11 48l202 32l257 1114l-187 32l11 48h1202l-69 -299l-58 -5l-28 214h-568l-115 -498h325l94 153h46l-89 -388h-46l-24 153h-325l-91 -393q-9 -42 -10.5 -66.5t7 -37.5t27.5 -16.5t50 -3.5h483l156 242h60l-104 -329h-1217zM624 1407v112h594v-112h-594z" />
<glyph unicode="&#x113;" horiz-adv-x="815" d="M19 237v2q0 70 17 141t49.5 136.5t79.5 123t107 99.5t131.5 66.5t153.5 24.5q87 0 139 -41.5t52 -110.5q0 -50 -27.5 -93.5t-84.5 -81t-145.5 -69.5t-209.5 -60q-10 -47 -10 -103q0 -84 39.5 -127t117.5 -43q91 0 236 86l28 -34q-67 -47 -125 -80.5t-110.5 -54.5 t-100 -31t-92.5 -10q-243 0 -245 260zM295 430q55 12 99.5 36t76 57t49 74t17.5 88q0 72 -62 72q-51 0 -94.5 -79t-85.5 -248zM261 1047v112h594v-112h-594z" />
<glyph unicode="&#x116;" horiz-adv-x="1382" d="M-64 0l11 48l202 32l257 1114l-187 32l11 48h1202l-69 -299l-58 -5l-28 214h-568l-115 -498h325l94 153h46l-89 -388h-46l-24 153h-325l-91 -393q-9 -42 -10.5 -66.5t7 -37.5t27.5 -16.5t50 -3.5h483l156 242h60l-104 -329h-1217zM805 1539q0 31 11.5 58.5t32 47.5 t47.5 31.5t58 11.5t59 -12t48.5 -32t32.5 -47.5t12 -57.5q0 -31 -12 -58.5t-32.5 -48.5t-48.5 -33t-59 -12t-58 11.5t-47.5 32t-32 48.5t-11.5 60z" />
<glyph unicode="&#x117;" horiz-adv-x="815" d="M19 237v2q0 70 17 141t49.5 136.5t79.5 123t107 99.5t131.5 66.5t153.5 24.5q87 0 139 -41.5t52 -110.5q0 -50 -27.5 -93.5t-84.5 -81t-145.5 -69.5t-209.5 -60q-10 -47 -10 -103q0 -84 39.5 -127t117.5 -43q91 0 236 86l28 -34q-67 -47 -125 -80.5t-110.5 -54.5 t-100 -31t-92.5 -10q-243 0 -245 260zM295 430q55 12 99.5 36t76 57t49 74t17.5 88q0 72 -62 72q-51 0 -94.5 -79t-85.5 -248zM422 1129q0 31 11.5 58.5t32 47.5t47.5 31.5t58 11.5t59 -12t48.5 -32t32.5 -47.5t12 -57.5q0 -31 -12 -58.5t-32.5 -48.5t-48.5 -33t-59 -12 t-58 11.5t-47.5 32t-32 48.5t-11.5 60z" />
<glyph unicode="&#x118;" horiz-adv-x="1382" d="M-64 0l11 48l202 32l257 1114l-187 32l11 48h1202l-69 -299l-58 -5l-28 214h-568l-115 -498h325l94 153h46l-89 -388h-46l-24 153h-325l-91 -393q-6 -25 -8.5 -43t-2.5 -30q0 -34 20 -42.5t65 -8.5h483l156 242h60l-104 -329h-241q-76 0 -135.5 -25.5t-100.5 -64 t-62.5 -84.5t-21.5 -88q0 -48 30.5 -81t93.5 -33q54 0 102 16l5 -44q-72 -23 -133 -32t-110 -9q-90 0 -134 38.5t-44 97.5q0 61 24 108.5t64.5 84.5t93.5 65t112 51h-760z" />
<glyph unicode="&#x119;" horiz-adv-x="774" d="M-22 -309q0 53 18.5 96t51 78t76 62.5t93.5 49.5q-231 6 -233 260v2q0 70 17 141t49.5 136.5t79.5 123t107 99.5t131.5 66.5t153.5 24.5q87 0 139 -41.5t52 -110.5q0 -50 -27.5 -93.5t-84.5 -81t-145.5 -69.5t-209.5 -60q-10 -47 -10 -103q0 -84 39.5 -127t117.5 -43 q91 0 236 86l28 -34q-45 -38 -98.5 -66.5t-107 -54t-103.5 -52.5t-89 -62.5t-62 -83t-23 -115.5q0 -26 9.5 -44.5t25.5 -29.5t37.5 -16t45.5 -5q51 0 102 16l5 -44q-72 -23 -133 -32t-110 -9q-90 0 -134 38.5t-44 97.5zM260 430q55 12 99.5 36t76 57t49 74t17.5 88 q0 72 -62 72q-51 0 -94.5 -79t-85.5 -248z" />
<glyph unicode="&#x11a;" horiz-adv-x="1382" d="M-64 0l11 48l202 32l257 1114l-187 32l11 48h1202l-69 -299l-58 -5l-28 214h-568l-115 -498h325l94 153h46l-89 -388h-46l-24 153h-325l-91 -393q-9 -42 -10.5 -66.5t7 -37.5t27.5 -16.5t50 -3.5h483l156 242h60l-104 -329h-1217zM654 1739h237l112 -204l190 204h109 l-328 -328h-148z" />
<glyph unicode="&#x11b;" horiz-adv-x="815" d="M25 237v2q0 70 17 141t49.5 136.5t79.5 123t107 99.5t131.5 66.5t153.5 24.5q87 0 139 -41.5t52 -110.5q0 -50 -27.5 -93.5t-84.5 -81t-145.5 -69.5t-209.5 -60q-10 -47 -10 -103q0 -84 39.5 -127t117.5 -43q91 0 236 86l28 -34q-67 -47 -125 -80.5t-110.5 -54.5 t-100 -31t-92.5 -10q-243 0 -245 260zM301 430q55 12 99.5 36t76 57t49 74t17.5 88q0 72 -62 72q-51 0 -94.5 -79t-85.5 -248zM278 1329h237l112 -204l190 204h109l-328 -328h-148z" />
<glyph unicode="&#x11e;" horiz-adv-x="1692" d="M77 472q0 126 38 236t105.5 201.5t158.5 164t197.5 122t223 76t233.5 26.5q98 0 180.5 -7.5t150.5 -24.5t123 -45.5t98 -71.5l-67 -291h-58q-10 87 -41 154.5t-79.5 114.5t-114.5 71.5t-147 24.5q-132 0 -252 -55.5t-211 -154.5t-145 -236t-54 -299q0 -97 26.5 -175 t78 -133t126.5 -85t171 -30q30 0 63 3t66 9t64.5 14.5t58.5 19.5l97 419l-203 44l10 49h679l-13 -48l-164 -45l-99 -426q-160 -60 -326.5 -90.5t-319.5 -30.5q-141 0 -261 32t-207.5 95t-136.5 156t-49 216zM854 1670h76q10 -39 24 -66t34.5 -44t49.5 -25t68 -8 q79 0 136.5 33t110.5 110h82q-27 -65 -64.5 -118.5t-83 -91t-97.5 -58t-108 -20.5q-58 0 -102.5 20.5t-74 58t-43 91t-8.5 118.5z" />
<glyph unicode="&#x11f;" horiz-adv-x="1033" d="M-164 -215q0 33 14 65.5t44 62t76 55t110 44.5q-45 21 -71 43.5t-26 48.5q0 16 13 33.5t41 36.5t72.5 39.5t108.5 43.5q-56 30 -86 82t-30 130q0 75 37.5 141t101 114.5t147 77t175.5 28.5q97 0 172 -21t117 -75l224 99l-42 -211l-143 32q9 -36 9 -80q0 -58 -34.5 -122 t-95.5 -117.5t-143.5 -88.5t-179.5 -35q-43 0 -81.5 4t-72.5 13q-16 -11 -30 -28t-14 -31q0 -19 27.5 -35t72.5 -30.5t102.5 -28.5t117.5 -29.5t117.5 -33t102.5 -39.5t72.5 -48.5t27.5 -60.5t-20.5 -72t-58.5 -76t-93.5 -73t-125.5 -61.5t-154 -42.5t-179 -16 q-96 0 -174 22.5t-133 59t-85 83.5t-30 97zM41 -172q0 -41 24 -78.5t67.5 -67t105 -47t136.5 -17.5q70 0 124.5 14t91.5 35.5t56 47t19 48.5q0 20 -24 39t-64.5 37.5t-93.5 36t-110.5 35t-115.5 35.5t-108 37q-57 -33 -82.5 -73.5t-25.5 -81.5zM322 419q0 -27 5 -51 t16.5 -41.5t31 -27.5t48.5 -10q46 0 88.5 24t75.5 67t53 101.5t20 126.5q0 71 -25.5 108t-85.5 37q-31 0 -60 -15t-54.5 -41t-46 -59.5t-35.5 -70.5t-23 -75.5t-8 -72.5zM405 1260h76q10 -39 24 -66t34.5 -44t49.5 -25t68 -8q79 0 136.5 33t110.5 110h82 q-27 -65 -64.5 -118.5t-83 -91t-97.5 -58t-108 -20.5q-58 0 -102.5 20.5t-74 58t-43 91t-8.5 118.5z" />
<glyph unicode="&#x122;" horiz-adv-x="1692" d="M77 472q0 126 38 236t105.5 201.5t158.5 164t197.5 122t223 76t233.5 26.5q98 0 180.5 -7.5t150.5 -24.5t123 -45.5t98 -71.5l-67 -291h-58q-10 87 -41 154.5t-79.5 114.5t-114.5 71.5t-147 24.5q-132 0 -252 -55.5t-211 -154.5t-145 -236t-54 -299q0 -97 26.5 -175 t78 -133t126.5 -85t171 -30q30 0 63 3t66 9t64.5 14.5t58.5 19.5l97 419l-203 44l10 49h679l-13 -48l-164 -45l-99 -426q-160 -60 -326.5 -90.5t-319.5 -30.5q-141 0 -261 32t-207.5 95t-136.5 156t-49 216zM518 -433q5 24 23 38t41 14q16 0 26 -4t18 -9t18.5 -9t25.5 -4 q22 0 41.5 8.5t35.5 22.5t26.5 31t14.5 34q6 26 -5.5 39t-32.5 13q-25 0 -56 -5.5t-58 -5.5q-35 0 -48.5 18t-7.5 43q5 19 19 38.5t35.5 36t50.5 27t64 10.5q36 0 64.5 -9.5t46.5 -27.5t25 -45t-1 -61q-12 -54 -42.5 -97.5t-71.5 -74.5t-88 -48t-90 -17q-45 0 -62 12t-12 32 z" />
<glyph unicode="&#x123;" horiz-adv-x="965" d="M-72 -215q0 33 14 65.5t44 62t76 55t110 44.5q-45 21 -71 43.5t-26 48.5q0 16 13 33.5t41 36.5t72.5 39.5t108.5 43.5q-56 30 -86 82t-30 130q0 75 37.5 141t101 114.5t147 77t175.5 28.5q97 0 172 -21t117 -75l224 99l-42 -211l-143 32q9 -36 9 -80q0 -58 -34.5 -122 t-95.5 -117.5t-143.5 -88.5t-179.5 -35q-43 0 -81.5 4t-72.5 13q-16 -11 -30 -28t-14 -31q0 -19 27.5 -35t72.5 -30.5t102.5 -28.5t117.5 -29.5t117.5 -33t102.5 -39.5t72.5 -48.5t27.5 -60.5t-20.5 -72t-58.5 -76t-93.5 -73t-125.5 -61.5t-154 -42.5t-179 -16 q-96 0 -174 22.5t-133 59t-85 83.5t-30 97zM133 -172q0 -41 24 -78.5t67.5 -67t105 -47t136.5 -17.5q70 0 124.5 14t91.5 35.5t56 47t19 48.5q0 20 -24 39t-64.5 37.5t-93.5 36t-110.5 35t-115.5 35.5t-108 37q-57 -33 -82.5 -73.5t-25.5 -81.5zM414 419q0 -27 5 -51 t16.5 -41.5t31 -27.5t48.5 -10q46 0 88.5 24t75.5 67t53 101.5t20 126.5q0 71 -25.5 108t-85.5 37q-31 0 -60 -15t-54.5 -41t-46 -59.5t-35.5 -70.5t-23 -75.5t-8 -72.5zM912.993 1284.97q-4.99902 -23.999 -22.998 -37.998t-40.998 -13.999q-15.999 0 -25.998 4 q-10 4 -17.999 8.99902q-8 5 -18.499 9t-25.498 4q-21.999 0 -41.498 -8.5q-19.499 -8.49902 -35.4971 -22.499q-16 -13.999 -26.499 -30.998q-10.499 -16.998 -14.499 -33.9971q-6 -25.999 5.5 -38.998q11.499 -12.999 32.498 -12.999q24.998 0 55.9961 5.49902 q30.998 5.5 57.9971 5.5q34.9971 0 48.4971 -17.999q13.499 -17.999 7.49902 -42.9971q-5 -18.999 -18.999 -38.498q-13.999 -19.498 -35.498 -35.9971q-21.498 -16.499 -50.4961 -26.999q-28.999 -10.499 -63.9961 -10.499q-35.998 0 -64.4961 9.49902 q-28.499 9.5 -46.4971 27.499q-17.999 17.998 -24.999 44.9971q-6.99902 26.998 1 60.9961q11.999 53.9971 42.4971 97.4941q30.499 43.4971 71.4961 74.4951t87.9941 47.9971t89.9951 16.999q44.9971 0 61.9961 -11.999t11.999 -31.998z" />
<glyph unicode="&#x129;" horiz-adv-x="596" d="M46 49q0 9 1 19t4 21l152 649h-123v55l386 38l-149 -639q-7 -28 -7 -50q0 -33 22 -33q10 0 26.5 12.5t36 31t40.5 40t39 40.5l38 -34q-45 -50 -89.5 -91t-91.5 -70.5t-97.5 -46t-105.5 -16.5q-39 0 -60.5 18t-21.5 56zM83 1005q4 55 17.5 102t35.5 81t52.5 53t69.5 19 t72.5 -16.5t63 -36t56.5 -36t53 -16.5q42 0 66 22.5t28 82.5h36q-2 -54 -13.5 -100.5t-32.5 -80t-51.5 -53t-69.5 -19.5q-40 0 -71 16.5t-59 36t-56 36t-61 16.5q-38 0 -66.5 -24t-33.5 -83h-36z" />
<glyph unicode="&#x12a;" horiz-adv-x="791" d="M-79 0l11 48l206 51l253 1095l-189 32l11 48h698l-11 -48l-202 -32l-253 -1095l183 -51l-11 -48h-696zM273 1407v112h594v-112h-594z" />
<glyph unicode="&#x12b;" horiz-adv-x="596" d="M46 49q0 9 1 19t4 21l152 649h-123v55l386 38l-149 -639q-7 -28 -7 -50q0 -33 22 -33q10 0 26.5 12.5t36 31t40.5 40t39 40.5l38 -34q-45 -50 -89.5 -91t-91.5 -70.5t-97.5 -46t-105.5 -16.5q-39 0 -60.5 18t-21.5 56zM56 1047v112h594v-112h-594z" />
<glyph unicode="&#x12e;" horiz-adv-x="791" d="M-79 0l11 48l206 51l253 1095l-189 32l11 48h698l-11 -48l-202 -32l-253 -1095l183 -51l-11 -48h-105q-79 0 -137 -29t-96 -72t-56.5 -92t-18.5 -88q0 -26 9.5 -44.5t25.5 -29.5t37.5 -16t45.5 -5q54 0 102 16l5 -44q-72 -23 -133 -32t-110 -9q-90 0 -134 38.5t-44 97.5 q0 61 24 108.5t64.5 84.5t93.5 65t112 51h-381z" />
<glyph unicode="&#x12f;" horiz-adv-x="596" d="M-82 -309q0 53 19 96.5t51 78t75.5 62t92.5 49.5q-57 6 -80 32.5t-23 68.5q0 14 2.5 30t6.5 33l141 597h-123v55l386 38l-161 -690q-1 -4 -1 -10q0 -11 8 -18.5t28 -7.5q19 0 54.5 24.5t80.5 69.5l38 -34q-31 -42 -72.5 -75t-85.5 -63.5t-87.5 -61t-77.5 -66t-55 -79.5 t-21 -101q0 -26 9.5 -44.5t25.5 -29.5t37.5 -16t45.5 -5q55 0 102 16l5 -44q-72 -23 -133 -32t-110 -9q-90 0 -134 38.5t-44 97.5zM260 1129q0 31 11.5 58.5t32 47.5t47.5 31.5t58 11.5t59 -12t48.5 -32t32.5 -47.5t12 -57.5q0 -31 -12 -58.5t-32.5 -48.5t-48.5 -33t-59 -12 t-58 11.5t-47.5 32t-32 48.5t-11.5 60z" />
<glyph unicode="&#x130;" horiz-adv-x="791" d="M-79 0l11 48l206 51l253 1095l-189 32l11 48h698l-11 -48l-202 -32l-253 -1095l183 -51l-11 -48h-696zM474 1539q0 31 11.5 58.5t32 47.5t47.5 31.5t58 11.5t59 -12t48.5 -32t32.5 -47.5t12 -57.5q0 -31 -12 -58.5t-32.5 -48.5t-48.5 -33t-59 -12t-58 11.5t-47.5 32 t-32 48.5t-11.5 60z" />
<glyph unicode="&#x131;" horiz-adv-x="596" d="M46 49q0 9 1 19t4 21l152 649h-123v55l386 38l-149 -639q-7 -28 -7 -50q0 -33 22 -33q10 0 26.5 12.5t36 31t40.5 40t39 40.5l38 -34q-45 -50 -89.5 -91t-91.5 -70.5t-97.5 -46t-105.5 -16.5q-39 0 -60.5 18t-21.5 56z" />
<glyph unicode="&#x136;" horiz-adv-x="1648" d="M47 0l11 48l202 32l257 1114l-187 32l11 48h696l-11 -48l-202 -32l-116 -503l667 503l-179 32l11 48h527l-11 -48l-194 -32l-584 -416l471 -698l131 -32l-11 -48h-409l-427 656l-133 -576l187 -32l-11 -48h-696zM667 -433q5 24 23 38t41 14q16 0 26 -4t18 -9t18.5 -9 t25.5 -4q22 0 41.5 8.5t35.5 22.5t26.5 31t14.5 34q6 26 -5.5 39t-32.5 13q-25 0 -56 -5.5t-58 -5.5q-35 0 -48.5 18t-7.5 43q5 19 19 38.5t35.5 36t50.5 27t64 10.5q36 0 64.5 -9.5t46.5 -27.5t25 -45t-1 -61q-12 -54 -42.5 -97.5t-71.5 -74.5t-88 -48t-90 -17 q-45 0 -62 12t-12 32z" />
<glyph unicode="&#x137;" horiz-adv-x="1062" d="M1 0l285 1226h-141v48l415 55l-156 -653q55 46 110 76t106 47.5t96 24.5t81 7q32 0 60.5 -13t50.5 -35.5t34.5 -53t12.5 -64.5q0 -196 -312 -256q18 -67 39 -120.5t43 -91t45 -58t46 -20.5q26 0 48.5 16t50.5 39l28 -36q-37 -33 -70.5 -62t-65.5 -50.5t-62 -34t-59 -12.5 q-43 0 -73 16t-54.5 51t-48 90.5t-53.5 135.5q-17 46 -34 89.5t-33 71.5q11 -1 21.5 -1.5t21.5 -0.5q64 0 115.5 13.5t88 37t56.5 55.5t20 70q0 28 -18 48.5t-43 20.5q-17 0 -46 -4t-65 -16t-77.5 -33t-84.5 -55l-135 -568h-243zM178 -433q5 24 23 38t41 14q16 0 26 -4 t18 -9t18.5 -9t25.5 -4q22 0 41.5 8.5t35.5 22.5t26.5 31t14.5 34q6 26 -5.5 39t-32.5 13q-25 0 -56 -5.5t-58 -5.5q-35 0 -48.5 18t-7.5 43q5 19 19 38.5t35.5 36t50.5 27t64 10.5q36 0 64.5 -9.5t46.5 -27.5t25 -45t-1 -61q-12 -54 -42.5 -97.5t-71.5 -74.5t-88 -48 t-90 -17q-45 0 -62 12t-12 32z" />
<glyph unicode="&#x139;" horiz-adv-x="1231" d="M-55 0l11 48l202 32l257 1114l-187 32l11 48h696l-11 -48l-202 -32l-255 -1107h444l221 271h70l-152 -358h-1105zM494 1428q0 7 6 15l200 272q12 16 25.5 20t39.5 4h184q24 0 35 -7.5t11 -17.5q0 -6 -5 -13.5t-19 -16.5l-412 -261q-20 -12 -37 -12q-16 0 -22 5t-6 12z " />
<glyph unicode="&#x13a;" horiz-adv-x="612" d="M35 49q0 9 1 19t4 21l263 1137h-141v48l415 55l-271 -1137q-7 -28 -7 -50q0 -33 22 -33q10 0 26.5 12.5t36 31t40.5 40t39 40.5l38 -34q-45 -50 -89.5 -91t-91.5 -70.5t-97.5 -46t-105.5 -16.5q-39 0 -60.5 18t-21.5 56zM325 1518q0 7 6 15l200 272q12 16 25.5 20t39.5 4 h184q24 0 35 -7.5t11 -17.5q0 -6 -5 -13.5t-19 -16.5l-412 -261q-20 -12 -37 -12q-16 0 -22 5t-6 12z" />
<glyph unicode="&#x13b;" horiz-adv-x="1382" d="M101 0l11 48l202 32l257 1114l-187 32l11 48h696l-11 -48l-202 -32l-255 -1107h444l221 271h70l-152 -358h-1105zM500 -433q5 24 23 38t41 14q16 0 26 -4t18 -9t18.5 -9t25.5 -4q22 0 41.5 8.5t35.5 22.5t26.5 31t14.5 34q6 26 -5.5 39t-32.5 13q-25 0 -56 -5.5t-58 -5.5 q-35 0 -48.5 18t-7.5 43q5 19 19 38.5t35.5 36t50.5 27t64 10.5q36 0 64.5 -9.5t46.5 -27.5t25 -45t-1 -61q-12 -54 -42.5 -97.5t-71.5 -74.5t-88 -48t-90 -17q-45 0 -62 12t-12 32z" />
<glyph unicode="&#x13c;" horiz-adv-x="584" d="M-2 49q0 9 1 19t4 21l263 1137h-141v48l415 55l-271 -1137q-7 -28 -7 -50q0 -33 22 -33q10 0 26.5 12.5t36 31t40.5 40t39 40.5l38 -34q-45 -50 -89.5 -91t-91.5 -70.5t-97.5 -46t-105.5 -16.5q-39 0 -60.5 18t-21.5 56zM-140 -433q5 24 23 38t41 14q16 0 26 -4t18 -9 t18.5 -9t25.5 -4q22 0 41.5 8.5t35.5 22.5t26.5 31t14.5 34q6 26 -5.5 39t-32.5 13q-25 0 -56 -5.5t-58 -5.5q-35 0 -48.5 18t-7.5 43q5 19 19 38.5t35.5 36t50.5 27t64 10.5q36 0 64.5 -9.5t46.5 -27.5t25 -45t-1 -61q-12 -54 -42.5 -97.5t-71.5 -74.5t-88 -48t-90 -17 q-45 0 -62 12t-12 32z" />
<glyph unicode="&#x13d;" horiz-adv-x="1231" d="M-55 0l11 48l202 32l257 1114l-187 32l11 48h696l-11 -48l-202 -32l-255 -1107h444l221 271h70l-152 -358h-1105zM368 1739h237l112 -204l190 204h109l-328 -328h-148z" />
<glyph unicode="&#x13e;" horiz-adv-x="946" d="M35 49q0 9 1 19t4 21l263 1137h-141v48l415 55l-271 -1137q-7 -28 -7 -50q0 -33 22 -33q10 0 26.5 12.5t36 31t40.5 40t39 40.5l38 -34q-45 -50 -89.5 -91t-91.5 -70.5t-97.5 -46t-105.5 -16.5q-39 0 -60.5 18t-21.5 56zM248 1869h237l112 -204l190 204h109l-328 -328 h-148z" />
<glyph unicode="&#x141;" horiz-adv-x="1382" d="M47 0l19 87q107 0 159 34.5t69 112.5l32 143q-17 -15 -39 -40t-44 -48t-40 -40t-25 -17q-13 0 -13 12l2 10l26 115q3 16 20 33t41 33t50.5 32t48.5 31l122 542q5 24 6 43v6q0 52 -38.5 75t-128.5 23l19 87h696l-19 -87q-54 0 -93 -8.5t-66 -26t-43.5 -45.5t-25.5 -67 l-57 -255q13 12 31 32t35.5 39t33 32.5t23.5 13.5q6 0 11 -5t5 -15q0 -6 -1 -8l-23 -103q-3 -14 -18 -28.5t-35.5 -29t-44.5 -28.5t-45 -27l-91 -403q-7 -29 -10.5 -49.5t-3.5 -34.5q0 -17 6 -27t19 -15t34 -6t52 -1h205q52 0 89.5 4t68.5 14.5t60 29.5t65 49q24 20 61.5 55 t89.5 84h90l-240 -358h-1145z" />
<glyph unicode="&#x142;" horiz-adv-x="584" d="M-112 244l2 10l26 115q4 16 21 32.5t40.5 33t50 32.5t48.5 31l24 18l139 598q3 14 5 26t2 22q0 39 -29 51.5t-93 12.5v48q55 0 102.5 13.5t87.5 30t72 30t57 13.5q45 0 61.5 -24t16.5 -59q-2 -32 -9 -66l-112 -467q40 35 76.5 70.5t69.5 73.5q12 13 24 13q6 0 11 -5 t5 -15q0 -6 -1 -8l-23 -103q-4 -17 -27.5 -37t-54 -39.5t-61 -37t-47.5 -29.5l-112 -472q-2 -4 -2 -10q0 -18 6.5 -29.5t26.5 -11.5q19 0 54.5 24.5t80.5 69.5l38 -34q-86 -99 -164 -144.5t-160 -45.5q-35 0 -59 10.5t-38.5 28.5t-20.5 42.5t-6 52.5q0 39 11 88l47 204 q-42 -39 -80 -79.5t-74 -78.5q-11 -11 -19 -11q-13 0 -13 12z" />
<glyph unicode="&#x143;" horiz-adv-x="1796" d="M93 0l11 48l195 32l292 1114l-184 32l11 50h394l596 -893l172 811l-199 32l11 48h489l-11 -48l-158 -32l-331 -1200h-69l-702 1010l-177 -924l160 -32l-11 -48h-489zM1029 1428q0 7 6 15l200 272q12 16 25.5 20t39.5 4h184q24 0 35 -7.5t11 -17.5q0 -6 -5 -13.5 t-19 -16.5l-412 -261q-20 -12 -37 -12q-16 0 -22 5t-6 12z" />
<glyph unicode="&#x144;" horiz-adv-x="1110" d="M38 0l172 738h-123v55l386 38l-28 -126q45 27 103 50t115 39.5t107.5 26t80.5 9.5q92 0 129 -21.5t37 -69.5q0 -26 -7 -55l-113 -492q-7 -28 -7 -50q0 -33 22 -33q10 0 26.5 12.5t36 31t40.5 40t39 40.5l38 -34q-45 -50 -89.5 -91t-91.5 -70.5t-97.5 -46t-105.5 -16.5 q-39 0 -60.5 18t-21.5 56q0 9 1 19t4 21l114 490q6 24 6 44q0 45 -25.5 63.5t-67.5 18.5q-50 0 -112.5 -22t-119.5 -56l-148 -627h-240zM475 1018q0 7 6 15l200 272q12 16 25.5 20t39.5 4h184q24 0 35 -7.5t11 -17.5q0 -6 -5 -13.5t-19 -16.5l-412 -261q-20 -12 -37 -12 q-16 0 -22 5t-6 12z" />
<glyph unicode="&#x145;" horiz-adv-x="1731" d="M64 0l11 48l195 32l292 1114l-184 32l11 50h394l596 -893l172 811l-199 32l11 48h489l-11 -48l-158 -32l-331 -1200h-69l-702 1010l-177 -924l160 -32l-11 -48h-489zM602 -433q5 24 23 38t41 14q16 0 26 -4t18 -9t18.5 -9t25.5 -4q22 0 41.5 8.5t35.5 22.5t26.5 31 t14.5 34q6 26 -5.5 39t-32.5 13q-25 0 -56 -5.5t-58 -5.5q-35 0 -48.5 18t-7.5 43q5 19 19 38.5t35.5 36t50.5 27t64 10.5q36 0 64.5 -9.5t46.5 -27.5t25 -45t-1 -61q-12 -54 -42.5 -97.5t-71.5 -74.5t-88 -48t-90 -17q-45 0 -62 12t-12 32z" />
<glyph unicode="&#x146;" horiz-adv-x="1110" d="M38 0l172 738h-123v55l386 38l-28 -126q45 27 103 50t115 39.5t107.5 26t80.5 9.5q92 0 129 -21.5t37 -69.5q0 -26 -7 -55l-113 -492q-7 -28 -7 -50q0 -33 22 -33q10 0 26.5 12.5t36 31t40.5 40t39 40.5l38 -34q-45 -50 -89.5 -91t-91.5 -70.5t-97.5 -46t-105.5 -16.5 q-39 0 -60.5 18t-21.5 56q0 9 1 19t4 21l114 490q6 24 6 44q0 45 -25.5 63.5t-67.5 18.5q-50 0 -112.5 -22t-119.5 -56l-148 -627h-240zM203 -433q5 24 23 38t41 14q16 0 26 -4t18 -9t18.5 -9t25.5 -4q22 0 41.5 8.5t35.5 22.5t26.5 31t14.5 34q6 26 -5.5 39t-32.5 13 q-25 0 -56 -5.5t-58 -5.5q-35 0 -48.5 18t-7.5 43q5 19 19 38.5t35.5 36t50.5 27t64 10.5q36 0 64.5 -9.5t46.5 -27.5t25 -45t-1 -61q-12 -54 -42.5 -97.5t-71.5 -74.5t-88 -48t-90 -17q-45 0 -62 12t-12 32z" />
<glyph unicode="&#x147;" horiz-adv-x="1561" d="M-88 0l11 48l195 32l292 1114l-184 32l11 50h394l596 -893l172 811l-199 32l11 48h489l-11 -48l-158 -32l-331 -1200h-69l-702 1010l-177 -924l160 -32l-11 -48h-489zM718 1739h237l112 -204l190 204h109l-328 -328h-148z" />
<glyph unicode="&#x148;" horiz-adv-x="1204" d="M38 0l172 738h-123v55l386 38l-28 -126q45 27 103 50t115 39.5t107.5 26t80.5 9.5q92 0 129 -21.5t37 -69.5q0 -26 -7 -55l-113 -492q-7 -28 -7 -50q0 -33 22 -33q10 0 26.5 12.5t36 31t40.5 40t39 40.5l38 -34q-45 -50 -89.5 -91t-91.5 -70.5t-97.5 -46t-105.5 -16.5 q-39 0 -60.5 18t-21.5 56q0 9 1 19t4 21l114 490q6 24 6 44q0 45 -25.5 63.5t-67.5 18.5q-50 0 -112.5 -22t-119.5 -56l-148 -627h-240zM428 1329h237l112 -204l190 204h109l-328 -328h-148z" />
<glyph unicode="&#x14c;" horiz-adv-x="1757" d="M197 470q0 116 36 222.5t99 198.5t150 167.5t189 129t215.5 82.5t229.5 29q137 0 246 -36.5t185.5 -103t117 -160t40.5 -206.5q0 -115 -38 -220.5t-104 -196.5t-155 -165t-191 -126.5t-211.5 -81t-216.5 -28.5q-138 0 -248 37t-186.5 102.5t-117 156.5t-40.5 199z M530 450q0 -190 76.5 -293.5t225.5 -103.5q94 0 171 36t137 96t103.5 138.5t72 163t42 170t13.5 158.5q0 88 -19.5 161t-58 125.5t-95 82t-131.5 29.5q-83 0 -155 -32.5t-131.5 -88t-106.5 -130t-79 -159.5t-48.5 -175.5t-16.5 -177.5zM857 1457v112h594v-112h-594z" />
<glyph unicode="&#x14d;" horiz-adv-x="1029" d="M52 267q0 126 43 230t120 178t183 114.5t232 40.5q73 0 131.5 -20.5t100 -57t64 -88.5t22.5 -115q0 -122 -41.5 -227t-117 -182t-182.5 -121t-238 -44q-77 0 -136 21.5t-99.5 60t-61 92t-20.5 118.5zM288 262q0 -106 36.5 -161t107.5 -55q53 0 94 24t71.5 64t51.5 92 t34 108.5t18.5 113t5.5 105.5q0 103 -36 159t-107 56q-54 0 -95.5 -27t-72.5 -70.5t-51.5 -98.5t-33 -111t-18 -108.5t-5.5 -90.5zM363 1047v112h594v-112h-594z" />
<glyph unicode="&#x150;" horiz-adv-x="1675" d="M113 470q0 116 36 222.5t99 198.5t150 167.5t189 129t215.5 82.5t229.5 29q137 0 246 -36.5t185.5 -103t117 -160t40.5 -206.5q0 -115 -38 -220.5t-104 -196.5t-155 -165t-191 -126.5t-211.5 -81t-216.5 -28.5q-138 0 -248 37t-186.5 102.5t-117 156.5t-40.5 199z M446 450q0 -190 76.5 -293.5t225.5 -103.5q94 0 171 36t137 96t103.5 138.5t72 163t42 170t13.5 158.5q0 88 -19.5 161t-58 125.5t-95 82t-131.5 29.5q-83 0 -155 -32.5t-131.5 -88t-106.5 -130t-79 -159.5t-48.5 -175.5t-16.5 -177.5zM724 1428q0 7 6 15l200 272 q12 16 25.5 20t39.5 4h184q24 0 35 -7.5t11 -17.5q0 -6 -5 -13.5t-19 -16.5l-412 -261q-20 -12 -37 -12q-16 0 -22 5t-6 12zM1186 1428q0 7 6 15l200 272q12 16 25.5 20t39.5 4h184q24 0 35 -7.5t11 -17.5q0 -6 -5 -13.5t-19 -16.5l-412 -261q-20 -12 -37 -12q-16 0 -22 5 t-6 12z" />
<glyph unicode="&#x151;" horiz-adv-x="1029" d="M52 267q0 126 43 230t120 178t183 114.5t232 40.5q73 0 131.5 -20.5t100 -57t64 -88.5t22.5 -115q0 -122 -41.5 -227t-117 -182t-182.5 -121t-238 -44q-77 0 -136 21.5t-99.5 60t-61 92t-20.5 118.5zM288 262q0 -106 36.5 -161t107.5 -55q53 0 94 24t71.5 64t51.5 92 t34 108.5t18.5 113t5.5 105.5q0 103 -36 159t-107 56q-54 0 -95.5 -27t-72.5 -70.5t-51.5 -98.5t-33 -111t-18 -108.5t-5.5 -90.5zM322 1018q0 7 6 15l200 272q12 16 25.5 20t39.5 4h184q24 0 35 -7.5t11 -17.5q0 -6 -5 -13.5t-19 -16.5l-412 -261q-20 -12 -37 -12 q-16 0 -22 5t-6 12zM784 1018q0 7 6 15l200 272q12 16 25.5 20t39.5 4h184q24 0 35 -7.5t11 -17.5q0 -6 -5 -13.5t-19 -16.5l-412 -261q-20 -12 -37 -12q-16 0 -22 5t-6 12z" />
<glyph unicode="&#x152;" horiz-adv-x="2237" d="M211 487q0 107 38 208.5t105 191t159.5 165t201.5 129.5t231 84t248 30q30 0 69 -3.5t79.5 -7t78 -7t64.5 -3.5h902l-67 -299l-57 -5q2 22 3.5 41t1.5 36q0 36 -7.5 61.5t-27 42.5t-52.5 25t-85 8h-411l-112 -498h179q98 0 149.5 34.5t69.5 118.5h46l-87 -388h-46 q6 28 6 52q0 55 -38 78t-119 23h-179l-88 -393q-5 -23 -8 -40.5t-3 -31.5q0 -17 5 -27.5t15.5 -16t26.5 -7t38 -1.5h283q72 0 125 16.5t92.5 47.5t67.5 76t51 102h60l-103 -329h-928q-30 0 -66 -4t-76 -8.5t-83.5 -8.5t-88.5 -4q-154 0 -277 38.5t-208.5 107t-131.5 162 t-46 204.5zM549 480q0 -99 25 -178.5t72 -136t115.5 -87t155.5 -30.5q58 0 99 7.5t69.5 24.5t45.5 45t26 70l199 884q4 15 4 33q0 34 -18 56t-48 35t-68.5 18t-80.5 5q-121 0 -229 -57t-189.5 -157.5t-129.5 -236.5t-48 -295z" />
<glyph unicode="&#x153;" horiz-adv-x="1334" d="M-14 261q0 73 23.5 144t64.5 134t96.5 116.5t120.5 92.5t136 61t142 22q69 0 114 -31t76 -85q27 30 61.5 51.5t74 35.5t81.5 21t84 7q87 0 139 -41.5t52 -110.5q0 -50 -27.5 -93.5t-84.5 -81t-145.5 -69.5t-209.5 -60q-10 -47 -10 -103q0 -84 39.5 -127t117.5 -43 q91 0 236 86l28 -34q-67 -47 -125 -80.5t-110.5 -54.5t-100 -31t-92.5 -10q-72 0 -122 33t-82 84q-34 -30 -75.5 -52.5t-86 -37t-89.5 -22t-87 -7.5q-118 0 -178.5 72.5t-60.5 213.5zM238 298q0 -112 29 -174t83 -62q39 0 77 36.5t69 96t50 136t19 156.5q0 125 -31.5 190 t-89.5 65q-41 0 -78.5 -35.5t-66 -96t-45 -141.5t-16.5 -171zM798 430q55 12 99.5 36t76 57t49 74t17.5 88q0 72 -62 72q-51 0 -94.5 -79t-85.5 -248z" />
<glyph unicode="&#x154;" horiz-adv-x="1514" d="M-70 -1l12 49l202 32l257 1114l-187 32l11 48q262 12 428 16.5t242 4.5q95 0 173.5 -18t135 -50t87.5 -77t31 -100q0 -80 -25.5 -141t-73 -109t-114 -85.5t-147.5 -68.5q48 -9 78.5 -38.5t51 -71.5t34 -93t27.5 -103t31 -102t44 -90t68 -67t102 -33l-11 -48h-413 q-26 61 -44.5 132t-37.5 141t-42.5 134.5t-58.5 114t-86 79t-125 29.5l-128 -553l186 -29l-12 -49h-696zM596 700q20 -3 40.5 -4t39.5 -1q80 0 144.5 27.5t109.5 75t69.5 111.5t24.5 138q0 33 -14 65.5t-39.5 58t-61 41t-78.5 15.5q-53 0 -117 -15zM758 1428q0 7 6 15 l200 272q12 16 25.5 20t39.5 4h184q24 0 35 -7.5t11 -17.5q0 -6 -5 -13.5t-19 -16.5l-412 -261q-20 -12 -37 -12q-16 0 -22 5t-6 12z" />
<glyph unicode="&#x155;" horiz-adv-x="748" d="M6 0l170 738h-123v55l386 37l-34 -148q63 70 127.5 109t130.5 39q35 0 69 -10.5t68 -42.5l-140 -202q-22 30 -66.5 53.5t-97.5 23.5q-28 0 -55.5 -8t-51.5 -28l-143 -616h-240zM370 1018q0 7 6 15l200 272q12 16 25.5 20t39.5 4h184q24 0 35 -7.5t11 -17.5q0 -6 -5 -13.5 t-19 -16.5l-412 -261q-20 -12 -37 -12q-16 0 -22 5t-6 12z" />
<glyph unicode="&#x156;" horiz-adv-x="1520" d="M174 -1l12 49l202 32l257 1114l-187 32l11 48q262 12 428 16.5t242 4.5q95 0 173.5 -18t135 -50t87.5 -77t31 -100q0 -80 -25.5 -141t-73 -109t-114 -85.5t-147.5 -68.5q48 -9 78.5 -38.5t51 -71.5t34 -93t27.5 -103t31 -102t44 -90t68 -67t102 -33l-11 -48h-413 q-26 61 -44.5 132t-37.5 141t-42.5 134.5t-58.5 114t-86 79t-125 29.5l-128 -553l186 -29l-12 -49h-696zM840 700q20 -3 40.5 -4t39.5 -1q80 0 144.5 27.5t109.5 75t69.5 111.5t24.5 138q0 33 -14 65.5t-39.5 58t-61 41t-78.5 15.5q-53 0 -117 -15zM777 -433q5 24 23 38 t41 14q16 0 26 -4t18 -9t18.5 -9t25.5 -4q22 0 41.5 8.5t35.5 22.5t26.5 31t14.5 34q6 26 -5.5 39t-32.5 13q-25 0 -56 -5.5t-58 -5.5q-35 0 -48.5 18t-7.5 43q5 19 19 38.5t35.5 36t50.5 27t64 10.5q36 0 64.5 -9.5t46.5 -27.5t25 -45t-1 -61q-12 -54 -42.5 -97.5 t-71.5 -74.5t-88 -48t-90 -17q-45 0 -62 12t-12 32z" />
<glyph unicode="&#x157;" horiz-adv-x="793" d="M6 0l170 738h-123v55l386 37l-34 -148q63 70 127.5 109t130.5 39q35 0 69 -10.5t68 -42.5l-140 -202q-22 30 -66.5 53.5t-97.5 23.5q-28 0 -55.5 -8t-51.5 -28l-143 -616h-240zM-133 -433q5 24 23 38t41 14q16 0 26 -4t18 -9t18.5 -9t25.5 -4q22 0 41.5 8.5t35.5 22.5 t26.5 31t14.5 34q6 26 -5.5 39t-32.5 13q-25 0 -56 -5.5t-58 -5.5q-35 0 -48.5 18t-7.5 43q5 19 19 38.5t35.5 36t50.5 27t64 10.5q36 0 64.5 -9.5t46.5 -27.5t25 -45t-1 -61q-12 -54 -42.5 -97.5t-71.5 -74.5t-88 -48t-90 -17q-45 0 -62 12t-12 32z" />
<glyph unicode="&#x158;" horiz-adv-x="1514" d="M-70 -1l12 49l202 32l257 1114l-187 32l11 48q262 12 428 16.5t242 4.5q95 0 173.5 -18t135 -50t87.5 -77t31 -100q0 -80 -25.5 -141t-73 -109t-114 -85.5t-147.5 -68.5q48 -9 78.5 -38.5t51 -71.5t34 -93t27.5 -103t31 -102t44 -90t68 -67t102 -33l-11 -48h-413 q-26 61 -44.5 132t-37.5 141t-42.5 134.5t-58.5 114t-86 79t-125 29.5l-128 -553l186 -29l-12 -49h-696zM596 700q20 -3 40.5 -4t39.5 -1q80 0 144.5 27.5t109.5 75t69.5 111.5t24.5 138q0 33 -14 65.5t-39.5 58t-61 41t-78.5 15.5q-53 0 -117 -15zM604 1739h237l112 -204 l190 204h109l-328 -328h-148z" />
<glyph unicode="&#x159;" horiz-adv-x="748" d="M6 0l170 738h-123v55l386 37l-34 -148q63 70 127.5 109t130.5 39q35 0 69 -10.5t68 -42.5l-140 -202q-22 30 -66.5 53.5t-97.5 23.5q-28 0 -55.5 -8t-51.5 -28l-143 -616h-240zM218 1329h237l112 -204l190 204h109l-328 -328h-148z" />
<glyph unicode="&#x15a;" horiz-adv-x="1188" d="M-2 89l67 289h51q13 -153 101.5 -232t246.5 -79q52 0 103 17t91 47t64.5 71.5t24.5 91.5q0 62 -61 129t-184 138q-60 34 -114 66.5t-94.5 68.5t-64.5 80t-24 103q0 91 42 167.5t113 132t164.5 86.5t195.5 31q93 0 164.5 -10.5t124.5 -27t89.5 -38.5t60.5 -44l-57 -245 l-44 -2q-5 67 -32 118t-70.5 85.5t-100.5 52t-122 17.5q-53 0 -97.5 -13.5t-77.5 -37.5t-51.5 -57.5t-18.5 -73.5q0 -27 12 -50.5t39 -48t69 -51.5t102 -61q74 -42 137 -80t108.5 -80.5t71.5 -92.5t26 -116q0 -95 -45.5 -179.5t-122 -148t-178 -100.5t-212.5 -37 q-98 0 -171 7.5t-130.5 22t-104 35.5t-91.5 49zM693 1428q0 7 6 15l200 272q12 16 25.5 20t39.5 4h184q24 0 35 -7.5t11 -17.5q0 -6 -5 -13.5t-19 -16.5l-412 -261q-20 -12 -37 -12q-16 0 -22 5t-6 12z" />
<glyph unicode="&#x15b;" horiz-adv-x="742" d="M-34 18l32 206l53 -4q7 -39 25 -68t44.5 -48t60 -28.5t71.5 -9.5q27 0 52 6.5t44.5 19t31 30t11.5 39.5q0 38 -23 67.5t-57.5 56t-75 52.5t-75 57t-57.5 69t-23 89q0 67 33 119t89 87t129 53.5t153 18.5q58 0 117 -8.5t116 -30.5l-42 -209l-54 2q-3 37 -20 67.5t-42 52 t-55.5 33t-61.5 11.5q-23 0 -44.5 -7t-38.5 -20t-27.5 -30t-10.5 -37q0 -40 24.5 -70.5t61 -57.5t79 -52.5t79 -53.5t61 -61t24.5 -75q0 -84 -35.5 -143t-94 -95.5t-134 -53.5t-155.5 -17q-69 0 -137 11.5t-128 31.5zM324 1018q0 7 6 15l200 272q12 16 25.5 20t39.5 4h184 q24 0 35 -7.5t11 -17.5q0 -6 -5 -13.5t-19 -16.5l-412 -261q-20 -12 -37 -12q-16 0 -22 5t-6 12z" />
<glyph unicode="&#x15e;" horiz-adv-x="1188" d="M-2 89l67 289h51q13 -153 101.5 -232t246.5 -79q52 0 103 17t91 47t64.5 71.5t24.5 91.5q0 62 -61 129t-184 138q-60 34 -114 66.5t-94.5 68.5t-64.5 80t-24 103q0 91 42 167.5t113 132t164.5 86.5t195.5 31q93 0 164.5 -10.5t124.5 -27t89.5 -38.5t60.5 -44l-57 -245 l-44 -2q-5 67 -32 118t-70.5 85.5t-100.5 52t-122 17.5q-53 0 -97.5 -13.5t-77.5 -37.5t-51.5 -57.5t-18.5 -73.5q0 -27 12 -50.5t39 -48t69 -51.5t102 -61q74 -42 137 -80t108.5 -80.5t71.5 -92.5t26 -116q0 -95 -45.5 -179.5t-122 -148t-178 -100.5t-212.5 -37 q-98 0 -171 7.5t-130.5 22t-104 35.5t-91.5 49zM205 -397q0 23 15 40.5t39 17.5q36 0 61 -11.5t45 -25.5t39.5 -25.5t44.5 -11.5q22 0 40.5 7.5t32 20t21 28.5t7.5 33q0 43 -59.5 72.5t-162.5 42.5l138 226h63l-62 -104q44 -9 79 -22t60 -36t38 -58t13 -87q0 -38 -15.5 -72 t-49 -59.5t-86 -40.5t-125.5 -15q-37 0 -69 5t-56 14.5t-37.5 24.5t-13.5 36z" />
<glyph unicode="&#x15f;" horiz-adv-x="799" d="M-34 18l32 206l53 -4q7 -39 25 -68t44.5 -48t60 -28.5t71.5 -9.5q27 0 52 6.5t44.5 19t31 30t11.5 39.5q0 38 -23 67.5t-57.5 56t-75 52.5t-75 57t-57.5 69t-23 89q0 67 33 119t89 87t129 53.5t153 18.5q58 0 117 -8.5t116 -30.5l-42 -209l-54 2q-3 37 -20 67.5t-42 52 t-55.5 33t-61.5 11.5q-23 0 -44.5 -7t-38.5 -20t-27.5 -30t-10.5 -37q0 -40 24.5 -70.5t61 -57.5t79 -52.5t79 -53.5t61 -61t24.5 -75q0 -84 -35.5 -143t-94 -95.5t-134 -53.5t-155.5 -17q-69 0 -137 11.5t-128 31.5zM0 -397q0 23 15 40.5t39 17.5q36 0 61 -11.5t45 -25.5 t39.5 -25.5t44.5 -11.5q22 0 40.5 7.5t32 20t21 28.5t7.5 33q0 43 -59.5 72.5t-162.5 42.5l138 226h63l-62 -104q44 -9 79 -22t60 -36t38 -58t13 -87q0 -38 -15.5 -72t-49 -59.5t-86 -40.5t-125.5 -15q-37 0 -69 5t-56 14.5t-37.5 24.5t-13.5 36z" />
<glyph unicode="&#x160;" horiz-adv-x="1188" d="M-2 89l67 289h51q13 -153 101.5 -232t246.5 -79q52 0 103 17t91 47t64.5 71.5t24.5 91.5q0 62 -61 129t-184 138q-60 34 -114 66.5t-94.5 68.5t-64.5 80t-24 103q0 91 42 167.5t113 132t164.5 86.5t195.5 31q93 0 164.5 -10.5t124.5 -27t89.5 -38.5t60.5 -44l-57 -245 l-44 -2q-5 67 -32 118t-70.5 85.5t-100.5 52t-122 17.5q-53 0 -97.5 -13.5t-77.5 -37.5t-51.5 -57.5t-18.5 -73.5q0 -27 12 -50.5t39 -48t69 -51.5t102 -61q74 -42 137 -80t108.5 -80.5t71.5 -92.5t26 -116q0 -95 -45.5 -179.5t-122 -148t-178 -100.5t-212.5 -37 q-98 0 -171 7.5t-130.5 22t-104 35.5t-91.5 49zM548 1739h237l112 -204l190 204h109l-328 -328h-148z" />
<glyph unicode="&#x161;" horiz-adv-x="742" d="M-34 18l32 206l53 -4q7 -39 25 -68t44.5 -48t60 -28.5t71.5 -9.5q27 0 52 6.5t44.5 19t31 30t11.5 39.5q0 38 -23 67.5t-57.5 56t-75 52.5t-75 57t-57.5 69t-23 89q0 67 33 119t89 87t129 53.5t153 18.5q58 0 117 -8.5t116 -30.5l-42 -209l-54 2q-3 37 -20 67.5t-42 52 t-55.5 33t-61.5 11.5q-23 0 -44.5 -7t-38.5 -20t-27.5 -30t-10.5 -37q0 -40 24.5 -70.5t61 -57.5t79 -52.5t79 -53.5t61 -61t24.5 -75q0 -84 -35.5 -143t-94 -95.5t-134 -53.5t-155.5 -17q-69 0 -137 11.5t-128 31.5zM243 1329h237l112 -204l190 204h109l-328 -328h-148z " />
<glyph unicode="&#x162;" horiz-adv-x="1491" d="M166 920l118 354h1258l-46 -354l-51 -2l-56 265h-343l-255 -1103l187 -32l-11 -48h-696l11 48l202 32l255 1103h-345l-179 -265zM335 -397q0 23 15 40.5t39 17.5q36 0 61 -11.5t45 -25.5t39.5 -25.5t44.5 -11.5q22 0 40.5 7.5t32 20t21 28.5t7.5 33q0 43 -59.5 72.5 t-162.5 42.5l138 226h63l-62 -104q44 -9 79 -22t60 -36t38 -58t13 -87q0 -38 -15.5 -72t-49 -59.5t-86 -40.5t-125.5 -15q-37 0 -69 5t-56 14.5t-37.5 24.5t-13.5 36z" />
<glyph unicode="&#x163;" horiz-adv-x="612" d="M24 49q0 9 1 19t4 21l148 639h-117l19 83h117l55 238l269 85l-77 -323h156l-18 -83h-158l-128 -536q-7 -28 -7 -50q0 -33 22 -33q10 0 26.5 12.5t36 31t40.5 40t39 40.5l38 -34q-45 -50 -89.5 -91t-91.5 -70.5t-97.5 -46t-105.5 -16.5q-39 0 -60.5 18t-21.5 56z M-136 -397q0 23 15 40.5t39 17.5q36 0 61 -11.5t45 -25.5t39.5 -25.5t44.5 -11.5q22 0 40.5 7.5t32 20t21 28.5t7.5 33q0 43 -59.5 72.5t-162.5 42.5l138 226h63l-62 -104q44 -9 79 -22t60 -36t38 -58t13 -87q0 -38 -15.5 -72t-49 -59.5t-86 -40.5t-125.5 -15q-37 0 -69 5 t-56 14.5t-37.5 24.5t-13.5 36z" />
<glyph unicode="&#x164;" horiz-adv-x="1491" d="M166 920l118 354h1258l-46 -354l-51 -2l-56 265h-343l-255 -1103l187 -32l-11 -48h-696l11 48l202 32l255 1103h-345l-179 -265zM684 1739h237l112 -204l190 204h109l-328 -328h-148z" />
<glyph unicode="&#x165;" horiz-adv-x="1127" d="M24 49q0 9 1 19t4 21l148 639h-117l19 83h117l55 238l269 85l-77 -323h156l-18 -83h-158l-128 -536q-7 -28 -7 -50q0 -33 22 -33q10 0 26.5 12.5t36 31t40.5 40t39 40.5l38 -34q-45 -50 -89.5 -91t-91.5 -70.5t-97.5 -46t-105.5 -16.5q-39 0 -60.5 18t-21.5 56zM177 1599 h237l112 -204l190 204h109l-328 -328h-148z" />
<glyph unicode="&#x16a;" horiz-adv-x="1663" d="M245 1226l11 48h690l-11 -48l-203 -32l-158 -687q-9 -38 -14.5 -78t-5.5 -81q0 -54 12.5 -105t44 -90.5t85 -63t135.5 -23.5q102 0 181 26t137.5 79.5t99.5 135.5t67 193l164 694l-201 32l11 48h507l-11 -48l-181 -32l-198 -668q-33 -109 -63.5 -192.5t-67.5 -145 t-84.5 -103t-112.5 -66.5t-151.5 -35.5t-203.5 -10.5q-123 0 -212 29.5t-146.5 81t-85.5 121.5t-28 151q0 61 15 127l164 711zM871 1457v112h594v-112h-594z" />
<glyph unicode="&#x16b;" horiz-adv-x="1201" d="M70 139q0 9 1.5 18t3.5 19l132 562h-123v55l386 37l-146 -620q-7 -29 -0.5 -49t22 -32.5t37.5 -18t48 -5.5q45 0 103 19t113 48l150 639h242l-145 -619q-7 -28 -7 -50q0 -33 22 -33q10 0 26.5 12.5t36 31t40.5 40t39 40.5l38 -34q-45 -50 -89.5 -91t-91.5 -70.5 t-97.5 -46t-105.5 -16.5q-39 0 -60.5 18t-21.5 56q0 9 1 19t5 24q-44 -23 -92 -43t-96.5 -35t-94.5 -23.5t-85 -8.5q-43 0 -78 12t-60 33.5t-39 50t-14 61.5zM378 1047v112h594v-112h-594z" />
<glyph unicode="&#x16e;" horiz-adv-x="1663" d="M245 1226l11 48h690l-11 -48l-203 -32l-158 -687q-9 -38 -14.5 -78t-5.5 -81q0 -54 12.5 -105t44 -90.5t85 -63t135.5 -23.5q102 0 181 26t137.5 79.5t99.5 135.5t67 193l164 694l-201 32l11 48h507l-11 -48l-181 -32l-198 -668q-33 -109 -63.5 -192.5t-67.5 -145 t-84.5 -103t-112.5 -66.5t-151.5 -35.5t-203.5 -10.5q-123 0 -212 29.5t-146.5 81t-85.5 121.5t-28 151q0 61 15 127l164 711zM997 1555q0 39 14 73t39 58.5t58 38.5t72 14q40 0 74 -14t58.5 -38.5t38 -58.5t13.5 -73t-13.5 -72.5t-38 -57.5t-58.5 -38t-74 -14t-73.5 13.5 t-58 37.5t-38 57.5t-13.5 73.5zM1090 1555q0 -38 25.5 -63.5t64.5 -25.5q38 0 62.5 25.5t24.5 63.5t-24.5 63t-62.5 25q-39 0 -64.5 -25t-25.5 -63z" />
<glyph unicode="&#x16f;" horiz-adv-x="1201" d="M70 139q0 9 1.5 18t3.5 19l132 562h-123v55l386 37l-146 -620q-7 -29 -0.5 -49t22 -32.5t37.5 -18t48 -5.5q45 0 103 19t113 48l150 639h242l-145 -619q-7 -28 -7 -50q0 -33 22 -33q10 0 26.5 12.5t36 31t40.5 40t39 40.5l38 -34q-45 -50 -89.5 -91t-91.5 -70.5 t-97.5 -46t-105.5 -16.5q-39 0 -60.5 18t-21.5 56q0 9 1 19t5 24q-44 -23 -92 -43t-96.5 -35t-94.5 -23.5t-85 -8.5q-43 0 -78 12t-60 33.5t-39 50t-14 61.5zM521 1131q0 39 14 73t39 58.5t58 38.5t72 14q40 0 74 -14t58.5 -38.5t38 -58.5t13.5 -73t-13.5 -72.5t-38 -57.5 t-58.5 -38t-74 -14t-73.5 13.5t-58 37.5t-38 57.5t-13.5 73.5zM614 1131q0 -38 25.5 -63.5t64.5 -25.5q38 0 62.5 25.5t24.5 63.5t-24.5 63t-62.5 25q-39 0 -64.5 -25t-25.5 -63z" />
<glyph unicode="&#x170;" horiz-adv-x="1663" d="M245 1226l11 48h690l-11 -48l-203 -32l-158 -687q-9 -38 -14.5 -78t-5.5 -81q0 -54 12.5 -105t44 -90.5t85 -63t135.5 -23.5q102 0 181 26t137.5 79.5t99.5 135.5t67 193l164 694l-201 32l11 48h507l-11 -48l-181 -32l-198 -668q-33 -109 -63.5 -192.5t-67.5 -145 t-84.5 -103t-112.5 -66.5t-151.5 -35.5t-203.5 -10.5q-123 0 -212 29.5t-146.5 81t-85.5 121.5t-28 151q0 61 15 127l164 711zM858 1428q0 7 6 15l200 272q12 16 25.5 20t39.5 4h184q24 0 35 -7.5t11 -17.5q0 -6 -5 -13.5t-19 -16.5l-412 -261q-20 -12 -37 -12q-16 0 -22 5 t-6 12zM1320 1428q0 7 6 15l200 272q12 16 25.5 20t39.5 4h184q24 0 35 -7.5t11 -17.5q0 -6 -5 -13.5t-19 -16.5l-412 -261q-20 -12 -37 -12q-16 0 -22 5t-6 12z" />
<glyph unicode="&#x171;" horiz-adv-x="1201" d="M70 139q0 9 1.5 18t3.5 19l132 562h-123v55l386 37l-146 -620q-7 -29 -0.5 -49t22 -32.5t37.5 -18t48 -5.5q45 0 103 19t113 48l150 639h242l-145 -619q-7 -28 -7 -50q0 -33 22 -33q10 0 26.5 12.5t36 31t40.5 40t39 40.5l38 -34q-45 -50 -89.5 -91t-91.5 -70.5 t-97.5 -46t-105.5 -16.5q-39 0 -60.5 18t-21.5 56q0 9 1 19t5 24q-44 -23 -92 -43t-96.5 -35t-94.5 -23.5t-85 -8.5q-43 0 -78 12t-60 33.5t-39 50t-14 61.5zM372 1018q0 7 6 15l200 272q12 16 25.5 20t39.5 4h184q24 0 35 -7.5t11 -17.5q0 -6 -5 -13.5t-19 -16.5l-412 -261 q-20 -12 -37 -12q-16 0 -22 5t-6 12zM834 1018q0 7 6 15l200 272q12 16 25.5 20t39.5 4h184q24 0 35 -7.5t11 -17.5q0 -6 -5 -13.5t-19 -16.5l-412 -261q-20 -12 -37 -12q-16 0 -22 5t-6 12z" />
<glyph unicode="&#x172;" horiz-adv-x="1663" d="M245 1226l11 48h690l-11 -48l-203 -32l-158 -687q-9 -38 -14.5 -78t-5.5 -81q0 -54 12.5 -105t44 -90.5t85 -63t135.5 -23.5q102 0 181 26t137.5 79.5t99.5 135.5t67 193l164 694l-201 32l11 48h507l-11 -48l-181 -32l-198 -668q-27 -92 -52.5 -163t-53 -125t-59 -93 t-71 -68t-89.5 -50t-114 -38q-59 -15 -109 -34t-86.5 -49t-57.5 -75t-21 -112q0 -26 9.5 -44.5t25.5 -29.5t37.5 -16t45.5 -5q57 0 102 16l5 -44q-72 -23 -133 -32t-110 -9q-90 0 -134 38.5t-44 97.5q0 52 18 94.5t49 76.5t73 61.5t90 49.5h-4q-123 0 -212 29.5t-146.5 81 t-85.5 121.5t-28 151q0 61 15 127l164 711z" />
<glyph unicode="&#x173;" horiz-adv-x="1201" d="M70 139q0 9 1.5 18t3.5 19l132 562h-123v55l386 37l-146 -620q-3 -15 -3 -27q0 -21 9 -36t24 -24.5t35 -13.5t42 -4q45 0 103 19t113 48l150 639h242l-145 -619q-7 -28 -7 -50q0 -33 22 -33q10 0 26.5 12.5t36 31t40.5 40t39 40.5l38 -34q-38 -48 -85 -84t-95 -68 t-93.5 -63t-80.5 -68.5t-56.5 -85t-21.5 -111.5q0 -26 9.5 -44.5t25.5 -29.5t37.5 -16t45.5 -5q53 0 102 16l5 -44q-72 -23 -133 -32t-110 -9q-90 0 -134 38.5t-44 97.5q0 53 18.5 95.5t50.5 77t74.5 62t91.5 49.5q-73 5 -73 74q0 9 1 19t5 24q-44 -23 -92 -43t-96.5 -35 t-94.5 -23.5t-85 -8.5q-43 0 -78 12t-60 33.5t-39 50t-14 61.5z" />
<glyph unicode="&#x178;" horiz-adv-x="1436" d="M219 1226l11 48h676l-11 -48l-186 -32l160 -541l407 541l-184 32l11 48h474l-11 -48l-151 -32l-513 -610l-116 -504l190 -32l-11 -48h-698l11 48l201 31l110 478l-240 637zM634 1539q0 31 11.5 58.5t32 47.5t47.5 31.5t58 11.5t59 -12t48.5 -32t32.5 -47.5t12 -57.5 q0 -31 -12 -58.5t-32.5 -48.5t-48.5 -33t-59 -12t-58 11.5t-47.5 32t-32 48.5t-11.5 60zM1069 1539q0 31 11.5 58.5t32 47.5t47.5 31.5t58 11.5t59 -12t48.5 -32t32.5 -47.5t12 -57.5q0 -31 -12 -58.5t-32.5 -48.5t-48.5 -33t-59 -12t-58 11.5t-47.5 32t-32 48.5t-11.5 60z " />
<glyph unicode="&#x179;" horiz-adv-x="1416" d="M-46 0l29 127l1044 1049h-612l-155 -253h-47l81 351h1113l-28 -118l-1045 -1058h683l182 311l45 -2l-93 -407h-1197zM714 1428q0 7 6 15l200 272q12 16 25.5 20t39.5 4h184q24 0 35 -7.5t11 -17.5q0 -6 -5 -13.5t-19 -16.5l-412 -261q-20 -12 -37 -12q-16 0 -22 5t-6 12z " />
<glyph unicode="&#x17a;" horiz-adv-x="843" d="M-49 24l615 613q-32 -21 -52.5 -26.5t-40.5 -5.5q-8 0 -17 0.5t-19 0.5q-33 0 -61 6.5t-54 14.5t-50.5 14.5t-50.5 6.5q-28 0 -51.5 -4.5t-44.5 -16t-39.5 -31.5t-35.5 -50l-35 27l89 200q25 22 65 39.5t94 17.5q44 0 88.5 -10t89 -22t89 -22t89.5 -10q44 0 80 12.5 t65 51.5l51 -39l-604 -608q21 10 36.5 15.5t28.5 7.5t26 2.5t29 0.5q34 0 64 -8t58 -18t55 -18t56 -8q49 0 80.5 16t55.5 61l32 -21l-100 -215q-18 -9 -41.5 -16t-65.5 -7t-89.5 8.5t-97 19t-99 19t-95.5 8.5q-54 0 -89.5 -11.5t-66.5 -43.5zM403 1018q0 7 6 15l200 272 q12 16 25.5 20t39.5 4h184q24 0 35 -7.5t11 -17.5q0 -6 -5 -13.5t-19 -16.5l-412 -261q-20 -12 -37 -12q-16 0 -22 5t-6 12z" />
<glyph unicode="&#x17b;" horiz-adv-x="1416" d="M-46 0l29 127l1044 1049h-612l-155 -253h-47l81 351h1113l-28 -118l-1045 -1058h683l182 311l45 -2l-93 -407h-1197zM736 1539q0 31 11.5 58.5t32 47.5t47.5 31.5t58 11.5t59 -12t48.5 -32t32.5 -47.5t12 -57.5q0 -31 -12 -58.5t-32.5 -48.5t-48.5 -33t-59 -12t-58 11.5 t-47.5 32t-32 48.5t-11.5 60z" />
<glyph unicode="&#x17c;" horiz-adv-x="843" d="M-49 24l615 613q-32 -21 -52.5 -26.5t-40.5 -5.5q-8 0 -17 0.5t-19 0.5q-33 0 -61 6.5t-54 14.5t-50.5 14.5t-50.5 6.5q-28 0 -51.5 -4.5t-44.5 -16t-39.5 -31.5t-35.5 -50l-35 27l89 200q25 22 65 39.5t94 17.5q44 0 88.5 -10t89 -22t89 -22t89.5 -10q44 0 80 12.5 t65 51.5l51 -39l-604 -608q21 10 36.5 15.5t28.5 7.5t26 2.5t29 0.5q34 0 64 -8t58 -18t55 -18t56 -8q49 0 80.5 16t55.5 61l32 -21l-100 -215q-18 -9 -41.5 -16t-65.5 -7t-89.5 8.5t-97 19t-99 19t-95.5 8.5q-54 0 -89.5 -11.5t-66.5 -43.5zM343 1129q0 31 11.5 58.5 t32 47.5t47.5 31.5t58 11.5t59 -12t48.5 -32t32.5 -47.5t12 -57.5q0 -31 -12 -58.5t-32.5 -48.5t-48.5 -33t-59 -12t-58 11.5t-47.5 32t-32 48.5t-11.5 60z" />
<glyph unicode="&#x17d;" horiz-adv-x="1416" d="M-46 0l29 127l1044 1049h-612l-155 -253h-47l81 351h1113l-28 -118l-1045 -1058h683l182 311l45 -2l-93 -407h-1197zM599 1739h237l112 -204l190 204h109l-328 -328h-148z" />
<glyph unicode="&#x17e;" horiz-adv-x="843" d="M-49 24l615 613q-32 -21 -52.5 -26.5t-40.5 -5.5q-8 0 -17 0.5t-19 0.5q-33 0 -61 6.5t-54 14.5t-50.5 14.5t-50.5 6.5q-28 0 -51.5 -4.5t-44.5 -16t-39.5 -31.5t-35.5 -50l-35 27l89 200q25 22 65 39.5t94 17.5q44 0 88.5 -10t89 -22t89 -22t89.5 -10q44 0 80 12.5 t65 51.5l51 -39l-604 -608q21 10 36.5 15.5t28.5 7.5t26 2.5t29 0.5q34 0 64 -8t58 -18t55 -18t56 -8q49 0 80.5 16t55.5 61l32 -21l-100 -215q-18 -9 -41.5 -16t-65.5 -7t-89.5 8.5t-97 19t-99 19t-95.5 8.5q-54 0 -89.5 -11.5t-66.5 -43.5zM232 1329h237l112 -204l190 204 h109l-328 -328h-148z" />
<glyph unicode="&#x17f;" horiz-adv-x="658" d="M-361 -450l64 167q54 -42 100 -69.5t83 -27.5q21 0 39.5 11.5t35 38.5t32 71t30.5 109l217 961q6 27 16 59.5t23 65t28.5 61.5t32.5 47l242 259q32 33 72 46t85 13q72 0 149 -28l-73 -144q-78 84 -138 84q-51 0 -85.5 -54.5t-57.5 -157.5l-242 -1104l-267 -335 q-42 -52 -98 -76.5t-125 -24.5q-76 0 -163 28z" />
<glyph unicode="&#x192;" horiz-adv-x="1234" d="M-66 -453l98 160q69 -57 120 -83t89 -26q48 0 78 39.5t52 112t39 174t40 226.5l100 558h-247v103h266q27 120 68 223.5t106.5 179.5t159.5 119t226 43q96 0 137 -10l-51 -153q-51 31 -95 49t-82 18q-57 0 -96 -46t-59 -155l-49 -268h269v-103h-289l-103 -563 q-29 -156 -81.5 -272.5t-126 -194t-166 -116t-200.5 -38.5q-79 0 -127.5 7t-75.5 16z" />
<glyph unicode="&#x237;" horiz-adv-x="619" d="M-82 -421q34 33 56.5 64.5t38 67.5t27.5 78.5t24 97.5l191 851h-123v55l386 37l-203 -874l-347 -430z" />
<glyph unicode="&#x2c6;" horiz-adv-x="809" d="M157 1012l305 293q17 16 28 20t29 4h97q17 0 27.5 -3.5t19.5 -20.5l151 -290v-4q-1 -5 -8 -7.5t-12 -2.5q-8 0 -15 5l-245 176l-342 -176q-13 -5 -17 -5q-7 0 -12.5 3.5t-5.5 7.5z" />
<glyph unicode="&#x2c7;" horiz-adv-x="809" d="M218 1329h237l112 -204l190 204h109l-328 -328h-148z" />
<glyph unicode="&#x2c8;" horiz-adv-x="422" d="M156 1001v328h110v-328h-110z" />
<glyph unicode="&#x2d8;" horiz-adv-x="859" d="M430 1260h76q10 -39 24 -66t34.5 -44t49.5 -25t68 -8q79 0 136.5 33t110.5 110h82q-27 -65 -64.5 -118.5t-83 -91t-97.5 -58t-108 -20.5q-58 0 -102.5 20.5t-74 58t-43 91t-8.5 118.5z" />
<glyph unicode="&#x2d9;" horiz-adv-x="647" d="M170 1129q0 31 11.5 58.5t32 47.5t47.5 31.5t58 11.5t59 -12t48.5 -32t32.5 -47.5t12 -57.5q0 -31 -12 -58.5t-32.5 -48.5t-48.5 -33t-59 -12t-58 11.5t-47.5 32t-32 48.5t-11.5 60z" />
<glyph unicode="&#x2da;" horiz-adv-x="682" d="M149 1131q0 39 14 73t39 58.5t58 38.5t72 14q40 0 74 -14t58.5 -38.5t38 -58.5t13.5 -73t-13.5 -72.5t-38 -57.5t-58.5 -38t-74 -14t-73.5 13.5t-58 37.5t-38 57.5t-13.5 73.5zM242 1131q0 -38 25.5 -63.5t64.5 -25.5q38 0 62.5 25.5t24.5 63.5t-24.5 63t-62.5 25 q-39 0 -64.5 -25t-25.5 -63z" />
<glyph unicode="&#x2db;" horiz-adv-x="606" d="M54 -309q0 75 36.5 130t94.5 96t131 70t146 52l11 -36q-54 -21 -95.5 -53t-70 -70t-43 -79.5t-14.5 -81.5q0 -26 9.5 -44.5t25.5 -29.5t37.5 -16t45.5 -5q51 0 102 16l5 -44q-72 -23 -133 -32t-110 -9q-90 0 -134 38.5t-44 97.5z" />
<glyph unicode="&#x2dc;" horiz-adv-x="682" d="M66 1005q4 55 17.5 102t35.5 81t52.5 53t69.5 19t72.5 -16.5t63 -36t56.5 -36t53 -16.5q42 0 66 22.5t28 82.5h36q-2 -54 -13.5 -100.5t-32.5 -80t-51.5 -53t-69.5 -19.5q-40 0 -71 16.5t-59 36t-56 36t-61 16.5q-38 0 -66.5 -24t-33.5 -83h-36z" />
<glyph unicode="&#x2dd;" horiz-adv-x="1103" d="M70 1018q0 7 6 15l200 272q12 16 25.5 20t39.5 4h184q24 0 35 -7.5t11 -17.5q0 -6 -5 -13.5t-19 -16.5l-412 -261q-20 -12 -37 -12q-16 0 -22 5t-6 12zM532 1018q0 7 6 15l200 272q12 16 25.5 20t39.5 4h184q24 0 35 -7.5t11 -17.5q0 -6 -5 -13.5t-19 -16.5l-412 -261 q-20 -12 -37 -12q-16 0 -22 5t-6 12z" />
<glyph unicode="&#x300;" d="M-717 1670q0 10 11 17.5t35 7.5h184q26 0 39.5 -4t25.5 -20l200 -272q2 -4 4 -7.5t2 -7.5q0 -7 -6.5 -12t-21.5 -5q-18 0 -37 12l-412 261q-14 9 -19 16.5t-5 13.5z" />
<glyph unicode="&#x301;" d="M-613 1384q0 7 6 15l200 272q12 16 25.5 20t39.5 4h184q24 0 35 -7.5t11 -17.5q0 -6 -5 -13.5t-19 -16.5l-412 -261q-20 -12 -37 -12q-16 0 -22 5t-6 12z" />
<glyph unicode="&#x302;" d="M-751 1390l305 293q17 16 28 20t29 4h97q17 0 27.5 -3.5t19.5 -20.5l151 -290v-4q-1 -5 -8 -7.5t-12 -2.5q-8 0 -15 5l-245 176l-342 -176q-13 -5 -17 -5q-7 0 -12.5 3.5t-5.5 7.5z" />
<glyph unicode="&#x303;" d="M-732 1371q4 55 17.5 102t35.5 81t52.5 53t69.5 19t72.5 -16.5t63 -36t56.5 -36t53 -16.5q42 0 66 22.5t28 82.5h36q-2 -54 -13.5 -100.5t-32.5 -80t-51.5 -53t-69.5 -19.5q-40 0 -71 16.5t-59 36t-56 36t-61 16.5q-38 0 -66.5 -24t-33.5 -83h-36z" />
<glyph unicode="&#x304;" d="M-873 1371v112h594v-112h-594z" />
<glyph unicode="&#x305;" d="M-1045 1097v128h1066v-128h-1066z" />
<glyph unicode="&#x306;" d="M-473 1638h76q10 -39 24 -66t34.5 -44t49.5 -25t68 -8q79 0 136.5 33t110.5 110h82q-27 -65 -64.5 -118.5t-83 -91t-97.5 -58t-108 -20.5q-58 0 -102.5 20.5t-74 58t-43 91t-8.5 118.5z" />
<glyph unicode="&#x307;" d="M-615 1507q0 31 11.5 58.5t32 47.5t47.5 31.5t58 11.5t59 -12t48.5 -32t32.5 -47.5t12 -57.5q0 -31 -12 -58.5t-32.5 -48.5t-48.5 -33t-59 -12t-58 11.5t-47.5 32t-32 48.5t-11.5 60z" />
<glyph unicode="&#x308;" d="M-744 1507q0 31 11.5 58.5t32 47.5t47.5 31.5t58 11.5t59 -12t48.5 -32t32.5 -47.5t12 -57.5q0 -31 -12 -58.5t-32.5 -48.5t-48.5 -33t-59 -12t-58 11.5t-47.5 32t-32 48.5t-11.5 60zM-309 1507q0 31 11.5 58.5t32 47.5t47.5 31.5t58 11.5t59 -12t48.5 -32t32.5 -47.5 t12 -57.5q0 -31 -12 -58.5t-32.5 -48.5t-48.5 -33t-59 -12t-58 11.5t-47.5 32t-32 48.5t-11.5 60z" />
<glyph unicode="&#x309;" d="M-703 1328q0 64 65 103q56 33 125 33q81 0 136.5 -51t55.5 -131q0 -70 -65 -152q-82 -105 -95 -136.5t-25 -93.5h-22q0 70 51.5 199t51.5 199q0 51 -34.5 90.5t-84.5 39.5q-33 0 -62 -17q-34 -20 -34 -52q0 -5 19.5 -32t19.5 -47q0 -49 -47 -49q-55 0 -55 97z" />
<glyph unicode="&#x30a;" d="M-675 1509q0 39 14 73t39 58.5t58 38.5t72 14q40 0 74 -14t58.5 -38.5t38 -58.5t13.5 -73t-13.5 -72.5t-38 -57.5t-58.5 -38t-74 -14t-73.5 13.5t-58 37.5t-38 57.5t-13.5 73.5zM-582 1509q0 -38 25.5 -63.5t64.5 -25.5q38 0 62.5 25.5t24.5 63.5t-24.5 63t-62.5 25 q-39 0 -64.5 -25t-25.5 -63z" />
<glyph unicode="&#x30b;" d="M-758 1384q0 7 6 15l200 272q12 16 25.5 20t39.5 4h184q24 0 35 -7.5t11 -17.5q0 -6 -5 -13.5t-19 -16.5l-412 -261q-20 -12 -37 -12q-16 0 -22 5t-6 12zM-418 1384q0 7 6 15l200 272q12 16 25.5 20t39.5 4h184q24 0 35 -7.5t11 -17.5q0 -6 -5 -13.5t-19 -16.5l-412 -261 q-20 -12 -37 -12q-16 0 -22 5t-6 12z" />
<glyph unicode="&#x30c;" d="M-357 1707h237l112 -204l190 204h109l-328 -328h-148z" />
<glyph unicode="&#x30d;" d="M-484 1367v328h110v-328h-110z" />
<glyph unicode="&#x30e;" d="M-627 1040v383h58v-383h-58zM-455 1040v383h58v-383h-58z" />
<glyph unicode="&#x30f;" d="M-1044 1670q0 10 11 17.5t35 7.5h184q26 0 39.5 -4t25.5 -20l200 -272q2 -4 4 -7.5t2 -7.5q0 -7 -6.5 -12t-21.5 -5q-18 0 -37 12l-412 261q-14 9 -19 16.5t-5 13.5zM-638 1670q0 10 11 17.5t35 7.5h184q26 0 39.5 -4t25.5 -20l200 -272q2 -4 4 -7.5t2 -7.5 q0 -7 -6.5 -12t-21.5 -5q-18 0 -37 12l-412 261q-14 9 -19 16.5t-5 13.5z" />
<glyph unicode="&#x310;" d="M-798 1358h31q70 -129 257 -129q207 0 251 129h33q-9 -119 -87 -198q-81 -82 -199 -82t-198 82q-78 79 -88 198zM-612 1531q0 42 29.5 71t71.5 29q41 0 70 -31.5t29 -73.5q0 -38 -30.5 -67t-68.5 -29q-41 0 -71 30.5t-30 70.5z" />
<glyph unicode="&#x311;" d="M-816 1459q9 56 32 101.5t57.5 78t79 50.5t97.5 18q52 0 96.5 -18t79 -50.5t57.5 -78t33 -101.5h-42q-18 39 -39 66t-48 44t-60.5 25t-76.5 8t-76.5 -8t-60 -25t-47.5 -44t-40 -66h-42z" />
<glyph unicode="&#x312;" d="M-628 1517q0 79 46 134t123 55q42 0 62.5 -14.5t20.5 -34.5q0 -37 -36 -37q-15 0 -46 13t-49 13q-28 0 -48 -26.5t-19 -55.5q0 -40 24 -70t69 -30q8 0 30 2.5t27 2.5q38 0 58 -17t20 -46q0 -35 -28 -57.5t-88 -22.5q-72 0 -119 54t-47 137z" />
<glyph unicode="&#x313;" d="M-764 1371q5 24 23 38t41 14q16 0 26 -4t18 -9t18.5 -9t25.5 -4q22 0 41.5 8.5t35.5 22.5t26.5 31t14.5 34q6 26 -5.5 39t-32.5 13q-25 0 -56 -5.5t-58 -5.5q-35 0 -48.5 18t-7.5 43q5 19 19 38.5t35.5 36t50.5 27t64 10.5q36 0 64.5 -9.5t46.5 -27.5t25 -45t-1 -61 q-12 -54 -42.5 -97.5t-71.5 -74.5t-88 -48t-90 -17q-45 0 -62 12t-12 32z" />
<glyph unicode="&#x314;" d="M-584 1515q0 83 47 137t119 54q60 0 88 -22.5t28 -57.5q0 -29 -20 -46t-58 -17q-5 0 -27 2.5t-30 2.5q-45 0 -69 -30t-24 -70q-1 -29 19 -55.5t48 -26.5q18 0 49 13t46 13q36 0 36 -37q0 -20 -20.5 -34.5t-62.5 -14.5q-77 0 -123 55t-46 134z" />
<glyph unicode="&#x315;" d="M-369 1341q0 57 42 90q38 31 96 31q80 0 134 -65q50 -61 50 -142q0 -236 -274 -339v49q84 50 119 86q56 57 56 130q0 65 -39 65q-13 0 -38 -8.5t-38 -8.5q-46 0 -77 33t-31 79z" />
<glyph unicode="&#x316;" d="M-692 -58h248l112 -346h-67z" />
<glyph unicode="&#x317;" d="M-692 -404l112 346h248l-293 -346h-67z" />
<glyph unicode="&#x318;" d="M-703 -229h325v159h57v-383h-57v167h-325v57z" />
<glyph unicode="&#x319;" d="M-703 -70h57v-159h325v-57h-325v-167h-57v383z" />
<glyph unicode="&#x31a;" d="M-761 1366v57h498v-383h-58v326h-440z" />
<glyph unicode="&#x31b;" d="M-251 1133q0 84 96 84q56 0 92 -43.5t36 -100.5q0 -163 -191 -235v34q122 72 122 150q0 45 -27 45q-9 0 -26.5 -6t-26.5 -6q-31 0 -53 23t-22 55z" />
<glyph unicode="&#x31c;" d="M-413.068 -475v29q-76.9902 27 -109.986 63t-32.9961 96q0 31 7.99902 55t24.9971 43t43.9941 34q26.9971 15 65.9922 29v29q-56.9932 -7 -102.987 -24q-45.9951 -17 -78.4902 -41.5q-32.4961 -24.5 -49.4941 -56.5t-16.998 -68t17.498 -67.5q17.4971 -31.5 49.4932 -56 t77.9912 -41q45.9941 -16.5 102.987 -23.5z" />
<glyph unicode="&#x31d;" d="M-703 -395h163v325h57v-325h162v-58h-382v58z" />
<glyph unicode="&#x31e;" d="M-703 -70h382v-57h-162v-326h-57v326h-163v57z" />
<glyph unicode="&#x31f;" d="M-703 -229h163v159h57v-159h162v-57h-162v-167h-57v167h-163v57z" />
<glyph unicode="&#x320;" d="M-831 -135h638v-128h-638v128z" />
<glyph unicode="&#x321;" d="M-508 -454q88 39 127 85q38 47 38 193v310h138v-171q0 -191 -77 -304.5t-213 -144.5z" />
<glyph unicode="&#x322;" d="M-36.0625 -454q-87.9883 39 -126.984 85q-37.9951 47 -37.9951 193v310h-137.983v-171q0 -191 76.9912 -304.5q76.9902 -113.5 212.974 -144.5z" />
<glyph unicode="&#x323;" d="M-570 -379q0 31 11.5 58.5t32 47.5t47.5 31.5t58 11.5t59 -12t48.5 -32t32.5 -47.5t12 -57.5q0 -31 -12 -58.5t-32.5 -48.5t-48.5 -33t-59 -12t-58 11.5t-47.5 32t-32 48.5t-11.5 60z" />
<glyph unicode="&#x324;" d="M-1051 -379q0 31 11.5 58.5t32 47.5t47.5 31.5t58 11.5t59 -12t48.5 -32t32.5 -47.5t12 -57.5q0 -31 -12 -58.5t-32.5 -48.5t-48.5 -33t-59 -12t-58 11.5t-47.5 32t-32 48.5t-11.5 60zM-616 -379q0 31 11.5 58.5t32 47.5t47.5 31.5t58 11.5t59 -12t48.5 -32t32.5 -47.5 t12 -57.5q0 -31 -12 -58.5t-32.5 -48.5t-48.5 -33t-59 -12t-58 11.5t-47.5 32t-32 48.5t-11.5 60z" />
<glyph unicode="&#x325;" d="M-684 -319q0 39 14 73t39 58.5t58 38.5t72 14q40 0 74 -14t58.5 -38.5t38 -58.5t13.5 -73t-13.5 -72.5t-38 -57.5t-58.5 -38t-74 -14t-73.5 13.5t-58 37.5t-38 57.5t-13.5 73.5zM-591 -319q0 -38 25.5 -63.5t64.5 -25.5q38 0 62.5 25.5t24.5 63.5t-24.5 63t-62.5 25 q-39 0 -64.5 -25t-25.5 -63z" />
<glyph unicode="&#x326;" d="M-705 -433q5 24 23 38t41 14q16 0 26 -4t18 -9t18.5 -9t25.5 -4q22 0 41.5 8.5t35.5 22.5t26.5 31t14.5 34q6 26 -5.5 39t-32.5 13q-25 0 -56 -5.5t-58 -5.5q-35 0 -48.5 18t-7.5 43q5 19 19 38.5t35.5 36t50.5 27t64 10.5q36 0 64.5 -9.5t46.5 -27.5t25 -45t-1 -61 q-12 -54 -42.5 -97.5t-71.5 -74.5t-88 -48t-90 -17q-45 0 -62 12t-12 32z" />
<glyph unicode="&#x327;" d="M-623 -397q0 23 15 40.5t39 17.5q36 0 61 -11.5t45 -25.5t39.5 -25.5t44.5 -11.5q22 0 40.5 7.5t32 20t21 28.5t7.5 33q0 43 -59.5 72.5t-162.5 42.5l138 226h63l-62 -104q44 -9 79 -22t60 -36t38 -58t13 -87q0 -38 -15.5 -72t-49 -59.5t-86 -40.5t-125.5 -15 q-37 0 -69 5t-56 14.5t-37.5 24.5t-13.5 36z" />
<glyph unicode="&#x328;" d="M-605 -309q0 75 36.5 130t94.5 96t131 70t146 52l11 -36q-54 -21 -95.5 -53t-70 -70t-43 -79.5t-14.5 -81.5q0 -26 9.5 -44.5t25.5 -29.5t37.5 -16t45.5 -5q51 0 102 16l5 -44q-72 -23 -133 -32t-110 -9q-90 0 -134 38.5t-44 97.5z" />
<glyph unicode="&#x329;" d="M-541 -70h58v-383h-58v383z" />
<glyph unicode="&#x32a;" d="M-895 -70h766v-268h-57v211h-652v-211h-57v268z" />
<glyph unicode="&#x32b;" d="M-859 -229h27q24 -77 57 -110t88 -33q56 0 89 33t57 110h26q25 -77 57.5 -110t88.5 -33q55 0 88.5 32.5t56.5 110.5h27q-6 -57 -21.5 -103t-38 -78t-51 -49.5t-61.5 -17.5q-54 0 -95.5 44t-63.5 126q-20 -81 -63 -125.5t-96 -44.5q-33 0 -62 17.5t-51.5 49.5t-37.5 78 t-21 103z" />
<glyph unicode="&#x32c;" d="M-492 -147h237l112 -204l190 204h109l-328 -328h-148z" />
<glyph unicode="&#x32d;" d="M-495 -464l305 293q17 16 28 20t29 4h97q17 0 27.5 -3.5t19.5 -20.5l151 -290v-4q-1 -5 -8 -7.5t-12 -2.5q-8 0 -15 5l-245 176l-342 -176q-13 -5 -17 -5q-7 0 -12.5 3.5t-5.5 7.5z" />
<glyph unicode="&#x32e;" d="M-459 -207h76q10 -39 24 -66t34.5 -44t49.5 -25t68 -8q79 0 136.5 33t110.5 110h82q-27 -65 -64.5 -118.5t-83 -91t-97.5 -58t-108 -20.5q-58 0 -102.5 20.5t-74 58t-43 91t-8.5 118.5z" />
<glyph unicode="&#x32f;" d="M-803 -475q9 56 32 101.5t57.5 78t79 50.5t97.5 18q52 0 96.5 -18t79 -50.5t57.5 -78t33 -101.5h-42q-18 39 -39 66t-48 44t-60.5 25t-76.5 8t-76.5 -8t-60 -25t-47.5 -44t-40 -66h-42z" />
<glyph unicode="&#x330;" d="M-661 -357q4 55 17.5 102t35.5 81t52.5 53t69.5 19t72.5 -16.5t63 -36t56.5 -36t53 -16.5q42 0 66 22.5t28 82.5h36q-2 -54 -13.5 -100.5t-32.5 -80t-51.5 -53t-69.5 -19.5q-40 0 -71 16.5t-59 36t-56 36t-61 16.5q-38 0 -66.5 -24t-33.5 -83h-36z" />
<glyph unicode="&#x331;" d="M-753 -515v112h594v-112h-594z" />
<glyph unicode="&#x332;" d="M-979 -131h934v-128h-934v128z" />
<glyph unicode="&#x333;" d="M-979 -131h934v-128h-934v128zM-979 -387h934v-128h-934v128z" />
<glyph unicode="&#x334;" d="M-573 388q4 55 17.5 102t35.5 81t52.5 53t69.5 19t72.5 -16.5t63 -36t56.5 -36t53 -16.5q42 0 66 22.5t28 82.5h36q-2 -54 -13.5 -100.5t-32.5 -80t-51.5 -53t-69.5 -19.5q-40 0 -71 16.5t-59 36t-56 36t-61 16.5q-38 0 -66.5 -24t-33.5 -83h-36z" />
<glyph unicode="&#x335;" d="M-668 382v112h594v-112h-594z" />
<glyph unicode="&#x336;" d="M-1101 380v70h1146v-70h-1146z" />
<glyph unicode="&#x337;" d="M-696 244l2 10l26 115q4 16 21 32.5t40.5 33t50 32.5t48.5 31q61 44 123 89t122 93t117 100t108 109q12 13 24 13q6 0 11 -5t5 -15q0 -6 -1 -8l-23 -103q-3 -15 -20 -31t-40.5 -32t-49.5 -31t-48 -28q-30 -18 -82 -56t-128 -92q-76 -55 -144.5 -123.5t-129.5 -134.5 q-11 -11 -19 -11q-13 0 -13 12z" />
<glyph unicode="&#x338;" d="M-874 -67l691 942l61 -33l-689 -942z" />
<glyph unicode="&#x339;" d="M-561 -475v29q77 27 110 63t33 96q0 31 -8 55t-25 43t-44 34t-66 29v29q57 -7 103 -24t78.5 -41.5t49.5 -56.5t17 -68t-17.5 -67.5t-49.5 -56t-78 -41t-103 -23.5z" />
<glyph unicode="&#x33a;" d="M-895 -70h57v-211h652v211h57v-268h-766v268z" />
<glyph unicode="&#x33b;" d="M-647 -126h270v-271h-270v271zM-599 -175v-173h173v173h-173z" />
<glyph unicode="&#x33c;" d="M-860 -357q0 80 56 135.5t135 55.5q99 0 157 -81q57 81 156 81q79 0 135.5 -56t56.5 -135h-70q0 51 -36 86.5t-86 35.5q-47 0 -82 -31.5t-39 -78.5v-12h-1h-69q0 51 -36 86.5t-86 35.5q-51 0 -86.5 -35.5t-35.5 -86.5h-69z" />
<glyph unicode="&#x33d;" d="M-669 1118l115 115l-112 113l40 40l113 -113l115 116l40 -41l-115 -115l118 -118l-41 -40l-117 118l-115 -116z" />
<glyph unicode="&#x33e;" d="M-566 1329v25q60 3 82.5 19t22.5 45q0 24 -52 76q-53 53 -53 93q0 54 47.5 84.5t158.5 36.5v-25q-60 -4 -83.5 -23.5t-23.5 -45.5q0 -34 53 -82q52 -48 52 -88v-8q0 -51 -49 -77.5t-155 -29.5z" />
<glyph unicode="&#x33f;" d="M-831 1097v128h638v-128h-638zM-831 1353v128h638v-128h-638z" />
<glyph unicode="&#x340;" d="M-960 1423h248l113 -346h-67z" />
<glyph unicode="&#x341;" d="M-425 1077l113 346h248l-294 -346h-67z" />
<glyph unicode="&#x342;" d="M-849 1123q74 203 223 203q31 0 147 -35q110 -33 144 -49q57 0 110 84h50q-61 -203 -212 -203q-54 0 -153 41t-145 41q-62 0 -103 -82h-61z" />
<glyph unicode="&#x343;" d="M-673 1341q0 57 42 90q38 31 96 31q80 0 134 -65q50 -61 50 -142q0 -236 -274 -339v49q84 50 119 86q56 57 56 130q0 65 -39 65q-13 0 -38 -8.5t-38 -8.5q-46 0 -77 33t-31 79z" />
<glyph unicode="&#x344;" d="M-904 1257q0 37 31 66t68 29q43 0 72.5 -28.5t29.5 -71.5q0 -42 -29.5 -70.5t-72.5 -28.5q-41 0 -68 29t-27 70zM-666 1077l112 346h248l-289 -346h-71zM-317 1257q0 39 30 67t70 28q43 0 70 -29t27 -72q0 -39 -29 -68.5t-68 -29.5q-41 0 -70.5 31t-29.5 73z" />
<glyph unicode="&#x345;" d="M-647 -127h130q0 -23 -1.5 -69t-1.5 -68q0 -68 44 -68l5 -3q52 0 56 97h38v-14q0 -166 -132 -166q-138 0 -138 183v108z" />
<glyph unicode="&#x346;" d="M-895 1155v268h766v-268h-57v211h-652v-211h-57z" />
<glyph unicode="&#x347;" d="M-813 -515v112h594v-112h-594zM-813 -341v112h594v-112h-594z" />
<glyph unicode="&#x348;" d="M-627 -70h58v-383h-58v383zM-455 -70h58v-383h-58v383z" />
<glyph unicode="&#x349;" d="M-703 -70h382v-383h-57v326h-325v57z" />
<glyph unicode="&#x34a;" d="M-867 1194q68 132 192 132q63 0 176 -52.5t151 -52.5q65 0 136 111l55 -77q-95 -132 -192 -132q-60 0 -161.5 52t-171.5 52q-80 0 -130 -110z" />
<glyph unicode="&#x34b;" d="M-867 1194q68 132 192 132q63 0 176 -52.5t151 -52.5q65 0 136 111l55 -77q-95 -132 -192 -132q-60 0 -161.5 52t-171.5 52q-80 0 -130 -110zM-587 1049q0 31 22 52.5t54 21.5q31 0 52.5 -23.5t21.5 -54.5q0 -29 -23 -51t-51 -22q-31 0 -53.5 23t-22.5 54zM-587 1402 q0 31 22 52.5t54 21.5q31 0 52.5 -23.5t21.5 -54.5q0 -28 -23 -50t-51 -22q-31 0 -53.5 22.5t-22.5 53.5z" />
<glyph unicode="&#x34c;" d="M-867 1194q68 132 192 132q63 0 176 -52.5t151 -52.5q65 0 136 111l55 -77q-95 -132 -192 -132q-60 0 -161.5 52t-171.5 52q-80 0 -130 -110zM-867 1390q68 132 192 132q63 0 176 -52t151 -52q65 0 136 111l55 -77q-95 -132 -192 -132q-60 0 -161.5 52t-171.5 52 q-80 0 -130 -111z" />
<glyph unicode="&#x34d;" d="M-925 -194l283 138v-75h260v75l283 -138l-283 -142v77h-260v-77z" />
<glyph unicode="&#x34e;" d="M-652 -309l143 284l137 -284h-75v-155h-128v155h-77z" />
<glyph unicode="&#x34f;" />
<glyph unicode="&#x350;" d="M-679 1339q0 3 5 8l236 171l-236 171q-5 5 -5 9t4 7t8 3q2 0 3 -1l317 -134q16 -7 21 -13t5 -16v-52q0 -10 -5 -15.5t-21 -13.5l-317 -134q-1 -1 -3 -1q-4 0 -8 3.5t-4 7.5z" />
<glyph unicode="&#x351;" d="M-403.068 1329v29q-76.9902 27 -109.986 63t-32.9961 96q0 31 7.99902 55t24.9971 43t43.9941 34q26.9971 15 65.9922 29v29q-56.9932 -7 -102.987 -24q-45.9951 -17 -78.4902 -41.5q-32.4961 -24.5 -49.4941 -56.5t-16.998 -68t17.498 -67.5q17.4971 -31.5 49.4932 -56 t77.9912 -41q45.9941 -16.5 102.987 -23.5z" />
<glyph unicode="&#x352;" d="M-798 1351q10 119 89 199.5t197 80.5t199 -82q78 -79 87 -198h-33q-44 129 -251 129q-187 0 -257 -129h-31zM-612 1177q0 41 30 71.5t71 30.5q38 0 68.5 -29t30.5 -67q0 -42 -29 -73.5t-70 -31.5q-42 0 -71.5 29t-29.5 70z" />
<glyph unicode="&#x353;" d="M-669 -374l115 115l-112 113l40 41l113 -113l115 115l40 -41l-115 -115l118 -117l-41 -41l-117 118l-115 -115z" />
<glyph unicode="&#x354;" d="M-770 -276q0 51 51 73l366 159q7 2 13 2q37 0 30 -41l-252 -130q-33 -17 -41 -23q-23 -17 -23 -40q0 -31 64 -64l308 -156q6 -40 -32 -40q-5 0 -11 1l-422 185q-51 22 -51 74z" />
<glyph unicode="&#x355;" d="M-770 -496l308 156q64 33 64 64q0 30 -64 63l-252 130q-7 41 30 41q6 0 13 -2l366 -159q51 -22 51 -73q0 -52 -51 -74l-422 -185q-6 -1 -11 -1q-38 0 -32 40z" />
<glyph unicode="&#x356;" d="M-999 -496l308 156q64 33 64 62q0 32 -64 65l-251 130q-8 41 29 41q7 0 14 -2l365 -159q52 -22 52 -73q0 -52 -52 -74l-422 -185q-6 -1 -11 -1q-38 0 -32 40zM-519 -503q0 5 1 11l185 423q22 51 74 51q51 0 73 -51l159 -366q2 -7 2 -14q0 -36 -41 -29l-130 251 q-17 32 -23 41q-18 22 -40 23q-31 1 -64 -64l-156 -308q-40 -6 -40 32z" />
<glyph unicode="&#x357;" d="M-561 1329v29q77 27 110 63t33 96q0 31 -8 55t-25 43t-44 34t-66 29v29q57 -7 103 -24t78.5 -41.5t49.5 -56.5t17 -68t-17.5 -67.5t-49.5 -56t-78 -41t-103 -23.5z" />
<glyph unicode="&#x358;" d="M-103 906q0 31 11.5 58.5t32 47.5t47.5 31.5t58 11.5t59 -12t48.5 -32t32.5 -47.5t12 -57.5q0 -31 -12 -58.5t-32.5 -48.5t-48.5 -33t-59 -12t-58 11.5t-47.5 32t-32 48.5t-11.5 60z" />
<glyph unicode="&#x359;" d="M-575 -221l3 4q0 42 45 42q29 0 59 -32q24 -25 48 -51q9 -8 55 -37q0 65 -19 120q-5 15 -12 47l-3 4q0 54 49 54q46 0 46 -54q0 -26 -16 -82.5t-16 -88.5q57 35 93 74q43 48 71 48q41 0 41 -48q0 -33 -30 -46q-10 -5 -58 -14q-44 -8 -100 -39q45 -29 101 -41 q45 -10 59 -18q28 -16 28 -51q0 -37 -43 -37q-28 0 -56 30q-22 25 -43 51q-9 8 -61 42q0 -5 -1 -16t-1 -16q0 -26 16 -75t16 -75q0 -45 -46 -45t-46 48l-3 6q0 12 13 50q21 66 21 121q-51 -27 -97 -81q-34 -39 -63 -39q-47 0 -47 44l-3 2q0 47 87 59q43 6 108 41 q-30 18 -53 25q-43 11 -86 21q-56 18 -56 53z" />
<glyph unicode="&#x35a;" d="M-861 -261q0 80 55.5 135.5t135.5 55.5q100 0 157 -81q57 81 157 81q80 0 136 -55.5t56 -135.5t-55.5 -136t-136.5 -56q-99 0 -156 82q-57 -82 -158 -82q-79 0 -135 56.5t-56 135.5zM-792 -261q0 -50 36 -86t86 -36q51 0 86.5 36t35.5 86q0 51 -35.5 86.5t-86.5 35.5 t-86.5 -35.5t-35.5 -86.5zM-478 -261q0 -50 36 -86t86 -36q51 0 86.5 36t35.5 86q0 51 -35.5 86.5t-86.5 35.5t-86.5 -35.5t-35.5 -86.5z" />
<glyph unicode="&#x35b;" d="M-674 1483q0 23 20 37l245 175q16 12 28 12t12 -10q-1 -4 -3.5 -10t-8.5 -14l-146 -179l215 -19q18 -2 27 -11.5t9 -24.5q0 -23 -21 -38l-253 -181q-4 -4 -13 -4q-5 0 -9.5 2.5t-4.5 9.5t14 27l142 174l-217 20q-19 2 -27.5 12t-8.5 22z" />
<glyph unicode="&#x35c;" d="M-782 -71h31q70 -129 752 -129q275 0 472 26q252 34 276 103h33q-8 -111 -274 -198q-249 -82 -509 -82q-259 0 -507 82q-265 88 -274 198z" />
<glyph unicode="&#x35d;" d="M-782 1358h31q70 -129 752 -129q275 0 472 26q252 34 276 103h33q-8 -111 -274 -198q-249 -82 -509 -82q-259 0 -507 82q-265 88 -274 198z" />
<glyph unicode="&#x35e;" d="M-865 1097v128h1730v-128h-1730z" />
<glyph unicode="&#x35f;" d="M-865 -131h1730v-128h-1730v128z" />
<glyph unicode="&#x360;" d="M-834 1123q182 203 551 203q121 0 582 -55q10 -1 109 -17q76 -12 104 -12q140 0 273 84h49q-150 -203 -524 -203q-139 0 -414 41t-413 41q-154 0 -257 -82h-60z" />
<glyph unicode="&#x361;" d="M-782 1078q9 110 274 198q248 82 507 82q260 0 509 -82q266 -87 274 -198h-33q-44 129 -748 129q-683 0 -752 -129h-31z" />
<glyph unicode="&#x362;" d="M-885 -131h1486v75l284 -138l-284 -142v77h-1486v128z" />
<glyph unicode="&#x363;" d="M-720 1102q0 30 10 52.5t29.5 40t48 31t64.5 24.5q37 11 64 21.5t45 19.5v75q0 65 -22 91t-66 26q-34 0 -56.5 -16t-22.5 -41q0 -11 6.5 -19.5t6.5 -15.5q0 -8 -7 -12l-62 -31q-2 -1 -8 -1q-7 0 -12 8t-5 19q0 26 18 51.5t45 45.5t57.5 32.5t56.5 12.5q75 0 114 -38.5 t39 -111.5v-241q0 -42 8 -52t24 -10q22 0 54 23l12 -17q-86 -68 -122 -68q-52 0 -56 75q-45 -36 -79 -55.5t-70 -19.5q-54 0 -84 27.5t-30 73.5zM-641 1117q0 -32 21 -51.5t51 -19.5q22 0 49.5 15.5t60.5 38.5v167q-27 -12 -58.5 -23t-59 -27t-46 -39.5t-18.5 -60.5z" />
<glyph unicode="&#x364;" d="M-718 1253q0 52 18 99.5t50 84t75.5 58t94.5 21.5q48 0 85 -17.5t62.5 -47t38.5 -69t13 -82.5h-360v-24q0 -44 15.5 -82.5t41 -67.5t59.5 -46t71 -17q45 0 82 21t71 61l16 -17q-20 -26 -44.5 -49.5t-52.5 -40.5t-59 -27t-62 -10q-45 0 -84.5 20t-68.5 54.5t-45.5 80.5 t-16.5 97zM-637 1332h267q0 24 -9 52t-26 52t-41.5 40.5t-55.5 16.5q-48 0 -83.5 -38t-51.5 -123z" />
<glyph unicode="&#x365;" d="M-625 1016v29q25 0 41.5 2t26 10.5t13 25.5t3.5 46v254q0 19 -1.5 30.5t-5.5 18.5t-12 10t-21 5l-44 7v20q17 0 36.5 3.5t38 9.5t35 15t28.5 20h29v-393q0 -29 3.5 -46t13 -25.5t25.5 -10.5t42 -2v-29h-251zM-560 1693q0 26 16.5 42.5t41.5 16.5q26 0 42 -16.5t16 -42.5 q0 -25 -16 -41t-42 -16q-25 0 -41.5 16t-16.5 41z" />
<glyph unicode="&#x366;" d="M-756 1255q0 58 20.5 106.5t55.5 82.5t81.5 53t99.5 19q55 0 102 -20.5t81.5 -55.5t53.5 -82.5t19 -102.5q0 -53 -19.5 -99t-53.5 -80.5t-80 -54.5t-99 -20q-57 0 -105 20t-82.5 54.5t-54 80.5t-19.5 99zM-664 1297q0 -52 13.5 -100t38 -85t58 -59t72.5 -22 q29 0 55.5 14.5t46.5 40.5t32 62t12 79q0 52 -14 99t-38.5 82.5t-57.5 56.5t-70 21q-29 0 -55.5 -15t-47 -40.5t-33 -60t-12.5 -73.5z" />
<glyph unicode="&#x367;" d="M-790 1454v20q17 0 36.5 3.5t38 9.5t35 15t28.5 20h28v-345q0 -69 28 -97.5t83 -28.5q23 0 59.5 19t78.5 51v262q0 19 -1.5 30.5t-5.5 18.5t-12 10t-21 5l-44 7v20q17 0 36.5 3.5t38 9.5t35 15t28.5 20h29v-417q0 -20 6 -28t21 -8q6 0 13.5 1.5t15.5 2.5l26 5v-27 q-42 -7 -84 -20t-81 -30v91q-63 -48 -114 -69.5t-87 -21.5q-27 0 -51 11t-41.5 29.5t-27.5 42t-10 48.5v251q0 19 -1.5 30.5t-5.5 18.5t-12 10t-21 5z" />
<glyph unicode="&#x368;" d="M-690 1253q0 56 21.5 104.5t58 84t85.5 56t105 20.5q28 0 55 -5.5t48 -14.5t34 -20t13 -21q0 -7 -7 -13l-37 -35q-6 -7 -13 -7t-19 13t-29 28.5t-38.5 28.5t-46.5 13q-33 0 -60 -17t-46.5 -46t-30 -66.5t-10.5 -77.5q0 -44 15 -84.5t40 -72t58 -50.5t70 -19q45 0 79.5 24 t64.5 69l21 -15q-74 -128 -211 -128q-47 0 -87.5 21.5t-70 56.5t-46 80t-16.5 93z" />
<glyph unicode="&#x369;" d="M-792 1239q0 115 77 196.5t189 81.5q29 0 59.5 -6.5t55.5 -17.5v204q0 32 -10.5 43.5t-40.5 11.5h-33v29q56 0 89.5 12t48.5 41h29v-708q0 -45 36 -45q15 0 54 13v-31q-44 -11 -83 -26.5t-75 -35.5h-15v83q-33 -27 -85.5 -55t-99.5 -28q-83 0 -139.5 73.5t-56.5 164.5z M-710 1280q0 -88 44 -157t116 -69q35 0 74.5 20.5t64.5 41.5v275q-24 42 -57 67t-84 25q-67 0 -112.5 -57.5t-45.5 -145.5z" />
<glyph unicode="&#x36a;" d="M-777 1016v29q51 0 67.5 13t16.5 71v568q0 32 -10.5 43.5t-40.5 11.5h-33v29q57 0 90 12t49 41h28v-393q53 34 106.5 55t105.5 21q58 0 89 -43t31 -124v-221q0 -58 17 -71t67 -13v-29h-251v29q51 0 67.5 13t16.5 71v211q0 60 -23.5 94t-67.5 34q-33 0 -71 -12t-87 -45 v-282q0 -58 17 -71t67 -13v-29h-251z" />
<glyph unicode="&#x36b;" d="M-956 1016v29q25 0 41.5 2t26 10.5t13 25.5t3.5 46v254q0 19 -1.5 30.5t-5.5 18.5t-12 10t-21 5l-44 7v20q17 0 36.5 3.5t38 9.5t35 15t28.5 20h29v-95q57 39 110 64t101 25q25 0 44.5 -8.5t33.5 -22t22.5 -30.5t11.5 -33q66 45 118.5 69.5t100.5 24.5q58 0 89 -42.5 t31 -123.5v-221q0 -29 3.5 -46t13 -25.5t25.5 -10.5t42 -2v-29h-251v29q25 0 41.5 2t26 10.5t13 25.5t3.5 46v211q0 60 -23 93.5t-68 33.5q-29 0 -66 -17.5t-94 -54.5q3 -21 3 -45v-221q0 -29 3.5 -46t13 -25.5t25.5 -10.5t42 -2v-29h-251v29q25 0 41.5 2t26 10.5t13 25.5 t3.5 46v211q0 60 -23 93.5t-68 33.5q-26 0 -66 -17.5t-91 -52.5v-268q0 -29 3.5 -46t13 -25.5t25.5 -10.5t42 -2v-29h-251z" />
<glyph unicode="&#x36c;" d="M-558 1016v29q51 0 67.5 13t16.5 71v254q0 38 -6 49t-33 16l-45 7v19q36 0 75 13.5t63 35.5h29v-144q25 42 54 86t65 44q12 0 23 -4l67 -25q11 -4 7 -16l-22 -59q-5 -12 -17 -8l-77 29q-15 5 -22 5q-19 0 -40 -27.5t-38 -58.5v-216q0 -50 17 -67t83 -17v-29h-267z" />
<glyph unicode="&#x36d;" d="M-673 1449v20q46 12 80.5 57.5t51.5 113.5h21v-137h163l-14 -54h-149v-275q0 -60 21 -88t62 -28q18 0 33.5 6.5t33.5 18.5l12 -14q-35 -31 -69.5 -49.5t-65.5 -18.5q-42 0 -76 44t-34 112v292h-70z" />
<glyph unicode="&#x36e;" d="M-808 1474v29h252v-29q-42 0 -61 -5t-19 -22q0 -12 11 -36l131 -307l125 285q10 24 10 40q0 23 -21 34t-68 11v29h214v-29q-41 0 -63 -26.5t-34 -56.5l-170 -386h-36l-178 409q-11 27 -27.5 43.5t-65.5 16.5z" />
<glyph unicode="&#x36f;" d="M-777 1016v29q61 0 85.5 20.5t40.5 38.5l132 148l-119 156q-11 16 -39.5 41t-90.5 25v29h249v-29q-28 0 -41 -3.5t-13 -13.5q0 -9 13 -27l92 -122l81 91q24 26 24 45q0 30 -65 30v29h237v-29q-70 0 -102 -22t-54 -47l-104 -116l147 -185q18 -24 40 -41.5t73 -17.5v-29 h-245v29q30 0 44.5 3.5t14.5 13.5t-16 30l-109 140l-108 -121q-17 -19 -17 -33q0 -16 20 -24.5t59 -8.5v-29h-229z" />
<glyph unicode="&#x384;" horiz-adv-x="641" d="M70 1018q0 7 6 15l200 272q12 16 25.5 20t39.5 4h184q24 0 35 -7.5t11 -17.5q0 -6 -5 -13.5t-19 -16.5l-412 -261q-20 -12 -37 -12q-16 0 -22 5t-6 12z" />
<glyph unicode="&#x385;" horiz-adv-x="928" d="M96 1129q0 31 11.5 58.5t32 47.5t47.5 31.5t58 11.5t59 -12t48.5 -32t32.5 -47.5t12 -57.5q0 -31 -12 -58.5t-32.5 -48.5t-48.5 -33t-59 -12t-58 11.5t-47.5 32t-32 48.5t-11.5 60zM531 1129q0 31 11.5 58.5t32 47.5t47.5 31.5t58 11.5t59 -12t48.5 -32t32.5 -47.5 t12 -57.5q0 -31 -12 -58.5t-32.5 -48.5t-48.5 -33t-59 -12t-58 11.5t-47.5 32t-32 48.5t-11.5 60zM429 1361q0 7 6 15l200 272q12 16 25.5 20t39.5 4h184q24 0 35 -7.5t11 -17.5q0 -6 -5 -13.5t-19 -16.5l-412 -261q-20 -12 -37 -12q-16 0 -22 5t-6 12z" />
<glyph unicode="&#x386;" horiz-adv-x="1540" d="M-131 0l12 48l201 32l816 1194h192l224 -1194l134 -32l-11 -48h-650l11 49l195 31l-71 387h-473l-244 -387l220 -32l-11 -48h-545zM498 542h411l-91 505zM133 1018q0 7 6 15l200 272q12 16 25.5 20t39.5 4h184q24 0 35 -7.5t11 -17.5q0 -6 -5 -13.5t-19 -16.5l-412 -261 q-20 -12 -37 -12q-16 0 -22 5t-6 12z" />
<glyph unicode="&#x388;" horiz-adv-x="1742" d="M296 0l11 48l202 32l257 1114l-187 32l11 48h1202l-69 -299l-58 -5l-28 214h-568l-115 -498h325l94 153h46l-89 -388h-46l-24 153h-325l-91 -393q-9 -42 -10.5 -66.5t7 -37.5t27.5 -16.5t50 -3.5h483l156 242h60l-104 -329h-1217zM26 1018q0 7 6 15l200 272 q12 16 25.5 20t39.5 4h184q24 0 35 -7.5t11 -17.5q0 -6 -5 -13.5t-19 -16.5l-412 -261q-20 -12 -37 -12q-16 0 -22 5t-6 12z" />
<glyph unicode="&#x389;" horiz-adv-x="2126" d="M293 0l10 47l203 33l257 1115l-187 31l11 48h696l-11 -48l-202 -32l-117 -508h608l117 508l-186 32l11 48h696l-11 -48l-203 -32l-255 -1114l187 -33l-10 -47h-698l10 47l202 33l121 524h-608l-121 -524l186 -33l-10 -47h-696zM25 1018q0 7 6 15l200 272q12 16 25.5 20 t39.5 4h184q24 0 35 -7.5t11 -17.5q0 -6 -5 -13.5t-19 -16.5l-412 -261q-20 -12 -37 -12q-16 0 -22 5t-6 12z" />
<glyph unicode="&#x38a;" horiz-adv-x="1177" d="M307 0l11 48l206 51l253 1095l-189 32l11 48h698l-11 -48l-202 -32l-253 -1095l183 -51l-11 -48h-696zM29 1018q0 7 6 15l200 272q12 16 25.5 20t39.5 4h184q24 0 35 -7.5t11 -17.5q0 -6 -5 -13.5t-19 -16.5l-412 -261q-20 -12 -37 -12q-16 0 -22 5t-6 12z" />
<glyph unicode="&#x38c;" horiz-adv-x="1675" d="M113 470q0 116 36 222.5t99 198.5t150 167.5t189 129t215.5 82.5t229.5 29q137 0 246 -36.5t185.5 -103t117 -160t40.5 -206.5q0 -115 -38 -220.5t-104 -196.5t-155 -165t-191 -126.5t-211.5 -81t-216.5 -28.5q-138 0 -248 37t-186.5 102.5t-117 156.5t-40.5 199z M446 450q0 -190 76.5 -293.5t225.5 -103.5q94 0 171 36t137 96t103.5 138.5t72 163t42 170t13.5 158.5q0 88 -19.5 161t-58 125.5t-95 82t-131.5 29.5q-83 0 -155 -32.5t-131.5 -88t-106.5 -130t-79 -159.5t-48.5 -175.5t-16.5 -177.5zM-114 1018q0 7 6 15l200 272 q12 16 25.5 20t39.5 4h184q24 0 35 -7.5t11 -17.5q0 -6 -5 -13.5t-19 -16.5l-412 -261q-20 -12 -37 -12q-16 0 -22 5t-6 12z" />
<glyph unicode="&#x38e;" horiz-adv-x="1749" d="M534 1226l11 48h676l-11 -48l-186 -32l160 -541l407 541l-184 32l11 48h474l-11 -48l-151 -32l-513 -610l-116 -504l190 -32l-11 -48h-698l11 48l201 31l110 478l-240 637zM-18 1018q0 7 6 15l200 272q12 16 25.5 20t39.5 4h184q24 0 35 -7.5t11 -17.5q0 -6 -5 -13.5 t-19 -16.5l-412 -261q-20 -12 -37 -12q-16 0 -22 5t-6 12z" />
<glyph unicode="&#x38f;" horiz-adv-x="1857" d="M134 0l33 391h48l26 -154h407l-57 61q-93 115 -138 232t-45 227q0 134 51 236.5t150 171.5t244 104.5t333 35.5q139 0 246 -20t180.5 -60.5t111.5 -103t38 -146.5q0 -74 -28 -155.5t-84 -168t-139.5 -176t-195.5 -177.5l-85 -61h407l98 154h48l-147 -391h-640l-6 44 l200 246q44 54 86.5 132t75.5 167t53.5 183t20.5 180q0 61 -12.5 116t-42 96t-77.5 65t-120 24q-87 0 -157.5 -36t-125 -96t-93.5 -138t-64.5 -163t-37.5 -170.5t-12 -160.5q0 -120 28 -199l88 -246l-26 -44h-640zM15 1018q0 7 6 15l200 272q12 16 25.5 20t39.5 4h184 q24 0 35 -7.5t11 -17.5q0 -6 -5 -13.5t-19 -16.5l-412 -261q-20 -12 -37 -12q-16 0 -22 5t-6 12z" />
<glyph unicode="&#x390;" horiz-adv-x="668" d="M46 49q0 9 1 19t4 21l169 722h242l-145 -619q-7 -28 -7 -50q0 -33 22 -33q10 0 26.5 12.5t36 31t40.5 40t39 40.5l38 -34q-45 -50 -89.5 -91t-91.5 -70.5t-97.5 -46t-105.5 -16.5q-39 0 -60.5 18t-21.5 56zM22 1129q0 31 11.5 58.5t32 47.5t47.5 31.5t58 11.5t59 -12 t48.5 -32t32.5 -47.5t12 -57.5q0 -31 -12 -58.5t-32.5 -48.5t-48.5 -33t-59 -12t-58 11.5t-47.5 32t-32 48.5t-11.5 60zM457 1129q0 31 11.5 58.5t32 47.5t47.5 31.5t58 11.5t59 -12t48.5 -32t32.5 -47.5t12 -57.5q0 -31 -12 -58.5t-32.5 -48.5t-48.5 -33t-59 -12t-58 11.5 t-47.5 32t-32 48.5t-11.5 60zM354 1361q0 7 6 15l200 272q12 16 25.5 20t39.5 4h184q24 0 35 -7.5t11 -17.5q0 -6 -5 -13.5t-19 -16.5l-412 -261q-20 -12 -37 -12q-16 0 -22 5t-6 12z" />
<glyph unicode="&#x391;" horiz-adv-x="1540" d="M-131 0l12 48l201 32l816 1194h192l224 -1194l134 -32l-11 -48h-650l11 49l195 31l-71 387h-473l-244 -387l220 -32l-11 -48h-545zM498 542h411l-91 505z" />
<glyph unicode="&#x392;" horiz-adv-x="1479" d="M-79 0l11 48l202 32l257 1114l-187 32l11 48q51 0 122 1.5t152.5 3t168.5 3t169 1.5q130 0 235 -14t179 -43.5t114 -75t40 -109.5q0 -67 -20.5 -115t-59 -84t-93.5 -63t-124 -52q125 -36 184.5 -108t59.5 -164q0 -103 -40 -176.5t-107 -124t-154 -81t-180.5 -47 t-187.5 -21.5t-174 -5h-578zM477 187q0 -38 10.5 -61t29.5 -36t45.5 -17.5t59.5 -4.5q82 0 153.5 34t125 87.5t84.5 119.5t31 131q0 48 -19 92t-61 77t-107.5 52.5t-158.5 19.5h-88l-90 -389q-15 -63 -15 -105zM596 742h111q80 0 149.5 16t121 51.5t81 92.5t29.5 139 q0 95 -75.5 135.5t-221.5 40.5h-86z" />
<glyph unicode="&#x393;" horiz-adv-x="1207" d="M-81 0l11 48l202 32l257 1114l-187 32l11 48h1072l-69 -299l-58 -5l-29 214h-437l-255 -1104l233 -32l-11 -48h-740z" />
<glyph unicode="&#x394;" horiz-adv-x="1411" d="M-74 0l870 1274h192l239 -1274h-1301zM103 80h788l-175 967z" />
<glyph unicode="&#x395;" horiz-adv-x="1382" d="M-64 0l11 48l202 32l257 1114l-187 32l11 48h1202l-69 -299l-58 -5l-28 214h-568l-115 -498h325l94 153h46l-89 -388h-46l-24 153h-325l-91 -393q-9 -42 -10.5 -66.5t7 -37.5t27.5 -16.5t50 -3.5h483l156 242h60l-104 -329h-1217z" />
<glyph unicode="&#x396;" horiz-adv-x="1416" d="M-46 0l29 127l1044 1049h-612l-155 -253h-47l81 351h1113l-28 -118l-1045 -1058h683l182 311l45 -2l-93 -407h-1197z" />
<glyph unicode="&#x397;" horiz-adv-x="1772" d="M-61 0l10 47l203 33l257 1115l-187 31l11 48h696l-11 -48l-202 -32l-117 -508h608l117 508l-186 32l11 48h696l-11 -48l-203 -32l-255 -1114l187 -33l-10 -47h-698l10 47l202 33l121 524h-608l-121 -524l186 -33l-10 -47h-696z" />
<glyph unicode="&#x398;" horiz-adv-x="1675" d="M113 470q0 108 36 212t99 196t150 169.5t189 133t215.5 87t229.5 31.5q137 0 246 -38.5t185.5 -106t117 -160t40.5 -201.5q0 -115 -38 -221t-104.5 -198t-155.5 -167t-190.5 -128.5t-211.5 -82.5t-217 -29q-138 0 -247.5 38t-186 105.5t-117 159.5t-40.5 200zM446 434 q0 -89 19 -161t57 -122.5t94 -78t131 -27.5q94 0 171 37.5t137 99.5t103.5 142.5t72.5 167.5t42.5 173.5t13.5 159.5q0 88 -19.5 159.5t-58 122.5t-95 78.5t-131.5 27.5q-83 0 -155 -32.5t-131.5 -88.5t-106.5 -131.5t-79 -162t-48.5 -180t-16.5 -184.5zM572 371l124 536h48 l15 -155h270l87 155h48l-124 -536h-48l-15 154h-270l-87 -154h-48z" />
<glyph unicode="&#x399;" horiz-adv-x="791" d="M-79 0l11 48l206 51l253 1095l-189 32l11 48h698l-11 -48l-202 -32l-253 -1095l183 -51l-11 -48h-696z" />
<glyph unicode="&#x39a;" horiz-adv-x="1603" d="M-50 0l11 48l202 32l257 1114l-187 32l11 48h696l-11 -48l-202 -32l-116 -503l667 503l-179 32l11 48h527l-11 -48l-194 -32l-584 -416l471 -698l131 -32l-11 -48h-409l-427 656l-133 -576l187 -32l-11 -48h-696z" />
<glyph unicode="&#x39b;" horiz-adv-x="1540" d="M-131 0l12 48l201 32l816 1194h192l224 -1194l134 -32l-11 -48h-650l11 49l195 31l-175 967l-613 -967l220 -32l-11 -48h-545z" />
<glyph unicode="&#x39c;" horiz-adv-x="1954" d="M-66 0l11 48l174 32l360 1114l-184 32l11 48h451l200 -922l632 922h416l-11 -48l-163 -32l-197 -1114l164 -32l-11 -48h-680l11 48l213 32l172 937l-704 -1017h-59l-240 1029l-260 -949l164 -32l-11 -48h-459z" />
<glyph unicode="&#x39d;" horiz-adv-x="1561" d="M-88 0l11 48l195 32l292 1114l-184 32l11 50h394l596 -893l172 811l-199 32l11 48h489l-11 -48l-158 -32l-331 -1200h-69l-702 1010l-177 -924l160 -32l-11 -48h-489z" />
<glyph unicode="&#x39e;" horiz-adv-x="1148" d="M-60 0l90 391h48l15 -154h784l87 154h48l-90 -391h-982zM143 883l91 391h982l-91 -391h-48l-15 154h-784l-87 -154h-48zM272 401l110 476h48l22 -125h304l80 125h48l-110 -476h-48l-22 124h-304l-80 -124h-48z" />
<glyph unicode="&#x39f;" horiz-adv-x="1675" d="M113 470q0 116 36 222.5t99 198.5t150 167.5t189 129t215.5 82.5t229.5 29q137 0 246 -36.5t185.5 -103t117 -160t40.5 -206.5q0 -115 -38 -220.5t-104 -196.5t-155 -165t-191 -126.5t-211.5 -81t-216.5 -28.5q-138 0 -248 37t-186.5 102.5t-117 156.5t-40.5 199z M446 450q0 -190 76.5 -293.5t225.5 -103.5q94 0 171 36t137 96t103.5 138.5t72 163t42 170t13.5 158.5q0 88 -19.5 161t-58 125.5t-95 82t-131.5 29.5q-83 0 -155 -32.5t-131.5 -88t-106.5 -130t-79 -159.5t-48.5 -175.5t-16.5 -177.5z" />
<glyph unicode="&#x3a0;" horiz-adv-x="1735" d="M-94 0l10 47l203 33l257 1115l-187 31l11 48h1612l-11 -48l-203 -32l-255 -1114l187 -33l-10 -47h-698l10 47l202 33l257 1114h-608l-257 -1114l186 -33l-10 -47h-696z" />
<glyph unicode="&#x3a1;" horiz-adv-x="1488" d="M-18 0l11 48l202 32l257 1114l-187 32l11 48q7 0 37 1t74 2t99 3t111.5 3.5t111 3.5t98.5 3t73 2t35 1q133 0 229 -19t158 -53t91.5 -82t29.5 -105q0 -106 -36 -181t-95.5 -125t-136.5 -79.5t-158 -44.5t-160 -19t-144 -4h-37q-18 0 -36 1l-116 -502l185 -32l-11 -48 h-696zM636 652q21 -4 41 -5.5t40 -1.5q81 0 159 22t139.5 67t99 113.5t37.5 162.5q0 46 -16.5 84t-51 66t-88.5 43.5t-129 15.5q-23 0 -48.5 -1.5t-53.5 -5.5z" />
<glyph unicode="&#x3a3;" horiz-adv-x="1175" d="M-87 0l36 156l606 474l-349 526l28 118h1043l-81 -351h-47l-39 253h-542l269 -427l-616 -512h702l87 154h48l-90 -391h-1055z" />
<glyph unicode="&#x3a4;" horiz-adv-x="1491" d="M166 920l118 354h1258l-46 -354l-51 -2l-56 265h-343l-255 -1103l187 -32l-11 -48h-696l11 48l202 32l255 1103h-345l-179 -265z" />
<glyph unicode="&#x3a5;" horiz-adv-x="1434" d="M219 1226l11 48h676l-11 -48l-186 -32l160 -541l407 541l-184 32l11 48h474l-11 -48l-151 -32l-513 -610l-116 -504l190 -32l-11 -48h-698l11 48l201 31l110 478l-240 637z" />
<glyph unicode="&#x3a6;" horiz-adv-x="1877" d="M71 555q0 105 41 184.5t108.5 137.5t154 96t177.5 60t179.5 29.5t159.5 5.5l29 126l-189 32l11 48h698l-11 -48l-202 -32l-29 -126q61 0 131 -5t139.5 -19t133.5 -38t113 -61t78 -90t29 -124q0 -106 -41 -185t-108.5 -136t-153.5 -94t-177 -58t-179.5 -28.5t-159.5 -4.5 l-29 -126l183 -51l-11 -48h-696l11 48l206 51l29 126q-61 0 -131 4.5t-139.5 17.5t-133.5 36t-113 59.5t-78.5 88.5t-29.5 124zM381 550q0 -63 24 -108t68 -74.5t105.5 -45t135.5 -19.5l159 687q-99 -1 -188 -31t-156.5 -86.5t-107.5 -137.5t-40 -185zM1021 303q99 1 188 30 t156 83.5t106.5 135t39.5 184.5q0 63 -24 109.5t-67.5 77t-104.5 47t-135 20.5z" />
<glyph unicode="&#x3a7;" horiz-adv-x="1644" d="M-158 0l12 48l172 32l662 517l-337 597l-187 32l11 48h836l-11 -48l-260 -32l213 -383l452 383l-203 32l11 48h559l-11 -48l-183 -32l-585 -456l368 -658l184 -32l-11 -48h-779l11 48l217 32l-253 445l-529 -445l170 -32l-11 -48h-518z" />
<glyph unicode="&#x3a8;" horiz-adv-x="1828" d="M134 1226l11 48q30 4 55 6t48 2q71 0 129 -15.5t99 -44t63.5 -69.5t22.5 -93q0 -23 -6 -47l-48 -210q-8 -37 -13.5 -71t-5.5 -65q0 -41 11.5 -74t40 -58t77 -40t121.5 -18l165 717l-189 32l11 48h701l-11 -48l-205 -32l-165 -717q102 4 168.5 30.5t108.5 70t65.5 101 t38.5 124.5l48 210q14 62 54.5 112t98.5 85t129.5 53.5t149.5 18.5q23 0 47.5 -2t53.5 -6l-11 -48q-54 0 -89.5 -12t-59 -37.5t-38.5 -64.5t-28 -94l-43 -185q-19 -81 -69 -156t-135.5 -133.5t-210.5 -95t-294 -40.5l-72 -309l184 -51l-11 -48h-697l11 48l206 51l72 309 q-144 4 -244 31.5t-162.5 72.5t-90 104t-27.5 126q0 23 3 45.5t8 45.5l43 185q8 32 12 59t4 49q0 52 -30 76t-105 24z" />
<glyph unicode="&#x3a9;" horiz-adv-x="1659" d="M-64 0l33 391h48l26 -154h407l-57 61q-93 115 -138 232t-45 227q0 134 51 236.5t150 171.5t244 104.5t333 35.5q139 0 246 -20t180.5 -60.5t111.5 -103t38 -146.5q0 -74 -28 -155.5t-84 -168t-139.5 -176t-195.5 -177.5l-85 -61h407l98 154h48l-147 -391h-640l-6 44 l200 246q44 54 86.5 132t75.5 167t53.5 183t20.5 180q0 61 -12.5 116t-42 96t-77.5 65t-120 24q-87 0 -157.5 -36t-125 -96t-93.5 -138t-64.5 -163t-37.5 -170.5t-12 -160.5q0 -120 28 -199l88 -246l-26 -44h-640z" />
<glyph unicode="&#x3aa;" horiz-adv-x="791" d="M-79 0l11 48l206 51l253 1095l-189 32l11 48h698l-11 -48l-202 -32l-253 -1095l183 -51l-11 -48h-696zM221 1592q0 31 11.5 58.5t32 47.5t47.5 31.5t58 11.5t59 -12t48.5 -32t32.5 -47.5t12 -57.5q0 -31 -12 -58.5t-32.5 -48.5t-48.5 -33t-59 -12t-58 11.5t-47.5 32 t-32 48.5t-11.5 60zM656 1592q0 31 11.5 58.5t32 47.5t47.5 31.5t58 11.5t59 -12t48.5 -32t32.5 -47.5t12 -57.5q0 -31 -12 -58.5t-32.5 -48.5t-48.5 -33t-59 -12t-58 11.5t-47.5 32t-32 48.5t-11.5 60z" />
<glyph unicode="&#x3ab;" horiz-adv-x="1434" d="M219 1226l11 48h676l-11 -48l-186 -32l160 -541l407 541l-184 32l11 48h474l-11 -48l-151 -32l-513 -610l-116 -504l190 -32l-11 -48h-698l11 48l201 31l110 478l-240 637zM634 1592q0 31 11.5 58.5t32 47.5t47.5 31.5t58 11.5t59 -12t48.5 -32t32.5 -47.5t12 -57.5 q0 -31 -12 -58.5t-32.5 -48.5t-48.5 -33t-59 -12t-58 11.5t-47.5 32t-32 48.5t-11.5 60zM1069 1592q0 31 11.5 58.5t32 47.5t47.5 31.5t58 11.5t59 -12t48.5 -32t32.5 -47.5t12 -57.5q0 -31 -12 -58.5t-32.5 -48.5t-48.5 -33t-59 -12t-58 11.5t-47.5 32t-32 48.5t-11.5 60z " />
<glyph unicode="&#x3ac;" horiz-adv-x="1037" d="M42 305q0 35 11.5 88t36 111.5t62.5 116.5t90.5 104.5t120.5 75.5t153 29q39 0 70 -12t54.5 -33.5t40 -51t26.5 -63.5l62 141h232l-272 -566q2 -60 18 -89.5t39 -29.5q20 0 43.5 23.5t43.5 71.5l56 -17l-11 -50q-5 -22 -16.5 -51.5t-31 -56.5t-47.5 -46t-65 -19 q-35 0 -56 15t-32 39.5t-15 55t-6 61.5q-27 -37 -57.5 -69t-68.5 -56t-84.5 -37.5t-106.5 -13.5q-74 0 -128.5 28.5t-90.5 74.5t-53.5 105t-17.5 121zM259 223q0 -39 5 -74t16 -60.5t30 -40.5t47 -15q22 0 48.5 25.5t54 66t54.5 91t50.5 101t42.5 96.5t29 76q-1 55 -8 106 t-22 89t-37.5 61t-55.5 23q-41 0 -76 -29.5t-63 -77t-49.5 -107.5t-36 -120.5t-22 -116t-7.5 -94.5zM569 1018q0 7 6 15l200 272q12 16 25.5 20t39.5 4h184q24 0 35 -7.5t11 -17.5q0 -6 -5 -13.5t-19 -16.5l-412 -261q-20 -12 -37 -12q-16 0 -22 5t-6 12z" />
<glyph unicode="&#x3ad;" horiz-adv-x="787" d="M23 157q0 113 81 175t230 88q-49 14 -87 30t-63.5 35.5t-39 44t-13.5 56.5q0 62 31 108.5t84 77.5t123 46.5t149 15.5q78 0 132.5 -18.5t89.5 -50.5l-108 -163q-7 32 -22.5 58.5t-36.5 46t-45.5 30.5t-49.5 11q-33 0 -58.5 -17t-43 -44t-27 -59.5t-9.5 -62.5 q0 -42 24 -69.5t78 -29.5q22 14 41 19.5t33 5.5q32 0 46 -15.5t14 -35.5q0 -13 -6 -26t-16.5 -23t-25 -16t-32.5 -6q-19 0 -37.5 5.5t-40.5 13.5q-31 0 -59.5 -21t-50 -54.5t-34.5 -75.5t-13 -84q0 -27 7.5 -43.5t21 -26t32 -13t39.5 -3.5q25 0 54.5 9.5t59.5 28.5t58 47 t51 65l68 -69q-62 -88 -146.5 -130.5t-177.5 -42.5q-69 0 -125 10t-96 32t-62 56.5t-22 83.5zM375 1018q0 7 6 15l200 272q12 16 25.5 20t39.5 4h184q24 0 35 -7.5t11 -17.5q0 -6 -5 -13.5t-19 -16.5l-412 -261q-20 -12 -37 -12q-16 0 -22 5t-6 12z" />
<glyph unicode="&#x3ae;" horiz-adv-x="1119" d="M16 586q26 127 97 185.5t170 58.5q57 0 103 -24t69 -74q45 23 86.5 41.5t83 31t85.5 19t94 6.5q88 0 134 -44.5t46 -127.5q0 -17 -1 -34.5t-5 -36.5l-223 -1064h-247l200 956q7 35 10 64t3 52q0 68 -24 95t-62 27q-40 0 -88.5 -21.5t-103.5 -53.5l-133 -642h-247l118 574 q3 14 5 29.5t2 29.5q0 23 -7 39.5t-26 16.5q-11 0 -22.5 -4.5t-23 -15.5t-23.5 -31.5t-23 -51.5h-47zM499 1018q0 7 6 15l200 272q12 16 25.5 20t39.5 4h184q24 0 35 -7.5t11 -17.5q0 -6 -5 -13.5t-19 -16.5l-412 -261q-20 -12 -37 -12q-16 0 -22 5t-6 12z" />
<glyph unicode="&#x3af;" horiz-adv-x="596" d="M46 49q0 9 1 19t4 21l152 649h-123v55l386 38l-149 -639q-7 -28 -7 -50q0 -33 22 -33q10 0 26.5 12.5t36 31t40.5 40t39 40.5l38 -34q-45 -50 -89.5 -91t-91.5 -70.5t-97.5 -46t-105.5 -16.5q-39 0 -60.5 18t-21.5 56zM215 1018q0 7 6 15l200 272q12 16 25.5 20t39.5 4 h184q24 0 35 -7.5t11 -17.5q0 -6 -5 -13.5t-19 -16.5l-412 -261q-20 -12 -37 -12q-16 0 -22 5t-6 12z" />
<glyph unicode="&#x3b0;" horiz-adv-x="953" d="M36 586q26 127 96.5 185.5t170.5 58.5q46 0 74.5 -11.5t44.5 -30t21.5 -41.5t5.5 -47q-1 -20 -3 -37.5t-4 -29.5l-72 -339q-10 -49 -15.5 -88t-5.5 -69q0 -45 17 -68t60 -23q61 0 111.5 38t86.5 94.5t55.5 121t19.5 117.5q0 52 -15 84.5t-33.5 58t-33.5 51t-15 64.5 q0 16 4.5 42t20.5 51t47 43.5t85 18.5q32 0 53 -11.5t33 -31.5t17 -47t5 -58q0 -81 -16.5 -165t-47 -162.5t-73.5 -147.5t-95.5 -120.5t-113 -81t-126.5 -29.5q-75 0 -125.5 15.5t-81 43.5t-43.5 67t-13 87q0 27 3 56.5t10 61.5l56 267q6 28 6 59q0 23 -6.5 39.5t-25.5 16.5 q-11 0 -22.5 -4.5t-23 -15.5t-23.5 -31.5t-23 -51.5h-47zM186 1129q0 31 11.5 58.5t32 47.5t47.5 31.5t58 11.5t59 -12t48.5 -32t32.5 -47.5t12 -57.5q0 -31 -12 -58.5t-32.5 -48.5t-48.5 -33t-59 -12t-58 11.5t-47.5 32t-32 48.5t-11.5 60zM621 1129q0 31 11.5 58.5 t32 47.5t47.5 31.5t58 11.5t59 -12t48.5 -32t32.5 -47.5t12 -57.5q0 -31 -12 -58.5t-32.5 -48.5t-48.5 -33t-59 -12t-58 11.5t-47.5 32t-32 48.5t-11.5 60zM519 1361q0 7 6 15l200 272q12 16 25.5 20t39.5 4h184q24 0 35 -7.5t11 -17.5q0 -6 -5 -13.5t-19 -16.5l-412 -261 q-20 -12 -37 -12q-16 0 -22 5t-6 12z" />
<glyph unicode="&#x3b1;" horiz-adv-x="1037" d="M42 305q0 35 11.5 88t36 111.5t62.5 116.5t90.5 104.5t120.5 75.5t153 29q39 0 70 -12t54.5 -33.5t40 -51t26.5 -63.5l62 141h232l-272 -566q2 -60 18 -89.5t39 -29.5q20 0 43.5 23.5t43.5 71.5l56 -17l-11 -50q-5 -22 -16.5 -51.5t-31 -56.5t-47.5 -46t-65 -19 q-35 0 -56 15t-32 39.5t-15 55t-6 61.5q-27 -37 -57.5 -69t-68.5 -56t-84.5 -37.5t-106.5 -13.5q-74 0 -128.5 28.5t-90.5 74.5t-53.5 105t-17.5 121zM259 223q0 -39 5 -74t16 -60.5t30 -40.5t47 -15q22 0 48.5 25.5t54 66t54.5 91t50.5 101t42.5 96.5t29 76q-1 55 -8 106 t-22 89t-37.5 61t-55.5 23q-41 0 -76 -29.5t-63 -77t-49.5 -107.5t-36 -120.5t-22 -116t-7.5 -94.5z" />
<glyph unicode="&#x3b2;" horiz-adv-x="989" d="M-134 -455l279 1337q28 133 73.5 227t106 153t135.5 86.5t162 27.5q81 0 141 -19.5t99.5 -52.5t59 -77t19.5 -93t-19 -100t-56.5 -98.5t-92.5 -87.5t-127 -68q59 -18 102 -50t71 -74t41.5 -91.5t13.5 -102.5q0 -57 -15 -114.5t-43.5 -111.5t-70 -101t-94.5 -82.5 t-117.5 -55.5t-138.5 -20q-42 0 -72.5 10.5t-52 27.5t-36 39t-23.5 46l-116 -555h-229zM238 232q0 -42 14.5 -72.5t37 -51t50 -30.5t53.5 -10q35 0 69 21.5t64.5 58t56.5 84.5t45 100.5t30 106t11 101.5q0 50 -13 89t-41 61q-38 -17 -67 -23.5t-52 -6.5q-41 0 -59.5 19.5 t-18.5 46.5q0 20 9 40.5t25 37.5t39 28t50 11q36 0 75 -20q21 29 40.5 69.5t33.5 85.5t22.5 92t8.5 89q0 33 -6 62t-19.5 50.5t-35 34t-52.5 12.5q-42 0 -76.5 -32t-62.5 -88t-50 -131t-40 -161l-136 -623q-4 -14 -4.5 -26.5t-0.5 -24.5z" />
<glyph unicode="&#x3b3;" horiz-adv-x="946" d="M31 473q13 53 35 115.5t56 116t81.5 89.5t112.5 36q43 0 72 -28t45.5 -77.5t23.5 -118t7 -149.5t-4.5 -171.5t-12.5 -187.5q73 102 119.5 196t77 175.5t51.5 148t42.5 113.5t50 73t75.5 26q65 0 90 -23.5t25 -54.5q0 -53 -27 -106t-71 -109.5t-101 -116t-116 -125 t-116.5 -136.5t-103.5 -151q-1 -14 -1 -28v-25q0 -49 2.5 -86.5t2.5 -70.5q0 -68 -19.5 -119.5t-48 -86t-61 -52t-59.5 -17.5q-35 0 -58 25t-23 76q0 54 19.5 105t49.5 99t65.5 92t67.5 83q2 21 2 42v41q0 102 -12 193t-33.5 159.5t-51 108.5t-63.5 40q-28 0 -59.5 -27 t-63.5 -89z" />
<glyph unicode="&#x3b4;" horiz-adv-x="965" d="M31 307q0 99 37.5 193t103 168t154.5 119t192 45q-59 34 -99 74t-64.5 80.5t-35 80t-10.5 72.5q0 60 23.5 102.5t61 70.5t84 41t92.5 13q49 0 98 -12.5t91 -35.5t74.5 -55.5t47.5 -73.5l-128 -136q-17 42 -41 83t-51 73t-55.5 52t-55.5 20q-33 0 -52.5 -15t-29.5 -33 t-12.5 -34.5t-2.5 -19.5q0 -39 31.5 -78.5t79.5 -83t103 -92.5t103 -107t79.5 -127t31.5 -152q0 -64 -19.5 -130.5t-54.5 -129.5t-84 -118t-108 -96.5t-126 -65.5t-138 -24q-65 0 -123 21.5t-102 63.5t-69.5 104t-25.5 143zM271 229q0 -40 6 -73.5t18 -58t30.5 -38 t44.5 -13.5q57 0 103.5 45.5t80 117.5t52 161t18.5 176q0 79 -18.5 139t-57.5 83q-40 -2 -76 -27.5t-66.5 -67t-55.5 -95.5t-42.5 -113t-27 -120t-9.5 -116z" />
<glyph unicode="&#x3b5;" horiz-adv-x="787" d="M23 157q0 113 81 175t230 88q-49 14 -87 30t-63.5 35.5t-39 44t-13.5 56.5q0 62 31 108.5t84 77.5t123 46.5t149 15.5q78 0 132.5 -18.5t89.5 -50.5l-108 -163q-7 32 -22.5 58.5t-36.5 46t-45.5 30.5t-49.5 11q-33 0 -58.5 -17t-43 -44t-27 -59.5t-9.5 -62.5 q0 -42 24 -69.5t78 -29.5q22 14 41 19.5t33 5.5q32 0 46 -15.5t14 -35.5q0 -13 -6 -26t-16.5 -23t-25 -16t-32.5 -6q-19 0 -37.5 5.5t-40.5 13.5q-31 0 -59.5 -21t-50 -54.5t-34.5 -75.5t-13 -84q0 -27 7.5 -43.5t21 -26t32 -13t39.5 -3.5q25 0 54.5 9.5t59.5 28.5t58 47 t51 65l68 -69q-62 -88 -146.5 -130.5t-177.5 -42.5q-69 0 -125 10t-96 32t-62 56.5t-22 83.5z" />
<glyph unicode="&#x3b6;" horiz-adv-x="858" d="M-56 -274l190 200q12 -30 36 -60.5t55 -55t67 -40t71 -15.5q28 0 57.5 12t54.5 32.5t41 47t16 56.5q0 25 -21.5 41.5t-52 27t-64 16.5t-58.5 9q-55 7 -113 21t-105.5 44.5t-78 84t-30.5 139.5q0 91 37 185t98.5 187.5t141 184t163.5 174.5q-43 9 -87.5 20t-80.5 27.5 t-59 39.5t-23 55q0 44 33.5 78.5t88 58.5t125 38t144.5 18l5 -61q-26 -5 -52.5 -13t-48.5 -21.5t-36 -34t-14 -48.5q0 -15 7 -27t17.5 -21.5t21.5 -16.5t20 -13q20 19 51 47t66.5 53t72.5 43t69 18q58 0 82 -21.5t24 -50.5q0 -35 -25.5 -67.5t-72.5 -58t-114.5 -41 t-152.5 -15.5q-72 -63 -135 -144t-110 -163t-74 -157.5t-27 -127.5q0 -45 21.5 -71.5t56.5 -42.5t80 -25t92 -17t92 -19.5t80 -33t56.5 -56.5t21.5 -91q0 -97 -42 -176t-109.5 -134.5t-151.5 -85.5t-167 -30q-78 0 -144 24.5t-106 72.5z" />
<glyph unicode="&#x3b7;" horiz-adv-x="1119" d="M16 586q26 127 97 185.5t170 58.5q57 0 103 -24t69 -74q45 23 86.5 41.5t83 31t85.5 19t94 6.5q88 0 134 -44.5t46 -127.5q0 -17 -1 -34.5t-5 -36.5l-223 -1064h-247l200 956q7 35 10 64t3 52q0 68 -24 95t-62 27q-40 0 -88.5 -21.5t-103.5 -53.5l-133 -642h-247l118 574 q3 14 5 29.5t2 29.5q0 23 -7 39.5t-26 16.5q-11 0 -22.5 -4.5t-23 -15.5t-23.5 -31.5t-23 -51.5h-47z" />
<glyph unicode="&#x3b8;" horiz-adv-x="997" d="M55 379q0 63 8 137t27 164q32 153 79.5 263.5t100.5 186.5t108.5 122t104 70.5t86 32.5t55.5 8q14 0 40.5 -5t57.5 -20.5t63.5 -44t59 -74.5t43 -112t16.5 -157q0 -55 -7 -119.5t-22 -140.5q-36 -169 -84.5 -288t-102.5 -198.5t-109.5 -125t-103.5 -68.5t-85 -29t-55 -6 q-14 0 -40.5 3.5t-57.5 17t-63.5 39t-59 70.5t-43 112t-16.5 162zM263 182q0 -70 18 -109.5t63 -39.5q37 0 66.5 22t54 62t44.5 96t38.5 124.5t36.5 147.5t38 165h-289q-29 -143 -49.5 -263t-20.5 -205zM350 740h290q23 125 38.5 229t15.5 180q0 73 -18 114t-63 41 q-44 0 -81 -44t-68.5 -120.5t-59.5 -179.5t-54 -220z" />
<glyph unicode="&#x3b9;" horiz-adv-x="668" d="M46 49q0 9 1 19t4 21l169 722h242l-145 -619q-7 -28 -7 -50q0 -33 22 -33q10 0 26.5 12.5t36 31t40.5 40t39 40.5l38 -34q-45 -50 -89.5 -91t-91.5 -70.5t-97.5 -46t-105.5 -16.5q-39 0 -60.5 18t-21.5 56z" />
</font>
</defs>
</svg>
